<svg id="svg" version="1.1" xmlns="http://www.w3.org/2000/svg" xmlns:xlink="http://www.w3.org/1999/xlink" width="400" height="400" viewBox="0, 0, 400,400"><g id="svgg"><path id="path0" d="M188.600 90.867 C 183.560 91.424,174.523 93.151,170.800 94.269 C 165.188 95.954,161.500 97.205,159.650 98.051 C 158.688 98.491,157.068 99.185,156.050 99.593 C 138.890 106.475,120.082 122.427,108.520 139.907 C 98.885 154.472,93.181 170.609,90.814 190.000 C 90.318 194.061,90.318 295.357,90.814 293.200 C 90.991 292.430,91.413 290.360,91.752 288.600 C 92.092 286.840,92.665 284.320,93.028 283.000 C 93.390 281.680,93.826 280.060,93.997 279.400 C 94.409 277.810,96.741 270.815,97.197 269.800 C 97.395 269.360,97.943 268.100,98.415 267.000 C 109.781 240.537,129.718 220.587,157.000 208.380 C 160.587 206.775,171.213 203.302,174.400 202.694 C 174.950 202.589,177.200 202.139,179.400 201.694 C 193.176 198.908,212.706 199.305,225.600 202.633 C 227.729 203.183,233.538 204.924,236.400 205.871 C 239.078 206.757,240.025 207.119,243.000 208.398 C 269.620 219.840,290.282 240.584,301.769 267.400 C 302.146 268.280,302.613 269.360,302.808 269.800 C 303.323 270.962,305.573 277.833,306.280 280.400 C 307.363 284.333,307.608 285.353,308.248 288.600 C 308.595 290.360,309.020 292.430,309.193 293.200 C 309.823 296.000,309.644 193.901,309.010 188.600 C 308.275 182.456,306.239 172.110,305.258 169.533 C 305.062 169.020,304.684 167.880,304.417 167.000 C 298.467 147.394,286.051 129.334,268.200 114.319 C 261.027 108.286,250.824 102.367,239.400 97.613 C 225.793 91.950,204.448 89.116,188.600 90.867 " stroke="none" fill="#fbfaf7" fill-rule="evenodd"></path><path id="path1" d="M0.000 200.000 L 0.000 400.000 200.000 400.000 L 400.000 400.000 400.000 200.000 L 400.000 0.000 200.000 0.000 L 0.000 0.000 0.000 200.000 M216.931 89.464 C 219.328 89.690,219.638 89.812,219.468 90.461 C 219.299 91.108,219.530 91.201,221.337 91.208 C 224.474 91.220,228.883 91.952,229.579 92.576 C 229.921 92.882,230.920 93.253,231.800 93.400 C 234.088 93.782,236.000 94.410,236.000 94.779 C 236.000 94.953,236.848 95.192,237.884 95.308 C 239.133 95.449,239.998 95.804,240.448 96.360 C 240.879 96.892,241.591 97.200,242.390 97.200 C 243.905 97.200,245.200 97.828,245.200 98.562 C 245.200 98.895,246.098 99.273,247.589 99.566 C 248.904 99.825,250.243 100.300,250.566 100.623 C 250.889 100.946,251.710 101.322,252.391 101.458 C 253.072 101.594,253.795 102.017,253.999 102.398 C 254.203 102.779,254.916 103.317,255.585 103.594 C 256.253 103.871,256.800 104.328,256.800 104.611 C 256.800 104.919,257.104 105.045,257.559 104.927 C 258.615 104.650,260.000 105.477,260.000 106.383 C 260.000 106.891,260.458 107.289,261.400 107.600 C 262.170 107.854,262.800 108.307,262.800 108.607 C 262.800 108.948,263.362 109.198,264.300 109.276 C 265.396 109.367,265.905 109.639,266.190 110.289 C 266.405 110.778,267.063 111.377,267.653 111.622 C 268.242 111.866,269.734 112.996,270.967 114.133 C 272.200 115.270,273.431 116.258,273.704 116.330 C 274.327 116.493,276.000 118.035,276.000 118.447 C 276.000 118.875,280.991 124.000,281.408 124.000 C 281.930 124.000,283.600 125.680,283.600 126.205 C 283.600 126.460,284.322 127.428,285.204 128.356 C 286.086 129.283,287.316 130.932,287.938 132.020 C 288.559 133.109,289.173 133.894,289.302 133.765 C 289.636 133.431,290.832 135.367,290.907 136.364 C 290.942 136.824,291.115 137.200,291.292 137.200 C 291.468 137.200,291.913 137.830,292.281 138.600 C 292.648 139.370,293.163 140.000,293.425 140.000 C 294.140 140.000,294.788 140.949,294.887 142.140 C 294.935 142.723,295.208 143.200,295.494 143.200 C 295.779 143.200,296.313 143.830,296.681 144.600 C 297.048 145.370,297.495 146.000,297.674 146.000 C 297.853 146.000,298.000 146.228,298.000 146.506 C 298.000 146.784,298.542 148.124,299.205 149.482 C 299.868 150.841,300.520 152.501,300.654 153.170 C 300.788 153.839,301.036 154.301,301.205 154.197 C 301.775 153.844,302.800 155.960,302.800 157.490 C 302.800 158.562,303.029 159.151,303.580 159.495 C 304.021 159.770,304.472 160.639,304.617 161.491 C 304.758 162.321,305.338 163.990,305.907 165.200 C 306.476 166.410,307.091 167.760,307.273 168.200 C 307.579 168.940,308.103 173.013,308.674 179.090 C 308.803 180.460,309.055 181.490,309.234 181.379 C 309.935 180.946,310.409 182.935,310.591 187.074 C 311.017 196.783,310.856 288.644,310.403 294.000 C 309.773 301.460,309.786 301.405,308.767 300.455 C 307.801 299.555,307.220 296.160,307.208 291.347 C 307.201 288.526,307.102 288.068,306.463 287.900 C 305.700 287.701,305.200 284.964,305.200 280.990 C 305.200 279.701,304.995 279.161,304.338 278.725 C 303.642 278.263,303.431 277.619,303.238 275.377 C 303.036 273.017,302.894 272.618,302.295 272.719 C 301.495 272.853,301.278 272.425,301.080 270.326 C 301.003 269.515,300.752 268.615,300.523 268.326 C 300.293 268.037,299.883 266.854,299.612 265.699 C 299.341 264.543,298.955 263.496,298.754 263.371 C 298.553 263.247,298.136 262.543,297.829 261.808 C 297.522 261.072,296.894 260.094,296.435 259.635 C 295.976 259.176,295.600 258.455,295.600 258.033 C 295.600 256.903,295.179 256.000,294.652 256.000 C 294.397 256.000,293.873 255.325,293.487 254.500 C 292.511 252.415,291.279 250.409,290.154 249.072 C 289.629 248.449,289.200 247.777,289.200 247.580 C 289.200 247.210,287.570 245.622,285.329 243.807 C 284.631 243.241,283.950 242.288,283.816 241.689 C 283.682 241.090,282.884 239.918,282.041 239.083 C 281.198 238.249,280.179 236.955,279.776 236.207 C 279.373 235.459,278.641 234.746,278.148 234.623 C 277.656 234.499,277.139 234.039,277.000 233.599 C 276.860 233.160,276.581 232.800,276.380 232.800 C 275.752 232.800,273.200 230.099,273.200 229.433 C 273.200 229.085,273.018 228.800,272.796 228.800 C 271.732 228.800,268.633 226.945,268.025 225.944 C 267.648 225.326,266.634 224.350,265.770 223.775 C 264.907 223.200,263.750 222.289,263.200 221.750 C 261.795 220.374,255.608 216.416,254.402 216.122 C 253.491 215.901,252.102 214.988,250.341 213.455 C 249.978 213.140,249.123 212.759,248.441 212.609 C 247.759 212.459,246.976 212.017,246.700 211.627 C 246.405 211.209,245.401 210.798,244.254 210.627 C 242.862 210.420,242.255 210.130,242.118 209.609 C 241.933 208.902,241.135 208.620,238.000 208.154 C 237.230 208.040,236.060 207.695,235.400 207.387 C 234.740 207.080,233.174 206.550,231.920 206.209 C 230.667 205.868,229.531 205.412,229.397 205.195 C 229.263 204.978,228.165 204.800,226.957 204.800 C 225.170 204.800,224.598 204.625,223.881 203.861 C 223.064 202.990,222.587 202.903,217.322 202.656 C 209.973 202.312,208.000 202.035,208.000 201.346 C 208.000 200.903,206.490 200.800,200.000 200.800 C 194.033 200.800,192.025 200.921,192.100 201.275 C 192.242 201.950,189.911 202.295,183.000 202.623 C 177.900 202.865,176.893 203.020,176.284 203.654 C 175.891 204.064,175.148 204.400,174.635 204.400 C 174.121 204.400,172.913 204.687,171.950 205.039 C 170.988 205.390,169.160 205.929,167.889 206.237 C 166.618 206.544,165.178 207.056,164.689 207.375 C 163.809 207.948,163.113 208.124,159.737 208.630 C 157.852 208.913,157.654 209.197,158.648 210.190 C 159.004 210.547,159.174 210.959,159.026 211.107 C 158.878 211.256,158.608 211.137,158.427 210.844 C 157.896 209.984,154.169 210.668,152.996 211.841 C 152.468 212.368,151.751 212.800,151.402 212.800 C 150.798 212.800,149.140 213.813,147.400 215.244 C 146.960 215.605,145.885 216.131,145.011 216.411 C 143.512 216.892,138.596 220.145,137.128 221.628 C 136.758 222.001,135.546 222.896,134.435 223.616 C 133.323 224.336,132.319 225.225,132.203 225.591 C 131.924 226.468,130.163 227.745,128.302 228.418 C 127.478 228.716,126.709 229.258,126.593 229.623 C 126.352 230.382,121.721 234.800,121.166 234.800 C 120.965 234.800,120.800 235.006,120.800 235.259 C 120.800 235.791,118.143 239.163,117.142 239.900 C 116.769 240.176,116.346 240.936,116.202 241.590 C 115.967 242.661,113.991 244.800,113.237 244.800 C 113.071 244.800,112.694 245.250,112.400 245.800 C 112.106 246.350,111.645 246.800,111.376 246.800 C 111.107 246.800,110.775 247.247,110.638 247.793 C 110.501 248.339,109.881 249.374,109.262 250.093 C 108.642 250.812,108.020 251.715,107.880 252.100 C 107.740 252.485,107.439 252.800,107.213 252.800 C 106.986 252.800,106.800 253.172,106.800 253.626 C 106.800 254.785,106.080 256.000,105.394 256.000 C 105.075 256.000,104.709 256.495,104.580 257.100 C 104.207 258.842,103.625 260.063,103.271 259.844 C 103.092 259.733,102.710 260.308,102.423 261.121 C 102.136 261.935,101.669 262.870,101.386 263.200 C 101.102 263.530,100.594 264.863,100.256 266.163 C 99.919 267.463,99.498 268.633,99.320 268.763 C 99.142 268.893,98.934 269.540,98.858 270.200 C 98.677 271.762,98.108 272.800,97.433 272.800 C 97.052 272.800,96.844 273.575,96.725 275.439 C 96.591 277.540,96.383 278.213,95.702 278.739 C 94.966 279.308,94.812 279.956,94.598 283.400 C 94.391 286.726,94.218 287.493,93.574 287.949 C 92.909 288.420,92.800 288.992,92.800 291.994 C 92.800 296.421,92.214 299.541,91.206 300.481 C 90.206 301.412,90.239 301.568,89.522 292.600 C 88.898 284.806,89.109 183.198,89.752 181.877 C 89.945 181.479,90.327 181.240,90.600 181.345 C 90.952 181.480,91.168 180.757,91.340 178.868 C 92.028 171.299,92.580 168.678,94.300 164.800 C 94.739 163.810,95.312 162.225,95.572 161.279 C 95.832 160.332,96.305 159.458,96.622 159.336 C 96.991 159.195,97.200 158.543,97.200 157.539 C 97.200 156.415,97.472 155.692,98.148 155.015 C 98.670 154.494,99.221 153.570,99.374 152.962 C 99.526 152.355,100.180 150.727,100.825 149.345 C 101.471 147.964,102.000 146.676,102.000 146.483 C 102.000 146.291,102.710 145.364,103.578 144.424 C 104.445 143.485,105.210 142.240,105.278 141.658 C 105.350 141.036,105.756 140.444,106.264 140.221 C 106.739 140.012,107.411 139.247,107.757 138.521 C 108.104 137.794,108.570 137.200,108.794 137.200 C 109.017 137.200,109.200 136.966,109.200 136.680 C 109.200 135.826,110.168 134.006,110.623 134.003 C 110.856 134.001,111.354 133.301,111.731 132.446 C 112.108 131.592,113.254 130.017,114.277 128.946 C 115.300 127.876,116.421 126.463,116.768 125.806 C 117.116 125.149,117.794 124.417,118.276 124.181 C 119.246 123.704,124.000 118.946,124.000 118.452 C 124.000 118.037,125.669 116.494,126.296 116.330 C 126.569 116.258,127.811 115.260,129.057 114.111 C 130.303 112.962,131.927 111.822,132.665 111.579 C 133.403 111.335,133.913 110.982,133.797 110.795 C 133.493 110.304,135.218 109.200,136.289 109.200 C 136.790 109.200,137.200 109.016,137.200 108.791 C 137.200 108.567,137.663 108.172,138.230 107.914 C 138.796 107.655,139.524 106.933,139.847 106.309 C 140.223 105.582,140.863 105.087,141.626 104.935 C 142.281 104.804,142.915 104.537,143.036 104.342 C 143.156 104.147,143.872 103.730,144.627 103.414 C 145.382 103.099,146.000 102.666,146.000 102.451 C 146.000 102.237,146.670 101.841,147.489 101.571 C 148.308 101.300,149.213 100.845,149.499 100.558 C 149.786 100.271,151.096 99.825,152.411 99.566 C 153.753 99.302,154.800 98.884,154.800 98.612 C 154.800 97.985,156.536 97.200,157.923 97.200 C 158.568 97.200,159.206 96.882,159.498 96.415 C 159.830 95.884,160.631 95.544,161.970 95.366 C 163.060 95.222,164.039 94.876,164.145 94.598 C 164.252 94.320,165.568 93.879,167.070 93.617 C 168.571 93.356,170.079 92.890,170.421 92.581 C 171.115 91.953,175.513 91.220,178.656 91.208 C 180.365 91.201,180.702 91.082,180.656 90.500 C 180.613 89.960,181.012 89.745,182.400 89.560 C 184.895 89.228,213.582 89.147,216.931 89.464 " stroke="none" fill="#fb4c04" fill-rule="evenodd"></path><path id="path2" d="M188.400 90.059 C 187.190 90.260,184.940 90.581,183.400 90.774 C 180.338 91.156,173.191 92.613,171.600 93.180 C 171.050 93.376,169.520 93.838,168.200 94.208 C 166.880 94.578,165.440 95.023,165.000 95.198 C 164.560 95.372,163.300 95.818,162.200 96.189 C 159.812 96.993,158.586 97.482,157.068 98.237 C 156.445 98.547,155.695 98.800,155.401 98.800 C 155.107 98.800,154.807 98.935,154.733 99.100 C 154.660 99.265,153.880 99.739,153.000 100.154 C 150.501 101.332,147.515 102.874,146.200 103.667 C 145.540 104.065,144.627 104.556,144.171 104.758 C 143.022 105.268,136.912 109.255,135.140 110.650 C 134.337 111.283,133.180 112.160,132.570 112.600 C 131.960 113.040,131.177 113.676,130.830 114.013 C 130.484 114.350,129.390 115.274,128.400 116.067 C 120.952 122.033,110.003 135.021,104.953 143.881 C 103.308 146.767,98.800 155.687,98.800 156.056 C 98.800 156.233,98.367 157.328,97.837 158.489 C 97.307 159.650,96.568 161.500,96.195 162.600 C 95.821 163.700,95.374 164.960,95.202 165.400 C 95.029 165.840,94.582 167.370,94.207 168.800 C 93.832 170.230,93.392 171.670,93.229 172.000 C 93.066 172.330,92.620 174.220,92.238 176.200 C 91.857 178.180,91.391 180.430,91.205 181.200 C 89.892 186.619,89.800 190.803,89.800 245.000 C 89.800 274.700,89.944 299.516,90.119 300.147 C 90.611 301.913,90.976 301.051,91.252 297.468 C 91.547 293.625,92.335 288.890,92.842 287.905 C 93.039 287.523,93.199 286.713,93.198 286.105 C 93.197 285.497,93.455 284.190,93.770 283.200 C 94.086 282.210,94.564 280.590,94.832 279.600 C 95.490 277.171,97.159 272.122,97.873 270.400 C 98.193 269.630,98.603 268.640,98.785 268.200 C 99.490 266.497,104.542 256.189,104.765 256.000 C 104.894 255.890,105.342 255.170,105.760 254.400 C 107.668 250.885,113.287 242.914,115.798 240.159 C 116.019 239.917,116.856 238.927,117.658 237.959 C 119.016 236.321,124.254 231.080,127.000 228.612 C 127.660 228.018,128.920 226.873,129.800 226.066 C 131.242 224.745,132.984 223.396,137.200 220.337 C 139.110 218.951,148.333 213.200,148.646 213.200 C 148.784 213.200,150.810 212.282,153.149 211.160 C 155.487 210.038,157.760 208.980,158.200 208.808 C 158.640 208.636,159.810 208.183,160.800 207.800 C 161.790 207.417,162.960 206.951,163.400 206.763 C 165.158 206.013,167.845 205.211,168.620 205.206 C 169.071 205.203,169.611 205.048,169.820 204.863 C 170.157 204.564,171.777 204.117,177.400 202.769 C 187.793 200.277,207.888 199.985,219.200 202.162 C 220.850 202.479,222.830 202.854,223.600 202.994 C 225.677 203.373,229.301 204.393,230.095 204.823 C 230.477 205.031,231.073 205.200,231.419 205.200 C 232.163 205.200,236.023 206.396,236.600 206.806 C 236.820 206.962,237.515 207.213,238.144 207.364 C 244.042 208.775,262.930 219.561,269.029 225.000 C 269.275 225.220,270.630 226.414,272.039 227.653 C 274.066 229.436,279.329 234.653,282.222 237.748 C 285.430 241.179,291.948 250.215,294.235 254.400 C 294.656 255.170,295.090 255.890,295.200 256.000 C 295.310 256.110,295.892 257.157,296.493 258.326 C 297.094 259.495,297.837 260.935,298.146 261.526 C 299.042 263.244,300.708 266.966,302.387 271.000 C 302.876 272.175,304.604 277.520,305.168 279.600 C 305.436 280.590,305.914 282.210,306.230 283.200 C 306.545 284.190,306.803 285.555,306.802 286.233 C 306.801 286.912,306.935 287.601,307.100 287.765 C 307.515 288.177,308.391 293.224,308.633 296.600 C 308.938 300.848,309.143 301.592,309.731 300.594 C 310.081 300.001,310.234 286.334,310.336 246.600 C 310.477 191.497,310.360 186.600,308.773 181.372 C 308.568 180.696,308.400 179.762,308.400 179.297 C 308.400 176.848,304.576 163.883,302.413 159.000 C 302.023 158.120,301.569 156.964,301.404 156.432 C 301.126 155.538,297.280 147.927,295.224 144.200 C 294.391 142.691,290.035 136.032,289.598 135.600 C 289.486 135.490,288.866 134.680,288.220 133.800 C 284.167 128.284,274.896 118.407,271.200 115.668 C 270.430 115.097,269.516 114.353,269.170 114.015 C 268.823 113.677,268.040 113.040,267.429 112.600 C 266.818 112.160,265.481 111.154,264.459 110.365 C 263.436 109.576,262.015 108.593,261.300 108.179 C 260.585 107.766,260.000 107.286,260.000 107.114 C 260.000 106.941,259.808 106.800,259.573 106.800 C 259.339 106.800,258.557 106.350,257.836 105.800 C 257.114 105.250,256.237 104.800,255.886 104.800 C 255.535 104.800,255.136 104.620,254.999 104.399 C 254.863 104.178,253.997 103.629,253.076 103.178 C 252.154 102.727,250.680 101.985,249.800 101.529 C 244.758 98.917,244.972 99.021,243.000 98.207 C 242.120 97.843,241.040 97.393,240.600 97.205 C 239.024 96.534,234.157 94.879,231.800 94.214 C 230.480 93.841,228.950 93.389,228.400 93.208 C 227.850 93.028,225.960 92.583,224.200 92.220 C 222.440 91.856,220.370 91.401,219.600 91.210 C 213.816 89.770,194.442 89.055,188.400 90.059 M210.723 90.827 C 220.934 91.952,232.207 94.619,239.400 97.613 C 255.953 104.502,266.949 111.932,279.044 124.400 C 290.296 135.999,299.905 152.132,304.417 167.000 C 304.684 167.880,305.062 169.020,305.258 169.533 C 306.239 172.110,308.275 182.456,309.010 188.600 C 309.644 193.901,309.823 296.000,309.193 293.200 C 309.020 292.430,308.595 290.360,308.248 288.600 C 307.148 283.021,304.295 273.158,302.808 269.800 C 302.613 269.360,302.146 268.280,301.769 267.400 C 290.282 240.584,269.620 219.840,243.000 208.398 C 240.025 207.119,239.078 206.757,236.400 205.871 C 233.538 204.924,227.729 203.183,225.600 202.633 C 212.706 199.305,193.176 198.908,179.400 201.694 C 177.200 202.139,174.950 202.589,174.400 202.694 C 171.213 203.302,160.587 206.775,157.000 208.380 C 129.718 220.587,109.781 240.537,98.415 267.000 C 97.943 268.100,97.395 269.360,97.197 269.800 C 96.741 270.815,94.409 277.810,93.997 279.400 C 93.826 280.060,93.390 281.680,93.028 283.000 C 92.665 284.320,92.092 286.840,91.752 288.600 C 91.413 290.360,90.991 292.430,90.814 293.200 C 90.318 295.357,90.318 194.061,90.814 190.000 C 93.181 170.609,98.885 154.472,108.520 139.907 C 120.082 122.427,138.890 106.475,156.050 99.593 C 157.068 99.185,158.688 98.491,159.650 98.051 C 163.932 96.093,173.093 93.448,179.800 92.234 C 189.786 90.426,202.030 89.869,210.723 90.827 " stroke="none" fill="#e88c61" fill-rule="evenodd"></path><path id="path3" d="M206.900 89.476 C 207.285 89.576,207.915 89.576,208.300 89.476 C 208.685 89.375,208.370 89.293,207.600 89.293 C 206.830 89.293,206.515 89.375,206.900 89.476 M182.777 89.977 C 183.195 90.242,182.920 90.387,181.777 90.504 C 180.359 90.649,180.402 90.669,182.200 90.703 C 183.300 90.723,185.640 90.505,187.400 90.218 L 190.600 89.696 186.400 89.654 C 183.728 89.627,182.410 89.745,182.777 89.977 M212.800 90.223 C 214.670 90.522,217.010 90.747,218.000 90.723 C 219.143 90.696,219.398 90.619,218.700 90.513 C 218.095 90.422,217.600 90.179,217.600 89.973 C 217.600 89.764,215.800 89.617,213.500 89.640 L 209.400 89.679 212.800 90.223 M173.400 92.214 C 171.866 92.917,172.791 92.918,175.600 92.217 C 177.768 91.676,177.777 91.668,176.200 91.667 C 175.320 91.666,174.060 91.912,173.400 92.214 M224.200 92.209 C 226.734 92.913,227.762 92.901,226.200 92.186 C 225.540 91.883,224.370 91.640,223.600 91.645 C 222.280 91.653,222.314 91.686,224.200 92.209 M169.838 93.139 C 169.723 93.325,169.127 93.495,168.514 93.517 C 167.901 93.539,166.279 94.016,164.908 94.578 C 163.537 95.140,161.996 95.600,161.483 95.600 C 160.970 95.600,160.171 95.954,159.706 96.387 C 159.241 96.820,158.262 97.249,157.530 97.340 C 155.867 97.547,154.800 97.978,154.800 98.443 C 154.800 98.967,155.777 98.879,157.068 98.237 C 158.586 97.482,159.812 96.993,162.200 96.189 C 163.300 95.818,164.560 95.372,165.000 95.198 C 165.440 95.023,166.880 94.579,168.200 94.212 C 171.705 93.237,172.497 92.862,171.124 92.827 C 170.532 92.812,169.953 92.952,169.838 93.139 M228.600 93.199 C 229.040 93.389,230.480 93.847,231.800 94.218 C 235.614 95.288,241.520 97.447,243.295 98.419 C 244.184 98.907,245.200 98.909,245.200 98.424 C 245.200 97.845,244.536 97.559,242.791 97.386 C 241.914 97.299,240.803 96.861,240.322 96.414 C 239.842 95.966,238.958 95.600,238.357 95.600 C 237.757 95.600,236.387 95.159,235.314 94.619 C 234.240 94.080,232.696 93.571,231.882 93.487 C 231.068 93.404,230.282 93.215,230.134 93.068 C 229.987 92.920,229.402 92.812,228.833 92.827 C 227.897 92.852,227.875 92.886,228.600 93.199 M153.200 99.459 C 151.534 100.002,149.600 100.958,149.600 101.238 C 149.600 101.412,149.270 101.490,148.866 101.413 C 148.035 101.253,147.107 101.711,147.182 102.245 C 147.209 102.440,146.865 102.658,146.416 102.728 C 145.967 102.798,145.600 103.023,145.600 103.228 C 145.600 103.433,145.172 103.600,144.649 103.600 C 144.126 103.600,143.474 103.870,143.200 104.200 C 142.926 104.530,142.536 104.800,142.334 104.800 C 141.929 104.800,141.178 105.359,139.862 106.639 C 139.388 107.101,138.580 107.700,138.066 107.972 C 137.552 108.243,137.224 108.557,137.337 108.670 C 137.450 108.783,138.846 108.033,140.439 107.002 C 142.032 105.972,143.709 104.963,144.167 104.760 C 144.625 104.556,145.540 104.065,146.200 103.667 C 147.648 102.794,150.745 101.190,153.200 100.042 C 154.800 99.294,154.800 98.937,153.200 99.459 M246.710 99.996 C 247.430 100.438,248.240 100.813,248.510 100.829 C 248.779 100.845,249.540 101.199,250.200 101.615 C 250.860 102.032,252.154 102.738,253.076 103.185 C 253.997 103.632,254.863 104.178,254.999 104.399 C 255.312 104.905,256.800 104.928,256.800 104.427 C 256.800 104.033,255.628 103.543,255.072 103.705 C 254.891 103.757,254.567 103.485,254.352 103.100 C 254.137 102.715,253.599 102.400,253.157 102.400 C 252.714 102.400,252.461 102.225,252.593 102.012 C 252.725 101.798,252.330 101.505,251.716 101.360 C 251.102 101.216,250.060 100.784,249.400 100.401 C 248.740 100.018,247.570 99.589,246.800 99.448 L 245.400 99.192 246.710 99.996 M257.200 105.003 C 257.200 105.421,258.941 106.772,259.500 106.787 C 260.770 106.820,260.023 106.109,257.500 104.880 C 257.335 104.799,257.200 104.854,257.200 105.003 M261.000 108.000 C 262.317 108.872,262.800 108.990,262.800 108.439 C 262.800 108.241,262.233 107.881,261.540 107.639 C 259.750 107.015,259.632 107.094,261.000 108.000 M135.786 109.581 C 135.338 109.762,134.723 110.211,134.418 110.578 C 134.113 110.946,133.259 111.499,132.520 111.807 C 131.265 112.332,128.852 114.515,121.868 121.445 C 117.829 125.453,115.600 127.925,115.600 128.396 C 115.600 128.618,115.445 128.800,115.256 128.800 C 114.644 128.800,112.000 131.527,112.000 132.159 C 112.000 132.496,111.460 133.387,110.800 134.139 C 110.140 134.891,109.600 135.681,109.600 135.894 C 109.600 136.108,109.150 136.769,108.600 137.362 C 108.050 137.956,107.600 138.706,107.600 139.031 C 107.600 139.355,107.175 139.781,106.656 139.979 C 106.034 140.215,105.624 140.779,105.453 141.633 C 105.311 142.346,104.836 143.180,104.397 143.487 C 103.959 143.794,103.600 144.485,103.600 145.023 C 103.600 145.560,103.420 146.000,103.200 146.000 C 102.980 146.000,102.800 146.306,102.800 146.680 C 102.800 147.606,103.252 147.057,104.770 144.288 C 110.034 134.687,120.631 122.313,130.366 114.400 C 131.314 113.630,132.456 112.685,132.906 112.300 C 133.355 111.915,133.830 111.593,133.961 111.584 C 134.093 111.575,134.823 111.035,135.585 110.384 C 137.054 109.128,137.071 109.060,135.786 109.581 M264.415 110.384 C 265.177 111.035,265.907 111.575,266.039 111.584 C 266.170 111.593,266.645 111.915,267.093 112.300 C 267.542 112.685,268.590 113.540,269.422 114.200 C 275.449 118.981,283.496 127.371,288.220 133.800 C 288.866 134.680,289.486 135.490,289.598 135.600 C 290.035 136.032,294.391 142.691,295.224 144.200 C 297.280 147.927,301.126 155.538,301.404 156.432 C 301.569 156.964,302.023 158.120,302.413 159.000 C 303.409 161.249,305.021 165.844,305.620 168.138 C 306.019 169.668,306.204 169.937,306.496 169.413 C 306.747 168.966,306.661 168.314,306.230 167.407 C 305.880 166.668,305.482 165.509,305.346 164.832 C 305.211 164.154,304.943 163.600,304.750 163.600 C 304.558 163.600,304.400 163.050,304.400 162.379 C 304.400 161.707,303.950 160.495,303.400 159.686 C 302.850 158.877,302.400 157.911,302.400 157.540 C 302.400 157.170,301.770 155.679,301.000 154.227 C 300.230 152.776,299.600 151.225,299.600 150.782 C 299.600 150.338,299.327 149.870,298.993 149.742 C 298.659 149.614,298.410 149.304,298.440 149.054 C 298.591 147.801,298.365 147.238,297.800 147.455 C 297.384 147.615,297.200 147.428,297.200 146.843 C 297.200 146.379,297.020 146.000,296.800 146.000 C 296.580 146.000,296.400 145.443,296.400 144.763 C 296.400 143.864,296.182 143.468,295.604 143.317 C 295.167 143.203,294.900 142.962,295.011 142.782 C 295.122 142.602,295.030 142.342,294.807 142.204 C 294.583 142.066,294.400 141.599,294.400 141.166 C 294.400 140.696,293.999 140.228,293.400 140.000 C 292.850 139.791,292.400 139.355,292.400 139.031 C 292.400 138.706,291.950 137.956,291.400 137.362 C 290.850 136.769,290.400 136.067,290.400 135.804 C 290.400 135.540,290.045 135.002,289.610 134.609 C 289.176 134.216,288.440 133.108,287.974 132.147 C 287.509 131.186,287.010 130.400,286.864 130.400 C 286.486 130.399,284.400 128.561,284.400 128.228 C 284.400 127.268,269.792 113.009,267.785 112.010 C 267.133 111.686,266.009 110.921,265.286 110.310 C 264.563 109.700,263.760 109.200,263.501 109.200 C 263.242 109.200,263.653 109.733,264.415 110.384 M101.422 147.964 C 101.299 148.164,101.298 148.591,101.422 148.912 C 101.546 149.236,101.368 149.604,101.023 149.736 C 100.385 149.981,100.138 151.200,100.726 151.200 C 100.992 151.200,101.709 150.016,102.723 147.900 C 102.930 147.468,101.691 147.529,101.422 147.964 M100.073 152.087 C 99.813 152.347,99.600 152.818,99.600 153.134 C 99.600 153.450,99.150 154.125,98.600 154.635 C 97.899 155.284,97.600 155.982,97.600 156.965 C 97.600 157.838,97.307 158.642,96.826 159.090 C 95.854 159.996,95.149 161.802,95.456 162.602 C 95.584 162.936,95.513 163.433,95.298 163.705 C 94.530 164.675,93.338 168.654,93.596 169.389 C 93.790 169.942,93.990 169.625,94.366 168.168 C 94.646 167.086,95.018 165.840,95.195 165.400 C 95.371 164.960,95.821 163.700,96.195 162.600 C 96.568 161.500,97.307 159.650,97.837 158.489 C 98.367 157.328,98.800 156.230,98.800 156.049 C 98.800 155.867,99.257 154.859,99.816 153.809 C 100.842 151.878,100.941 151.219,100.073 152.087 M306.569 171.200 C 307.579 174.889,308.408 178.639,308.454 179.725 C 308.500 180.791,308.539 180.840,308.692 180.023 C 308.963 178.580,307.578 171.496,306.889 170.800 C 306.363 170.268,306.326 170.314,306.569 171.200 M93.082 171.073 C 92.574 171.912,91.604 175.875,91.639 176.973 C 91.665 177.817,91.891 177.327,92.363 175.400 C 92.739 173.860,93.194 172.277,93.373 171.883 C 93.701 171.161,93.451 170.465,93.082 171.073 M91.293 179.600 C 91.293 180.370,91.375 180.685,91.476 180.300 C 91.576 179.915,91.576 179.285,91.476 178.900 C 91.375 178.515,91.293 178.830,91.293 179.600 M90.097 184.200 C 89.821 185.960,89.618 188.300,89.646 189.400 C 89.695 191.309,89.723 191.255,90.251 188.200 C 90.555 186.440,90.758 184.100,90.702 183.000 C 90.603 181.056,90.586 181.090,90.097 184.200 M309.267 183.000 C 309.258 184.100,309.486 186.350,309.775 188.000 L 310.299 191.000 310.319 187.600 C 310.330 185.730,310.101 183.480,309.811 182.600 L 309.284 181.000 309.267 183.000 M89.314 195.400 C 89.317 196.500,89.395 196.903,89.487 196.295 C 89.579 195.686,89.577 194.786,89.482 194.295 C 89.387 193.803,89.311 194.300,89.314 195.400 M197.318 200.698 C 199.033 200.773,201.733 200.772,203.318 200.697 C 204.903 200.621,203.500 200.559,200.200 200.560 C 196.900 200.561,195.603 200.622,197.318 200.698 M184.400 201.600 C 183.850 201.776,182.680 201.941,181.800 201.966 C 180.625 202.000,180.359 202.113,180.800 202.392 C 181.411 202.779,186.272 202.527,187.000 202.071 C 187.220 201.934,188.210 201.705,189.200 201.564 C 190.780 201.338,190.658 201.305,188.200 201.293 C 186.660 201.286,184.950 201.424,184.400 201.600 M211.200 201.616 C 212.190 201.786,213.630 202.087,214.400 202.285 C 215.170 202.483,216.700 202.562,217.800 202.460 L 219.800 202.274 217.000 201.769 C 215.460 201.491,213.120 201.273,211.800 201.285 L 209.400 201.307 211.200 201.616 M173.000 203.811 L 171.400 204.339 173.267 204.369 C 175.298 204.403,176.400 204.117,176.400 203.557 C 176.400 203.068,174.921 203.178,173.000 203.811 M223.600 203.502 C 223.600 204.130,225.895 204.801,227.172 204.546 L 228.479 204.284 226.940 203.748 C 225.237 203.155,223.600 203.035,223.600 203.502 M169.813 204.779 C 169.670 205.010,169.158 205.203,168.676 205.206 C 168.194 205.209,167.080 205.471,166.200 205.788 L 164.600 206.365 166.220 206.382 C 167.111 206.392,168.011 206.234,168.220 206.031 C 168.429 205.828,169.140 205.603,169.800 205.531 C 170.460 205.459,170.969 205.225,170.930 205.010 C 170.827 204.439,170.115 204.291,169.813 204.779 M229.200 205.000 C 229.474 205.330,230.216 205.600,230.849 205.600 C 231.482 205.600,232.000 205.780,232.000 206.000 C 232.000 206.220,232.765 206.392,233.700 206.382 L 235.400 206.365 233.800 205.788 C 232.920 205.471,231.806 205.209,231.324 205.206 C 230.842 205.203,230.336 205.020,230.200 204.800 C 230.064 204.580,229.671 204.400,229.327 204.400 C 228.817 204.400,228.793 204.510,229.200 205.000 M163.430 206.752 C 163.310 206.946,162.804 207.201,162.306 207.320 C 161.808 207.438,160.680 207.826,159.800 208.182 L 158.200 208.830 159.800 208.588 C 161.572 208.320,164.374 207.168,164.390 206.700 C 164.404 206.284,163.695 206.323,163.430 206.752 M235.600 206.745 C 235.600 207.158,239.950 208.583,240.261 208.272 C 240.380 208.153,239.695 207.833,238.739 207.560 C 237.783 207.288,236.829 206.915,236.620 206.733 C 236.126 206.300,235.600 206.307,235.600 206.745 M155.200 210.069 L 153.800 210.839 155.390 210.558 C 157.086 210.258,158.720 209.155,157.329 209.249 C 156.928 209.276,155.970 209.645,155.200 210.069 M242.000 209.613 C 242.000 210.099,242.446 210.258,244.600 210.544 L 246.200 210.756 244.800 209.995 C 243.247 209.150,242.000 208.980,242.000 209.613 M150.800 212.155 C 149.810 212.669,148.474 213.340,147.831 213.645 C 146.708 214.178,146.699 214.205,147.586 214.335 C 148.094 214.409,148.620 214.304,148.755 214.102 C 148.890 213.899,150.035 213.248,151.300 212.655 C 152.565 212.062,153.600 211.492,153.600 211.388 C 153.600 210.970,152.503 211.270,150.800 212.155 M246.593 211.589 C 246.725 211.803,247.546 212.191,248.417 212.452 C 249.288 212.713,250.000 213.074,250.000 213.253 C 250.000 213.721,252.111 214.722,252.673 214.521 C 252.933 214.428,253.340 214.715,253.578 215.158 C 253.826 215.623,254.610 216.078,255.424 216.231 C 256.201 216.377,256.745 216.588,256.632 216.701 C 256.334 216.999,258.220 218.400,258.920 218.400 C 259.247 218.400,259.618 218.670,259.745 219.000 C 259.871 219.330,260.341 219.600,260.787 219.600 C 261.234 219.600,261.600 219.784,261.600 220.009 C 261.600 220.233,262.050 220.622,262.600 220.873 C 263.150 221.123,263.600 221.570,263.600 221.864 C 263.600 222.159,264.020 222.400,264.532 222.400 C 265.118 222.400,265.664 222.772,266.000 223.400 C 266.294 223.950,266.775 224.400,267.068 224.400 C 267.360 224.400,267.600 224.650,267.600 224.956 C 267.600 225.261,267.960 225.936,268.401 226.456 C 269.031 227.199,269.145 227.239,268.937 226.645 C 268.746 226.101,268.830 225.946,269.236 226.088 C 269.546 226.197,269.774 226.591,269.741 226.963 C 269.709 227.335,269.878 227.574,270.116 227.495 C 270.355 227.415,270.876 227.676,271.275 228.075 C 271.674 228.474,272.270 228.800,272.600 228.800 C 272.930 228.800,273.200 229.087,273.200 229.437 C 273.200 229.788,273.560 230.169,274.000 230.284 C 274.440 230.399,274.805 230.697,274.811 230.947 C 274.817 231.196,275.443 231.850,276.203 232.400 C 276.962 232.950,277.689 233.715,277.819 234.100 C 277.948 234.485,278.267 234.805,278.527 234.811 C 278.787 234.817,279.450 235.551,280.000 236.443 C 280.550 237.335,281.501 238.545,282.112 239.132 C 282.724 239.720,283.494 240.695,283.823 241.300 C 284.152 241.905,284.668 242.400,284.971 242.400 C 285.274 242.400,285.709 242.938,285.939 243.596 C 286.231 244.436,286.541 244.721,286.978 244.553 C 287.412 244.386,287.600 244.555,287.600 245.111 C 287.600 245.549,288.050 246.203,288.600 246.563 C 289.150 246.924,289.600 247.506,289.600 247.856 C 289.600 248.207,290.140 249.109,290.800 249.861 C 291.460 250.613,292.000 251.492,292.000 251.814 C 292.000 252.136,292.160 252.400,292.356 252.400 C 292.552 252.400,293.118 253.255,293.614 254.300 C 294.111 255.345,294.591 255.989,294.681 255.732 C 295.206 254.237,285.939 241.596,279.229 234.652 C 277.343 232.700,275.606 230.900,275.369 230.652 C 275.132 230.403,273.710 229.120,272.208 227.800 C 270.706 226.480,269.275 225.220,269.029 225.000 C 263.562 220.124,245.017 209.039,246.593 211.589 M144.800 215.402 C 138.002 219.801,136.168 221.032,133.949 222.686 C 132.547 223.730,131.205 224.768,130.966 224.993 C 130.727 225.217,129.766 226.089,128.830 226.931 C 127.894 227.773,127.213 228.546,127.315 228.648 C 127.679 229.012,130.382 227.391,130.210 226.913 C 129.963 226.227,130.823 225.790,131.204 226.407 C 131.426 226.766,131.711 226.545,132.170 225.658 C 132.528 224.966,133.000 224.400,133.219 224.400 C 133.438 224.400,133.828 223.938,134.085 223.373 C 134.417 222.644,134.775 222.405,135.321 222.547 C 135.847 222.685,136.152 222.505,136.291 221.974 C 136.402 221.548,136.741 221.200,137.043 221.200 C 137.346 221.200,137.818 220.840,138.093 220.400 C 138.368 219.960,138.915 219.600,139.309 219.600 C 139.703 219.600,140.129 219.330,140.255 219.000 C 140.382 218.670,140.723 218.400,141.012 218.400 C 141.302 218.400,142.060 217.962,142.696 217.426 C 143.333 216.890,144.351 216.327,144.959 216.175 C 145.567 216.022,146.162 215.642,146.282 215.331 C 146.631 214.422,146.290 214.438,144.800 215.402 M122.305 233.100 C 120.170 235.245,118.047 237.450,117.587 238.000 C 117.128 238.550,116.447 239.363,116.076 239.806 C 111.390 245.396,105.200 254.410,105.200 255.645 C 105.200 256.542,106.344 255.165,106.612 253.945 C 106.757 253.286,107.128 252.649,107.438 252.530 C 107.747 252.412,108.000 252.062,108.000 251.755 C 108.000 251.447,108.445 250.807,108.990 250.334 C 109.534 249.861,110.179 248.870,110.422 248.134 C 110.665 247.397,111.210 246.609,111.632 246.383 C 112.054 246.157,112.400 245.708,112.400 245.386 C 112.400 245.064,112.679 244.800,113.021 244.800 C 113.362 244.800,113.824 244.278,114.046 243.640 C 114.268 243.002,114.798 242.389,115.223 242.278 C 115.648 242.167,116.120 241.744,116.271 241.338 C 116.422 240.932,117.413 239.596,118.473 238.369 C 119.533 237.142,120.400 235.936,120.400 235.689 C 120.400 235.442,120.648 235.096,120.952 234.920 C 122.063 234.276,125.200 231.261,125.200 230.837 C 125.200 230.596,125.451 230.400,125.757 230.400 C 126.064 230.400,126.418 230.130,126.545 229.800 C 127.013 228.578,126.094 229.294,122.305 233.100 M103.874 257.542 C 103.088 259.322,102.970 260.390,103.631 259.729 C 104.036 259.324,104.878 256.345,104.652 256.118 C 104.594 256.061,104.244 256.702,103.874 257.542 M295.600 257.848 C 295.600 258.289,295.971 259.047,296.424 259.534 C 296.878 260.021,297.533 261.090,297.882 261.909 C 298.230 262.729,298.589 263.188,298.681 262.929 C 298.772 262.670,298.387 261.729,297.824 260.837 C 297.261 259.946,296.794 259.077,296.787 258.908 C 296.752 258.050,295.600 257.022,295.600 257.848 M101.855 261.455 C 101.476 262.249,101.253 262.986,101.359 263.093 C 101.466 263.199,101.836 262.609,102.182 261.782 C 102.998 259.829,102.749 259.580,101.855 261.455 M99.708 266.101 C 99.473 266.595,98.984 267.720,98.621 268.600 C 98.258 269.480,97.790 270.513,97.581 270.895 C 97.089 271.791,97.092 272.800,97.586 272.800 C 98.193 272.800,98.780 271.411,98.548 270.524 C 98.428 270.063,98.621 269.436,99.003 269.055 C 99.658 268.399,100.612 265.678,100.296 265.363 C 100.207 265.274,99.943 265.606,99.708 266.101 M299.811 266.384 C 299.970 267.146,300.462 268.258,300.904 268.856 C 301.373 269.489,301.619 270.282,301.495 270.757 C 301.285 271.563,302.192 272.741,302.662 272.271 C 302.883 272.050,302.134 270.045,301.181 268.305 C 300.971 267.923,300.794 267.383,300.787 267.105 C 300.780 266.827,300.493 266.240,300.148 265.800 C 299.556 265.043,299.538 265.074,299.811 266.384 M89.314 273.400 C 89.317 274.500,89.395 274.903,89.487 274.295 C 89.579 273.686,89.577 272.786,89.482 272.295 C 89.387 271.803,89.311 272.300,89.314 273.400 M310.514 273.400 C 310.517 274.500,310.595 274.903,310.687 274.295 C 310.779 273.686,310.777 272.786,310.682 272.295 C 310.587 271.803,310.511 272.300,310.514 273.400 M95.635 276.702 C 95.066 278.419,95.258 279.302,96.034 278.526 C 96.265 278.295,96.397 277.407,96.327 276.553 L 96.200 275.000 95.635 276.702 M303.701 276.769 C 303.756 277.751,304.022 278.611,304.300 278.702 C 304.970 278.923,304.931 277.986,304.201 276.346 L 303.601 275.000 303.701 276.769 M89.301 278.200 C 89.305 279.080,89.387 279.393,89.483 278.895 C 89.579 278.398,89.575 277.678,89.475 277.295 C 89.375 276.913,89.296 277.320,89.301 278.200 M310.493 278.400 C 310.493 279.170,310.575 279.485,310.676 279.100 C 310.776 278.715,310.776 278.085,310.676 277.700 C 310.575 277.315,310.493 277.630,310.493 278.400 M94.400 280.884 C 94.400 281.444,94.130 282.549,93.800 283.338 C 93.135 284.929,92.955 287.006,93.566 286.042 C 93.849 285.595,93.951 285.635,94.079 286.242 C 94.167 286.659,94.362 285.482,94.513 283.626 C 94.663 281.771,94.699 280.166,94.593 280.060 C 94.487 279.954,94.400 280.325,94.400 280.884 M305.409 282.000 C 305.510 283.210,305.597 284.740,305.603 285.400 C 305.609 286.230,305.719 286.432,305.958 286.055 C 306.249 285.594,306.337 285.594,306.520 286.055 C 306.648 286.376,306.750 286.241,306.768 285.726 C 306.786 285.245,306.595 284.345,306.345 283.726 C 306.095 283.107,305.740 281.970,305.557 281.200 C 305.291 280.081,305.262 280.241,305.409 282.000 M89.104 284.600 C 88.672 286.940,88.712 287.848,89.224 287.336 C 89.458 287.102,89.593 286.031,89.524 284.956 L 89.400 283.000 89.104 284.600 M310.400 285.133 C 310.400 286.270,310.577 287.200,310.792 287.200 C 311.029 287.200,311.086 286.444,310.936 285.300 C 310.598 282.715,310.400 282.654,310.400 285.133 M92.659 288.043 C 92.124 289.912,91.466 294.658,91.363 297.400 L 91.243 300.600 91.834 297.800 C 92.651 293.929,93.354 285.617,92.659 288.043 M307.446 292.248 C 307.247 293.347,307.350 294.612,307.755 296.048 C 308.089 297.232,308.444 298.740,308.544 299.400 C 308.644 300.060,308.666 299.070,308.593 297.200 C 308.520 295.330,308.300 293.080,308.103 292.200 L 307.745 290.600 307.446 292.248 " stroke="none" fill="#d65e2b" fill-rule="evenodd"></path><path id="path4" d="M185.712 89.495 C 186.764 89.577,188.384 89.576,189.312 89.492 C 190.240 89.408,189.380 89.341,187.400 89.342 C 185.420 89.343,184.660 89.412,185.712 89.495 M195.300 89.498 C 197.225 89.571,200.375 89.571,202.300 89.498 C 204.225 89.425,202.650 89.365,198.800 89.365 C 194.950 89.365,193.375 89.425,195.300 89.498 M210.500 89.494 C 211.545 89.576,213.255 89.576,214.300 89.494 C 215.345 89.412,214.490 89.344,212.400 89.344 C 210.310 89.344,209.455 89.412,210.500 89.494 M180.600 90.000 C 180.452 90.240,180.961 90.398,181.876 90.394 C 183.007 90.389,183.245 90.288,182.800 90.000 C 182.018 89.494,180.912 89.494,180.600 90.000 M217.600 90.000 C 217.600 90.220,218.050 90.400,218.600 90.400 C 219.150 90.400,219.600 90.220,219.600 90.000 C 219.600 89.780,219.150 89.600,218.600 89.600 C 218.050 89.600,217.600 89.780,217.600 90.000 M176.305 91.483 C 176.802 91.579,177.522 91.575,177.905 91.475 C 178.287 91.375,177.880 91.296,177.000 91.301 C 176.120 91.305,175.807 91.387,176.305 91.483 M222.305 91.483 C 222.802 91.579,223.522 91.575,223.905 91.475 C 224.287 91.375,223.880 91.296,223.000 91.301 C 222.120 91.305,221.807 91.387,222.305 91.483 M171.800 91.885 C 171.360 91.991,170.829 92.240,170.620 92.439 C 170.028 93.001,172.035 92.839,173.400 92.214 C 174.701 91.619,173.735 91.420,171.800 91.885 M226.346 92.179 C 227.868 92.881,230.000 93.040,229.364 92.404 C 229.146 92.186,228.075 91.907,226.984 91.783 L 225.000 91.559 226.346 92.179 M165.400 93.885 C 164.960 93.991,164.420 94.260,164.200 94.484 C 163.930 94.758,164.125 94.795,164.800 94.597 C 166.871 93.989,167.355 93.415,165.400 93.885 M150.300 100.065 C 149.695 100.286,149.203 100.767,149.206 101.133 C 149.210 101.552,149.321 101.636,149.506 101.358 C 149.668 101.115,150.340 100.627,151.000 100.274 C 152.339 99.558,151.981 99.451,150.300 100.065 M249.771 100.609 C 250.195 100.929,250.640 101.094,250.759 100.974 C 251.010 100.723,249.994 100.009,249.400 100.019 C 249.180 100.022,249.347 100.288,249.771 100.609 M146.500 101.887 C 145.813 102.134,145.869 102.800,146.576 102.800 C 147.239 102.800,147.763 102.140,147.307 101.882 C 147.138 101.786,146.775 101.789,146.500 101.887 M252.600 102.000 C 252.464 102.220,252.734 102.400,253.200 102.400 C 253.666 102.400,253.936 102.220,253.800 102.000 C 253.664 101.780,253.394 101.600,253.200 101.600 C 253.006 101.600,252.736 101.780,252.600 102.000 M140.571 105.391 C 140.147 105.712,139.980 105.978,140.200 105.981 C 140.794 105.991,141.810 105.277,141.559 105.026 C 141.440 104.906,140.995 105.071,140.571 105.391 M258.576 105.413 C 259.004 105.736,259.544 105.994,259.776 105.987 C 260.009 105.980,259.851 105.710,259.424 105.387 C 258.996 105.064,258.456 104.806,258.224 104.813 C 257.991 104.820,258.149 105.090,258.576 105.413 M134.344 109.987 C 133.825 110.419,133.614 110.779,133.876 110.787 C 134.138 110.794,134.472 110.607,134.617 110.372 C 134.763 110.137,135.268 109.788,135.741 109.597 C 136.357 109.349,136.415 109.244,135.944 109.225 C 135.584 109.211,134.864 109.554,134.344 109.987 M265.299 110.365 C 266.073 111.044,266.862 111.597,267.053 111.594 C 267.244 111.591,267.220 111.456,267.000 111.294 C 266.780 111.132,266.402 110.640,266.159 110.200 C 265.917 109.760,265.308 109.339,264.806 109.265 C 264.002 109.146,264.062 109.278,265.299 110.365 M269.600 113.319 C 269.600 113.400,270.365 114.068,271.300 114.803 C 272.792 115.977,272.878 116.005,272.000 115.033 C 271.089 114.025,269.600 112.961,269.600 113.319 M128.171 114.903 L 127.000 116.197 128.200 115.199 C 128.860 114.649,129.475 114.155,129.567 114.100 C 129.658 114.045,129.645 113.912,129.538 113.804 C 129.430 113.696,128.815 114.191,128.171 114.903 M125.138 117.138 C 124.403 117.796,123.941 118.475,124.113 118.646 C 124.285 118.818,124.996 118.389,125.692 117.692 C 127.340 116.044,126.879 115.583,125.138 117.138 M273.200 116.350 C 273.200 116.853,275.641 118.893,275.914 118.619 C 276.032 118.501,275.787 118.027,275.369 117.565 C 274.416 116.513,273.200 115.831,273.200 116.350 M122.630 120.024 C 122.207 120.451,122.044 120.800,122.268 120.800 C 122.492 120.800,123.002 120.440,123.400 120.000 C 124.328 118.974,123.650 118.995,122.630 120.024 M276.600 120.000 C 276.998 120.440,277.510 120.800,277.737 120.800 C 277.965 120.800,277.764 120.440,277.292 120.000 C 276.820 119.560,276.308 119.200,276.155 119.200 C 276.001 119.200,276.202 119.560,276.600 120.000 M117.229 125.054 C 116.294 126.242,116.155 126.880,116.900 126.560 C 117.845 126.154,119.325 124.000,118.659 124.000 C 118.329 124.000,117.685 124.474,117.229 125.054 M281.200 124.217 C 281.200 124.434,281.684 125.061,282.782 126.267 C 283.194 126.720,283.411 126.766,283.525 126.425 C 283.613 126.160,283.275 125.506,282.773 124.971 C 281.920 124.064,281.200 123.718,281.200 124.217 M283.900 127.465 C 284.175 127.576,284.400 127.845,284.400 128.062 C 284.400 128.482,284.906 129.026,286.202 130.000 C 286.960 130.570,286.971 130.560,286.419 129.800 C 285.254 128.196,284.251 127.201,283.830 127.232 C 283.594 127.249,283.625 127.354,283.900 127.465 M114.422 128.576 C 113.394 129.671,113.716 129.941,114.942 129.013 C 115.350 128.704,115.616 128.249,115.534 128.002 C 115.449 127.748,114.966 127.998,114.422 128.576 M289.200 133.902 C 289.200 134.122,289.470 134.526,289.800 134.800 C 290.130 135.074,290.400 135.535,290.400 135.825 C 290.400 136.115,290.573 136.460,290.784 136.590 C 291.373 136.954,290.429 134.522,289.769 133.974 C 289.438 133.699,289.200 133.669,289.200 133.902 M102.800 145.287 C 101.755 146.878,101.571 147.600,102.213 147.600 C 102.536 147.600,102.800 147.255,102.800 146.833 C 102.800 146.412,103.001 146.000,103.246 145.918 C 103.491 145.836,103.626 145.455,103.546 145.071 C 103.419 144.464,103.321 144.493,102.800 145.287 M296.427 145.100 C 296.412 145.595,296.580 146.000,296.800 146.000 C 297.020 146.000,297.200 146.360,297.200 146.800 C 297.200 147.240,297.380 147.600,297.600 147.600 C 297.820 147.600,298.000 147.240,298.000 146.800 C 298.000 146.360,297.848 146.000,297.661 146.000 C 297.475 146.000,297.127 145.595,296.888 145.100 L 296.454 144.200 296.427 145.100 M99.871 151.249 C 99.580 152.364,99.740 152.595,100.320 151.896 C 100.559 151.608,100.610 151.140,100.433 150.853 C 100.200 150.476,100.045 150.585,99.871 151.249 M299.628 151.076 C 299.613 151.558,299.780 152.064,300.000 152.200 C 300.473 152.492,300.473 152.101,300.000 151.000 C 299.669 150.229,299.655 150.231,299.628 151.076 M301.209 154.420 C 301.204 154.761,301.399 155.239,301.643 155.483 C 301.887 155.727,302.228 156.528,302.402 157.263 L 302.718 158.600 302.750 157.200 C 302.769 156.377,302.460 155.388,302.000 154.800 C 301.452 154.099,301.215 153.985,301.209 154.420 M97.293 157.200 C 97.293 157.970,97.375 158.285,97.476 157.900 C 97.576 157.515,97.576 156.885,97.476 156.500 C 97.375 156.115,97.293 156.430,97.293 157.200 M304.493 162.400 C 304.493 163.170,304.575 163.485,304.676 163.100 C 304.776 162.715,304.776 162.085,304.676 161.700 C 304.575 161.315,304.493 161.630,304.493 162.400 M94.620 164.119 C 93.304 167.063,91.999 171.331,92.032 172.586 C 92.049 173.254,92.161 173.530,92.280 173.200 C 92.400 172.870,92.759 172.029,93.079 171.332 C 93.399 170.634,93.619 169.734,93.567 169.332 C 93.443 168.365,93.933 166.594,94.909 164.485 C 95.345 163.541,95.628 162.695,95.537 162.604 C 95.446 162.513,95.034 163.195,94.620 164.119 M305.416 165.000 C 305.547 165.660,305.914 166.727,306.232 167.371 C 306.549 168.014,306.701 168.882,306.569 169.299 C 306.434 169.724,306.593 170.352,306.930 170.729 C 307.262 171.098,307.616 171.850,307.717 172.400 C 307.818 172.950,307.821 172.345,307.725 171.055 C 307.629 169.765,307.404 168.415,307.226 168.055 C 307.049 167.695,306.515 166.590,306.040 165.600 C 305.355 164.169,305.227 164.046,305.416 165.000 M89.780 181.900 C 89.613 182.285,89.432 185.120,89.378 188.200 L 89.282 193.800 89.593 189.400 C 89.765 186.980,90.041 184.145,90.207 183.100 C 90.515 181.163,90.329 180.641,89.780 181.900 M309.844 182.600 C 310.173 184.071,310.402 184.390,310.394 183.367 C 310.391 182.945,310.205 182.330,309.982 182.000 C 309.685 181.562,309.648 181.724,309.844 182.600 M310.524 188.600 C 310.526 189.920,310.601 190.412,310.690 189.693 C 310.779 188.974,310.777 187.894,310.686 187.293 C 310.595 186.692,310.522 187.280,310.524 188.600 M310.592 231.600 C 310.592 253.710,310.641 262.755,310.700 251.700 C 310.759 240.645,310.759 222.555,310.700 211.500 C 310.641 200.445,310.592 209.490,310.592 231.600 M89.392 234.400 C 89.392 254.970,89.440 263.385,89.500 253.100 C 89.559 242.815,89.559 225.985,89.500 215.700 C 89.440 205.415,89.392 213.830,89.392 234.400 M189.117 201.598 C 188.081 201.727,187.106 201.961,186.950 202.117 C 186.594 202.472,188.495 202.445,190.600 202.064 C 192.727 201.680,191.514 201.298,189.117 201.598 M208.000 201.542 C 208.000 201.899,210.874 202.410,212.756 202.388 C 213.530 202.379,213.645 202.289,213.200 202.041 C 212.317 201.549,208.000 201.135,208.000 201.542 M217.300 202.687 C 217.905 202.778,218.895 202.778,219.500 202.687 C 220.105 202.595,219.610 202.520,218.400 202.520 C 217.190 202.520,216.695 202.595,217.300 202.687 M171.052 204.812 C 171.325 205.085,171.791 205.094,172.432 204.838 C 173.342 204.474,173.317 204.449,172.020 204.425 C 171.073 204.408,170.769 204.529,171.052 204.812 M164.400 206.757 C 164.400 206.953,163.950 207.226,163.400 207.364 C 162.850 207.502,162.400 207.787,162.400 207.998 C 162.400 208.415,163.426 208.087,165.400 207.041 L 166.600 206.405 165.500 206.402 C 164.895 206.401,164.400 206.560,164.400 206.757 M234.280 206.842 C 234.984 207.046,235.670 207.390,235.804 207.606 C 235.938 207.823,236.442 207.981,236.924 207.957 C 237.709 207.919,237.686 207.870,236.700 207.480 C 236.095 207.241,235.600 206.900,235.600 206.723 C 235.600 206.545,235.015 206.416,234.300 206.436 L 233.000 206.472 234.280 206.842 M157.200 210.000 C 157.200 210.220,157.455 210.400,157.767 210.400 C 158.078 210.400,158.414 210.625,158.512 210.900 C 158.610 211.175,158.827 211.274,158.993 211.119 C 159.341 210.795,158.268 209.600,157.629 209.600 C 157.393 209.600,157.200 209.780,157.200 210.000 M146.284 215.200 C 146.169 215.640,146.210 216.000,146.375 216.000 C 146.541 216.000,147.002 215.640,147.400 215.200 C 148.101 214.425,148.099 214.400,147.309 214.400 C 146.830 214.400,146.407 214.730,146.284 215.200 M252.400 214.720 C 252.400 215.141,253.269 216.000,253.694 216.000 C 253.878 216.000,253.835 215.640,253.600 215.200 C 253.177 214.410,252.400 214.099,252.400 214.720 M134.233 223.057 C 133.855 224.042,134.182 224.104,134.998 223.202 C 135.612 222.524,135.628 222.400,135.105 222.400 C 134.764 222.400,134.372 222.696,134.233 223.057 M264.909 223.200 C 265.469 223.640,266.034 224.000,266.166 224.000 C 266.299 224.000,266.182 223.640,265.907 223.200 C 265.632 222.760,265.067 222.400,264.650 222.400 C 263.993 222.400,264.027 222.506,264.909 223.200 M130.217 226.372 C 129.944 226.814,130.575 227.292,130.944 226.922 C 131.325 226.542,131.254 226.000,130.824 226.000 C 130.617 226.000,130.344 226.168,130.217 226.372 M268.875 226.425 C 268.971 226.714,269.286 227.029,269.575 227.125 C 269.875 227.225,270.025 227.075,269.925 226.775 C 269.829 226.486,269.514 226.171,269.225 226.075 C 268.925 225.975,268.775 226.125,268.875 226.425 M273.600 230.551 C 273.600 230.634,273.870 230.926,274.200 231.200 C 274.691 231.608,274.800 231.580,274.800 231.049 C 274.800 230.692,274.530 230.400,274.200 230.400 C 273.870 230.400,273.600 230.468,273.600 230.551 M115.200 242.315 C 114.468 242.565,114.014 243.202,114.006 243.991 C 114.002 244.389,114.352 244.230,115.079 243.503 C 116.195 242.387,116.239 241.959,115.200 242.315 M284.000 242.230 C 284.000 242.343,284.450 242.920,285.000 243.513 C 285.934 244.521,286.469 244.103,285.694 242.971 C 285.372 242.501,284.000 241.901,284.000 242.230 M300.828 269.476 C 300.918 270.515,301.544 271.396,301.572 270.524 C 301.587 270.042,301.420 269.536,301.200 269.400 C 300.980 269.264,300.813 269.298,300.828 269.476 M96.493 276.000 C 96.493 276.770,96.575 277.085,96.676 276.700 C 96.776 276.315,96.776 275.685,96.676 275.300 C 96.575 274.915,96.493 275.230,96.493 276.000 M303.293 276.000 C 303.293 276.770,303.375 277.085,303.476 276.700 C 303.576 276.315,303.576 275.685,303.476 275.300 C 303.375 274.915,303.293 275.230,303.293 276.000 M89.064 282.150 C 88.901 283.663,88.850 284.983,88.951 285.084 C 89.214 285.347,89.710 281.050,89.519 280.153 C 89.431 279.739,89.226 280.638,89.064 282.150 M310.483 281.000 C 310.470 281.880,310.603 283.410,310.780 284.400 C 311.230 286.931,311.265 284.264,310.818 281.400 C 310.515 279.452,310.506 279.441,310.483 281.000 M93.395 286.519 C 93.074 287.754,93.389 288.371,94.019 287.741 C 94.278 287.482,94.291 286.987,94.055 286.368 L 93.686 285.400 93.395 286.519 M305.818 286.344 C 305.531 287.249,305.805 288.000,306.424 288.000 C 306.895 288.000,306.904 286.783,306.438 286.047 C 306.162 285.613,306.030 285.676,305.818 286.344 M89.324 289.400 C 89.326 290.720,89.401 291.212,89.490 290.493 C 89.579 289.774,89.577 288.694,89.486 288.093 C 89.395 287.492,89.322 288.080,89.324 289.400 M310.520 289.200 C 310.520 290.410,310.595 290.905,310.687 290.300 C 310.778 289.695,310.778 288.705,310.687 288.100 C 310.595 287.495,310.520 287.990,310.520 289.200 M307.301 291.000 C 307.305 291.880,307.387 292.193,307.483 291.695 C 307.579 291.198,307.575 290.478,307.475 290.095 C 307.375 289.713,307.296 290.120,307.301 291.000 M92.033 296.420 C 91.498 298.916,91.464 300.662,91.975 299.400 C 92.388 298.381,92.942 294.400,92.671 294.400 C 92.558 294.400,92.271 295.309,92.033 296.420 M307.668 297.200 C 307.662 297.970,307.811 298.960,308.000 299.400 C 308.465 300.482,308.465 298.252,308.000 296.800 C 307.709 295.891,307.679 295.927,307.668 297.200 " stroke="none" fill="#d45a1b" fill-rule="evenodd"></path></g></svg>