<svg id="svg" version="1.1" xmlns="http://www.w3.org/2000/svg" xmlns:xlink="http://www.w3.org/1999/xlink" width="400" height="400" viewBox="0, 0, 400,400"><g id="svgg"><path id="path0" d="M141.000 118.440 C 138.800 119.300,136.100 120.343,135.000 120.757 C 133.900 121.172,131.830 121.961,130.400 122.512 C 125.390 124.441,122.176 125.654,119.400 126.663 C 115.202 128.188,115.238 128.013,118.186 132.604 C 119.597 134.802,123.553 141.010,126.978 146.400 C 130.403 151.790,134.399 158.074,135.858 160.364 C 141.280 168.876,143.044 172.293,141.536 171.360 C 141.251 171.185,140.294 170.977,139.409 170.899 C 138.524 170.822,136.090 170.398,134.000 169.959 C 126.489 168.379,120.577 167.771,117.500 168.263 L 116.000 168.502 116.032 175.551 C 116.063 182.369,116.435 188.148,116.951 189.800 C 118.862 195.929,119.258 202.018,117.993 205.821 C 117.520 207.243,116.988 208.316,116.811 208.207 C 116.129 207.785,115.945 211.181,115.732 228.154 L 115.512 245.709 116.656 245.427 C 117.285 245.271,120.950 243.975,124.800 242.546 C 128.650 241.116,133.780 239.224,136.200 238.341 C 138.620 237.458,142.400 236.016,144.600 235.136 C 156.521 230.371,175.686 223.600,177.252 223.600 C 178.220 223.600,178.196 223.945,177.047 226.489 C 175.600 229.696,174.381 232.724,173.380 235.600 C 172.085 239.320,170.513 243.396,169.593 245.415 C 169.157 246.372,168.800 247.453,168.800 247.816 C 168.800 248.179,168.541 248.954,168.223 249.538 C 167.635 250.621,166.684 253.189,163.979 261.000 C 163.140 263.420,162.074 266.390,161.609 267.600 C 160.372 270.816,155.357 285.976,155.016 287.527 C 154.856 288.257,154.473 289.337,154.165 289.927 C 153.857 290.517,153.597 291.270,153.588 291.600 C 153.579 291.930,153.148 293.100,152.630 294.200 C 151.969 295.602,151.809 296.349,152.093 296.700 C 152.687 297.433,219.866 297.433,219.867 296.700 C 219.868 296.425,221.360 293.140,223.183 289.400 C 228.262 278.984,230.269 274.526,233.445 266.600 C 234.415 264.180,235.387 261.887,235.604 261.505 C 235.822 261.123,236.000 260.545,236.000 260.219 C 236.000 259.893,236.246 259.036,236.548 258.314 C 237.216 256.711,237.880 254.786,238.586 252.400 C 238.879 251.410,239.691 249.070,240.391 247.200 C 241.090 245.330,242.025 242.720,242.468 241.400 C 242.911 240.080,243.617 238.237,244.037 237.304 C 244.457 236.372,244.800 235.257,244.800 234.828 C 244.800 234.399,244.980 233.936,245.200 233.800 C 247.082 232.637,244.035 231.204,222.234 222.996 C 215.615 220.504,207.866 217.569,205.014 216.474 L 199.828 214.483 196.614 215.690 C 187.368 219.162,181.401 221.220,180.880 221.116 C 180.513 221.043,179.299 218.107,177.607 213.200 C 176.128 208.910,174.714 204.900,174.465 204.290 C 174.216 203.679,173.924 202.779,173.816 202.290 C 173.708 201.800,172.924 199.420,172.073 197.000 C 170.146 191.521,166.801 181.569,163.803 172.400 C 161.739 166.086,160.827 163.391,158.594 157.000 C 158.210 155.900,157.659 154.190,157.371 153.200 C 156.804 151.257,151.079 134.533,147.469 124.276 C 146.245 120.798,145.343 117.693,145.465 117.376 C 145.762 116.602,145.604 116.640,141.000 118.440 M200.454 148.520 C 200.404 159.466,200.454 160.410,201.057 160.072 C 201.418 159.870,202.017 159.784,202.388 159.881 C 204.275 160.374,205.620 156.621,204.568 153.800 C 202.657 148.680,201.132 143.042,200.839 140.020 C 200.588 137.422,200.495 139.465,200.454 148.520 M261.688 164.114 C 261.235 164.601,258.894 168.150,256.486 172.000 L 252.107 179.000 229.554 179.234 C 217.149 179.362,206.924 179.497,206.831 179.534 C 206.739 179.570,207.459 180.129,208.431 180.775 C 209.404 181.422,210.858 182.547,211.662 183.275 C 212.467 184.004,213.388 184.780,213.710 185.000 C 214.031 185.220,215.263 186.173,216.447 187.117 C 222.792 192.177,225.198 194.000,225.535 194.000 C 225.740 194.000,226.203 194.450,226.563 195.000 C 226.924 195.550,227.444 196.000,227.720 196.000 C 227.996 196.000,228.509 196.315,228.860 196.700 C 229.211 197.085,230.532 198.300,231.796 199.400 C 233.060 200.500,234.658 201.972,235.347 202.672 C 237.024 204.373,241.534 206.732,244.009 207.202 C 247.362 207.838,251.200 204.847,251.200 201.598 C 251.200 201.086,251.302 200.769,251.428 200.894 C 251.553 201.019,251.816 206.087,252.013 212.157 C 252.471 226.296,252.780 230.400,253.385 230.400 C 253.644 230.400,254.210 230.805,254.644 231.300 C 255.078 231.795,256.496 233.145,257.796 234.300 C 260.502 236.704,260.184 236.876,255.818 235.368 C 252.229 234.128,252.012 234.221,252.225 236.905 C 252.317 238.057,252.501 241.295,252.636 244.100 L 252.881 249.200 253.940 247.634 C 254.949 246.144,259.007 241.839,261.589 239.520 L 262.791 238.440 264.895 239.060 C 266.799 239.620,271.115 241.163,274.800 242.600 C 275.570 242.900,277.730 243.719,279.600 244.420 C 281.470 245.121,283.236 245.787,283.524 245.899 C 283.955 246.068,284.027 240.526,283.924 214.952 L 283.800 183.800 280.000 180.044 C 277.910 177.978,273.120 173.349,269.356 169.758 L 262.512 163.229 261.688 164.114 " stroke="none" fill="#1edfa3" fill-rule="evenodd"></path><path id="path1" d="M188.400 100.641 C 182.350 102.965,177.040 105.032,176.600 105.235 C 176.160 105.437,174.090 106.217,172.000 106.969 C 168.365 108.275,156.457 112.676,151.400 114.581 C 144.415 117.213,144.719 116.462,147.469 124.276 C 151.079 134.533,156.804 151.257,157.371 153.200 C 157.659 154.190,158.210 155.900,158.594 157.000 C 160.827 163.391,161.739 166.086,163.803 172.400 C 166.801 181.569,170.146 191.521,172.073 197.000 C 172.924 199.420,173.708 201.800,173.816 202.290 C 173.924 202.779,174.216 203.679,174.465 204.290 C 174.714 204.900,176.128 208.910,177.607 213.200 C 179.299 218.107,180.513 221.043,180.880 221.116 C 181.401 221.220,187.368 219.162,196.614 215.690 L 199.828 214.483 205.014 216.474 C 207.866 217.569,215.615 220.504,222.234 222.996 C 244.035 231.204,247.082 232.637,245.200 233.800 C 244.980 233.936,244.800 234.399,244.800 234.828 C 244.800 235.257,244.457 236.372,244.037 237.304 C 243.617 238.237,242.911 240.080,242.468 241.400 C 242.025 242.720,241.090 245.330,240.391 247.200 C 239.691 249.070,238.879 251.410,238.586 252.400 C 237.880 254.786,237.216 256.711,236.548 258.314 C 236.246 259.036,236.000 259.893,236.000 260.219 C 236.000 260.545,235.822 261.123,235.604 261.505 C 235.387 261.887,234.415 264.180,233.445 266.600 C 230.255 274.560,228.288 278.928,223.087 289.599 C 221.211 293.449,219.759 296.734,219.861 296.899 C 219.964 297.065,227.282 297.198,236.124 297.195 L 252.200 297.190 258.843 286.495 C 278.981 254.076,283.677 246.318,283.354 246.009 C 283.159 245.822,281.470 245.102,279.600 244.408 C 277.730 243.714,275.570 242.900,274.800 242.600 C 271.115 241.163,266.799 239.620,264.895 239.060 L 262.791 238.440 261.589 239.520 C 259.007 241.839,254.949 246.144,253.940 247.634 L 252.881 249.200 252.636 244.100 C 252.501 241.295,252.317 238.057,252.225 236.905 C 252.012 234.221,252.229 234.128,255.818 235.368 C 260.184 236.876,260.502 236.704,257.796 234.300 C 256.496 233.145,255.078 231.795,254.644 231.300 C 254.210 230.805,253.644 230.400,253.385 230.400 C 252.780 230.400,252.471 226.296,252.013 212.157 C 251.816 206.087,251.553 201.019,251.428 200.894 C 251.302 200.769,251.200 201.086,251.200 201.598 C 251.200 204.847,247.362 207.838,244.009 207.202 C 241.534 206.732,237.024 204.373,235.347 202.672 C 234.658 201.972,233.060 200.500,231.796 199.400 C 230.532 198.300,229.211 197.085,228.860 196.700 C 228.509 196.315,227.996 196.000,227.720 196.000 C 227.444 196.000,226.924 195.550,226.563 195.000 C 226.203 194.450,225.740 194.000,225.535 194.000 C 225.198 194.000,222.792 192.177,216.447 187.117 C 215.263 186.173,214.031 185.220,213.710 185.000 C 213.388 184.780,212.467 184.004,211.662 183.275 C 210.858 182.547,209.443 181.447,208.518 180.832 L 206.836 179.714 209.878 179.457 C 211.552 179.316,221.713 179.200,232.459 179.200 L 251.997 179.200 253.499 176.771 C 254.324 175.435,256.570 171.880,258.488 168.871 C 262.457 162.645,262.541 162.286,260.532 160.156 C 259.307 158.858,256.823 155.916,254.658 153.200 C 254.395 152.870,252.959 150.980,251.466 149.000 C 249.973 147.020,247.597 143.870,246.187 142.000 C 241.061 135.202,234.744 126.432,233.400 124.248 C 232.960 123.533,231.948 122.060,231.152 120.974 C 228.932 117.948,220.400 105.122,220.400 104.811 C 220.400 104.271,202.610 96.941,200.435 96.584 C 199.767 96.475,195.506 97.911,188.400 100.641 M115.607 145.800 C 115.606 155.260,115.718 164.188,115.855 165.640 L 116.105 168.280 120.152 168.240 C 124.340 168.199,127.489 168.589,134.000 169.959 C 136.090 170.398,138.524 170.822,139.409 170.899 C 140.294 170.977,141.251 171.185,141.536 171.360 C 143.019 172.277,141.315 168.945,136.123 160.772 C 134.805 158.698,131.162 152.950,128.028 148.000 C 124.894 143.050,121.557 137.830,120.612 136.400 C 119.668 134.970,118.155 132.630,117.251 131.200 L 115.608 128.600 115.607 145.800 M202.570 147.820 C 203.341 150.229,204.239 152.920,204.568 153.800 C 205.620 156.621,204.275 160.374,202.388 159.881 C 202.017 159.784,201.418 159.870,201.057 160.072 C 200.454 160.410,200.404 159.466,200.454 148.520 C 200.495 139.465,200.588 137.422,200.839 140.020 C 201.028 141.976,201.769 145.314,202.570 147.820 M144.000 235.396 C 142.130 236.126,138.530 237.481,136.000 238.407 C 133.470 239.333,128.610 241.128,125.200 242.396 C 121.790 243.664,118.313 244.922,117.473 245.191 C 115.675 245.767,115.673 245.754,118.313 249.887 C 119.351 251.512,120.436 253.237,120.724 253.721 C 121.012 254.204,124.917 260.360,129.403 267.400 C 133.888 274.440,139.683 283.559,142.279 287.665 C 144.876 291.771,147.055 295.076,147.122 295.010 C 147.189 294.944,147.279 281.190,147.322 264.445 C 147.365 247.700,147.400 234.016,147.400 234.034 C 147.400 234.053,145.870 234.666,144.000 235.396 " stroke="none" fill="#bed975" fill-rule="evenodd"></path><path id="path2" d="M0.800 200.000 L 0.800 399.200 200.000 399.200 L 399.200 399.200 399.200 200.000 L 399.200 0.800 200.000 0.800 L 0.800 0.800 0.800 200.000 M204.600 97.514 C 206.360 98.173,211.310 100.093,215.600 101.782 C 225.108 105.524,251.437 115.651,269.634 122.566 C 277.023 125.374,283.269 127.796,283.515 127.948 C 283.840 128.149,283.995 144.303,284.081 187.227 L 284.200 246.229 278.365 255.615 C 275.156 260.777,268.067 272.200,262.612 281.000 C 257.157 289.800,252.525 297.109,252.318 297.241 C 251.809 297.569,154.149 297.587,150.491 297.260 L 147.582 297.000 142.632 289.200 C 139.909 284.910,133.665 275.010,128.756 267.200 C 123.848 259.390,118.789 251.405,117.516 249.456 L 115.200 245.912 115.200 186.948 L 115.200 127.983 116.100 127.626 C 117.214 127.185,122.111 125.298,124.000 124.581 C 147.035 115.843,154.627 112.957,156.600 112.188 C 157.920 111.674,161.070 110.503,163.600 109.587 C 166.130 108.671,173.420 105.949,179.800 103.537 C 192.344 98.796,192.912 98.579,196.800 97.038 C 199.781 95.856,200.247 95.884,204.600 97.514 " stroke="none" fill="#040404" fill-rule="evenodd"></path><path id="path3" d="M221.256 106.300 C 222.510 108.340,228.489 117.206,230.756 120.387 C 231.770 121.809,232.960 123.553,233.400 124.261 C 234.787 126.493,241.144 135.312,246.187 142.000 C 247.597 143.870,249.973 147.020,251.466 149.000 C 252.959 150.980,254.395 152.870,254.658 153.200 C 256.841 155.939,259.314 158.865,260.573 160.200 C 261.403 161.080,262.317 162.250,262.604 162.800 C 263.148 163.844,266.277 166.932,273.957 174.004 C 276.463 176.312,279.590 179.243,280.905 180.518 C 282.221 181.793,283.410 182.723,283.549 182.585 C 284.276 181.859,284.056 128.107,283.325 127.823 C 282.926 127.668,280.440 126.728,277.800 125.733 C 275.160 124.739,269.670 122.663,265.600 121.120 C 236.365 110.036,221.989 104.800,220.793 104.800 C 220.531 104.800,220.730 105.443,221.256 106.300 M116.000 198.176 C 116.000 202.013,116.163 205.254,116.363 205.377 C 116.911 205.716,117.338 198.432,116.977 194.903 C 116.802 193.197,116.691 191.665,116.730 191.500 C 116.768 191.335,116.620 191.200,116.400 191.200 C 116.149 191.200,116.000 193.792,116.000 198.176 M172.000 225.166 C 169.690 225.987,166.720 227.040,165.400 227.507 C 164.080 227.973,161.740 228.803,160.200 229.352 C 158.660 229.902,155.330 231.086,152.800 231.985 C 150.270 232.885,147.959 233.931,147.664 234.310 C 146.893 235.302,147.427 294.442,148.226 296.523 C 148.816 298.062,150.290 296.134,151.012 292.877 C 151.387 291.185,151.826 289.710,151.988 289.600 C 152.149 289.490,152.654 288.320,153.109 287.000 C 153.564 285.680,154.159 284.060,154.431 283.400 C 154.702 282.740,154.947 282.020,154.974 281.800 C 155.119 280.612,155.699 278.800,155.934 278.800 C 156.263 278.800,156.881 277.333,157.788 274.400 C 158.163 273.190,158.993 271.094,159.634 269.743 C 160.275 268.391,160.800 266.942,160.800 266.523 C 160.800 266.103,160.955 265.589,161.144 265.380 C 161.333 265.171,162.252 263.020,163.187 260.600 C 164.121 258.180,165.201 255.570,165.585 254.800 C 165.970 254.030,166.525 252.500,166.819 251.400 C 167.113 250.300,167.713 248.786,168.154 248.037 C 169.043 246.522,171.936 239.616,173.364 235.600 C 174.416 232.640,175.663 229.556,177.047 226.489 C 178.630 222.983,178.349 222.910,172.000 225.166 " stroke="none" fill="#b521de" fill-rule="evenodd"></path><path id="path4" d="M0.000 200.000 L 0.000 400.000 200.000 400.000 L 400.000 400.000 400.000 200.000 L 400.000 0.000 200.000 0.000 L 0.000 0.000 0.000 200.000 M399.200 200.000 L 399.200 399.200 200.000 399.200 L 0.800 399.200 0.800 200.000 L 0.800 0.800 200.000 0.800 L 399.200 0.800 399.200 200.000 M197.291 96.883 C 196.130 97.340,195.252 97.785,195.339 97.872 C 195.425 97.958,196.454 97.652,197.624 97.190 C 199.590 96.416,200.229 96.393,202.263 97.026 C 202.675 97.154,202.559 96.985,202.000 96.642 C 200.689 95.837,199.833 95.881,197.291 96.883 M203.233 97.363 C 203.325 97.453,206.010 98.557,209.200 99.815 C 212.390 101.073,216.154 102.631,217.564 103.276 C 220.222 104.493,230.477 108.056,230.695 107.839 C 230.763 107.771,229.149 107.070,227.109 106.282 C 225.069 105.493,219.001 103.127,213.624 101.024 C 204.867 97.599,202.692 96.832,203.233 97.363 M192.600 98.605 C 191.940 98.910,188.204 100.368,184.298 101.844 C 180.392 103.321,177.277 104.611,177.377 104.710 C 177.546 104.879,193.092 99.076,194.400 98.355 C 195.465 97.768,193.959 97.977,192.600 98.605 M172.490 106.284 C 170.449 107.070,168.844 107.777,168.922 107.855 C 169.115 108.048,176.104 105.573,176.580 105.143 C 177.238 104.549,176.347 104.797,172.490 106.284 M163.200 109.671 C 155.927 112.429,154.767 112.901,154.912 113.046 C 155.064 113.198,168.014 108.519,168.338 108.195 C 168.836 107.698,167.054 108.209,163.200 109.671 M150.413 114.457 C 147.534 115.598,146.146 116.359,147.800 115.892 C 149.113 115.521,154.127 113.606,154.338 113.395 C 154.812 112.921,153.171 113.365,150.413 114.457 M144.201 116.854 C 142.021 117.738,141.206 118.283,142.798 117.792 C 144.269 117.338,147.064 116.058,146.600 116.050 C 146.380 116.047,145.301 116.408,144.201 116.854 M139.800 118.614 C 138.800 119.096,138.766 119.151,139.600 118.948 C 140.733 118.671,142.007 118.021,141.400 118.030 C 141.180 118.033,140.460 118.296,139.800 118.614 M124.400 124.400 C 123.867 124.745,123.867 124.788,124.400 124.788 C 124.730 124.788,125.270 124.613,125.600 124.400 C 126.133 124.055,126.133 124.012,125.600 124.012 C 125.270 124.012,124.730 124.187,124.400 124.400 M120.200 126.029 C 119.320 126.452,119.050 126.686,119.600 126.550 C 121.105 126.175,123.084 125.266,122.400 125.262 C 122.070 125.261,121.080 125.606,120.200 126.029 M115.900 127.632 C 115.238 128.017,115.200 131.268,115.200 186.976 L 115.200 245.912 117.516 249.456 C 118.789 251.405,123.848 259.390,128.756 267.200 C 143.985 291.430,147.568 296.989,148.056 297.152 C 148.381 297.260,148.423 297.074,148.191 296.555 C 148.006 296.140,147.792 288.690,147.716 280.000 C 147.640 271.310,147.514 263.750,147.437 263.200 C 147.359 262.650,147.297 269.542,147.298 278.516 C 147.300 287.490,147.233 294.899,147.151 294.981 C 147.068 295.063,144.876 291.771,142.279 287.665 C 139.683 283.559,133.881 274.440,129.388 267.400 C 124.894 260.360,121.077 254.330,120.907 254.000 C 120.736 253.670,119.762 252.123,118.741 250.562 C 115.215 245.172,115.485 247.212,115.733 227.836 C 115.946 211.157,116.131 207.787,116.811 208.207 C 116.988 208.316,117.520 207.243,117.993 205.821 C 119.259 202.016,118.870 196.022,116.954 189.800 C 116.244 187.497,115.997 179.321,115.903 155.014 L 115.800 128.227 116.800 127.720 C 117.350 127.440,117.530 127.215,117.200 127.218 C 116.870 127.222,116.285 127.408,115.900 127.632 M261.901 163.003 C 261.750 163.794,261.820 163.915,262.231 163.574 C 262.518 163.336,262.654 162.885,262.533 162.571 C 262.229 161.777,262.122 161.850,261.901 163.003 M278.800 178.738 C 278.800 178.924,279.188 179.419,279.662 179.838 L 280.524 180.600 279.816 179.500 C 279.086 178.366,278.800 178.151,278.800 178.738 M283.620 180.800 C 283.557 182.010,283.566 183.180,283.641 183.400 C 283.715 183.620,283.879 195.590,284.005 210.000 L 284.234 236.200 284.271 212.600 C 284.304 191.770,283.951 174.487,283.620 180.800 M281.200 181.076 C 281.200 181.296,281.560 181.802,282.000 182.200 C 282.440 182.598,282.800 182.744,282.800 182.524 C 282.800 182.304,282.440 181.798,282.000 181.400 C 281.560 181.002,281.200 180.856,281.200 181.076 M116.730 191.500 C 116.691 191.665,116.802 193.197,116.977 194.903 C 117.338 198.432,116.911 205.716,116.363 205.377 C 115.854 205.062,115.890 191.200,116.400 191.200 C 116.620 191.200,116.768 191.335,116.730 191.500 M280.696 251.148 C 278.989 253.926,277.217 256.785,276.757 257.500 C 276.297 258.215,276.017 258.800,276.134 258.800 C 276.430 258.800,284.143 246.406,283.954 246.235 C 283.869 246.158,282.403 248.369,280.696 251.148 M167.917 248.490 C 167.545 249.210,166.971 250.747,166.641 251.904 C 166.311 253.061,165.779 254.501,165.460 255.104 C 165.140 255.707,164.115 258.180,163.183 260.600 C 162.250 263.020,161.333 265.171,161.144 265.380 C 160.955 265.589,160.800 266.103,160.800 266.523 C 160.800 266.942,160.275 268.391,159.634 269.743 C 158.993 271.094,158.163 273.190,157.788 274.400 C 156.881 277.333,156.263 278.800,155.934 278.800 C 155.699 278.800,155.119 280.612,154.974 281.800 C 154.947 282.020,154.702 282.740,154.431 283.400 C 154.159 284.060,153.564 285.680,153.109 287.000 C 152.654 288.320,152.151 289.490,151.992 289.600 C 151.833 289.710,151.400 291.150,151.031 292.800 C 150.573 294.842,150.087 296.010,149.506 296.457 C 148.163 297.492,153.032 297.659,180.400 297.518 L 204.600 297.394 178.549 297.297 C 149.313 297.188,151.121 297.404,152.630 294.200 C 153.148 293.100,153.579 291.930,153.588 291.600 C 153.597 291.270,153.857 290.517,154.165 289.927 C 154.473 289.337,154.856 288.257,155.016 287.527 C 155.357 285.976,160.372 270.816,161.609 267.600 C 162.074 266.390,163.140 263.420,163.979 261.000 C 166.527 253.643,167.632 250.658,168.286 249.366 C 168.630 248.687,168.839 247.918,168.752 247.656 C 168.665 247.394,168.289 247.769,167.917 248.490 M274.153 261.700 C 272.776 264.036,272.686 264.235,273.387 263.400 C 274.200 262.432,274.900 261.200,274.638 261.200 C 274.533 261.200,274.315 261.425,274.153 261.700 M268.976 270.100 C 264.928 276.694,265.098 276.400,265.337 276.400 C 265.438 276.400,267.044 273.925,268.906 270.900 C 272.860 264.478,272.905 264.400,272.661 264.400 C 272.558 264.400,270.900 266.965,268.976 270.100 M264.553 277.300 C 263.176 279.636,263.086 279.835,263.787 279.000 C 264.600 278.032,265.300 276.800,265.038 276.800 C 264.933 276.800,264.715 277.025,264.553 277.300 M259.353 285.700 C 257.976 288.036,257.886 288.235,258.587 287.400 C 259.400 286.432,260.100 285.200,259.838 285.200 C 259.733 285.200,259.515 285.425,259.353 285.700 M255.004 292.638 C 253.541 294.969,252.407 296.940,252.485 297.018 C 252.563 297.096,253.476 295.774,254.515 294.080 C 255.554 292.386,256.781 290.415,257.242 289.700 C 257.702 288.985,257.985 288.400,257.872 288.400 C 257.758 288.400,256.467 290.307,255.004 292.638 M229.526 297.500 C 233.776 297.564,240.616 297.564,244.726 297.499 C 248.837 297.434,245.360 297.381,237.000 297.381 C 228.640 297.382,225.277 297.435,229.526 297.500 " stroke="none" fill="#6b6b6a" fill-rule="evenodd"></path></g></svg>