<svg id="svg" version="1.1" xmlns="http://www.w3.org/2000/svg" xmlns:xlink="http://www.w3.org/1999/xlink" width="400" height="400" viewBox="0, 0, 400,400"><g id="svgg"><path id="path0" d="M222.800 32.600 C 222.800 33.489,222.608 34.000,222.275 34.000 C 221.558 34.000,220.000 36.180,220.000 37.184 C 220.000 37.643,219.737 38.000,219.400 38.000 C 218.981 38.000,218.800 38.422,218.800 39.400 C 218.800 40.533,218.648 40.800,218.000 40.800 C 217.352 40.800,217.200 41.067,217.200 42.200 C 217.200 43.178,217.019 43.600,216.600 43.600 C 216.270 43.600,216.000 43.876,216.000 44.213 C 216.000 44.549,215.741 44.924,215.424 45.046 C 215.108 45.167,214.734 45.792,214.593 46.433 C 214.452 47.075,214.081 47.600,213.768 47.600 C 213.389 47.600,213.200 48.051,213.200 48.953 C 213.200 49.970,213.001 50.359,212.400 50.516 C 211.817 50.668,211.600 51.062,211.600 51.963 C 211.600 52.796,211.404 53.200,211.000 53.200 C 210.667 53.200,210.400 53.556,210.400 54.000 C 210.400 54.440,210.216 54.800,209.991 54.800 C 209.767 54.800,209.365 55.295,209.100 55.900 C 208.834 56.505,208.388 57.144,208.108 57.320 C 207.829 57.496,207.600 58.171,207.600 58.820 C 207.600 59.602,207.398 60.000,207.000 60.000 C 206.581 60.000,206.400 60.422,206.400 61.400 C 206.400 62.533,206.248 62.800,205.600 62.800 C 205.160 62.800,204.800 63.055,204.800 63.368 C 204.800 64.200,203.509 66.504,202.700 67.116 C 202.315 67.407,202.000 68.085,202.000 68.623 C 202.000 69.225,201.770 69.600,201.400 69.600 C 200.981 69.600,200.800 70.022,200.800 71.000 C 200.800 72.133,200.648 72.400,200.000 72.400 C 199.457 72.400,199.200 72.667,199.200 73.229 C 199.200 73.684,198.930 74.327,198.600 74.657 C 198.270 74.987,198.000 75.604,198.000 76.029 C 198.000 76.453,197.744 76.800,197.432 76.800 C 197.119 76.800,196.748 77.325,196.607 77.967 C 196.466 78.608,196.092 79.233,195.776 79.354 C 195.450 79.479,195.200 80.102,195.200 80.787 C 195.200 81.599,195.001 82.000,194.600 82.000 C 194.267 82.000,194.000 82.356,194.000 82.800 C 194.000 83.240,193.640 83.960,193.200 84.400 C 192.760 84.840,192.400 85.470,192.400 85.800 C 192.400 86.130,192.130 86.400,191.800 86.400 C 191.396 86.400,191.200 86.804,191.200 87.637 C 191.200 88.538,190.983 88.932,190.400 89.084 C 189.833 89.232,189.600 89.630,189.600 90.447 C 189.600 91.205,189.395 91.600,189.000 91.600 C 188.581 91.600,188.400 92.022,188.400 93.000 C 188.400 94.133,188.248 94.400,187.600 94.400 C 187.082 94.400,186.800 94.667,186.800 95.157 C 186.800 95.574,186.530 96.018,186.200 96.145 C 185.857 96.276,185.600 96.873,185.600 97.541 C 185.600 98.370,185.369 98.767,184.800 98.916 C 184.256 99.058,184.000 99.462,184.000 100.175 C 184.000 100.753,183.730 101.329,183.400 101.455 C 183.058 101.587,182.800 102.183,182.800 102.843 C 182.800 103.605,182.595 104.000,182.200 104.000 C 181.870 104.000,181.600 104.152,181.600 104.339 C 181.600 104.525,181.240 105.093,180.800 105.600 C 180.360 106.107,180.000 106.945,180.000 107.461 C 180.000 108.029,179.763 108.400,179.400 108.400 C 178.981 108.400,178.800 108.822,178.800 109.800 C 178.800 110.933,178.648 111.200,178.000 111.200 C 177.352 111.200,177.200 111.467,177.200 112.600 C 177.200 113.578,177.019 114.000,176.600 114.000 C 175.805 114.000,175.835 114.791,176.652 115.388 C 177.224 115.807,179.459 119.504,180.890 122.400 C 181.161 122.950,181.495 123.490,181.630 123.600 C 181.946 123.856,183.035 125.878,183.623 127.300 C 183.873 127.905,184.223 128.400,184.400 128.400 C 184.577 128.400,184.919 128.895,185.159 129.500 C 185.745 130.974,187.942 134.844,188.640 135.631 C 188.948 135.979,189.200 136.490,189.200 136.768 C 189.200 137.046,189.560 137.731,190.000 138.291 C 190.440 138.850,190.800 139.554,190.800 139.854 C 190.800 140.154,190.943 140.400,191.118 140.400 C 191.293 140.400,192.028 141.525,192.751 142.900 C 193.475 144.275,194.406 145.940,194.821 146.600 C 195.235 147.260,195.850 148.340,196.186 149.000 C 196.523 149.660,197.153 150.740,197.586 151.400 C 198.020 152.060,198.645 153.140,198.975 153.800 C 199.306 154.460,200.213 156.080,200.992 157.400 C 201.771 158.720,202.682 160.340,203.017 161.000 C 203.352 161.660,203.980 162.740,204.414 163.400 C 204.847 164.060,205.477 165.140,205.814 165.800 C 206.150 166.460,206.774 167.540,207.200 168.200 C 207.626 168.860,208.245 169.940,208.575 170.600 C 208.906 171.260,209.809 172.880,210.582 174.200 C 212.287 177.112,213.388 179.068,214.071 180.400 C 214.353 180.950,214.711 181.494,214.867 181.608 C 215.023 181.723,215.344 182.263,215.581 182.808 C 215.818 183.354,216.370 184.340,216.807 185.000 C 217.244 185.660,217.876 186.740,218.210 187.400 C 218.817 188.596,220.490 191.561,222.274 194.600 C 222.790 195.480,223.425 196.683,223.684 197.274 C 224.251 198.565,225.541 199.028,225.898 198.069 C 226.035 197.701,228.004 194.217,230.274 190.326 C 232.543 186.435,234.400 183.159,234.400 183.046 C 234.400 182.933,234.920 182.066,235.556 181.120 C 236.711 179.401,238.641 176.064,239.790 173.800 C 240.124 173.140,240.758 172.060,241.198 171.400 C 241.638 170.740,242.196 169.705,242.438 169.100 C 242.680 168.495,243.023 168.000,243.200 168.000 C 243.377 168.000,243.727 167.505,243.978 166.900 C 244.499 165.645,245.657 163.555,246.804 161.800 C 247.235 161.140,247.782 160.154,248.019 159.608 C 248.256 159.063,248.577 158.523,248.733 158.408 C 248.889 158.294,249.236 157.750,249.505 157.200 C 249.774 156.650,250.166 155.930,250.375 155.600 C 250.584 155.270,251.527 153.650,252.470 152.000 C 253.413 150.350,254.323 148.940,254.492 148.867 C 254.662 148.793,254.800 148.558,254.800 148.344 C 254.800 148.131,255.790 146.273,257.000 144.217 C 258.210 142.161,259.200 140.380,259.200 140.260 C 259.200 140.139,259.720 139.266,260.356 138.320 C 261.510 136.603,263.455 133.269,264.628 131.000 C 265.353 129.596,265.818 128.817,267.325 126.481 C 267.935 125.535,268.611 124.365,268.827 123.881 C 269.043 123.396,269.655 122.280,270.189 121.400 C 270.722 120.520,271.337 119.412,271.555 118.939 C 271.772 118.465,272.142 117.960,272.375 117.815 C 273.076 117.382,272.855 115.196,272.000 114.109 C 271.560 113.550,271.200 112.846,271.200 112.546 C 271.200 112.246,271.038 112.000,270.839 112.000 C 270.641 112.000,270.273 111.505,270.022 110.900 C 269.509 109.663,268.364 107.592,267.203 105.800 C 266.775 105.140,266.150 104.060,265.814 103.400 C 265.477 102.740,264.856 101.660,264.432 101.000 C 264.009 100.340,263.156 98.810,262.536 97.600 C 261.915 96.390,261.299 95.310,261.166 95.200 C 260.934 95.009,260.371 94.020,259.002 91.400 C 258.657 90.740,258.022 89.660,257.592 89.000 C 257.161 88.340,256.585 87.350,256.312 86.800 C 256.040 86.250,255.705 85.710,255.570 85.600 C 255.340 85.413,255.011 84.830,253.428 81.800 C 253.084 81.140,252.456 80.060,252.032 79.400 C 251.609 78.740,250.756 77.210,250.136 76.000 C 249.515 74.790,248.877 73.703,248.717 73.585 C 248.557 73.466,247.942 72.476,247.349 71.385 C 246.757 70.293,245.853 68.680,245.341 67.800 C 244.829 66.920,244.186 65.750,243.913 65.200 C 243.640 64.650,243.305 64.110,243.170 64.000 C 242.854 63.744,241.765 61.722,241.177 60.300 C 240.927 59.695,240.577 59.200,240.400 59.200 C 240.223 59.200,239.883 58.705,239.645 58.100 C 239.407 57.495,239.038 56.730,238.825 56.400 C 237.501 54.343,234.000 48.011,234.000 47.673 C 234.000 47.450,233.862 47.207,233.692 47.133 C 233.523 47.060,232.613 45.650,231.670 44.000 C 230.727 42.350,229.783 40.730,229.572 40.400 C 229.361 40.070,228.993 39.305,228.755 38.700 C 228.517 38.095,228.177 37.600,228.000 37.600 C 227.823 37.600,227.473 37.105,227.223 36.500 C 226.400 34.510,225.541 33.152,224.966 32.932 C 224.655 32.812,224.400 32.374,224.400 31.957 C 224.400 31.467,224.118 31.200,223.600 31.200 C 222.952 31.200,222.800 31.467,222.800 32.600 M76.790 116.226 C 76.576 116.790,76.400 117.420,76.400 117.626 C 76.400 117.832,76.130 118.000,75.800 118.000 C 75.381 118.000,75.200 118.422,75.200 119.400 C 75.200 120.378,75.019 120.800,74.600 120.800 C 74.267 120.800,74.000 121.156,74.000 121.600 C 74.000 122.040,73.640 122.760,73.200 123.200 C 72.760 123.640,72.400 124.161,72.400 124.357 C 72.400 124.554,72.130 124.818,71.800 124.945 C 71.457 125.076,71.200 125.673,71.200 126.341 C 71.200 127.170,70.969 127.567,70.400 127.716 C 69.817 127.868,69.600 128.262,69.600 129.163 C 69.600 129.996,69.404 130.400,69.000 130.400 C 68.627 130.400,68.400 130.777,68.400 131.397 C 68.400 131.960,68.052 132.610,67.600 132.893 C 67.160 133.168,66.800 133.625,66.800 133.909 C 66.800 134.193,66.530 134.529,66.200 134.655 C 65.866 134.784,65.600 135.378,65.600 135.996 C 65.600 136.770,65.358 137.170,64.800 137.316 C 64.217 137.468,64.000 137.862,64.000 138.763 C 64.000 139.596,63.804 140.000,63.400 140.000 C 63.037 140.000,62.800 140.371,62.800 140.938 C 62.800 141.454,62.440 142.202,62.000 142.600 C 61.560 142.998,61.200 143.547,61.200 143.819 C 61.200 144.092,60.930 144.418,60.600 144.545 C 60.270 144.671,60.000 145.231,60.000 145.787 C 60.000 146.421,59.775 146.800,59.400 146.800 C 58.981 146.800,58.800 147.222,58.800 148.200 C 58.800 149.333,58.648 149.600,58.000 149.600 C 57.376 149.600,57.200 149.867,57.200 150.813 C 57.200 151.521,56.951 152.121,56.600 152.255 C 56.270 152.382,56.000 152.805,56.000 153.196 C 56.000 153.587,55.640 154.001,55.200 154.116 C 54.671 154.254,54.400 154.662,54.400 155.320 C 54.400 155.867,54.130 156.418,53.800 156.545 C 53.457 156.676,53.200 157.273,53.200 157.941 C 53.200 158.770,52.969 159.167,52.400 159.316 C 51.941 159.436,51.600 159.862,51.600 160.314 C 51.600 160.747,51.330 161.326,51.000 161.600 C 50.670 161.874,50.400 162.436,50.400 162.849 C 50.400 163.262,50.138 163.600,49.818 163.600 C 49.470 163.600,49.131 164.162,48.974 165.000 C 48.823 165.802,48.474 166.400,48.155 166.400 C 47.810 166.400,47.600 166.836,47.600 167.557 C 47.600 168.217,47.342 168.813,47.000 168.945 C 46.670 169.071,46.400 169.497,46.400 169.891 C 46.400 170.285,46.040 170.832,45.600 171.107 C 45.160 171.382,44.800 171.965,44.800 172.403 C 44.800 172.845,44.532 173.200,44.200 173.200 C 43.781 173.200,43.600 173.622,43.600 174.600 C 43.600 175.733,43.448 176.000,42.800 176.000 C 42.152 176.000,42.000 176.267,42.000 177.400 C 42.000 178.378,41.819 178.800,41.400 178.800 C 41.067 178.800,40.800 179.156,40.800 179.600 C 40.800 180.040,40.616 180.400,40.391 180.400 C 40.167 180.400,39.765 180.895,39.500 181.500 C 39.234 182.105,38.788 182.744,38.508 182.920 C 38.229 183.096,38.000 183.750,38.000 184.373 C 38.000 185.170,37.763 185.569,37.200 185.716 C 36.617 185.868,36.400 186.262,36.400 187.163 C 36.400 187.996,36.204 188.400,35.800 188.400 C 35.470 188.400,35.200 188.738,35.200 189.151 C 35.200 189.564,34.930 190.126,34.600 190.400 C 34.270 190.674,34.000 191.215,34.000 191.602 C 34.000 191.990,33.640 192.401,33.200 192.516 C 32.617 192.668,32.400 193.062,32.400 193.963 C 32.400 194.796,32.204 195.200,31.800 195.200 C 31.381 195.200,31.200 195.622,31.200 196.600 C 31.200 197.733,31.048 198.000,30.400 198.000 C 29.666 198.000,29.600 198.267,29.600 201.237 C 29.600 204.138,29.683 204.497,30.400 204.684 C 30.921 204.820,31.200 205.230,31.200 205.859 C 31.200 206.390,31.470 206.929,31.800 207.055 C 32.130 207.182,32.400 207.626,32.400 208.043 C 32.400 208.459,32.651 208.800,32.957 208.800 C 33.569 208.800,34.000 209.641,34.000 210.833 C 34.000 211.255,34.270 211.600,34.600 211.600 C 35.001 211.600,35.200 212.001,35.200 212.813 C 35.200 213.521,35.449 214.121,35.800 214.255 C 36.130 214.382,36.400 214.702,36.400 214.967 C 36.400 215.232,36.760 215.836,37.200 216.308 C 37.640 216.780,38.000 217.425,38.000 217.740 C 38.000 218.056,38.270 218.418,38.600 218.545 C 38.951 218.679,39.200 219.279,39.200 219.987 C 39.200 220.933,39.376 221.200,40.000 221.200 C 40.648 221.200,40.800 221.467,40.800 222.600 C 40.800 223.578,40.981 224.000,41.400 224.000 C 41.730 224.000,42.000 224.348,42.000 224.773 C 42.000 225.198,42.360 225.660,42.800 225.800 C 43.360 225.978,43.600 226.405,43.600 227.227 C 43.600 228.003,43.803 228.400,44.200 228.400 C 44.595 228.400,44.800 228.795,44.800 229.553 C 44.800 230.370,45.033 230.768,45.600 230.916 C 46.183 231.068,46.400 231.462,46.400 232.363 C 46.400 233.196,46.596 233.600,47.000 233.600 C 47.333 233.600,47.600 233.956,47.600 234.400 C 47.600 234.844,47.867 235.200,48.200 235.200 C 48.530 235.200,48.800 235.545,48.800 235.967 C 48.800 237.159,49.231 238.000,49.843 238.000 C 50.193 238.000,50.400 238.438,50.400 239.180 C 50.400 239.829,50.629 240.504,50.908 240.680 C 51.188 240.856,51.634 241.495,51.900 242.100 C 52.165 242.705,52.567 243.200,52.791 243.200 C 53.016 243.200,53.200 243.560,53.200 244.000 C 53.200 244.444,53.467 244.800,53.800 244.800 C 54.204 244.800,54.400 245.204,54.400 246.037 C 54.400 246.938,54.617 247.332,55.200 247.484 C 55.763 247.631,56.000 248.030,56.000 248.827 C 56.000 249.450,56.229 250.104,56.508 250.280 C 56.788 250.456,57.234 251.095,57.500 251.700 C 57.765 252.305,58.167 252.800,58.391 252.800 C 58.616 252.800,58.800 253.160,58.800 253.600 C 58.800 254.044,59.067 254.400,59.400 254.400 C 59.819 254.400,60.000 254.822,60.000 255.800 C 60.000 256.743,60.185 257.200,60.568 257.200 C 60.881 257.200,61.258 257.752,61.406 258.427 C 61.554 259.102,61.928 259.751,62.238 259.870 C 62.547 259.988,62.800 260.259,62.800 260.471 C 62.800 260.684,63.070 261.127,63.400 261.457 C 63.730 261.787,64.000 262.494,64.000 263.029 C 64.000 263.733,64.220 264.000,64.800 264.000 C 65.448 264.000,65.600 264.267,65.600 265.400 C 65.600 266.378,65.781 266.800,66.200 266.800 C 66.533 266.800,66.800 267.156,66.800 267.600 C 66.800 268.040,67.129 268.729,67.531 269.131 C 67.932 269.532,68.377 270.162,68.518 270.531 C 68.659 270.899,68.961 271.200,69.187 271.200 C 69.414 271.200,69.600 271.740,69.600 272.400 C 69.600 273.333,69.778 273.600,70.400 273.600 C 71.048 273.600,71.200 273.867,71.200 275.000 C 71.200 275.978,71.381 276.400,71.800 276.400 C 72.133 276.400,72.400 276.756,72.400 277.200 C 72.400 277.640,72.760 278.360,73.200 278.800 C 73.640 279.240,74.000 279.870,74.000 280.200 C 74.000 280.530,74.270 280.800,74.600 280.800 C 75.001 280.800,75.200 281.201,75.200 282.013 C 75.200 282.698,75.450 283.321,75.776 283.446 C 76.092 283.567,76.466 284.192,76.607 284.833 C 76.863 285.995,78.000 286.498,78.000 285.449 C 78.000 285.146,78.280 284.665,78.623 284.381 C 78.966 284.096,79.504 283.309,79.819 282.632 C 80.644 280.858,82.702 277.277,84.044 275.280 C 84.680 274.334,85.200 273.461,85.200 273.340 C 85.200 273.220,86.161 271.474,87.335 269.460 C 88.509 267.447,89.591 265.530,89.740 265.200 C 89.888 264.870,90.367 264.060,90.805 263.400 C 91.243 262.740,91.877 261.660,92.214 261.000 C 92.550 260.340,93.174 259.260,93.600 258.600 C 94.026 257.940,94.650 256.860,94.986 256.200 C 95.323 255.540,95.956 254.460,96.393 253.800 C 96.830 253.140,97.377 252.167,97.608 251.637 C 97.839 251.108,98.562 249.884,99.214 248.917 C 99.866 247.951,100.400 247.057,100.400 246.932 C 100.400 246.807,101.660 244.575,103.200 241.972 C 104.740 239.370,106.000 237.088,106.000 236.900 C 106.000 236.713,106.217 236.343,106.482 236.078 C 107.080 235.480,109.433 231.386,110.034 229.900 C 110.278 229.295,110.623 228.800,110.800 228.800 C 110.977 228.800,111.319 228.305,111.559 227.700 C 112.145 226.226,114.342 222.356,115.040 221.569 C 115.348 221.221,115.600 220.739,115.600 220.497 C 115.600 220.255,115.827 219.819,116.105 219.529 C 116.382 219.238,116.831 218.550,117.102 218.000 C 117.373 217.450,117.768 216.730,117.980 216.400 C 118.967 214.862,125.200 203.938,125.200 203.745 C 125.200 203.624,125.560 203.069,126.000 202.509 C 127.238 200.936,127.026 199.377,125.198 196.600 C 124.764 195.940,124.185 194.950,123.912 194.400 C 123.640 193.850,123.305 193.310,123.170 193.200 C 122.940 193.013,122.611 192.430,121.028 189.400 C 120.684 188.740,120.042 187.660,119.602 187.000 C 119.162 186.340,118.604 185.305,118.362 184.700 C 118.120 184.095,117.777 183.600,117.600 183.600 C 117.423 183.600,117.081 183.105,116.839 182.500 C 116.597 181.895,116.040 180.815,115.600 180.100 C 113.502 176.691,113.181 176.133,112.780 175.208 C 112.543 174.663,112.223 174.123,112.067 174.008 C 111.911 173.894,111.561 173.350,111.289 172.800 C 111.016 172.250,110.413 171.170,109.948 170.400 C 109.483 169.630,108.578 168.016,107.935 166.814 C 107.293 165.611,106.637 164.531,106.476 164.414 C 106.315 164.296,105.966 163.750,105.699 163.200 C 105.432 162.650,104.581 161.120,103.808 159.800 C 103.034 158.480,102.180 156.950,101.909 156.400 C 101.638 155.850,101.308 155.310,101.176 155.200 C 101.045 155.090,100.411 154.016,99.768 152.814 C 99.126 151.611,98.375 150.384,98.100 150.085 C 97.825 149.787,97.600 149.385,97.600 149.191 C 97.600 148.998,97.066 148.049,96.414 147.083 C 95.762 146.116,95.039 144.892,94.808 144.363 C 94.577 143.833,94.030 142.860,93.593 142.200 C 93.156 141.540,92.523 140.460,92.186 139.800 C 91.850 139.140,91.220 138.060,90.786 137.400 C 90.353 136.740,89.723 135.660,89.386 135.000 C 89.050 134.340,88.420 133.260,87.986 132.600 C 87.553 131.940,86.923 130.860,86.586 130.200 C 86.250 129.540,85.626 128.460,85.200 127.800 C 84.774 127.140,84.150 126.060,83.814 125.400 C 83.477 124.740,82.847 123.660,82.414 123.000 C 81.980 122.340,81.368 121.237,81.054 120.549 C 80.739 119.861,80.283 119.175,80.041 119.025 C 79.798 118.875,79.600 118.416,79.600 118.003 C 79.600 117.591,79.240 117.140,78.800 117.000 C 78.360 116.860,78.000 116.398,78.000 115.973 C 78.000 114.863,77.249 115.020,76.790 116.226 M224.543 202.486 C 224.090 202.989,223.600 203.670,223.455 204.000 C 223.310 204.330,222.833 205.140,222.395 205.800 C 221.957 206.460,221.321 207.540,220.983 208.200 C 220.644 208.860,219.970 210.071,219.484 210.891 C 218.998 211.710,218.082 213.330,217.449 214.491 C 216.815 215.651,216.182 216.690,216.040 216.800 C 215.899 216.910,215.564 217.450,215.295 218.000 C 215.026 218.550,214.632 219.270,214.420 219.600 C 214.209 219.930,212.494 222.900,210.610 226.200 C 208.727 229.500,207.005 232.470,206.785 232.800 C 206.564 233.130,206.112 233.940,205.779 234.600 C 205.447 235.260,204.820 236.340,204.386 237.000 C 203.953 237.660,203.323 238.740,202.986 239.400 C 202.650 240.060,202.026 241.140,201.600 241.800 C 201.174 242.460,200.545 243.540,200.202 244.200 C 199.859 244.860,199.358 245.761,199.089 246.202 C 198.820 246.644,197.921 248.174,197.091 249.602 C 196.262 251.031,195.416 252.470,195.212 252.800 C 193.658 255.315,189.200 263.207,189.200 263.443 C 189.200 263.605,188.948 264.021,188.640 264.369 C 187.942 265.156,185.745 269.026,185.159 270.500 C 184.919 271.105,184.577 271.600,184.400 271.600 C 184.223 271.600,183.880 272.095,183.638 272.700 C 183.396 273.305,182.844 274.340,182.412 275.000 C 181.979 275.660,181.348 276.740,181.010 277.400 C 180.671 278.060,179.963 279.320,179.435 280.200 C 178.907 281.080,177.971 282.745,177.354 283.900 C 176.738 285.055,176.021 286.000,175.763 286.000 C 175.505 286.000,175.199 286.360,175.084 286.800 C 174.948 287.320,175.072 287.600,175.437 287.600 C 175.814 287.600,176.000 288.064,176.000 289.000 C 176.000 289.978,176.181 290.400,176.600 290.400 C 177.004 290.400,177.200 290.804,177.200 291.637 C 177.200 292.538,177.417 292.932,178.000 293.084 C 178.521 293.220,178.800 293.630,178.800 294.259 C 178.800 294.790,179.070 295.329,179.400 295.455 C 179.730 295.582,180.000 296.026,180.000 296.443 C 180.000 296.859,180.250 297.200,180.555 297.200 C 180.874 297.200,181.223 297.798,181.374 298.600 C 181.531 299.438,181.870 300.000,182.218 300.000 C 182.599 300.000,182.800 300.418,182.800 301.213 C 182.800 301.921,183.049 302.521,183.400 302.655 C 183.730 302.782,184.000 303.093,184.000 303.347 C 184.000 303.600,184.360 304.032,184.800 304.307 C 185.252 304.590,185.600 305.240,185.600 305.803 C 185.600 306.423,185.827 306.800,186.200 306.800 C 186.604 306.800,186.800 307.204,186.800 308.037 C 186.800 308.938,187.017 309.332,187.600 309.484 C 188.158 309.630,188.400 310.030,188.400 310.804 C 188.400 311.422,188.666 312.016,189.000 312.145 C 189.330 312.271,189.600 312.651,189.600 312.987 C 189.600 313.333,189.948 313.600,190.400 313.600 C 191.048 313.600,191.200 313.867,191.200 315.000 C 191.200 315.978,191.381 316.400,191.800 316.400 C 192.219 316.400,192.400 316.822,192.400 317.800 C 192.400 318.933,192.552 319.200,193.200 319.200 C 193.776 319.200,194.000 319.467,194.000 320.151 C 194.000 320.674,194.270 321.326,194.600 321.600 C 194.930 321.874,195.200 322.352,195.200 322.662 C 195.200 322.971,195.470 323.329,195.800 323.455 C 196.130 323.582,196.400 324.133,196.400 324.680 C 196.400 325.338,196.671 325.746,197.200 325.884 C 197.801 326.041,198.000 326.430,198.000 327.447 C 198.000 328.383,198.185 328.800,198.600 328.800 C 198.930 328.800,199.200 329.148,199.200 329.573 C 199.200 329.998,199.560 330.460,200.000 330.600 C 200.560 330.778,200.800 331.205,200.800 332.027 C 200.800 332.803,201.003 333.200,201.400 333.200 C 201.797 333.200,202.000 333.597,202.000 334.373 C 202.000 335.195,202.240 335.622,202.800 335.800 C 203.360 335.978,203.600 336.405,203.600 337.227 C 203.600 338.003,203.803 338.400,204.200 338.400 C 204.533 338.400,204.800 338.756,204.800 339.200 C 204.800 339.733,205.067 340.000,205.600 340.000 C 206.248 340.000,206.400 340.267,206.400 341.400 C 206.400 342.378,206.581 342.800,207.000 342.800 C 207.398 342.800,207.600 343.198,207.600 343.980 C 207.600 344.629,207.829 345.304,208.108 345.480 C 208.388 345.656,208.834 346.295,209.100 346.900 C 209.365 347.505,209.767 348.000,209.991 348.000 C 210.216 348.000,210.400 348.360,210.400 348.800 C 210.400 349.244,210.667 349.600,211.000 349.600 C 211.404 349.600,211.600 350.004,211.600 350.837 C 211.600 351.738,211.817 352.132,212.400 352.284 C 212.969 352.433,213.200 352.830,213.200 353.659 C 213.200 354.327,213.457 354.924,213.800 355.055 C 214.130 355.182,214.400 355.493,214.400 355.747 C 214.400 356.000,214.760 356.432,215.200 356.707 C 215.652 356.990,216.000 357.640,216.000 358.203 C 216.000 358.823,216.227 359.200,216.600 359.200 C 217.019 359.200,217.200 359.622,217.200 360.600 C 217.200 361.733,217.352 362.000,218.000 362.000 C 218.624 362.000,218.800 362.267,218.800 363.213 C 218.800 363.921,219.049 364.521,219.400 364.655 C 219.730 364.782,220.000 365.136,220.000 365.443 C 220.000 365.749,220.270 366.000,220.600 366.000 C 220.930 366.000,221.200 366.345,221.200 366.767 C 221.200 367.959,221.631 368.800,222.243 368.800 C 222.549 368.800,222.800 369.160,222.800 369.600 C 222.800 370.133,223.067 370.400,223.600 370.400 C 224.219 370.400,224.400 370.133,224.400 369.224 C 224.400 368.577,224.552 367.953,224.737 367.839 C 225.074 367.630,228.800 361.386,228.800 361.029 C 228.800 360.925,229.320 360.066,229.956 359.120 C 231.143 357.353,233.138 353.926,234.217 351.800 C 234.552 351.140,235.178 350.060,235.608 349.400 C 236.039 348.740,236.615 347.750,236.888 347.200 C 237.160 346.650,237.495 346.110,237.630 346.000 C 237.865 345.809,238.421 344.835,239.798 342.200 C 240.143 341.540,240.779 340.460,241.212 339.800 C 241.644 339.140,242.196 338.105,242.438 337.500 C 242.680 336.895,243.023 336.400,243.200 336.400 C 243.377 336.400,243.720 335.905,243.962 335.300 C 244.204 334.695,244.762 333.660,245.202 333.000 C 245.642 332.340,246.284 331.260,246.628 330.600 C 248.211 327.570,248.540 326.987,248.770 326.800 C 248.905 326.690,249.246 326.150,249.528 325.600 C 249.809 325.050,250.311 324.150,250.642 323.600 C 250.974 323.050,251.678 321.880,252.207 321.000 C 252.736 320.120,253.373 318.905,253.623 318.300 C 253.874 317.695,254.241 317.200,254.439 317.200 C 254.638 317.200,254.803 316.975,254.808 316.700 C 254.812 316.425,255.389 315.300,256.090 314.200 C 257.423 312.108,257.860 311.357,259.748 307.901 C 260.380 306.745,261.415 305.026,262.048 304.080 C 262.682 303.134,263.200 302.265,263.200 302.150 C 263.200 301.769,266.578 296.203,266.892 296.067 C 267.062 295.993,267.200 295.750,267.200 295.527 C 267.200 295.304,268.190 293.439,269.400 291.383 C 270.610 289.327,271.600 287.477,271.600 287.271 C 271.600 287.066,271.870 286.674,272.200 286.400 C 272.975 285.757,272.992 283.249,272.224 282.954 C 271.908 282.833,271.534 282.208,271.393 281.567 C 271.252 280.925,270.973 280.400,270.774 280.400 C 270.574 280.400,270.144 279.815,269.817 279.100 C 269.491 278.385,268.589 276.720,267.813 275.400 C 267.037 274.080,266.180 272.550,265.909 272.000 C 265.638 271.450,265.289 270.906,265.133 270.792 C 264.977 270.677,264.656 270.137,264.419 269.592 C 264.182 269.046,263.630 268.060,263.193 267.400 C 262.756 266.740,262.116 265.660,261.772 265.000 C 260.189 261.970,259.860 261.387,259.630 261.200 C 259.495 261.090,259.160 260.550,258.888 260.000 C 258.615 259.450,258.039 258.460,257.608 257.800 C 257.178 257.140,256.552 256.060,256.217 255.400 C 255.882 254.740,254.973 253.120,254.197 251.800 C 253.421 250.480,252.568 248.950,252.301 248.400 C 252.034 247.850,251.699 247.310,251.555 247.200 C 251.411 247.090,250.715 245.920,250.009 244.600 C 249.302 243.280,248.381 241.660,247.961 241.000 C 247.542 240.340,246.923 239.260,246.586 238.600 C 246.250 237.940,245.626 236.860,245.200 236.200 C 244.774 235.540,244.150 234.460,243.814 233.800 C 243.477 233.140,242.847 232.060,242.414 231.400 C 241.980 230.740,241.343 229.660,240.998 229.000 C 239.637 226.396,239.066 225.392,238.838 225.200 C 238.707 225.090,238.150 224.100,237.600 223.000 C 237.050 221.900,236.493 220.910,236.362 220.800 C 236.134 220.608,235.563 219.604,234.202 217.000 C 233.857 216.340,233.222 215.260,232.792 214.600 C 232.361 213.940,231.785 212.950,231.512 212.400 C 231.240 211.850,230.889 211.306,230.733 211.192 C 230.577 211.077,230.255 210.537,230.016 209.992 C 229.777 209.446,229.145 208.280,228.611 207.400 C 227.556 205.659,227.121 204.890,226.061 202.886 L 225.366 201.571 224.543 202.486 " stroke="none" fill="#1c1c4c" fill-rule="evenodd"></path><path id="path1" d="M226.000 31.694 C 226.000 32.188,227.998 36.421,228.409 36.800 C 228.529 36.910,229.395 38.350,230.335 40.000 C 231.275 41.650,232.216 43.270,232.425 43.600 C 232.634 43.930,233.026 44.650,233.295 45.200 C 233.564 45.750,233.895 46.290,234.030 46.400 C 234.346 46.656,235.435 48.678,236.023 50.100 C 236.273 50.705,236.623 51.200,236.800 51.200 C 236.977 51.200,237.319 51.695,237.559 52.300 C 238.055 53.547,240.244 57.493,240.943 58.400 C 241.197 58.730,241.854 59.900,242.403 61.000 C 242.951 62.100,243.496 63.090,243.613 63.200 C 243.730 63.310,244.595 64.750,245.535 66.400 C 246.475 68.050,247.416 69.670,247.625 70.000 C 247.834 70.330,248.226 71.050,248.495 71.600 C 248.764 72.150,249.095 72.690,249.230 72.800 C 249.460 72.987,249.789 73.570,251.372 76.600 C 251.716 77.260,252.357 78.340,252.795 79.000 C 253.233 79.660,253.712 80.470,253.860 80.800 C 254.007 81.130,255.359 83.503,256.864 86.074 C 258.369 88.645,259.600 90.881,259.600 91.043 C 259.600 91.205,259.852 91.621,260.160 91.969 C 260.858 92.756,263.055 96.626,263.641 98.100 C 263.881 98.705,264.223 99.200,264.400 99.200 C 264.577 99.200,264.919 99.695,265.159 100.300 C 265.745 101.774,267.942 105.644,268.640 106.431 C 268.948 106.779,269.200 107.290,269.200 107.568 C 269.200 107.846,269.560 108.531,270.000 109.091 C 270.440 109.650,270.800 110.354,270.800 110.654 C 270.800 110.954,270.943 111.200,271.117 111.200 C 271.291 111.200,271.966 112.272,272.617 113.583 L 273.800 115.966 322.700 115.983 L 371.600 116.000 371.600 114.387 C 371.600 113.323,371.396 112.697,371.000 112.545 C 370.670 112.418,370.400 112.107,370.400 111.853 C 370.400 111.600,370.040 111.168,369.600 110.893 C 369.148 110.610,368.800 109.960,368.800 109.397 C 368.800 108.777,368.573 108.400,368.200 108.400 C 367.781 108.400,367.600 107.978,367.600 107.000 C 367.600 105.867,367.448 105.600,366.800 105.600 C 366.176 105.600,366.000 105.333,366.000 104.387 C 366.000 103.679,365.751 103.079,365.400 102.945 C 365.070 102.818,364.800 102.458,364.800 102.145 C 364.800 101.831,364.530 101.471,364.200 101.345 C 363.870 101.218,363.600 100.667,363.600 100.120 C 363.600 99.462,363.329 99.054,362.800 98.916 C 362.199 98.759,362.000 98.370,362.000 97.353 C 362.000 96.417,361.815 96.000,361.400 96.000 C 361.067 96.000,360.800 95.644,360.800 95.200 C 360.800 94.760,360.440 94.040,360.000 93.600 C 359.560 93.160,359.200 92.530,359.200 92.200 C 359.200 91.870,358.930 91.600,358.600 91.600 C 358.203 91.600,358.000 91.203,358.000 90.427 C 358.000 89.605,357.760 89.178,357.200 89.000 C 356.640 88.822,356.400 88.395,356.400 87.573 C 356.400 86.797,356.197 86.400,355.800 86.400 C 355.467 86.400,355.200 86.044,355.200 85.600 C 355.200 85.160,354.840 84.440,354.400 84.000 C 353.960 83.560,353.600 82.930,353.600 82.600 C 353.600 82.270,353.330 82.000,353.000 82.000 C 352.599 82.000,352.400 81.599,352.400 80.787 C 352.400 80.102,352.150 79.479,351.824 79.354 C 351.508 79.233,351.134 78.608,350.993 77.967 C 350.852 77.325,350.481 76.800,350.168 76.800 C 349.856 76.800,349.600 76.453,349.600 76.029 C 349.600 75.604,349.330 74.987,349.000 74.657 C 348.670 74.327,348.400 73.757,348.400 73.391 C 348.400 73.025,348.040 72.631,347.600 72.516 C 346.999 72.359,346.800 71.970,346.800 70.953 C 346.800 70.017,346.615 69.600,346.200 69.600 C 345.827 69.600,345.600 69.223,345.600 68.603 C 345.600 68.040,345.252 67.390,344.800 67.107 C 344.360 66.832,344.000 66.458,344.000 66.275 C 344.000 66.092,343.730 65.673,343.400 65.343 C 343.070 65.013,342.800 64.306,342.800 63.771 C 342.800 63.067,342.580 62.800,342.000 62.800 C 341.352 62.800,341.200 62.533,341.200 61.400 C 341.200 60.422,341.019 60.000,340.600 60.000 C 340.230 60.000,340.000 59.625,340.000 59.022 C 340.000 58.462,339.403 57.394,338.602 56.522 C 337.833 55.685,337.203 54.595,337.202 54.100 C 337.201 53.568,336.955 53.200,336.600 53.200 C 336.196 53.200,336.000 52.796,336.000 51.963 C 336.000 51.062,335.783 50.668,335.200 50.516 C 334.631 50.367,334.400 49.970,334.400 49.141 C 334.400 48.473,334.143 47.876,333.800 47.745 C 333.470 47.618,333.200 47.264,333.200 46.957 C 333.200 46.651,332.840 46.400,332.400 46.400 C 331.752 46.400,331.600 46.133,331.600 45.000 C 331.600 44.022,331.419 43.600,331.000 43.600 C 330.596 43.600,330.400 43.196,330.400 42.363 C 330.400 41.462,330.183 41.068,329.600 40.916 C 329.031 40.767,328.800 40.370,328.800 39.541 C 328.800 38.873,328.543 38.276,328.200 38.145 C 327.870 38.018,327.600 37.670,327.600 37.371 C 327.600 37.073,327.240 36.635,326.800 36.400 C 326.332 36.150,326.000 35.562,326.000 34.986 C 326.000 34.376,325.771 34.000,325.400 34.000 C 324.981 34.000,324.800 33.578,324.800 32.600 L 324.800 31.200 275.400 31.200 C 236.453 31.200,226.000 31.305,226.000 31.694 M80.006 116.100 C 80.009 116.595,80.271 117.450,80.589 118.000 C 80.906 118.550,81.365 119.446,81.608 119.992 C 81.851 120.537,82.177 121.077,82.333 121.192 C 82.489 121.306,82.839 121.850,83.112 122.400 C 83.683 123.554,85.397 126.540,86.325 128.000 C 86.674 128.550,87.392 129.810,87.921 130.800 C 88.449 131.790,89.403 133.374,90.041 134.320 C 90.678 135.266,91.200 136.127,91.200 136.234 C 91.200 136.341,92.820 139.196,94.800 142.578 C 96.780 145.961,98.400 148.925,98.400 149.164 C 98.400 149.404,98.562 149.600,98.761 149.600 C 98.959 149.600,99.323 150.095,99.570 150.700 C 100.136 152.089,101.249 154.008,101.900 154.714 C 102.175 155.013,102.400 155.455,102.400 155.697 C 102.400 155.939,102.652 156.421,102.960 156.769 C 103.658 157.556,105.855 161.426,106.441 162.900 C 106.681 163.505,107.023 164.000,107.200 164.000 C 107.377 164.000,107.720 164.495,107.962 165.100 C 108.204 165.705,108.762 166.740,109.202 167.400 C 109.642 168.060,110.277 169.140,110.614 169.800 C 110.950 170.460,111.574 171.540,112.000 172.200 C 112.426 172.860,113.050 173.940,113.386 174.600 C 113.723 175.260,114.353 176.340,114.786 177.000 C 115.220 177.660,115.850 178.740,116.186 179.400 C 116.523 180.060,117.156 181.140,117.593 181.800 C 118.030 182.460,118.577 183.433,118.808 183.963 C 119.039 184.492,119.762 185.716,120.414 186.683 C 121.066 187.649,121.600 188.524,121.600 188.626 C 121.600 189.532,128.283 200.055,128.965 200.221 C 130.161 200.512,223.884 200.250,224.179 199.954 C 224.315 199.819,223.790 198.743,223.013 197.563 C 222.236 196.383,221.600 195.189,221.600 194.909 C 221.600 194.629,221.438 194.400,221.239 194.400 C 221.041 194.400,220.673 193.905,220.422 193.300 C 219.941 192.142,219.282 190.934,216.987 187.000 C 216.216 185.680,215.368 184.150,215.101 183.600 C 214.834 183.050,214.499 182.510,214.355 182.400 C 214.211 182.290,213.515 181.120,212.809 179.800 C 212.102 178.480,211.181 176.860,210.761 176.200 C 210.342 175.540,209.716 174.460,209.372 173.800 C 207.789 170.770,207.460 170.187,207.230 170.000 C 207.095 169.890,206.761 169.350,206.489 168.800 C 206.216 168.250,205.613 167.170,205.148 166.400 C 204.683 165.630,203.819 164.100,203.228 163.000 C 202.636 161.900,201.697 160.280,201.140 159.400 C 199.872 157.395,198.963 155.717,198.377 154.300 C 198.127 153.695,197.777 153.200,197.600 153.200 C 197.423 153.200,197.081 152.705,196.841 152.100 C 196.444 151.103,195.879 150.074,192.938 145.000 C 192.427 144.120,191.786 142.950,191.513 142.400 C 191.240 141.850,190.889 141.306,190.733 141.192 C 190.577 141.077,190.256 140.537,190.019 139.992 C 189.782 139.446,189.230 138.460,188.793 137.800 C 188.356 137.140,187.721 136.060,187.383 135.400 C 187.044 134.740,186.370 133.529,185.884 132.709 C 184.921 131.085,183.316 128.206,182.144 126.000 C 181.735 125.230,181.286 124.510,181.146 124.400 C 181.007 124.290,180.315 123.120,179.609 121.800 C 178.902 120.480,177.983 118.860,177.567 118.200 C 177.150 117.540,176.598 116.595,176.340 116.100 L 175.872 115.200 127.936 115.200 L 80.000 115.200 80.006 116.100 M226.543 201.005 C 226.394 201.392,226.485 201.999,226.744 202.354 C 227.004 202.709,227.485 203.540,227.814 204.200 C 228.143 204.860,228.581 205.670,228.787 206.000 C 230.038 208.001,234.800 216.343,234.800 216.532 C 234.800 216.657,235.334 217.551,235.986 218.517 C 236.638 219.484,237.361 220.708,237.592 221.237 C 237.823 221.767,238.370 222.740,238.807 223.400 C 239.244 224.060,239.877 225.140,240.214 225.800 C 240.550 226.460,241.174 227.540,241.600 228.200 C 242.026 228.860,242.657 229.940,243.002 230.600 C 244.379 233.235,244.935 234.209,245.170 234.400 C 245.305 234.510,245.639 235.050,245.911 235.600 C 246.184 236.150,246.787 237.230,247.252 238.000 C 247.717 238.770,248.581 240.300,249.172 241.400 C 249.764 242.500,250.740 244.174,251.341 245.119 C 251.943 246.065,252.609 247.235,252.823 247.719 C 253.037 248.204,253.570 249.140,254.007 249.800 C 254.444 250.460,255.077 251.540,255.414 252.200 C 255.750 252.860,256.374 253.940,256.800 254.600 C 257.226 255.260,257.850 256.340,258.186 257.000 C 258.523 257.660,259.156 258.740,259.593 259.400 C 260.030 260.060,260.552 260.968,260.753 261.419 C 260.954 261.869,262.037 263.792,263.159 265.692 C 264.282 267.593,265.200 269.240,265.200 269.354 C 265.200 269.467,265.734 270.351,266.386 271.317 C 267.038 272.284,267.761 273.508,267.992 274.037 C 268.223 274.567,268.770 275.540,269.207 276.200 C 269.644 276.860,270.277 277.940,270.614 278.600 C 270.950 279.260,271.577 280.340,272.007 281.000 C 272.437 281.660,272.982 282.646,273.219 283.192 C 273.456 283.737,273.864 284.320,274.125 284.486 C 274.386 284.652,296.425 284.791,323.100 284.794 L 371.600 284.800 371.600 283.429 C 371.600 282.674,371.330 281.787,371.000 281.457 C 370.670 281.127,370.400 280.557,370.400 280.191 C 370.400 279.825,370.040 279.431,369.600 279.316 C 369.031 279.167,368.800 278.770,368.800 277.941 C 368.800 277.273,368.543 276.676,368.200 276.545 C 367.870 276.418,367.600 275.867,367.600 275.320 C 367.600 274.662,367.329 274.254,366.800 274.116 C 366.360 274.001,366.000 273.587,366.000 273.196 C 366.000 272.805,365.730 272.382,365.400 272.255 C 365.049 272.121,364.800 271.521,364.800 270.813 C 364.800 270.001,364.601 269.600,364.200 269.600 C 363.870 269.600,363.600 269.255,363.600 268.833 C 363.600 267.641,363.169 266.800,362.557 266.800 C 362.205 266.800,362.000 266.359,362.000 265.600 C 362.000 264.800,361.800 264.400,361.400 264.400 C 361.070 264.400,360.800 264.083,360.800 263.696 C 360.800 263.309,360.440 262.768,360.000 262.493 C 359.548 262.210,359.200 261.560,359.200 260.997 C 359.200 260.377,358.973 260.000,358.600 260.000 C 358.196 260.000,358.000 259.596,358.000 258.763 C 358.000 257.862,357.783 257.468,357.200 257.316 C 356.642 257.170,356.400 256.770,356.400 255.996 C 356.400 255.378,356.134 254.784,355.800 254.655 C 355.470 254.529,355.200 254.193,355.200 253.909 C 355.200 253.625,354.840 253.168,354.400 252.893 C 353.948 252.610,353.600 251.960,353.600 251.397 C 353.600 250.777,353.373 250.400,353.000 250.400 C 352.581 250.400,352.400 249.978,352.400 249.000 C 352.400 248.057,352.215 247.600,351.832 247.600 C 351.519 247.600,351.142 247.048,350.994 246.373 C 350.846 245.698,350.472 245.049,350.162 244.930 C 349.853 244.812,349.600 244.541,349.600 244.329 C 349.600 244.116,349.330 243.673,349.000 243.343 C 348.670 243.013,348.400 242.306,348.400 241.771 C 348.400 241.067,348.180 240.800,347.600 240.800 C 346.952 240.800,346.800 240.533,346.800 239.400 C 346.800 238.422,346.619 238.000,346.200 238.000 C 345.867 238.000,345.600 237.644,345.600 237.200 C 345.600 236.760,345.240 236.040,344.800 235.600 C 344.360 235.160,344.000 234.620,344.000 234.400 C 344.000 234.180,343.730 234.000,343.400 234.000 C 342.981 234.000,342.800 233.578,342.800 232.600 C 342.800 231.467,342.648 231.200,342.000 231.200 C 341.352 231.200,341.200 230.933,341.200 229.800 C 341.200 228.822,341.019 228.400,340.600 228.400 C 340.237 228.400,340.000 228.029,340.000 227.461 C 340.000 226.945,339.640 226.107,339.200 225.600 C 338.760 225.093,338.400 224.525,338.400 224.339 C 338.400 224.152,338.130 224.000,337.800 224.000 C 337.405 224.000,337.200 223.605,337.200 222.843 C 337.200 222.183,336.942 221.587,336.600 221.455 C 336.270 221.329,336.000 220.753,336.000 220.175 C 336.000 219.462,335.744 219.058,335.200 218.916 C 334.637 218.769,334.400 218.370,334.400 217.573 C 334.400 216.950,334.161 216.296,333.870 216.120 C 333.578 215.944,333.224 215.485,333.082 215.100 C 332.941 214.715,332.549 214.400,332.213 214.400 C 331.779 214.400,331.600 213.991,331.600 213.000 C 331.600 212.022,331.419 211.600,331.000 211.600 C 330.600 211.600,330.400 211.200,330.400 210.400 C 330.400 209.467,330.222 209.200,329.600 209.200 C 328.976 209.200,328.800 208.933,328.800 207.987 C 328.800 207.279,328.551 206.679,328.200 206.545 C 327.870 206.418,327.600 205.995,327.600 205.604 C 327.600 205.213,327.240 204.799,326.800 204.684 C 326.217 204.532,326.000 204.138,326.000 203.237 C 326.000 202.437,325.800 202.000,325.433 202.000 C 325.122 202.000,324.807 201.833,324.733 201.629 C 324.654 201.408,310.575 201.167,289.800 201.032 C 270.660 200.908,248.658 200.692,240.906 200.554 C 227.692 200.317,226.796 200.346,226.543 201.005 " stroke="none" fill="#fbfbfb" fill-rule="evenodd"></path><path id="path2" d="M273.600 116.711 C 273.600 117.102,273.303 117.846,272.940 118.364 C 272.319 119.250,271.211 121.208,269.538 124.373 C 269.139 125.128,268.671 125.848,268.498 125.973 C 268.325 126.098,267.966 126.650,267.699 127.200 C 267.432 127.750,266.579 129.280,265.803 130.600 C 265.027 131.920,264.118 133.540,263.783 134.200 C 263.448 134.860,262.823 135.940,262.393 136.600 C 261.963 137.260,261.420 138.160,261.185 138.600 C 260.951 139.040,260.325 140.120,259.796 141.000 C 259.266 141.880,258.556 143.140,258.217 143.800 C 257.879 144.460,257.244 145.540,256.807 146.200 C 256.370 146.860,255.818 147.846,255.581 148.392 C 255.344 148.937,255.023 149.477,254.867 149.592 C 254.711 149.706,254.364 150.250,254.095 150.800 C 253.826 151.350,253.434 152.070,253.225 152.400 C 253.016 152.730,252.075 154.350,251.135 156.000 C 250.195 157.650,249.327 159.090,249.205 159.200 C 249.083 159.310,248.762 159.850,248.491 160.400 C 248.220 160.950,247.363 162.480,246.587 163.800 C 245.811 165.120,244.909 166.785,244.583 167.500 C 244.256 168.215,243.812 168.800,243.595 168.800 C 243.378 168.800,243.200 169.124,243.200 169.520 C 243.200 169.916,242.983 170.457,242.718 170.722 C 242.174 171.266,239.921 175.129,238.998 177.100 C 238.663 177.815,238.212 178.400,237.995 178.400 C 237.778 178.400,237.600 178.749,237.600 179.176 C 237.600 179.603,237.409 180.071,237.175 180.215 C 236.942 180.360,236.585 180.865,236.382 181.339 C 236.180 181.812,235.566 182.920,235.018 183.800 C 234.470 184.680,233.748 185.940,233.412 186.600 C 233.076 187.260,232.444 188.340,232.007 189.000 C 231.570 189.660,231.018 190.646,230.781 191.192 C 230.544 191.737,230.223 192.277,230.067 192.392 C 229.911 192.506,229.561 193.050,229.290 193.600 C 229.018 194.150,228.083 195.860,227.213 197.400 C 226.342 198.940,225.623 200.290,225.615 200.400 C 225.606 200.510,229.155 200.600,233.500 200.600 C 237.845 200.600,260.165 200.742,283.100 200.916 C 318.986 201.189,324.800 201.154,324.800 200.665 C 324.800 200.353,325.070 199.874,325.400 199.600 C 325.730 199.326,326.000 198.785,326.000 198.398 C 326.000 198.010,326.365 197.598,326.811 197.481 C 327.258 197.364,327.596 197.118,327.564 196.934 C 327.392 195.956,327.669 195.200,328.200 195.200 C 328.619 195.200,328.800 194.778,328.800 193.800 C 328.800 192.667,328.952 192.400,329.600 192.400 C 330.224 192.400,330.400 192.133,330.400 191.187 C 330.400 190.479,330.649 189.879,331.000 189.745 C 331.330 189.618,331.600 189.174,331.600 188.757 C 331.600 188.341,331.870 188.000,332.200 188.000 C 332.534 188.000,332.800 187.644,332.800 187.196 C 332.800 186.754,333.160 186.084,333.600 185.707 C 334.040 185.330,334.400 184.543,334.400 183.958 C 334.400 183.230,334.653 182.827,335.200 182.684 C 335.783 182.532,336.000 182.138,336.000 181.237 C 336.000 180.404,336.196 180.000,336.600 180.000 C 336.930 180.000,337.200 179.705,337.200 179.344 C 337.200 178.983,337.478 178.485,337.818 178.236 C 338.158 177.988,338.466 177.383,338.503 176.892 C 338.540 176.401,338.892 175.898,339.285 175.773 C 339.758 175.623,340.000 175.148,340.000 174.373 C 340.000 173.597,340.203 173.200,340.600 173.200 C 341.019 173.200,341.200 172.778,341.200 171.800 C 341.200 170.667,341.352 170.400,342.000 170.400 C 342.518 170.400,342.800 170.133,342.800 169.643 C 342.800 169.226,343.070 168.782,343.400 168.655 C 343.743 168.524,344.000 167.927,344.000 167.259 C 344.000 166.479,344.235 166.032,344.710 165.908 C 345.104 165.805,345.452 165.305,345.491 164.788 C 345.530 164.274,345.840 163.697,346.181 163.507 C 346.522 163.316,346.800 162.630,346.800 161.980 C 346.800 161.312,347.017 160.793,347.300 160.783 C 347.881 160.763,349.600 158.214,349.600 157.372 C 349.600 157.058,349.974 156.426,350.431 155.969 C 350.892 155.508,351.158 154.868,351.029 154.532 C 350.880 154.143,351.083 153.851,351.598 153.716 C 352.205 153.558,352.400 153.171,352.400 152.130 C 352.400 151.307,352.562 150.853,352.803 151.002 C 353.024 151.139,353.323 150.924,353.467 150.525 C 353.611 150.126,354.059 149.478,354.464 149.084 C 354.869 148.691,355.200 148.016,355.200 147.584 C 355.200 147.153,355.470 146.800,355.800 146.800 C 356.219 146.800,356.400 146.378,356.400 145.400 C 356.400 144.267,356.552 144.000,357.200 144.000 C 357.848 144.000,358.000 143.733,358.000 142.600 C 358.000 141.622,358.181 141.200,358.600 141.200 C 358.933 141.200,359.200 140.844,359.200 140.400 C 359.200 139.960,359.384 139.600,359.609 139.600 C 359.833 139.600,360.235 139.105,360.500 138.500 C 360.766 137.895,361.212 137.256,361.492 137.080 C 361.771 136.904,362.000 136.229,362.000 135.580 C 362.000 134.838,362.207 134.400,362.557 134.400 C 363.161 134.400,363.600 133.562,363.600 132.410 C 363.600 132.012,363.870 131.582,364.200 131.455 C 364.530 131.329,364.800 130.764,364.800 130.200 C 364.800 129.636,365.070 129.071,365.400 128.945 C 365.730 128.818,366.000 128.485,366.000 128.204 C 366.000 127.923,366.360 127.599,366.800 127.484 C 367.383 127.332,367.600 126.938,367.600 126.037 C 367.600 125.204,367.796 124.800,368.200 124.800 C 368.619 124.800,368.800 124.378,368.800 123.400 C 368.800 122.267,368.952 122.000,369.600 122.000 C 370.224 122.000,370.400 121.733,370.400 120.787 C 370.400 120.079,370.649 119.479,371.000 119.345 C 371.391 119.195,371.600 118.572,371.600 117.557 L 371.600 116.000 322.600 116.000 C 275.911 116.000,273.600 116.034,273.600 116.711 M127.452 201.700 C 127.095 202.525,126.622 203.200,126.401 203.200 C 126.181 203.200,126.000 203.536,126.000 203.946 C 126.000 204.356,125.671 205.121,125.268 205.646 C 124.866 206.171,124.414 206.870,124.264 207.200 C 124.114 207.530,123.639 208.340,123.208 209.000 C 122.778 209.660,122.152 210.740,121.817 211.400 C 120.627 213.745,118.711 217.009,118.160 217.631 C 117.852 217.979,117.600 218.461,117.600 218.703 C 117.600 218.945,117.373 219.381,117.095 219.671 C 116.818 219.962,116.367 220.650,116.095 221.200 C 115.822 221.750,114.963 223.280,114.187 224.600 C 113.411 225.920,112.509 227.585,112.183 228.300 C 111.856 229.015,111.412 229.600,111.195 229.600 C 110.978 229.600,110.800 229.949,110.800 230.376 C 110.800 230.803,110.602 231.275,110.359 231.425 C 110.117 231.575,109.661 232.261,109.346 232.949 C 109.032 233.637,108.420 234.740,107.986 235.400 C 107.553 236.060,106.916 237.140,106.572 237.800 C 104.989 240.830,104.660 241.413,104.430 241.600 C 104.295 241.710,103.954 242.250,103.672 242.800 C 103.391 243.350,102.889 244.250,102.558 244.800 C 102.226 245.350,101.522 246.520,100.993 247.400 C 100.464 248.280,99.827 249.495,99.577 250.100 C 99.326 250.705,98.959 251.200,98.761 251.200 C 98.562 251.200,98.400 251.429,98.400 251.709 C 98.400 251.989,97.770 253.175,97.000 254.344 C 96.230 255.513,95.600 256.713,95.600 257.011 C 95.600 257.309,95.402 257.675,95.159 257.825 C 94.917 257.975,94.461 258.661,94.146 259.349 C 93.832 260.037,93.222 261.140,92.792 261.800 C 92.361 262.460,91.785 263.450,91.512 264.000 C 91.240 264.550,90.905 265.090,90.770 265.200 C 90.540 265.387,90.211 265.970,88.628 269.000 C 88.284 269.660,87.642 270.740,87.202 271.400 C 86.762 272.060,86.204 273.095,85.962 273.700 C 85.720 274.305,85.373 274.800,85.192 274.800 C 85.010 274.800,84.654 275.430,84.400 276.200 C 84.146 276.970,83.772 277.600,83.569 277.600 C 83.366 277.600,83.197 277.825,83.192 278.100 C 83.188 278.375,82.609 279.500,81.906 280.600 C 80.307 283.100,79.505 285.265,79.996 285.756 C 80.213 285.973,96.931 286.139,120.942 286.161 C 143.261 286.183,161.444 286.326,161.350 286.480 C 160.885 287.236,163.234 287.600,168.574 287.600 C 174.163 287.600,174.400 287.567,174.400 286.787 C 174.400 286.341,174.677 285.869,175.015 285.739 C 175.353 285.609,175.900 284.940,176.229 284.251 C 177.150 282.329,178.097 280.622,178.366 280.400 C 178.499 280.290,179.123 279.165,179.752 277.900 C 180.381 276.635,181.014 275.600,181.160 275.600 C 181.306 275.600,181.636 275.105,181.894 274.500 C 182.152 273.895,183.004 272.320,183.786 271.000 C 184.568 269.680,185.482 268.060,185.817 267.400 C 186.152 266.740,186.778 265.660,187.208 265.000 C 187.639 264.340,188.215 263.350,188.488 262.800 C 188.760 262.250,189.095 261.710,189.230 261.600 C 189.460 261.413,189.789 260.830,191.372 257.800 C 191.716 257.140,192.356 256.060,192.793 255.400 C 193.230 254.740,193.782 253.754,194.019 253.208 C 194.256 252.663,194.577 252.123,194.733 252.008 C 194.889 251.894,195.241 251.350,195.516 250.800 C 195.791 250.250,196.449 249.080,196.979 248.200 C 197.508 247.320,198.419 245.700,199.002 244.600 C 200.942 240.942,201.396 240.203,201.900 239.880 C 202.175 239.704,202.400 239.268,202.400 238.912 C 202.400 238.555,202.652 237.979,202.960 237.631 C 203.501 237.021,205.338 233.867,206.590 231.400 C 206.924 230.740,207.556 229.660,207.993 229.000 C 208.430 228.340,208.982 227.354,209.219 226.808 C 209.456 226.263,209.777 225.723,209.933 225.608 C 210.089 225.494,210.447 224.950,210.729 224.400 C 211.561 222.777,212.764 220.685,213.604 219.400 C 214.035 218.740,214.582 217.754,214.819 217.208 C 215.056 216.663,215.377 216.123,215.533 216.008 C 215.689 215.894,216.038 215.350,216.309 214.800 C 216.580 214.250,217.437 212.720,218.213 211.400 C 218.989 210.080,219.891 208.415,220.217 207.700 C 220.544 206.985,220.988 206.400,221.205 206.400 C 221.422 206.400,221.600 206.154,221.600 205.854 C 221.600 205.554,221.960 204.850,222.400 204.291 C 222.840 203.731,223.200 202.991,223.200 202.646 C 223.200 202.301,223.656 201.720,224.212 201.355 C 224.769 200.990,225.153 200.620,225.065 200.532 C 224.977 200.444,203.124 200.333,176.504 200.286 L 128.102 200.200 127.452 201.700 M273.767 284.767 C 273.675 284.858,273.600 285.250,273.600 285.638 C 273.600 286.026,273.331 286.612,273.002 286.941 C 272.672 287.270,272.220 287.958,271.997 288.470 C 271.617 289.338,271.288 289.906,269.200 293.300 C 268.760 294.015,268.203 295.095,267.961 295.700 C 267.719 296.305,267.377 296.800,267.200 296.800 C 267.023 296.800,266.680 297.295,266.438 297.900 C 266.196 298.505,265.644 299.540,265.212 300.200 C 264.779 300.860,264.143 301.940,263.798 302.600 C 262.421 305.235,261.865 306.209,261.630 306.400 C 261.495 306.510,261.154 307.050,260.872 307.600 C 260.591 308.150,260.089 309.050,259.758 309.600 C 259.426 310.150,258.722 311.320,258.193 312.200 C 257.664 313.080,257.027 314.295,256.777 314.900 C 256.526 315.505,256.159 316.000,255.961 316.000 C 255.762 316.000,255.600 316.229,255.600 316.509 C 255.600 316.789,254.970 317.975,254.200 319.144 C 253.430 320.313,252.800 321.358,252.800 321.465 C 252.800 321.708,249.508 327.326,249.205 327.600 C 249.083 327.710,248.762 328.250,248.491 328.800 C 248.220 329.350,247.363 330.880,246.587 332.200 C 245.811 333.520,244.909 335.185,244.583 335.900 C 244.256 336.615,243.851 337.200,243.682 337.200 C 243.514 337.200,243.168 337.695,242.914 338.300 C 242.660 338.905,241.814 340.480,241.034 341.800 C 240.255 343.120,239.392 344.650,239.117 345.200 C 238.842 345.750,238.388 346.344,238.108 346.520 C 237.829 346.696,237.600 347.132,237.600 347.488 C 237.600 347.845,237.350 348.421,237.045 348.769 C 236.739 349.116,236.001 350.345,235.403 351.500 C 234.805 352.655,234.155 353.600,233.958 353.600 C 233.761 353.600,233.600 353.947,233.600 354.371 C 233.600 354.796,233.331 355.412,233.002 355.741 C 232.672 356.070,232.220 356.758,231.996 357.270 C 231.771 357.781,231.230 358.740,230.793 359.400 C 230.356 360.060,229.726 361.185,229.394 361.900 C 229.061 362.615,228.612 363.200,228.395 363.200 C 228.178 363.200,228.000 363.532,228.000 363.939 C 228.000 364.345,227.640 365.093,227.200 365.600 C 226.760 366.107,226.400 366.743,226.400 367.012 C 226.400 367.282,226.150 367.710,225.844 367.963 C 225.539 368.217,225.204 368.869,225.100 369.412 L 224.911 370.400 272.693 370.400 C 319.568 370.400,320.479 370.385,320.677 369.628 C 320.788 369.203,321.131 368.759,321.439 368.640 C 321.748 368.522,322.000 367.900,322.000 367.259 C 322.000 366.411,322.229 366.033,322.840 365.874 C 323.302 365.753,323.594 365.507,323.487 365.327 C 323.172 364.794,323.958 363.127,324.397 363.398 C 324.618 363.535,324.800 363.296,324.800 362.866 C 324.800 362.437,325.070 361.982,325.400 361.855 C 325.751 361.721,326.000 361.121,326.000 360.413 C 326.000 359.467,326.176 359.200,326.800 359.200 C 327.333 359.200,327.600 358.933,327.600 358.400 C 327.600 357.956,327.867 357.600,328.200 357.600 C 328.530 357.600,328.779 357.465,328.753 357.300 C 328.571 356.148,328.908 355.265,329.600 355.084 C 330.144 354.942,330.400 354.538,330.400 353.825 C 330.400 353.247,330.670 352.671,331.000 352.545 C 331.330 352.418,331.600 351.995,331.600 351.604 C 331.600 351.213,331.960 350.799,332.400 350.684 C 332.944 350.542,333.200 350.138,333.200 349.425 C 333.200 348.847,333.470 348.271,333.800 348.145 C 334.130 348.018,334.400 347.683,334.400 347.400 C 334.400 347.117,334.681 346.778,335.025 346.646 C 335.369 346.514,335.539 346.224,335.402 346.003 C 335.265 345.781,335.343 345.600,335.576 345.600 C 335.809 345.600,336.000 345.240,336.000 344.800 C 336.000 344.356,336.267 344.000,336.600 344.000 C 337.019 344.000,337.200 343.578,337.200 342.600 C 337.200 341.750,337.397 341.197,337.700 341.193 C 338.560 341.181,340.000 339.335,340.000 338.244 C 340.000 337.583,340.220 337.200,340.600 337.200 C 340.988 337.200,341.200 336.811,341.200 336.098 C 341.200 335.327,341.621 334.644,342.600 333.828 C 343.594 332.999,344.000 332.333,344.000 331.530 C 344.000 330.782,344.207 330.400,344.613 330.400 C 344.949 330.400,345.341 330.085,345.483 329.700 C 345.625 329.315,345.935 328.872,346.171 328.715 C 346.601 328.429,346.657 328.248,346.750 326.847 C 346.778 326.432,347.160 325.999,347.600 325.884 C 348.083 325.758,348.400 325.338,348.400 324.825 C 348.400 324.357,348.670 323.871,349.000 323.745 C 349.330 323.618,349.600 323.174,349.600 322.757 C 349.600 322.317,349.879 322.000,350.267 322.000 C 350.633 322.000,350.828 321.895,350.699 321.766 C 350.293 321.360,351.252 319.200,351.839 319.200 C 352.148 319.200,352.400 318.859,352.400 318.443 C 352.400 318.026,352.672 317.581,353.004 317.454 C 353.336 317.327,353.584 317.082,353.556 316.911 C 353.394 315.922,353.696 315.268,354.400 315.084 C 354.983 314.932,355.200 314.538,355.200 313.637 C 355.200 312.804,355.396 312.400,355.800 312.400 C 356.130 312.400,356.400 312.061,356.400 311.647 C 356.400 311.230,356.757 310.800,357.200 310.684 C 357.729 310.546,358.000 310.138,358.000 309.480 C 358.000 308.933,358.270 308.382,358.600 308.255 C 358.951 308.121,359.200 307.521,359.200 306.813 C 359.200 306.027,359.402 305.600,359.773 305.600 C 360.088 305.600,360.460 305.240,360.600 304.800 C 360.740 304.360,361.112 304.000,361.427 304.000 C 361.815 304.000,362.000 303.549,362.000 302.600 C 362.000 301.711,362.192 301.200,362.525 301.200 C 363.242 301.200,364.800 299.020,364.800 298.016 C 364.800 297.557,365.063 297.200,365.400 297.200 C 365.804 297.200,366.000 296.796,366.000 295.963 C 366.000 295.062,366.217 294.668,366.800 294.516 C 367.240 294.401,367.600 294.077,367.600 293.796 C 367.600 293.515,367.870 293.182,368.200 293.055 C 368.551 292.921,368.800 292.321,368.800 291.613 C 368.800 290.790,368.997 290.400,369.413 290.400 C 369.749 290.400,370.141 290.085,370.282 289.700 C 370.424 289.315,370.778 288.856,371.070 288.680 C 371.382 288.491,371.600 287.631,371.600 286.583 L 371.600 284.806 322.767 284.703 C 295.908 284.646,273.858 284.675,273.767 284.767 " stroke="none" fill="#f3bc5c" fill-rule="evenodd"></path><path id="path3" d="M272.827 116.476 C 272.812 117.068,272.609 117.671,272.375 117.815 C 272.142 117.960,271.772 118.465,271.555 118.939 C 271.337 119.412,270.722 120.520,270.189 121.400 C 269.655 122.280,269.043 123.396,268.827 123.881 C 268.611 124.365,267.935 125.535,267.325 126.481 C 265.818 128.817,265.353 129.596,264.628 131.000 C 263.455 133.269,261.510 136.603,260.356 138.320 C 259.720 139.266,259.200 140.139,259.200 140.260 C 259.200 140.380,258.210 142.161,257.000 144.217 C 255.790 146.273,254.800 148.131,254.800 148.344 C 254.800 148.558,254.662 148.793,254.492 148.867 C 254.323 148.940,253.413 150.350,252.470 152.000 C 251.527 153.650,250.584 155.270,250.375 155.600 C 250.166 155.930,249.774 156.650,249.505 157.200 C 249.236 157.750,248.889 158.294,248.733 158.408 C 248.577 158.523,248.256 159.063,248.019 159.608 C 247.782 160.154,247.235 161.140,246.804 161.800 C 245.657 163.555,244.499 165.645,243.978 166.900 C 243.727 167.505,243.377 168.000,243.200 168.000 C 243.023 168.000,242.680 168.495,242.438 169.100 C 242.196 169.705,241.638 170.740,241.198 171.400 C 240.758 172.060,240.124 173.140,239.790 173.800 C 238.641 176.064,236.711 179.401,235.556 181.120 C 234.920 182.066,234.400 182.933,234.400 183.046 C 234.400 183.159,232.543 186.435,230.274 190.326 C 228.004 194.217,226.026 197.726,225.877 198.125 C 225.728 198.524,225.441 198.749,225.240 198.625 C 225.039 198.501,224.969 198.759,225.084 199.199 C 225.411 200.451,225.740 200.182,227.160 197.500 C 229.285 193.486,229.783 192.613,230.075 192.392 C 230.226 192.277,230.544 191.737,230.781 191.192 C 231.018 190.646,231.570 189.660,232.007 189.000 C 232.444 188.340,233.076 187.260,233.412 186.600 C 233.748 185.940,234.470 184.680,235.018 183.800 C 235.566 182.920,236.180 181.812,236.382 181.339 C 236.585 180.865,236.942 180.360,237.175 180.215 C 237.409 180.071,237.600 179.603,237.600 179.176 C 237.600 178.749,237.778 178.400,237.995 178.400 C 238.212 178.400,238.663 177.815,238.998 177.100 C 239.921 175.129,242.174 171.266,242.718 170.722 C 242.983 170.457,243.200 169.916,243.200 169.520 C 243.200 169.124,243.378 168.800,243.595 168.800 C 243.812 168.800,244.256 168.215,244.583 167.500 C 244.909 166.785,245.811 165.120,246.587 163.800 C 247.363 162.480,248.220 160.950,248.491 160.400 C 248.762 159.850,249.083 159.310,249.205 159.200 C 249.327 159.090,250.195 157.650,251.135 156.000 C 252.075 154.350,253.016 152.730,253.225 152.400 C 253.434 152.070,253.826 151.350,254.095 150.800 C 254.364 150.250,254.711 149.706,254.867 149.592 C 255.023 149.477,255.344 148.937,255.581 148.392 C 255.818 147.846,256.370 146.860,256.807 146.200 C 257.244 145.540,257.879 144.460,258.217 143.800 C 258.556 143.140,259.266 141.880,259.796 141.000 C 260.325 140.120,260.951 139.040,261.185 138.600 C 261.420 138.160,261.963 137.260,262.393 136.600 C 262.823 135.940,263.448 134.860,263.783 134.200 C 264.118 133.540,265.027 131.920,265.803 130.600 C 266.579 129.280,267.432 127.750,267.699 127.200 C 267.966 126.650,268.325 126.098,268.498 125.973 C 268.671 125.848,269.139 125.128,269.538 124.373 C 271.043 121.526,272.264 119.363,272.975 118.286 C 273.554 117.409,273.619 116.985,273.282 116.286 C 272.863 115.419,272.854 115.423,272.827 116.476 M126.800 200.759 C 126.800 201.162,126.440 201.950,126.000 202.509 C 125.560 203.069,125.200 203.624,125.200 203.745 C 125.200 203.938,118.967 214.862,117.980 216.400 C 117.768 216.730,117.373 217.450,117.102 218.000 C 116.831 218.550,116.382 219.238,116.105 219.529 C 115.827 219.819,115.600 220.255,115.600 220.497 C 115.600 220.739,115.348 221.221,115.040 221.569 C 114.342 222.356,112.145 226.226,111.559 227.700 C 111.319 228.305,110.977 228.800,110.800 228.800 C 110.623 228.800,110.278 229.295,110.034 229.900 C 109.433 231.386,107.080 235.480,106.482 236.078 C 106.217 236.343,106.000 236.713,106.000 236.900 C 106.000 237.088,104.740 239.370,103.200 241.972 C 101.660 244.575,100.400 246.807,100.400 246.932 C 100.400 247.057,99.866 247.951,99.214 248.917 C 98.562 249.884,97.839 251.108,97.608 251.637 C 97.377 252.167,96.830 253.140,96.393 253.800 C 95.956 254.460,95.323 255.540,94.986 256.200 C 94.650 256.860,94.026 257.940,93.600 258.600 C 93.174 259.260,92.550 260.340,92.214 261.000 C 91.877 261.660,91.243 262.740,90.805 263.400 C 90.367 264.060,89.888 264.870,89.740 265.200 C 89.591 265.530,88.509 267.447,87.335 269.460 C 86.161 271.474,85.200 273.220,85.200 273.340 C 85.200 273.461,84.680 274.334,84.044 275.280 C 82.702 277.277,80.644 280.858,79.819 282.632 C 79.504 283.309,78.966 284.096,78.623 284.381 C 76.562 286.092,78.948 286.497,90.000 286.312 L 97.800 286.182 88.924 286.091 C 84.042 286.041,79.956 285.853,79.845 285.674 C 79.534 285.169,80.492 282.811,81.906 280.600 C 82.609 279.500,83.188 278.375,83.192 278.100 C 83.197 277.825,83.366 277.600,83.569 277.600 C 83.772 277.600,84.146 276.970,84.400 276.200 C 84.654 275.430,85.010 274.800,85.192 274.800 C 85.373 274.800,85.720 274.305,85.962 273.700 C 86.204 273.095,86.762 272.060,87.202 271.400 C 87.642 270.740,88.284 269.660,88.628 269.000 C 90.211 265.970,90.540 265.387,90.770 265.200 C 90.905 265.090,91.240 264.550,91.512 264.000 C 91.785 263.450,92.361 262.460,92.792 261.800 C 93.222 261.140,93.832 260.037,94.146 259.349 C 94.461 258.661,94.917 257.975,95.159 257.825 C 95.402 257.675,95.600 257.309,95.600 257.011 C 95.600 256.713,96.230 255.513,97.000 254.344 C 97.770 253.175,98.400 251.989,98.400 251.709 C 98.400 251.429,98.562 251.200,98.761 251.200 C 98.959 251.200,99.326 250.705,99.577 250.100 C 99.827 249.495,100.464 248.280,100.993 247.400 C 101.522 246.520,102.226 245.350,102.558 244.800 C 102.889 244.250,103.391 243.350,103.672 242.800 C 103.954 242.250,104.295 241.710,104.430 241.600 C 104.660 241.413,104.989 240.830,106.572 237.800 C 106.916 237.140,107.553 236.060,107.986 235.400 C 108.420 234.740,109.032 233.637,109.346 232.949 C 109.661 232.261,110.117 231.575,110.359 231.425 C 110.602 231.275,110.800 230.803,110.800 230.376 C 110.800 229.949,110.978 229.600,111.195 229.600 C 111.412 229.600,111.856 229.015,112.183 228.300 C 112.509 227.585,113.411 225.920,114.187 224.600 C 114.963 223.280,115.822 221.750,116.095 221.200 C 116.367 220.650,116.818 219.962,117.095 219.671 C 117.373 219.381,117.600 218.945,117.600 218.703 C 117.600 218.461,117.852 217.979,118.160 217.631 C 118.711 217.009,120.627 213.745,121.817 211.400 C 122.152 210.740,122.778 209.660,123.208 209.000 C 123.639 208.340,124.114 207.530,124.264 207.200 C 124.414 206.870,124.866 206.171,125.268 205.646 C 125.671 205.121,126.000 204.356,126.000 203.946 C 126.000 203.536,126.167 203.200,126.371 203.200 C 126.658 203.200,128.000 201.044,128.000 200.581 C 128.000 200.529,127.730 200.382,127.400 200.255 C 127.001 200.102,126.800 200.271,126.800 200.759 M223.680 201.680 C 223.416 201.944,223.200 202.411,223.200 202.717 C 223.200 203.023,222.840 203.731,222.400 204.291 C 221.960 204.850,221.600 205.554,221.600 205.854 C 221.600 206.154,221.422 206.400,221.205 206.400 C 220.988 206.400,220.544 206.985,220.217 207.700 C 219.891 208.415,218.989 210.080,218.213 211.400 C 217.437 212.720,216.580 214.250,216.309 214.800 C 216.038 215.350,215.689 215.894,215.533 216.008 C 215.377 216.123,215.056 216.663,214.819 217.208 C 214.582 217.754,214.035 218.740,213.604 219.400 C 212.764 220.685,211.561 222.777,210.729 224.400 C 210.447 224.950,210.089 225.494,209.933 225.608 C 209.777 225.723,209.456 226.263,209.219 226.808 C 208.982 227.354,208.430 228.340,207.993 229.000 C 207.556 229.660,206.924 230.740,206.590 231.400 C 205.338 233.867,203.501 237.021,202.960 237.631 C 202.652 237.979,202.400 238.555,202.400 238.912 C 202.400 239.268,202.175 239.704,201.900 239.880 C 201.396 240.203,200.942 240.942,199.002 244.600 C 198.419 245.700,197.508 247.320,196.979 248.200 C 196.449 249.080,195.791 250.250,195.516 250.800 C 195.241 251.350,194.889 251.894,194.733 252.008 C 194.577 252.123,194.256 252.663,194.019 253.208 C 193.782 253.754,193.230 254.740,192.793 255.400 C 192.356 256.060,191.716 257.140,191.372 257.800 C 189.789 260.830,189.460 261.413,189.230 261.600 C 189.095 261.710,188.760 262.250,188.488 262.800 C 188.215 263.350,187.639 264.340,187.208 265.000 C 186.778 265.660,186.152 266.740,185.817 267.400 C 185.482 268.060,184.568 269.680,183.786 271.000 C 183.004 272.320,182.152 273.895,181.894 274.500 C 181.636 275.105,181.306 275.600,181.160 275.600 C 181.014 275.600,180.381 276.635,179.752 277.900 C 179.123 279.165,178.483 280.294,178.329 280.408 C 178.176 280.523,177.846 281.063,177.597 281.608 C 176.653 283.676,175.648 285.277,174.993 285.756 C 174.593 286.048,174.396 286.572,174.514 287.026 C 174.701 287.743,174.736 287.734,175.004 286.900 C 175.163 286.405,175.505 286.000,175.763 286.000 C 176.021 286.000,176.738 285.055,177.354 283.900 C 177.971 282.745,178.907 281.080,179.435 280.200 C 179.963 279.320,180.671 278.060,181.010 277.400 C 181.348 276.740,181.979 275.660,182.412 275.000 C 182.844 274.340,183.396 273.305,183.638 272.700 C 183.880 272.095,184.223 271.600,184.400 271.600 C 184.577 271.600,184.919 271.105,185.159 270.500 C 185.745 269.026,187.942 265.156,188.640 264.369 C 188.948 264.021,189.200 263.605,189.200 263.443 C 189.200 263.207,193.658 255.315,195.212 252.800 C 195.416 252.470,196.262 251.031,197.091 249.602 C 197.921 248.174,198.820 246.644,199.089 246.202 C 199.358 245.761,199.859 244.860,200.202 244.200 C 200.545 243.540,201.174 242.460,201.600 241.800 C 202.026 241.140,202.650 240.060,202.986 239.400 C 203.323 238.740,203.953 237.660,204.386 237.000 C 204.820 236.340,205.447 235.260,205.779 234.600 C 206.112 233.940,206.564 233.130,206.785 232.800 C 207.005 232.470,208.727 229.500,210.610 226.200 C 212.494 222.900,214.209 219.930,214.420 219.600 C 214.632 219.270,215.026 218.550,215.295 218.000 C 215.564 217.450,215.899 216.910,216.040 216.800 C 216.182 216.690,216.815 215.651,217.449 214.491 C 218.082 213.330,218.998 211.710,219.484 210.891 C 219.970 210.071,220.644 208.860,220.983 208.200 C 221.321 207.540,221.957 206.460,222.395 205.800 C 222.833 205.140,223.310 204.330,223.454 204.000 C 223.599 203.670,224.175 202.905,224.733 202.300 C 225.819 201.125,224.822 200.538,223.680 201.680 M272.800 285.127 C 272.800 285.553,272.530 286.126,272.200 286.400 C 271.870 286.674,271.600 287.066,271.600 287.271 C 271.600 287.477,270.610 289.327,269.400 291.383 C 268.190 293.439,267.200 295.304,267.200 295.527 C 267.200 295.750,267.062 295.993,266.892 296.067 C 266.578 296.203,263.200 301.769,263.200 302.150 C 263.200 302.265,262.682 303.134,262.048 304.080 C 261.415 305.026,260.380 306.745,259.748 307.901 C 257.860 311.357,257.423 312.108,256.090 314.200 C 255.389 315.300,254.812 316.425,254.808 316.700 C 254.803 316.975,254.638 317.200,254.439 317.200 C 254.241 317.200,253.874 317.695,253.623 318.300 C 253.373 318.905,252.736 320.120,252.207 321.000 C 251.678 321.880,250.974 323.050,250.642 323.600 C 250.311 324.150,249.809 325.050,249.528 325.600 C 249.246 326.150,248.905 326.690,248.770 326.800 C 248.540 326.987,248.211 327.570,246.628 330.600 C 246.284 331.260,245.642 332.340,245.202 333.000 C 244.762 333.660,244.204 334.695,243.962 335.300 C 243.720 335.905,243.377 336.400,243.200 336.400 C 243.023 336.400,242.680 336.895,242.438 337.500 C 242.196 338.105,241.644 339.140,241.212 339.800 C 240.779 340.460,240.143 341.540,239.798 342.200 C 238.421 344.835,237.865 345.809,237.630 346.000 C 237.495 346.110,237.160 346.650,236.888 347.200 C 236.615 347.750,236.039 348.740,235.608 349.400 C 235.178 350.060,234.552 351.140,234.217 351.800 C 233.138 353.926,231.143 357.353,229.956 359.120 C 229.320 360.066,228.800 360.935,228.800 361.050 C 228.800 361.370,225.533 366.908,224.898 367.665 C 224.591 368.030,224.409 368.840,224.494 369.465 C 224.630 370.466,224.684 370.506,224.953 369.800 C 225.120 369.360,225.425 368.730,225.630 368.400 C 225.834 368.070,226.182 367.381,226.403 366.870 C 226.623 366.358,227.072 365.670,227.402 365.341 C 227.731 365.012,228.000 364.396,228.000 363.971 C 228.000 363.547,228.178 363.200,228.395 363.200 C 228.612 363.200,229.061 362.615,229.394 361.900 C 229.726 361.185,230.356 360.060,230.793 359.400 C 231.230 358.740,231.771 357.781,231.996 357.270 C 232.220 356.758,232.672 356.070,233.002 355.741 C 233.331 355.412,233.600 354.796,233.600 354.371 C 233.600 353.947,233.761 353.600,233.958 353.600 C 234.155 353.600,234.805 352.655,235.403 351.500 C 236.001 350.345,236.739 349.116,237.045 348.769 C 237.350 348.421,237.600 347.845,237.600 347.488 C 237.600 347.132,237.829 346.696,238.108 346.520 C 238.388 346.344,238.842 345.750,239.117 345.200 C 239.392 344.650,240.255 343.120,241.034 341.800 C 241.814 340.480,242.660 338.905,242.914 338.300 C 243.168 337.695,243.514 337.200,243.682 337.200 C 243.851 337.200,244.256 336.615,244.583 335.900 C 244.909 335.185,245.811 333.520,246.587 332.200 C 247.363 330.880,248.220 329.350,248.491 328.800 C 248.762 328.250,249.083 327.710,249.205 327.600 C 249.508 327.326,252.800 321.708,252.800 321.465 C 252.800 321.358,253.430 320.313,254.200 319.144 C 254.970 317.975,255.600 316.789,255.600 316.509 C 255.600 316.229,255.762 316.000,255.961 316.000 C 256.159 316.000,256.526 315.505,256.777 314.900 C 257.027 314.295,257.664 313.080,258.193 312.200 C 258.722 311.320,259.426 310.150,259.758 309.600 C 260.089 309.050,260.591 308.150,260.872 307.600 C 261.154 307.050,261.495 306.510,261.630 306.400 C 261.865 306.209,262.421 305.235,263.798 302.600 C 264.143 301.940,264.779 300.860,265.212 300.200 C 265.644 299.540,266.196 298.505,266.438 297.900 C 266.680 297.295,267.023 296.800,267.200 296.800 C 267.377 296.800,267.719 296.305,267.961 295.700 C 268.203 295.095,268.760 294.015,269.200 293.300 C 271.288 289.906,271.617 289.338,271.997 288.470 C 272.220 287.958,272.672 287.270,273.002 286.941 C 273.684 286.258,273.794 284.967,273.200 284.600 C 272.980 284.464,272.800 284.701,272.800 285.127 " stroke="none" fill="#9c7c54" fill-rule="evenodd"></path><path id="path4" d="M224.400 31.780 C 224.400 32.099,224.625 32.504,224.900 32.680 C 225.454 33.035,227.200 35.421,227.200 35.823 C 227.200 35.964,228.161 37.726,229.335 39.740 C 230.509 41.753,231.591 43.670,231.740 44.000 C 231.888 44.330,232.367 45.140,232.805 45.800 C 233.243 46.460,233.884 47.540,234.228 48.200 C 234.852 49.393,235.169 49.942,237.007 53.000 C 237.536 53.880,238.173 55.095,238.423 55.700 C 238.674 56.305,239.041 56.800,239.239 56.800 C 239.438 56.800,239.600 56.990,239.600 57.222 C 239.600 57.454,240.590 59.327,241.800 61.383 C 243.010 63.439,244.000 65.220,244.000 65.340 C 244.000 65.461,244.534 66.351,245.186 67.317 C 245.838 68.284,246.561 69.508,246.792 70.037 C 247.023 70.567,247.563 71.540,247.993 72.200 C 248.423 72.860,249.050 73.940,249.386 74.600 C 249.723 75.260,250.344 76.340,250.766 77.000 C 251.188 77.660,252.125 79.325,252.849 80.700 C 253.572 82.075,254.307 83.200,254.482 83.200 C 254.657 83.200,254.800 83.398,254.800 83.640 C 254.800 83.881,255.761 85.726,256.935 87.740 C 258.109 89.753,259.191 91.670,259.340 92.000 C 259.488 92.330,259.967 93.140,260.405 93.800 C 260.843 94.460,261.477 95.540,261.814 96.200 C 262.150 96.860,262.774 97.940,263.200 98.600 C 263.626 99.260,264.248 100.340,264.583 101.000 C 265.492 102.791,267.441 106.167,268.678 108.095 C 269.280 109.033,270.238 110.700,270.806 111.800 C 272.526 115.128,273.597 116.689,273.599 115.871 C 273.600 115.104,271.654 111.495,271.115 111.267 C 270.942 111.193,270.800 110.903,270.800 110.621 C 270.800 110.339,270.440 109.650,270.000 109.091 C 269.560 108.531,269.200 107.846,269.200 107.568 C 269.200 107.290,268.948 106.779,268.640 106.431 C 267.942 105.644,265.745 101.774,265.159 100.300 C 264.919 99.695,264.577 99.200,264.400 99.200 C 264.223 99.200,263.881 98.705,263.641 98.100 C 263.055 96.626,260.858 92.756,260.160 91.969 C 259.852 91.621,259.600 91.205,259.600 91.043 C 259.600 90.881,258.369 88.645,256.864 86.074 C 255.359 83.503,254.007 81.130,253.860 80.800 C 253.712 80.470,253.233 79.660,252.795 79.000 C 252.357 78.340,251.716 77.260,251.372 76.600 C 249.789 73.570,249.460 72.987,249.230 72.800 C 249.095 72.690,248.764 72.150,248.495 71.600 C 248.226 71.050,247.834 70.330,247.625 70.000 C 247.416 69.670,246.475 68.050,245.535 66.400 C 244.595 64.750,243.730 63.310,243.613 63.200 C 243.496 63.090,242.951 62.100,242.403 61.000 C 241.854 59.900,241.197 58.730,240.943 58.400 C 240.244 57.493,238.055 53.547,237.559 52.300 C 237.319 51.695,236.977 51.200,236.800 51.200 C 236.623 51.200,236.273 50.705,236.023 50.100 C 235.435 48.678,234.346 46.656,234.030 46.400 C 233.895 46.290,233.564 45.750,233.295 45.200 C 233.026 44.650,232.634 43.930,232.425 43.600 C 232.216 43.270,231.275 41.650,230.335 40.000 C 229.395 38.350,228.529 36.910,228.409 36.800 C 227.998 36.421,226.000 32.188,226.000 31.694 C 226.000 31.422,225.640 31.200,225.200 31.200 C 224.760 31.200,224.400 31.461,224.400 31.780 M78.000 116.000 C 78.000 116.450,78.267 116.800,78.610 116.800 C 78.945 116.800,79.402 117.278,79.624 117.863 C 79.846 118.447,80.562 119.716,81.214 120.683 C 81.866 121.649,82.400 122.535,82.400 122.650 C 82.400 122.904,85.681 128.516,85.995 128.800 C 86.117 128.910,86.436 129.450,86.705 130.000 C 86.974 130.550,87.366 131.270,87.575 131.600 C 87.784 131.930,88.725 133.550,89.665 135.200 C 90.605 136.850,91.473 138.290,91.595 138.400 C 91.717 138.510,92.038 139.050,92.309 139.600 C 92.580 140.150,93.437 141.680,94.213 143.000 C 94.989 144.320,95.894 145.940,96.225 146.600 C 96.555 147.260,97.180 148.340,97.614 149.000 C 98.047 149.660,98.677 150.740,99.014 151.400 C 99.350 152.060,99.980 153.140,100.414 153.800 C 100.847 154.460,101.477 155.540,101.814 156.200 C 102.150 156.860,102.774 157.940,103.200 158.600 C 103.626 159.260,104.250 160.340,104.586 161.000 C 104.923 161.660,105.553 162.740,105.986 163.400 C 106.420 164.060,107.050 165.140,107.386 165.800 C 107.723 166.460,108.356 167.540,108.793 168.200 C 109.230 168.860,109.782 169.846,110.019 170.392 C 110.256 170.937,110.577 171.477,110.733 171.592 C 110.889 171.706,111.236 172.250,111.505 172.800 C 111.774 173.350,112.166 174.070,112.375 174.400 C 112.584 174.730,113.525 176.350,114.465 178.000 C 115.405 179.650,116.273 181.090,116.395 181.200 C 116.517 181.310,116.836 181.850,117.105 182.400 C 117.374 182.950,117.766 183.670,117.975 184.000 C 118.184 184.330,119.127 185.950,120.070 187.600 C 121.013 189.250,121.923 190.660,122.092 190.733 C 122.262 190.807,122.400 191.050,122.400 191.273 C 122.400 191.496,123.361 193.326,124.535 195.340 C 125.709 197.353,126.784 199.315,126.923 199.700 C 127.061 200.085,127.380 200.400,127.630 200.400 C 128.287 200.400,127.922 199.624,124.578 193.918 C 122.940 191.123,121.600 188.747,121.600 188.638 C 121.600 188.529,121.066 187.649,120.414 186.683 C 119.762 185.716,119.039 184.492,118.808 183.963 C 118.577 183.433,118.030 182.460,117.593 181.800 C 117.156 181.140,116.523 180.060,116.186 179.400 C 115.850 178.740,115.220 177.660,114.786 177.000 C 114.353 176.340,113.723 175.260,113.386 174.600 C 113.050 173.940,112.426 172.860,112.000 172.200 C 111.574 171.540,110.950 170.460,110.614 169.800 C 110.277 169.140,109.642 168.060,109.202 167.400 C 108.762 166.740,108.204 165.705,107.962 165.100 C 107.720 164.495,107.377 164.000,107.200 164.000 C 107.023 164.000,106.681 163.505,106.441 162.900 C 105.855 161.426,103.658 157.556,102.960 156.769 C 102.652 156.421,102.400 155.939,102.400 155.697 C 102.400 155.455,102.175 155.013,101.900 154.714 C 101.249 154.008,100.136 152.089,99.570 150.700 C 99.323 150.095,98.959 149.600,98.761 149.600 C 98.562 149.600,98.400 149.404,98.400 149.164 C 98.400 148.925,96.780 145.961,94.800 142.578 C 92.820 139.196,91.200 136.341,91.200 136.234 C 91.200 136.127,90.678 135.266,90.041 134.320 C 89.403 133.374,88.449 131.790,87.921 130.800 C 87.392 129.810,86.674 128.550,86.325 128.000 C 85.411 126.563,83.690 123.567,83.108 122.400 C 82.834 121.850,82.382 121.162,82.105 120.871 C 81.827 120.581,81.600 120.108,81.600 119.820 C 81.600 119.533,81.328 119.073,80.996 118.797 C 80.664 118.522,80.281 117.599,80.145 116.748 C 79.865 114.992,78.000 114.342,78.000 116.000 M176.000 115.559 C 176.000 115.742,176.315 116.323,176.700 116.851 C 177.577 118.051,178.017 118.798,179.615 121.800 C 180.318 123.120,181.007 124.290,181.146 124.400 C 181.286 124.510,181.735 125.230,182.144 126.000 C 183.316 128.206,184.921 131.085,185.884 132.709 C 186.370 133.529,187.044 134.740,187.383 135.400 C 187.721 136.060,188.356 137.140,188.793 137.800 C 189.230 138.460,189.782 139.446,190.019 139.992 C 190.256 140.537,190.577 141.077,190.733 141.192 C 190.889 141.306,191.238 141.850,191.509 142.400 C 191.964 143.323,193.106 145.344,195.465 149.400 C 195.977 150.280,196.595 151.495,196.837 152.100 C 197.080 152.705,197.423 153.200,197.600 153.200 C 197.777 153.200,198.127 153.695,198.377 154.300 C 198.963 155.717,199.872 157.395,201.140 159.400 C 201.697 160.280,202.636 161.900,203.228 163.000 C 203.819 164.100,204.683 165.630,205.148 166.400 C 205.613 167.170,206.216 168.250,206.489 168.800 C 206.761 169.350,207.095 169.890,207.230 170.000 C 207.460 170.187,207.789 170.770,209.372 173.800 C 209.716 174.460,210.342 175.540,210.761 176.200 C 211.181 176.860,212.102 178.480,212.809 179.800 C 213.515 181.120,214.211 182.290,214.355 182.400 C 214.499 182.510,214.834 183.050,215.101 183.600 C 215.368 184.150,216.216 185.680,216.987 187.000 C 219.282 190.934,219.941 192.142,220.422 193.300 C 220.673 193.905,221.041 194.400,221.239 194.400 C 221.438 194.400,221.600 194.637,221.600 194.926 C 221.600 195.215,222.407 196.655,223.394 198.126 C 224.380 199.597,225.055 200.803,224.894 200.806 C 224.732 200.809,224.784 200.944,225.010 201.106 C 225.235 201.268,225.879 202.300,226.440 203.400 C 227.001 204.500,227.976 206.210,228.606 207.200 C 229.237 208.190,230.236 209.900,230.828 211.000 C 231.419 212.100,232.286 213.630,232.753 214.400 C 233.221 215.170,233.879 216.340,234.215 217.000 C 234.551 217.660,235.180 218.740,235.614 219.400 C 236.047 220.060,236.677 221.140,237.014 221.800 C 237.350 222.460,237.974 223.540,238.400 224.200 C 238.826 224.860,239.450 225.940,239.786 226.600 C 240.123 227.260,240.756 228.340,241.193 229.000 C 241.630 229.660,242.177 230.633,242.408 231.163 C 242.639 231.692,243.362 232.916,244.014 233.883 C 244.666 234.849,245.200 235.743,245.200 235.868 C 245.200 236.070,250.239 244.876,251.227 246.400 C 251.441 246.730,251.888 247.540,252.221 248.200 C 252.553 248.860,253.179 249.940,253.612 250.600 C 254.044 251.260,254.596 252.295,254.838 252.900 C 255.080 253.505,255.423 254.000,255.600 254.000 C 255.777 254.000,256.117 254.495,256.355 255.100 C 256.593 255.705,256.963 256.470,257.176 256.800 C 257.389 257.130,259.470 260.730,261.800 264.800 C 264.130 268.870,266.212 272.470,266.426 272.800 C 266.641 273.130,267.088 273.940,267.421 274.600 C 267.753 275.260,268.377 276.340,268.807 277.000 C 269.237 277.660,269.782 278.646,270.019 279.192 C 270.256 279.737,270.577 280.277,270.733 280.392 C 270.889 280.506,271.246 281.050,271.528 281.600 C 272.785 284.057,273.268 284.800,273.613 284.800 C 273.993 284.800,273.361 283.024,272.637 282.057 C 272.163 281.423,271.497 280.279,270.625 278.600 C 270.282 277.940,269.644 276.860,269.207 276.200 C 268.770 275.540,268.223 274.567,267.992 274.037 C 267.761 273.508,267.038 272.284,266.386 271.317 C 265.734 270.351,265.200 269.467,265.200 269.354 C 265.200 269.240,264.282 267.593,263.159 265.692 C 262.037 263.792,260.954 261.869,260.753 261.419 C 260.552 260.968,260.030 260.060,259.593 259.400 C 259.156 258.740,258.523 257.660,258.186 257.000 C 257.850 256.340,257.226 255.260,256.800 254.600 C 256.374 253.940,255.750 252.860,255.414 252.200 C 255.077 251.540,254.444 250.460,254.007 249.800 C 253.570 249.140,253.037 248.204,252.823 247.719 C 252.609 247.235,251.943 246.065,251.341 245.119 C 250.740 244.174,249.764 242.500,249.172 241.400 C 248.581 240.300,247.717 238.770,247.252 238.000 C 246.787 237.230,246.184 236.150,245.911 235.600 C 245.639 235.050,245.305 234.510,245.170 234.400 C 244.935 234.209,244.379 233.235,243.002 230.600 C 242.657 229.940,242.026 228.860,241.600 228.200 C 241.174 227.540,240.550 226.460,240.214 225.800 C 239.877 225.140,239.244 224.060,238.807 223.400 C 238.370 222.740,237.823 221.767,237.592 221.237 C 237.361 220.708,236.638 219.484,235.986 218.517 C 235.334 217.551,234.800 216.657,234.800 216.532 C 234.800 216.343,230.038 208.001,228.787 206.000 C 228.581 205.670,228.158 204.837,227.847 204.149 C 227.536 203.461,227.083 202.775,226.841 202.625 C 226.598 202.475,226.400 202.003,226.400 201.576 C 226.400 201.149,226.238 200.800,226.039 200.800 C 225.841 200.800,225.490 200.260,225.260 199.600 C 225.030 198.940,224.670 198.400,224.460 198.400 C 224.250 198.400,223.880 197.905,223.638 197.300 C 223.396 196.695,222.838 195.660,222.398 195.000 C 221.958 194.340,221.316 193.260,220.972 192.600 C 219.389 189.570,219.060 188.987,218.830 188.800 C 218.695 188.690,218.362 188.150,218.091 187.600 C 217.820 187.050,217.028 185.610,216.331 184.400 C 215.635 183.190,214.652 181.480,214.146 180.600 C 213.640 179.720,212.951 178.460,212.614 177.800 C 212.277 177.140,211.644 176.060,211.207 175.400 C 210.770 174.740,210.218 173.754,209.981 173.208 C 209.744 172.663,209.423 172.123,209.267 172.008 C 209.111 171.894,208.764 171.350,208.495 170.800 C 208.226 170.250,207.834 169.530,207.624 169.200 C 207.413 168.870,205.963 166.350,204.400 163.600 C 202.837 160.850,201.391 158.330,201.185 158.000 C 200.980 157.670,200.540 156.860,200.207 156.200 C 199.874 155.540,199.247 154.460,198.814 153.800 C 198.380 153.140,197.753 152.060,197.421 151.400 C 197.088 150.740,196.645 149.930,196.435 149.600 C 196.225 149.270,195.130 147.380,194.000 145.400 C 192.870 143.420,191.775 141.530,191.565 141.200 C 191.355 140.870,190.912 140.060,190.579 139.400 C 190.247 138.740,189.635 137.660,189.221 137.000 C 188.806 136.340,187.875 134.675,187.151 133.300 C 186.428 131.925,185.693 130.800,185.518 130.800 C 185.343 130.800,185.200 130.602,185.200 130.360 C 185.200 130.119,184.239 128.274,183.065 126.260 C 181.891 124.247,180.809 122.330,180.660 122.000 C 180.512 121.670,180.037 120.860,179.605 120.200 C 179.172 119.540,178.441 118.249,177.980 117.332 C 177.221 115.821,176.000 114.728,176.000 115.559 " stroke="none" fill="#9992a0" fill-rule="evenodd"></path></g></svg>