<svg id="svg" version="1.1" xmlns="http://www.w3.org/2000/svg" xmlns:xlink="http://www.w3.org/1999/xlink" width="400" height="400" viewBox="0, 0, 400,400"><g id="svgg"><path id="path0" d="M192.600 112.000 C 192.463 112.221,190.658 112.400,188.564 112.400 C 185.565 112.400,184.727 112.525,184.545 113.000 C 184.389 113.406,183.753 113.600,182.581 113.600 C 181.627 113.600,180.736 113.780,180.600 114.000 C 180.464 114.220,179.548 114.400,178.564 114.400 C 177.343 114.400,176.702 114.590,176.545 115.000 C 176.395 115.389,175.775 115.600,174.781 115.600 C 173.937 115.600,173.136 115.780,173.000 116.000 C 172.864 116.220,172.308 116.400,171.764 116.400 C 171.220 116.400,170.671 116.670,170.545 117.000 C 170.418 117.330,169.984 117.600,169.581 117.600 C 169.177 117.600,168.736 117.780,168.600 118.000 C 168.464 118.220,167.998 118.400,167.564 118.400 C 167.130 118.400,166.671 118.670,166.545 119.000 C 166.418 119.330,165.884 119.600,165.357 119.600 C 164.831 119.600,164.400 119.780,164.400 120.000 C 164.400 120.220,164.034 120.400,163.587 120.400 C 163.141 120.400,162.671 120.670,162.545 121.000 C 162.418 121.330,161.974 121.600,161.557 121.600 C 161.141 121.600,160.800 121.780,160.800 122.000 C 160.800 122.220,160.530 122.400,160.200 122.400 C 159.870 122.400,159.600 122.670,159.600 123.000 C 159.600 123.373,159.222 123.600,158.600 123.600 C 158.050 123.600,157.600 123.780,157.600 124.000 C 157.600 124.220,157.330 124.400,157.000 124.400 C 156.670 124.400,156.400 124.220,156.400 124.000 C 156.400 123.780,155.757 123.600,154.971 123.600 C 154.186 123.600,153.253 123.310,152.899 122.956 C 152.149 122.206,147.949 122.354,147.687 123.140 C 147.602 123.393,147.023 123.600,146.399 123.600 C 145.246 123.600,142.807 124.753,142.803 125.300 C 142.801 125.465,142.591 125.600,142.336 125.600 C 141.715 125.600,139.600 127.998,139.600 128.701 C 139.600 129.007,139.330 129.527,139.000 129.857 C 138.119 130.738,138.119 141.117,139.000 141.455 C 139.662 141.710,139.831 142.800,139.208 142.800 C 138.992 142.800,138.702 143.250,138.564 143.800 C 138.426 144.350,138.153 144.800,137.957 144.800 C 137.760 144.800,137.600 145.160,137.600 145.600 C 137.600 146.040,137.433 146.400,137.229 146.400 C 136.761 146.400,135.600 148.694,135.600 149.619 C 135.600 150.001,135.330 150.418,135.000 150.545 C 134.670 150.671,134.400 151.130,134.400 151.564 C 134.400 151.998,134.220 152.464,134.000 152.600 C 133.780 152.736,133.600 153.177,133.600 153.581 C 133.600 153.984,133.330 154.418,133.000 154.545 C 132.670 154.671,132.400 155.231,132.400 155.787 C 132.400 156.344,132.220 156.800,132.000 156.800 C 131.780 156.800,131.600 157.353,131.600 158.029 C 131.600 158.704,131.330 159.527,131.000 159.857 C 130.670 160.187,130.400 161.154,130.400 162.005 C 130.400 162.856,130.220 163.664,130.000 163.800 C 129.780 163.936,129.600 165.005,129.600 166.175 C 129.600 167.578,129.396 168.472,129.000 168.800 C 128.532 169.188,128.400 170.283,128.400 173.769 C 128.400 176.463,128.227 178.413,127.964 178.676 C 127.684 178.956,127.615 180.092,127.771 181.856 C 127.905 183.365,128.146 186.617,128.307 189.082 C 128.483 191.764,128.801 193.763,129.100 194.062 C 129.375 194.336,129.600 195.424,129.600 196.480 C 129.600 197.536,129.780 198.400,130.000 198.400 C 130.220 198.400,130.400 199.107,130.400 199.971 C 130.400 200.836,130.670 201.813,131.000 202.143 C 131.330 202.473,131.600 203.296,131.600 203.971 C 131.600 204.647,131.780 205.200,132.000 205.200 C 132.220 205.200,132.400 205.616,132.400 206.124 C 132.400 206.631,132.664 207.396,132.987 207.824 C 133.310 208.251,133.580 209.005,133.587 209.500 C 133.594 209.995,133.780 210.400,134.000 210.400 C 134.220 210.400,134.400 210.766,134.400 211.213 C 134.400 211.659,134.670 212.129,135.000 212.255 C 135.330 212.382,135.600 212.916,135.600 213.443 C 135.600 213.969,135.760 214.400,135.957 214.400 C 136.153 214.400,136.426 214.850,136.564 215.400 C 136.702 215.950,136.992 216.400,137.208 216.400 C 137.423 216.400,137.600 216.670,137.600 217.000 C 137.600 217.330,137.780 217.600,138.000 217.600 C 138.220 217.600,138.400 217.827,138.400 218.104 C 138.400 218.381,138.850 219.093,139.400 219.687 C 139.950 220.280,140.400 220.925,140.400 221.120 C 140.400 221.316,140.850 221.999,141.400 222.638 C 141.949 223.277,142.399 223.935,142.400 224.100 C 142.400 224.265,142.670 224.400,143.000 224.400 C 143.330 224.400,143.600 224.588,143.600 224.817 C 143.600 225.353,144.063 225.912,147.100 229.040 C 148.475 230.456,149.600 231.704,149.600 231.813 C 149.600 232.295,152.268 234.378,152.900 234.388 C 153.285 234.395,153.600 234.593,153.600 234.829 C 153.600 235.289,154.583 236.400,154.991 236.400 C 155.127 236.400,155.655 236.850,156.165 237.400 C 156.675 237.950,157.367 238.400,157.703 238.400 C 158.039 238.400,158.418 238.670,158.545 239.000 C 158.671 239.330,159.141 239.600,159.587 239.600 C 160.034 239.600,160.400 239.780,160.400 240.000 C 160.400 240.220,160.651 240.400,160.957 240.400 C 161.264 240.400,161.618 240.670,161.745 241.000 C 161.871 241.330,162.341 241.600,162.787 241.600 C 163.234 241.600,163.600 241.780,163.600 242.000 C 163.600 242.220,164.050 242.400,164.600 242.400 C 165.150 242.400,165.601 242.625,165.603 242.900 C 165.607 243.513,167.427 244.400,168.680 244.400 C 169.231 244.400,169.600 244.641,169.600 245.000 C 169.600 245.330,169.949 245.600,170.376 245.600 C 170.803 245.600,171.264 245.780,171.400 246.000 C 171.536 246.220,172.177 246.400,172.824 246.400 C 174.253 246.400,175.600 247.650,175.600 248.976 C 175.600 249.513,175.780 250.064,176.000 250.200 C 176.220 250.336,176.400 250.802,176.400 251.236 C 176.400 251.670,176.670 252.129,177.000 252.255 C 177.330 252.382,177.600 252.838,177.600 253.269 C 177.600 254.563,181.732 258.400,183.125 258.400 C 183.772 258.400,184.526 258.670,184.800 259.000 C 185.173 259.450,186.176 259.600,188.806 259.600 C 191.556 259.600,192.364 259.470,192.545 259.000 C 192.679 258.649,193.279 258.400,193.987 258.400 C 194.654 258.400,195.200 258.220,195.200 258.000 C 195.200 257.780,195.470 257.600,195.800 257.600 C 196.130 257.600,196.400 257.343,196.400 257.028 C 196.400 256.713,196.803 256.398,197.296 256.328 C 197.815 256.254,198.254 255.864,198.341 255.400 C 198.422 254.960,198.739 254.456,199.045 254.280 C 199.350 254.104,199.600 253.609,199.600 253.180 C 199.600 252.751,199.780 252.400,200.000 252.400 C 200.220 252.400,200.400 252.207,200.400 251.971 C 200.400 250.776,201.590 250.400,205.371 250.400 C 207.657 250.400,209.200 250.239,209.200 250.000 C 209.200 249.780,210.177 249.600,211.371 249.600 C 212.768 249.600,213.757 249.386,214.143 249.000 C 214.473 248.670,215.285 248.400,215.948 248.400 C 216.611 248.400,217.264 248.220,217.400 248.000 C 217.536 247.780,218.155 247.600,218.775 247.600 C 219.395 247.600,220.126 247.330,220.400 247.000 C 220.684 246.658,221.556 246.400,222.425 246.400 C 223.265 246.400,224.064 246.220,224.200 246.000 C 224.336 245.780,224.802 245.600,225.236 245.600 C 225.670 245.600,226.129 245.330,226.255 245.000 C 226.382 244.670,226.916 244.400,227.443 244.400 C 227.969 244.400,228.400 244.220,228.400 244.000 C 228.400 243.780,228.766 243.600,229.213 243.600 C 229.659 243.600,230.129 243.330,230.255 243.000 C 230.382 242.670,230.916 242.400,231.443 242.400 C 231.969 242.400,232.404 242.265,232.408 242.100 C 232.412 241.935,233.312 241.268,234.408 240.617 C 235.504 239.967,236.400 239.202,236.400 238.917 C 236.400 238.633,236.784 238.400,237.254 238.400 C 237.724 238.400,238.525 237.950,239.035 237.400 C 239.545 236.850,240.159 236.400,240.401 236.400 C 240.642 236.400,241.488 235.770,242.281 235.000 C 243.074 234.230,243.875 233.600,244.061 233.600 C 244.248 233.600,244.400 233.330,244.400 233.000 C 244.400 232.670,244.593 232.400,244.829 232.400 C 245.382 232.400,246.400 231.382,246.400 230.829 C 246.400 230.593,246.593 230.400,246.829 230.400 C 247.382 230.400,248.400 229.382,248.400 228.829 C 248.400 228.593,248.670 228.400,249.000 228.400 C 249.330 228.400,249.600 228.235,249.600 228.034 C 249.600 227.833,250.148 227.158,250.818 226.534 C 251.488 225.910,252.427 224.770,252.905 224.000 C 253.383 223.230,254.185 222.152,254.687 221.604 C 255.189 221.056,255.600 220.381,255.600 220.104 C 255.600 219.827,255.735 219.598,255.900 219.595 C 256.065 219.593,256.544 218.873,256.964 217.995 C 257.385 217.118,257.880 216.400,258.064 216.400 C 258.249 216.400,258.400 215.969,258.400 215.443 C 258.400 214.916,258.670 214.382,259.000 214.255 C 259.330 214.129,259.600 213.659,259.600 213.213 C 259.600 212.766,259.780 212.400,260.000 212.400 C 260.220 212.400,260.400 212.034,260.400 211.587 C 260.400 211.141,260.670 210.671,261.000 210.545 C 261.330 210.418,261.600 209.884,261.600 209.357 C 261.600 208.831,261.780 208.400,262.000 208.400 C 262.220 208.400,262.406 207.995,262.413 207.500 C 262.420 207.005,262.690 206.251,263.013 205.824 C 263.336 205.396,263.600 204.631,263.600 204.124 C 263.600 203.616,263.780 203.200,264.000 203.200 C 264.220 203.200,264.400 202.412,264.400 201.449 C 264.400 200.380,264.634 199.504,265.000 199.200 C 265.366 198.896,265.600 198.020,265.600 196.951 C 265.600 195.988,265.780 195.200,266.000 195.200 C 266.228 195.200,266.400 194.015,266.400 192.446 C 266.400 190.781,266.636 189.238,266.998 188.546 C 267.853 186.905,267.865 175.304,267.013 174.176 C 265.740 172.494,266.216 169.132,268.000 167.200 C 268.880 166.247,269.600 165.227,269.600 164.933 C 269.600 164.640,269.780 164.400,270.000 164.400 C 270.220 164.400,270.400 163.757,270.400 162.971 C 270.400 162.186,270.670 161.273,271.000 160.943 C 271.369 160.574,271.600 159.594,271.600 158.400 C 271.600 157.206,271.369 156.226,271.000 155.857 C 270.670 155.527,270.400 154.822,270.400 154.290 C 270.400 152.128,265.739 146.400,263.980 146.400 C 263.577 146.400,263.136 146.220,263.000 146.000 C 262.864 145.780,261.683 145.600,260.376 145.600 C 258.003 145.600,256.400 144.772,256.400 143.546 C 256.400 143.296,255.950 142.675,255.400 142.165 C 254.850 141.655,254.400 141.127,254.400 140.991 C 254.400 140.854,254.175 140.492,253.900 140.185 C 252.822 138.983,252.400 138.424,252.400 138.197 C 252.400 137.644,240.799 126.400,240.228 126.400 C 239.883 126.400,239.600 126.220,239.600 126.000 C 239.600 125.780,239.411 125.600,239.181 125.600 C 238.950 125.600,238.345 125.150,237.835 124.600 C 237.325 124.050,236.633 123.600,236.297 123.600 C 235.961 123.600,235.582 123.330,235.455 123.000 C 235.329 122.670,234.859 122.400,234.413 122.400 C 233.966 122.400,233.600 122.220,233.600 122.000 C 233.600 121.780,233.330 121.600,233.000 121.600 C 232.670 121.600,232.400 121.423,232.400 121.208 C 232.400 120.992,231.950 120.702,231.400 120.564 C 230.850 120.426,230.400 120.153,230.400 119.957 C 230.400 119.760,229.969 119.600,229.443 119.600 C 228.916 119.600,228.382 119.330,228.255 119.000 C 228.129 118.670,227.670 118.400,227.236 118.400 C 226.802 118.400,226.336 118.220,226.200 118.000 C 226.064 117.780,225.443 117.600,224.819 117.600 C 224.181 117.600,223.585 117.338,223.455 117.000 C 223.329 116.670,222.769 116.400,222.213 116.400 C 221.656 116.400,221.200 116.220,221.200 116.000 C 221.200 115.780,220.647 115.600,219.971 115.600 C 219.296 115.600,218.473 115.330,218.143 115.000 C 217.813 114.670,216.936 114.400,216.195 114.400 C 215.454 114.400,214.736 114.220,214.600 114.000 C 214.464 113.780,213.483 113.600,212.419 113.600 C 211.069 113.600,210.416 113.419,210.255 113.000 C 210.072 112.522,209.213 112.400,206.036 112.400 C 203.808 112.400,201.938 112.223,201.800 112.000 C 201.660 111.773,199.670 111.600,197.200 111.600 C 194.730 111.600,192.740 111.773,192.600 112.000 M206.576 121.013 C 207.033 121.358,208.229 121.600,209.476 121.600 C 210.644 121.600,211.600 121.780,211.600 122.000 C 211.600 122.220,212.481 122.400,213.557 122.400 C 214.928 122.400,215.583 122.580,215.745 123.000 C 215.878 123.347,216.476 123.600,217.164 123.600 C 217.818 123.600,218.464 123.780,218.600 124.000 C 218.736 124.220,219.209 124.400,219.652 124.400 C 220.095 124.400,220.727 124.670,221.057 125.000 C 221.387 125.330,222.094 125.600,222.629 125.600 C 223.163 125.600,223.600 125.780,223.600 126.000 C 223.600 126.220,224.031 126.400,224.557 126.400 C 225.084 126.400,225.618 126.670,225.745 127.000 C 225.871 127.330,226.258 127.600,226.605 127.600 C 226.951 127.600,227.720 128.050,228.313 128.600 C 228.907 129.150,229.574 129.600,229.796 129.600 C 230.018 129.601,230.723 130.051,231.362 130.600 C 232.001 131.150,232.689 131.600,232.889 131.600 C 233.090 131.600,233.848 132.230,234.574 133.000 C 235.300 133.770,236.278 134.400,236.747 134.400 C 237.216 134.400,237.600 134.593,237.600 134.829 C 237.600 135.382,238.618 136.400,239.171 136.400 C 239.407 136.400,239.600 136.593,239.600 136.829 C 239.600 137.382,240.618 138.400,241.171 138.400 C 241.407 138.400,241.600 138.593,241.600 138.829 C 241.600 139.382,242.618 140.400,243.171 140.400 C 243.407 140.400,243.600 140.588,243.600 140.817 C 243.600 141.209,243.913 141.662,245.100 142.985 C 245.375 143.292,245.600 143.670,245.600 143.826 C 245.600 143.981,246.005 144.489,246.500 144.955 C 248.271 146.621,249.063 148.647,248.280 149.511 C 247.906 149.925,247.600 150.564,247.600 150.931 C 247.600 151.299,247.330 151.600,247.000 151.600 C 246.627 151.600,246.400 151.978,246.400 152.600 C 246.400 153.150,246.220 153.600,246.000 153.600 C 245.320 153.600,245.497 162.470,246.205 163.889 C 247.045 165.573,250.925 169.600,251.708 169.600 C 252.063 169.600,252.464 169.780,252.600 170.000 C 252.736 170.220,253.447 170.400,254.181 170.400 C 254.997 170.400,255.604 170.633,255.745 171.000 C 255.871 171.330,256.341 171.600,256.787 171.600 C 257.325 171.600,257.600 171.863,257.600 172.376 C 257.600 172.803,257.780 173.264,258.000 173.400 C 258.247 173.552,258.400 176.937,258.400 182.224 C 258.400 187.675,258.254 190.800,258.000 190.800 C 257.780 190.800,257.600 191.588,257.600 192.551 C 257.600 193.620,257.366 194.496,257.000 194.800 C 256.658 195.084,256.400 195.956,256.400 196.825 C 256.400 197.665,256.220 198.464,256.000 198.600 C 255.780 198.736,255.600 199.447,255.600 200.181 C 255.600 200.997,255.367 201.604,255.000 201.745 C 254.649 201.879,254.400 202.479,254.400 203.187 C 254.400 203.854,254.220 204.400,254.000 204.400 C 253.780 204.400,253.600 204.831,253.600 205.357 C 253.600 205.884,253.330 206.418,253.000 206.545 C 252.670 206.671,252.400 207.130,252.400 207.564 C 252.400 207.998,252.220 208.464,252.000 208.600 C 251.780 208.736,251.600 209.177,251.600 209.581 C 251.600 209.984,251.330 210.418,251.000 210.545 C 250.670 210.671,250.400 211.141,250.400 211.587 C 250.400 212.034,250.220 212.400,250.000 212.400 C 249.780 212.400,249.600 212.651,249.600 212.957 C 249.600 213.264,249.330 213.618,249.000 213.745 C 248.670 213.871,248.400 214.258,248.400 214.605 C 248.400 214.951,247.950 215.720,247.400 216.313 C 246.850 216.907,246.400 217.619,246.400 217.896 C 246.400 218.173,246.220 218.400,246.000 218.400 C 245.780 218.400,245.600 218.670,245.600 219.000 C 245.600 219.330,245.330 219.600,245.000 219.600 C 244.670 219.600,244.400 219.749,244.400 219.932 C 244.400 220.325,237.241 227.600,236.855 227.600 C 236.709 227.600,236.252 228.050,235.839 228.600 C 235.426 229.150,234.869 229.600,234.602 229.600 C 234.335 229.600,233.631 230.050,233.038 230.600 C 232.444 231.150,231.764 231.600,231.525 231.600 C 231.287 231.600,230.675 232.050,230.165 232.600 C 229.655 233.150,228.870 233.600,228.419 233.600 C 227.969 233.600,227.600 233.760,227.600 233.957 C 227.600 234.153,227.150 234.426,226.600 234.564 C 226.050 234.702,225.600 234.992,225.600 235.208 C 225.600 235.423,225.150 235.600,224.600 235.600 C 224.050 235.600,223.600 235.780,223.600 236.000 C 223.600 236.220,223.234 236.400,222.787 236.400 C 222.341 236.400,221.871 236.670,221.745 237.000 C 221.618 237.330,221.084 237.600,220.557 237.600 C 220.031 237.600,219.600 237.780,219.600 238.000 C 219.600 238.220,219.082 238.400,218.449 238.400 C 217.816 238.400,217.074 238.670,216.800 239.000 C 216.526 239.330,215.694 239.600,214.951 239.600 C 214.208 239.600,213.600 239.780,213.600 240.000 C 213.600 240.220,212.722 240.400,211.649 240.400 C 210.403 240.400,209.518 240.617,209.200 241.000 C 208.846 241.427,207.908 241.600,205.946 241.600 C 204.430 241.600,202.850 241.812,202.436 242.070 C 201.600 242.593,200.400 241.778,200.400 240.687 C 200.400 240.373,199.950 239.631,199.400 239.038 C 198.850 238.444,198.400 237.788,198.400 237.579 C 198.400 237.001,196.873 235.600,196.243 235.600 C 195.936 235.600,195.582 235.330,195.455 235.000 C 195.322 234.653,194.724 234.400,194.036 234.400 C 193.382 234.400,192.736 234.220,192.600 234.000 C 192.464 233.779,190.670 233.600,188.600 233.600 C 186.530 233.600,184.736 233.779,184.600 234.000 C 184.464 234.220,184.006 234.400,183.582 234.400 C 182.730 234.400,179.639 236.392,179.615 236.956 C 179.568 238.058,175.200 239.091,175.200 238.000 C 175.200 237.780,174.750 237.600,174.200 237.600 C 173.650 237.600,173.200 237.455,173.200 237.277 C 173.200 236.923,170.412 235.600,169.666 235.600 C 169.410 235.600,169.200 235.423,169.200 235.208 C 169.200 234.992,168.750 234.702,168.200 234.564 C 167.650 234.426,167.200 234.153,167.200 233.957 C 167.200 233.760,166.859 233.600,166.443 233.600 C 166.026 233.600,165.582 233.330,165.455 233.000 C 165.329 232.670,164.859 232.400,164.413 232.400 C 163.966 232.400,163.600 232.220,163.600 232.000 C 163.600 231.780,163.349 231.600,163.043 231.600 C 162.736 231.600,162.382 231.330,162.255 231.000 C 162.129 230.670,161.771 230.400,161.460 230.400 C 161.149 230.400,159.801 229.320,158.464 228.000 C 157.128 226.680,155.876 225.600,155.681 225.600 C 155.302 225.600,152.400 222.591,152.400 222.198 C 152.400 222.067,151.770 221.312,151.000 220.519 C 150.230 219.726,149.600 218.953,149.600 218.801 C 149.600 218.649,149.150 218.001,148.600 217.362 C 148.051 216.723,147.601 216.065,147.600 215.900 C 147.600 215.735,147.330 215.600,147.000 215.600 C 146.670 215.600,146.400 215.266,146.400 214.858 C 146.400 214.451,145.950 213.631,145.400 213.038 C 144.850 212.444,144.400 211.803,144.400 211.612 C 144.400 211.065,143.033 208.805,142.700 208.803 C 142.535 208.801,142.400 208.361,142.400 207.824 C 142.400 207.287,142.220 206.736,142.000 206.600 C 141.780 206.464,141.600 205.998,141.600 205.564 C 141.600 205.130,141.330 204.671,141.000 204.545 C 140.630 204.403,140.400 203.795,140.400 202.957 C 140.400 202.211,140.220 201.600,140.000 201.600 C 139.780 201.600,139.600 201.082,139.600 200.449 C 139.600 199.816,139.330 199.074,139.000 198.800 C 138.634 198.496,138.400 197.620,138.400 196.551 C 138.400 195.588,138.220 194.800,138.000 194.800 C 137.780 194.800,137.600 193.823,137.600 192.629 C 137.600 191.232,137.386 190.243,137.000 189.857 C 136.507 189.365,136.400 187.851,136.400 181.400 C 136.400 174.949,136.507 173.435,137.000 172.943 C 137.369 172.574,137.600 171.593,137.600 170.395 C 137.600 169.324,137.780 168.336,138.000 168.200 C 138.220 168.064,138.400 167.231,138.400 166.348 C 138.400 165.455,138.666 164.477,139.000 164.143 C 139.330 163.813,139.600 162.936,139.600 162.195 C 139.600 161.454,139.780 160.736,140.000 160.600 C 140.220 160.464,140.400 159.933,140.400 159.419 C 140.400 158.906,140.670 158.382,141.000 158.255 C 141.330 158.129,141.600 157.659,141.600 157.213 C 141.600 156.766,141.780 156.400,142.000 156.400 C 142.220 156.400,142.400 155.969,142.400 155.443 C 142.400 154.916,142.670 154.382,143.000 154.255 C 143.330 154.129,143.600 153.659,143.600 153.213 C 143.600 152.766,143.780 152.400,144.000 152.400 C 144.220 152.400,144.400 151.950,144.400 151.400 C 144.400 150.850,144.577 150.400,144.792 150.400 C 145.008 150.400,145.298 149.950,145.436 149.400 C 145.686 148.403,145.703 148.400,150.443 148.400 C 153.348 148.400,155.200 148.244,155.200 148.000 C 155.200 147.780,155.656 147.600,156.213 147.600 C 156.769 147.600,157.329 147.330,157.455 147.000 C 157.582 146.670,157.987 146.400,158.355 146.400 C 159.186 146.400,161.600 143.896,161.600 143.034 C 161.600 142.686,161.780 142.400,162.000 142.400 C 162.220 142.400,162.400 141.969,162.400 141.443 C 162.400 140.916,162.670 140.382,163.000 140.255 C 163.486 140.069,163.600 139.140,163.600 135.384 C 163.600 130.583,163.903 129.600,165.384 129.600 C 165.737 129.600,166.129 129.330,166.255 129.000 C 166.382 128.670,166.709 128.400,166.981 128.400 C 167.503 128.400,170.058 127.227,170.400 126.831 C 170.680 126.506,172.426 125.699,173.500 125.398 C 173.995 125.260,174.400 124.978,174.400 124.773 C 174.400 124.568,174.850 124.400,175.400 124.400 C 175.950 124.400,176.400 124.220,176.400 124.000 C 176.400 123.780,176.996 123.600,177.724 123.600 C 178.451 123.600,179.396 123.336,179.824 123.013 C 180.251 122.690,181.174 122.420,181.876 122.413 C 182.578 122.406,183.250 122.243,183.369 122.050 C 183.488 121.858,184.614 121.615,185.872 121.511 C 187.130 121.406,188.229 121.114,188.313 120.860 C 188.564 120.108,205.567 120.250,206.576 121.013 M158.742 128.790 C 159.642 129.664,160.499 130.879,160.645 131.490 C 160.791 132.100,161.079 132.815,161.285 133.077 C 161.998 133.985,162.100 138.276,161.414 138.539 C 161.076 138.669,160.800 139.231,160.800 139.787 C 160.800 140.344,160.659 140.800,160.486 140.800 C 160.314 140.800,159.849 141.347,159.454 142.016 C 159.006 142.774,158.295 143.321,157.568 143.466 C 156.925 143.595,156.400 143.858,156.400 144.050 C 156.400 144.243,156.104 144.400,155.743 144.400 C 155.179 144.400,155.121 144.061,155.335 142.016 C 155.554 139.918,155.506 139.661,154.933 139.881 C 154.284 140.130,154.272 139.800,154.845 137.609 C 154.942 137.242,154.660 136.967,154.100 136.882 C 152.961 136.708,152.937 136.162,154.057 135.869 C 154.854 135.661,154.898 135.458,154.697 132.954 C 154.536 130.951,154.624 130.119,155.041 129.702 C 155.348 129.395,155.600 128.706,155.600 128.171 C 155.600 126.701,156.841 126.945,158.742 128.790 M84.017 143.496 C 67.907 143.566,58.489 143.751,58.237 144.003 C 58.019 144.221,57.150 144.400,56.307 144.400 C 55.314 144.400,54.694 144.611,54.545 145.000 C 54.418 145.330,54.089 145.600,53.813 145.600 C 53.537 145.600,52.644 146.230,51.827 147.000 C 51.011 147.770,50.176 148.400,49.972 148.400 C 49.767 148.400,49.600 148.657,49.600 148.971 C 49.600 149.285,49.150 149.896,48.600 150.329 C 48.045 150.765,47.597 151.535,47.593 152.058 C 47.589 152.576,47.139 153.424,46.593 153.942 C 45.928 154.573,45.600 155.318,45.600 156.199 C 45.600 156.966,45.363 157.605,45.032 157.732 C 43.788 158.210,43.811 206.213,45.056 207.246 C 45.355 207.495,45.600 208.017,45.600 208.407 C 45.600 208.797,46.047 209.540,46.593 210.058 C 47.139 210.576,47.589 211.401,47.593 211.891 C 47.597 212.394,48.035 213.066,48.600 213.437 C 49.150 213.797,49.601 214.296,49.603 214.546 C 49.605 215.052,51.774 216.400,52.586 216.400 C 52.873 216.400,53.403 216.850,53.763 217.400 C 54.124 217.950,54.607 218.400,54.838 218.400 C 55.068 218.400,55.519 218.662,55.840 218.983 C 56.161 219.304,56.689 219.464,57.015 219.339 C 57.340 219.214,58.048 219.402,58.589 219.756 C 59.468 220.332,62.459 220.400,86.986 220.400 L 114.400 220.400 114.400 219.024 C 114.400 218.267,114.220 217.536,114.000 217.400 C 113.780 217.264,113.600 216.825,113.600 216.425 C 113.600 216.025,113.330 215.474,113.000 215.200 C 112.655 214.914,112.400 214.042,112.400 213.151 C 112.400 212.298,112.220 211.600,112.000 211.600 C 111.780 211.600,111.600 211.172,111.600 210.649 C 111.600 210.126,111.330 209.474,111.000 209.200 C 110.670 208.926,110.400 208.285,110.400 207.775 C 110.400 207.265,110.220 206.736,110.000 206.600 C 109.780 206.464,109.600 206.043,109.600 205.665 C 109.600 203.796,109.650 203.800,85.472 203.800 C 63.772 203.800,62.725 203.767,62.330 203.060 C 62.102 202.653,61.574 202.028,61.158 201.671 C 60.434 201.051,60.400 200.172,60.400 181.983 L 60.400 162.944 61.500 161.764 C 63.572 159.540,62.915 159.599,86.800 159.496 L 109.000 159.400 109.395 158.500 C 109.612 158.005,109.927 157.600,110.095 157.600 C 110.263 157.600,110.400 156.992,110.400 156.249 C 110.400 155.506,110.682 154.664,111.026 154.379 C 111.403 154.066,111.565 153.515,111.434 152.994 C 111.315 152.519,111.478 151.785,111.796 151.365 C 112.114 150.944,112.386 150.150,112.400 149.600 C 112.414 149.050,112.690 148.251,113.013 147.824 C 113.621 147.019,113.828 144.178,113.300 143.875 C 112.569 143.454,107.874 143.393,84.017 143.496 M175.592 143.877 C 175.588 144.055,174.688 144.732,173.592 145.383 C 172.496 146.033,171.600 146.798,171.600 147.083 C 171.600 147.367,171.330 147.600,171.000 147.600 C 170.670 147.600,170.400 147.780,170.400 148.000 C 170.400 148.220,170.144 148.400,169.832 148.400 C 169.520 148.400,168.170 149.494,166.832 150.832 L 164.400 153.264 164.400 170.156 C 164.400 184.388,164.492 187.169,164.987 187.824 C 165.310 188.251,165.580 188.902,165.587 189.271 C 165.606 190.254,168.397 192.400,169.658 192.400 C 170.249 192.400,170.808 192.625,170.900 192.900 C 171.030 193.290,175.834 193.424,192.733 193.510 L 214.400 193.620 214.413 206.110 C 214.426 217.730,214.479 218.663,215.177 219.500 C 215.943 220.418,218.400 220.799,218.400 220.000 C 218.400 219.780,218.766 219.600,219.213 219.600 C 219.659 219.600,220.129 219.330,220.255 219.000 C 220.382 218.670,220.814 218.400,221.216 218.400 C 221.618 218.400,222.871 217.500,224.000 216.400 C 225.129 215.300,226.225 214.400,226.434 214.400 C 227.021 214.400,229.600 211.603,229.600 210.966 C 229.600 210.655,229.780 210.400,230.000 210.400 C 230.263 210.400,230.400 200.582,230.400 181.745 L 230.400 153.090 227.025 149.745 C 225.168 147.905,223.368 146.400,223.025 146.400 C 222.681 146.400,222.400 146.220,222.400 146.000 C 222.400 145.780,222.207 145.600,221.971 145.600 C 221.736 145.600,221.292 145.375,220.985 145.100 C 220.679 144.825,220.159 144.375,219.831 144.100 C 218.926 143.342,214.945 143.444,214.643 144.233 C 214.509 144.581,214.400 152.241,214.400 161.256 L 214.400 177.646 198.900 177.582 C 185.978 177.529,183.159 177.417,181.953 176.906 L 180.507 176.293 180.297 171.647 C 180.182 169.091,180.183 162.410,180.298 156.800 C 180.546 144.736,180.354 143.905,177.268 143.677 C 176.351 143.609,175.596 143.699,175.592 143.877 M301.600 144.145 C 301.600 144.510,301.271 144.626,300.600 144.498 C 299.867 144.358,299.600 144.479,299.600 144.953 C 299.600 145.368,299.258 145.600,298.647 145.600 C 298.032 145.600,297.620 145.882,297.485 146.395 C 297.371 146.833,296.855 147.353,296.339 147.553 C 295.469 147.888,293.600 149.716,293.600 150.232 C 293.600 150.622,292.477 151.600,292.029 151.600 C 291.793 151.600,291.600 152.050,291.600 152.600 C 291.600 153.150,291.420 153.600,291.200 153.600 C 290.980 153.600,290.799 154.005,290.798 154.500 C 290.796 154.995,290.526 155.916,290.198 156.546 C 289.869 157.176,289.600 158.556,289.600 159.612 C 289.600 160.669,289.435 161.593,289.232 161.667 C 288.703 161.858,288.879 200.612,289.411 201.145 C 289.515 201.248,289.600 202.215,289.600 203.292 C 289.600 205.204,290.576 209.022,291.258 209.780 C 291.446 209.989,291.600 210.549,291.600 211.024 C 291.600 211.499,292.050 212.226,292.600 212.639 C 293.150 213.052,293.600 213.513,293.600 213.664 C 293.600 214.272,296.113 216.400,296.831 216.400 C 297.254 216.400,297.600 216.670,297.600 217.000 C 297.600 217.330,297.872 217.600,298.205 217.600 C 298.809 217.600,300.421 218.376,300.800 218.850 C 300.910 218.987,301.585 219.226,302.300 219.382 C 303.015 219.537,303.600 219.831,303.600 220.035 C 303.600 220.261,314.376 220.402,331.000 220.394 L 358.400 220.382 358.400 217.591 C 358.400 215.997,358.228 214.800,358.000 214.800 C 357.780 214.800,357.600 214.390,357.600 213.889 C 357.600 213.388,357.253 212.681,356.830 212.318 C 356.361 211.917,356.140 211.352,356.265 210.875 C 356.377 210.443,356.274 209.969,356.035 209.822 C 355.796 209.674,355.600 209.116,355.600 208.582 C 355.600 208.048,355.105 206.905,354.500 206.043 C 353.067 204.001,353.797 204.069,332.600 204.014 C 308.404 203.952,306.400 203.803,306.400 202.062 C 306.400 201.845,306.221 201.607,306.002 201.533 C 305.444 201.346,305.432 161.856,305.990 161.670 C 306.216 161.595,306.401 161.323,306.403 161.067 C 306.412 159.710,308.244 159.600,330.847 159.600 C 355.887 159.600,354.400 159.739,354.400 157.400 C 354.400 156.245,354.596 155.610,355.000 155.455 C 355.330 155.329,355.600 154.769,355.600 154.213 C 355.600 153.656,355.780 153.200,356.000 153.200 C 356.220 153.200,356.400 152.589,356.400 151.843 C 356.400 151.048,356.632 150.396,356.960 150.271 C 357.299 150.141,357.520 149.477,357.520 148.588 C 357.520 147.781,357.718 146.922,357.960 146.680 C 358.202 146.438,358.400 145.646,358.400 144.920 L 358.400 143.600 330.000 143.600 C 306.308 143.600,301.600 143.690,301.600 144.145 M112.400 145.818 C 112.400 146.372,112.130 146.929,111.800 147.055 C 111.430 147.197,111.200 147.805,111.200 148.643 C 111.200 149.389,111.020 150.000,110.800 150.000 C 110.580 150.000,110.400 150.611,110.400 151.357 C 110.400 152.167,110.169 152.803,109.826 152.935 C 109.483 153.066,109.267 153.663,109.288 154.416 C 109.308 155.109,109.076 155.830,108.772 156.017 C 108.469 156.205,108.216 156.772,108.210 157.279 L 108.200 158.200 85.100 158.303 C 70.162 158.370,62.000 158.547,62.000 158.803 C 62.000 159.021,61.726 159.200,61.391 159.200 C 61.057 159.200,60.578 159.650,60.327 160.200 C 60.077 160.750,59.720 161.200,59.536 161.200 C 59.351 161.200,59.203 170.425,59.206 181.700 L 59.213 202.200 60.359 203.500 C 60.990 204.215,61.887 204.800,62.353 204.800 C 62.819 204.800,63.200 204.980,63.200 205.200 C 63.200 205.462,70.938 205.600,85.613 205.600 C 105.166 205.600,108.054 205.677,108.255 206.200 C 108.382 206.530,108.725 206.800,109.018 206.800 C 109.402 206.800,109.487 207.187,109.324 208.193 C 109.152 209.253,109.253 209.646,109.749 209.836 C 110.168 209.996,110.400 210.555,110.400 211.400 C 110.400 212.130,110.638 212.806,110.936 212.920 C 111.284 213.054,111.409 213.560,111.291 214.363 C 111.152 215.310,111.261 215.600,111.755 215.600 C 112.205 215.600,112.400 215.962,112.400 216.800 C 112.400 217.460,112.580 218.000,112.800 218.000 C 113.459 218.000,113.252 219.095,112.541 219.367 C 111.000 219.959,61.279 219.583,61.047 218.978 C 60.899 218.592,60.224 218.400,59.013 218.400 C 57.668 218.400,57.200 218.245,57.200 217.800 C 57.200 217.427,56.822 217.200,56.200 217.200 C 55.650 217.200,55.200 217.020,55.200 216.800 C 55.200 216.580,54.922 216.400,54.583 216.400 C 53.904 216.400,53.669 216.223,50.868 213.600 C 49.810 212.610,48.828 211.485,48.685 211.100 C 48.542 210.715,48.239 210.400,48.013 210.400 C 47.786 210.400,47.600 210.051,47.600 209.624 C 47.600 209.197,47.420 208.736,47.200 208.600 C 46.980 208.464,46.800 207.843,46.800 207.219 C 46.800 206.581,46.538 205.985,46.200 205.855 C 45.265 205.497,45.294 158.492,46.230 158.133 C 46.647 157.973,46.785 157.594,46.638 157.010 C 46.517 156.526,46.678 155.785,46.996 155.365 C 47.314 154.944,47.580 154.387,47.587 154.128 C 47.594 153.868,48.769 152.428,50.199 150.928 C 51.628 149.427,52.798 148.065,52.799 147.900 C 52.799 147.735,53.070 147.600,53.400 147.600 C 53.730 147.600,54.000 147.420,54.000 147.200 C 54.000 146.980,54.366 146.800,54.813 146.800 C 55.259 146.800,55.724 146.542,55.845 146.228 C 55.973 145.892,56.569 145.670,57.281 145.690 C 57.951 145.709,58.640 145.472,58.813 145.162 C 59.079 144.686,63.219 144.616,85.764 144.706 L 112.400 144.811 112.400 145.818 M357.160 145.027 C 357.275 145.142,357.152 145.586,356.885 146.013 C 356.618 146.440,356.400 147.222,356.400 147.752 C 356.400 148.281,356.130 148.818,355.800 148.945 C 355.449 149.079,355.200 149.679,355.200 150.387 C 355.200 151.054,355.020 151.600,354.800 151.600 C 354.580 151.600,354.400 152.106,354.400 152.724 C 354.400 153.341,354.141 154.196,353.824 154.624 C 353.506 155.051,353.339 155.779,353.452 156.242 C 353.985 158.429,354.300 158.400,329.771 158.400 C 314.990 158.400,307.200 158.538,307.200 158.800 C 307.200 159.020,306.795 159.201,306.300 159.203 C 304.461 159.209,304.400 159.945,304.400 182.080 C 304.400 193.476,304.550 202.800,304.732 202.800 C 304.915 202.800,305.311 203.260,305.612 203.823 C 306.028 204.601,306.376 204.792,307.059 204.621 C 307.630 204.478,308.080 204.614,308.293 204.994 C 308.583 205.513,311.622 205.607,331.014 205.697 L 353.400 205.800 353.285 206.900 C 353.204 207.673,353.353 208.000,353.785 208.000 C 354.222 208.000,354.400 208.408,354.400 209.413 C 354.400 210.281,354.625 210.911,354.983 211.049 C 355.378 211.200,355.496 211.622,355.348 212.359 C 355.205 213.075,355.347 213.624,355.766 213.971 C 356.114 214.261,356.400 214.926,356.400 215.449 C 356.400 215.972,356.591 216.400,356.824 216.400 C 357.070 216.400,357.196 217.032,357.124 217.900 L 357.000 219.400 331.633 219.400 C 311.696 219.400,306.231 219.293,306.100 218.900 C 306.000 218.600,305.222 218.400,304.154 218.400 C 302.942 218.400,302.302 218.209,302.145 217.800 C 302.018 217.470,301.484 217.200,300.957 217.200 C 300.431 217.200,300.000 217.040,300.000 216.843 C 300.000 216.647,299.581 216.381,299.068 216.253 C 297.843 215.945,292.800 210.913,292.800 209.997 C 292.800 209.606,292.530 209.182,292.200 209.055 C 291.854 208.923,291.600 208.325,291.600 207.646 C 291.600 206.997,291.412 206.404,291.182 206.327 C 290.623 206.141,290.650 158.390,291.209 157.831 C 291.424 157.616,291.600 156.930,291.600 156.307 C 291.600 155.656,291.862 155.074,292.217 154.938 C 292.556 154.808,292.782 154.397,292.719 154.024 C 292.565 153.116,299.116 146.565,300.024 146.719 C 300.397 146.782,300.808 146.556,300.938 146.217 C 301.077 145.856,301.660 145.600,302.345 145.600 C 302.988 145.600,303.601 145.375,303.706 145.100 C 303.900 144.596,356.657 144.523,357.160 145.027 M218.387 146.185 C 218.654 146.506,219.261 146.891,219.736 147.039 C 221.058 147.453,223.925 149.525,226.174 151.693 L 228.200 153.646 228.316 180.788 C 228.451 212.174,228.769 209.252,224.859 212.600 C 221.014 215.894,220.882 216.000,220.609 216.000 C 220.485 216.000,219.684 216.442,218.828 216.982 C 216.725 218.310,216.800 218.785,216.800 204.181 C 216.800 189.644,217.190 190.800,212.286 190.800 C 206.909 190.800,205.371 189.491,205.859 185.333 C 205.999 184.148,206.279 183.075,206.482 182.949 C 206.686 182.823,206.542 182.378,206.164 181.960 C 205.533 181.263,205.531 181.200,206.138 181.200 C 206.502 181.200,206.800 181.041,206.800 180.846 C 206.800 180.008,209.613 179.200,212.528 179.200 C 217.262 179.200,216.799 180.882,216.804 163.657 C 216.810 146.042,216.953 144.457,218.387 146.185 M265.538 150.738 C 270.216 155.416,270.051 162.627,265.196 165.725 C 263.452 166.839,261.622 163.885,262.206 160.899 C 262.606 158.855,262.673 151.173,262.293 150.936 C 262.125 150.831,262.091 150.577,262.217 150.372 C 262.614 149.730,264.767 149.967,265.538 150.738 M308.300 174.153 C 307.196 174.997,307.246 188.755,308.357 189.761 C 309.053 190.391,310.778 190.438,330.257 190.346 C 352.105 190.244,352.400 190.222,352.400 188.652 C 352.400 188.319,352.580 187.936,352.800 187.800 C 353.038 187.653,353.200 185.137,353.200 181.600 C 353.200 178.063,353.038 175.547,352.800 175.400 C 352.540 175.239,352.400 177.382,352.400 181.534 C 352.400 186.983,352.308 187.950,351.767 188.157 C 351.419 188.291,341.889 188.400,330.590 188.400 L 310.045 188.400 309.423 187.511 C 308.935 186.815,308.800 185.470,308.800 181.311 C 308.800 173.587,306.181 174.400,331.067 174.400 C 342.433 174.400,351.608 174.275,351.455 174.122 C 350.877 173.544,309.057 173.574,308.300 174.153 M263.136 177.169 C 263.211 177.697,263.530 178.387,263.844 178.701 C 264.523 179.380,264.347 190.661,263.599 194.400 C 263.357 195.610,263.056 197.320,262.930 198.200 C 262.804 199.080,262.453 200.155,262.150 200.589 C 261.848 201.023,261.600 201.777,261.600 202.265 C 261.600 202.753,261.420 203.264,261.200 203.400 C 260.980 203.536,260.794 204.042,260.787 204.524 C 260.780 205.006,260.510 205.749,260.187 206.176 C 259.864 206.604,259.600 207.324,259.599 207.776 C 259.598 208.229,259.006 209.590,258.282 210.800 C 257.559 212.010,256.651 213.630,256.265 214.400 C 255.880 215.170,255.218 216.340,254.794 217.000 C 254.371 217.660,253.749 218.685,253.413 219.278 C 253.077 219.872,252.351 220.843,251.801 221.437 C 251.250 222.031,250.800 222.713,250.800 222.953 C 250.800 223.492,240.368 233.992,239.806 234.020 C 239.583 234.030,238.680 234.749,237.800 235.617 C 236.920 236.484,235.958 237.196,235.663 237.197 C 235.163 237.200,234.643 237.549,231.636 239.900 C 231.003 240.395,230.125 240.800,229.685 240.800 C 229.245 240.800,228.782 241.070,228.655 241.400 C 228.529 241.730,228.070 242.000,227.636 242.000 C 227.202 242.000,226.736 242.180,226.600 242.400 C 226.464 242.620,226.016 242.800,225.605 242.800 C 225.194 242.800,224.587 243.070,224.257 243.400 C 223.927 243.730,223.295 244.000,222.852 244.000 C 222.409 244.000,221.936 244.180,221.800 244.400 C 221.664 244.620,221.045 244.800,220.425 244.800 C 219.805 244.800,219.073 245.071,218.798 245.402 C 218.523 245.734,217.826 245.971,217.249 245.929 C 216.672 245.888,215.807 246.067,215.326 246.327 C 214.846 246.587,213.941 246.800,213.315 246.800 C 212.690 246.800,211.814 247.055,211.368 247.367 C 210.920 247.681,209.139 248.029,207.379 248.147 C 199.056 248.705,199.308 248.601,197.411 252.242 C 196.184 254.596,193.524 255.349,192.780 253.552 C 192.279 252.342,192.456 251.627,193.680 249.923 C 194.075 249.374,194.032 249.099,193.452 248.457 C 192.809 247.747,192.797 247.574,193.330 246.734 C 194.035 245.622,194.154 242.236,193.529 241.067 C 193.201 240.454,193.204 240.199,193.543 240.086 C 194.105 239.898,194.154 238.800,193.600 238.800 C 193.380 238.800,193.200 239.083,193.200 239.429 C 193.200 240.254,191.851 240.006,191.686 239.152 C 191.416 237.751,193.838 237.382,195.414 238.584 C 196.906 239.722,198.609 242.111,198.861 243.422 C 199.029 244.292,205.020 244.546,206.085 243.728 C 206.368 243.510,207.646 243.315,208.924 243.296 C 210.311 243.275,211.636 243.006,212.210 242.630 C 212.739 242.284,213.570 242.000,214.058 242.000 C 214.545 242.000,215.586 241.793,216.372 241.539 C 219.957 240.383,223.455 239.007,224.031 238.526 C 224.379 238.237,224.857 238.000,225.095 238.000 C 225.821 238.000,229.552 235.936,230.627 234.940 C 231.185 234.423,231.990 234.000,232.417 234.000 C 232.844 234.000,233.420 233.625,233.697 233.167 C 233.973 232.708,234.840 232.003,235.622 231.599 C 237.899 230.421,249.200 218.959,249.200 217.827 C 249.200 217.702,249.479 217.285,249.821 216.900 C 250.715 215.891,252.921 212.403,253.553 211.000 C 253.850 210.340,254.252 209.530,254.447 209.200 C 254.642 208.870,254.970 208.212,255.176 207.739 C 255.382 207.265,255.742 206.760,255.975 206.615 C 256.209 206.471,256.400 205.913,256.400 205.376 C 256.400 204.839,256.580 204.400,256.800 204.400 C 257.020 204.400,257.200 203.871,257.200 203.224 C 257.200 202.577,257.380 201.936,257.600 201.800 C 257.820 201.664,258.001 201.248,258.002 200.876 C 258.004 200.504,258.274 199.684,258.602 199.054 C 258.931 198.424,259.200 197.425,259.200 196.834 C 259.200 196.243,259.406 195.554,259.657 195.303 C 260.328 194.632,261.664 182.880,261.595 178.267 C 261.557 175.802,262.815 174.906,263.136 177.169 M158.000 234.355 C 158.000 235.031,160.413 235.106,160.785 234.442 C 161.098 233.882,161.214 233.889,161.899 234.508 C 162.319 234.889,162.817 235.200,163.006 235.200 C 163.562 235.200,165.200 236.894,165.200 237.470 C 165.200 238.117,165.296 238.122,166.585 237.534 C 167.463 237.134,167.739 237.191,168.530 237.934 C 169.037 238.410,169.672 238.800,169.942 238.800 C 170.211 238.800,171.138 239.160,172.000 239.600 C 172.862 240.040,174.020 240.400,174.572 240.400 C 175.227 240.400,175.506 240.579,175.377 240.917 C 175.243 241.264,175.541 241.428,176.289 241.417 C 177.143 241.404,177.430 241.608,177.528 242.300 C 177.609 242.874,177.448 243.200,177.083 243.200 C 176.682 243.200,176.571 243.512,176.710 244.243 C 176.890 245.184,176.831 245.245,176.108 244.858 C 175.666 244.621,175.177 244.557,175.020 244.713 C 174.863 244.870,174.496 244.672,174.204 244.273 C 173.912 243.874,173.432 243.581,173.137 243.621 C 172.173 243.753,171.600 243.607,171.600 243.229 C 171.600 243.025,171.825 242.779,172.100 242.681 C 172.375 242.583,172.110 242.565,171.511 242.639 C 170.912 242.714,169.922 242.528,169.311 242.225 C 168.700 241.922,167.690 241.439,167.066 241.151 C 166.442 240.864,165.681 240.143,165.375 239.551 C 164.962 238.753,164.400 238.403,163.211 238.202 C 161.622 237.933,160.572 237.200,161.776 237.200 C 162.119 237.200,162.400 237.031,162.400 236.824 C 162.400 236.179,161.590 235.910,161.036 236.370 C 160.642 236.697,160.378 236.655,160.008 236.209 C 159.734 235.879,159.336 235.716,159.124 235.847 C 158.912 235.978,158.393 235.713,157.969 235.259 C 157.108 234.335,157.010 234.000,157.600 234.000 C 157.820 234.000,158.000 234.160,158.000 234.355 " stroke="none" fill="#67a042" fill-rule="evenodd"></path><path id="path1" d="M155.600 128.171 C 155.600 128.706,155.348 129.395,155.041 129.702 C 154.624 130.119,154.536 130.951,154.697 132.954 C 154.898 135.458,154.854 135.661,154.057 135.869 C 152.937 136.162,152.961 136.708,154.100 136.882 C 154.660 136.967,154.942 137.242,154.845 137.609 C 154.272 139.800,154.284 140.130,154.933 139.881 C 155.506 139.661,155.554 139.918,155.335 142.016 C 155.121 144.061,155.179 144.400,155.743 144.400 C 156.104 144.400,156.400 144.243,156.400 144.050 C 156.400 143.858,156.925 143.595,157.568 143.466 C 158.295 143.321,159.006 142.774,159.454 142.016 C 159.849 141.347,160.314 140.800,160.486 140.800 C 160.659 140.800,160.800 140.344,160.800 139.787 C 160.800 139.231,161.076 138.669,161.414 138.539 C 162.100 138.276,161.998 133.985,161.285 133.077 C 161.079 132.815,160.791 132.100,160.645 131.490 C 160.026 128.900,155.600 125.989,155.600 128.171 M217.057 147.100 C 216.920 147.925,216.807 155.376,216.804 163.657 C 216.799 180.882,217.262 179.200,212.528 179.200 C 209.613 179.200,206.800 180.008,206.800 180.846 C 206.800 181.041,206.502 181.200,206.138 181.200 C 205.531 181.200,205.533 181.263,206.164 181.960 C 206.542 182.378,206.686 182.823,206.482 182.949 C 206.279 183.075,205.999 184.148,205.859 185.333 C 205.371 189.491,206.909 190.800,212.286 190.800 C 217.190 190.800,216.800 189.644,216.800 204.181 C 216.800 218.785,216.725 218.310,218.828 216.982 C 219.684 216.442,220.485 216.000,220.609 216.000 C 220.882 216.000,221.014 215.894,224.859 212.600 C 228.769 209.252,228.451 212.174,228.316 180.788 L 228.200 153.646 226.174 151.693 C 223.925 149.525,221.058 147.453,219.736 147.039 C 219.261 146.891,218.654 146.506,218.387 146.185 C 217.629 145.271,217.324 145.481,217.057 147.100 M262.217 150.372 C 262.091 150.577,262.125 150.831,262.293 150.936 C 262.673 151.173,262.606 158.855,262.206 160.899 C 261.622 163.885,263.452 166.839,265.196 165.725 C 270.051 162.627,270.216 155.416,265.538 150.738 C 264.767 149.967,262.614 149.730,262.217 150.372 M261.595 178.267 C 261.664 182.880,260.328 194.632,259.657 195.303 C 259.406 195.554,259.200 196.243,259.200 196.834 C 259.200 197.425,258.931 198.424,258.602 199.054 C 258.274 199.684,258.004 200.504,258.002 200.876 C 258.001 201.248,257.820 201.664,257.600 201.800 C 257.380 201.936,257.200 202.577,257.200 203.224 C 257.200 203.871,257.020 204.400,256.800 204.400 C 256.580 204.400,256.400 204.839,256.400 205.376 C 256.400 205.913,256.209 206.471,255.975 206.615 C 255.742 206.760,255.382 207.265,255.176 207.739 C 254.970 208.212,254.642 208.870,254.447 209.200 C 254.252 209.530,253.850 210.340,253.553 211.000 C 252.921 212.403,250.715 215.891,249.821 216.900 C 249.479 217.285,249.200 217.702,249.200 217.827 C 249.200 218.959,237.899 230.421,235.622 231.599 C 234.840 232.003,233.973 232.708,233.697 233.167 C 233.420 233.625,232.844 234.000,232.417 234.000 C 231.990 234.000,231.185 234.423,230.627 234.940 C 229.552 235.936,225.821 238.000,225.095 238.000 C 224.857 238.000,224.379 238.237,224.031 238.526 C 223.455 239.007,219.957 240.383,216.372 241.539 C 215.586 241.793,214.545 242.000,214.058 242.000 C 213.570 242.000,212.739 242.284,212.210 242.630 C 211.636 243.006,210.311 243.275,208.924 243.296 C 207.646 243.315,206.368 243.510,206.085 243.728 C 205.020 244.546,199.029 244.292,198.861 243.422 C 198.609 242.111,196.906 239.722,195.414 238.584 C 193.838 237.382,191.416 237.751,191.686 239.152 C 191.851 240.006,193.200 240.254,193.200 239.429 C 193.200 239.083,193.380 238.800,193.600 238.800 C 194.154 238.800,194.105 239.898,193.543 240.086 C 193.204 240.199,193.201 240.454,193.529 241.067 C 194.154 242.236,194.035 245.622,193.330 246.734 C 192.797 247.574,192.809 247.747,193.452 248.457 C 194.032 249.099,194.075 249.374,193.680 249.923 C 192.456 251.627,192.279 252.342,192.780 253.552 C 193.524 255.349,196.184 254.596,197.411 252.242 C 199.308 248.601,199.056 248.705,207.379 248.147 C 209.139 248.029,210.920 247.681,211.368 247.367 C 211.814 247.055,212.690 246.800,213.315 246.800 C 213.941 246.800,214.846 246.587,215.326 246.327 C 215.807 246.067,216.672 245.888,217.249 245.929 C 217.826 245.971,218.523 245.734,218.798 245.402 C 219.073 245.071,219.805 244.800,220.425 244.800 C 221.045 244.800,221.664 244.620,221.800 244.400 C 221.936 244.180,222.409 244.000,222.852 244.000 C 223.295 244.000,223.927 243.730,224.257 243.400 C 224.587 243.070,225.194 242.800,225.605 242.800 C 226.016 242.800,226.464 242.620,226.600 242.400 C 226.736 242.180,227.202 242.000,227.636 242.000 C 228.070 242.000,228.529 241.730,228.655 241.400 C 228.782 241.070,229.245 240.800,229.685 240.800 C 230.125 240.800,231.003 240.395,231.636 239.900 C 234.643 237.549,235.163 237.200,235.663 237.197 C 235.958 237.196,236.920 236.484,237.800 235.617 C 238.680 234.749,239.583 234.030,239.806 234.020 C 240.368 233.992,250.800 223.492,250.800 222.953 C 250.800 222.713,251.250 222.031,251.801 221.437 C 252.351 220.843,253.077 219.872,253.413 219.278 C 253.749 218.685,254.371 217.660,254.794 217.000 C 255.218 216.340,255.880 215.170,256.265 214.400 C 256.651 213.630,257.559 212.010,258.282 210.800 C 259.006 209.590,259.598 208.229,259.599 207.776 C 259.600 207.324,259.864 206.604,260.187 206.176 C 260.510 205.749,260.780 205.006,260.787 204.524 C 260.794 204.042,260.980 203.536,261.200 203.400 C 261.420 203.264,261.600 202.753,261.600 202.265 C 261.600 201.777,261.848 201.023,262.150 200.589 C 262.453 200.155,262.804 199.080,262.930 198.200 C 263.056 197.320,263.357 195.610,263.599 194.400 C 264.347 190.661,264.523 179.380,263.844 178.701 C 263.530 178.387,263.211 177.697,263.136 177.169 C 262.815 174.906,261.557 175.802,261.595 178.267 M157.200 234.217 C 157.200 234.730,158.773 236.064,159.124 235.847 C 159.336 235.716,159.734 235.879,160.008 236.209 C 160.378 236.655,160.642 236.697,161.036 236.370 C 161.590 235.910,162.400 236.179,162.400 236.824 C 162.400 237.031,162.119 237.200,161.776 237.200 C 160.572 237.200,161.622 237.933,163.211 238.202 C 164.400 238.403,164.962 238.753,165.375 239.551 C 165.681 240.143,166.442 240.864,167.066 241.151 C 167.690 241.439,168.700 241.922,169.311 242.225 C 169.922 242.528,170.912 242.714,171.511 242.639 C 172.110 242.565,172.375 242.583,172.100 242.681 C 170.928 243.097,171.719 243.815,173.137 243.621 C 173.432 243.581,173.912 243.874,174.204 244.273 C 174.496 244.672,174.863 244.870,175.020 244.713 C 175.177 244.557,175.666 244.621,176.108 244.858 C 176.831 245.245,176.890 245.184,176.710 244.243 C 176.571 243.512,176.682 243.200,177.083 243.200 C 177.448 243.200,177.609 242.874,177.528 242.300 C 177.430 241.608,177.143 241.404,176.289 241.417 C 175.541 241.428,175.243 241.264,175.377 240.917 C 175.506 240.579,175.227 240.400,174.572 240.400 C 174.020 240.400,172.862 240.040,172.000 239.600 C 171.138 239.160,170.211 238.800,169.942 238.800 C 169.672 238.800,169.037 238.410,168.530 237.934 C 167.739 237.191,167.463 237.134,166.585 237.534 C 165.296 238.122,165.200 238.117,165.200 237.470 C 165.200 236.894,163.562 235.200,163.006 235.200 C 162.817 235.200,162.319 234.889,161.899 234.508 C 161.214 233.889,161.098 233.882,160.785 234.442 C 160.413 235.106,158.000 235.031,158.000 234.355 C 158.000 234.160,157.820 234.000,157.600 234.000 C 157.380 234.000,157.200 234.098,157.200 234.217 " stroke="none" fill="#0f823b" fill-rule="evenodd"></path><path id="path2" d="M60.000 145.821 C 59.450 146.133,58.704 146.391,58.343 146.394 C 57.981 146.397,57.592 146.645,57.477 146.943 C 57.362 147.242,56.541 147.603,55.651 147.745 C 53.902 148.025,49.200 152.249,49.200 153.540 C 49.200 153.746,48.933 154.017,48.607 154.142 C 48.280 154.267,48.107 154.613,48.221 154.911 C 48.336 155.209,48.154 155.981,47.817 156.626 C 47.480 157.272,47.204 158.284,47.202 158.876 C 47.201 159.468,47.020 160.064,46.800 160.200 C 46.541 160.360,46.400 168.137,46.400 182.224 C 46.400 196.475,46.538 204.000,46.800 204.000 C 47.020 204.000,47.200 204.596,47.200 205.324 C 47.200 206.051,47.464 206.996,47.787 207.424 C 48.110 207.851,48.381 208.470,48.388 208.800 C 48.400 209.340,49.694 211.159,50.806 212.200 C 51.042 212.420,51.716 213.106,52.304 213.724 C 52.928 214.378,53.660 214.773,54.057 214.669 C 54.489 214.556,54.669 214.676,54.546 214.996 C 54.433 215.291,54.777 215.608,55.376 215.758 C 55.939 215.900,56.400 216.192,56.400 216.408 C 56.400 216.623,56.850 216.800,57.400 216.800 C 57.984 216.800,58.400 217.030,58.400 217.352 C 58.400 217.816,62.675 217.916,85.000 217.974 C 111.122 218.043,111.600 218.030,111.600 217.265 C 111.600 216.836,111.333 216.383,111.007 216.258 C 110.590 216.098,110.483 215.687,110.645 214.873 C 110.817 214.016,110.704 213.649,110.210 213.459 C 109.791 213.298,109.588 212.854,109.665 212.267 C 109.733 211.752,109.487 211.030,109.119 210.662 C 108.640 210.183,108.515 209.599,108.678 208.597 C 108.859 207.479,108.774 207.200,108.252 207.200 C 107.894 207.200,107.600 207.028,107.600 206.818 C 107.600 206.580,99.128 206.426,85.123 206.410 C 65.860 206.388,62.552 206.300,61.991 205.792 C 61.631 205.467,61.126 205.200,60.869 205.200 C 60.611 205.200,60.400 205.054,60.400 204.875 C 60.400 204.697,60.032 204.156,59.583 203.674 C 57.916 201.885,58.436 158.800,60.125 158.800 C 60.308 158.800,60.745 158.512,61.097 158.160 C 61.554 157.704,62.152 157.586,63.180 157.750 C 65.124 158.061,106.707 158.105,107.206 157.796 C 107.423 157.662,107.600 157.120,107.600 156.590 C 107.600 156.061,107.930 155.451,108.334 155.235 C 108.883 154.942,109.021 154.522,108.880 153.567 C 108.753 152.698,108.884 152.185,109.293 151.956 C 109.660 151.751,109.823 151.253,109.712 150.673 C 109.608 150.129,109.800 149.457,110.164 149.093 C 110.513 148.744,110.700 148.205,110.581 147.894 C 110.461 147.583,110.642 147.097,110.982 146.815 C 112.768 145.333,112.385 145.309,86.300 145.281 C 65.159 145.258,60.836 145.347,60.000 145.821 M305.254 145.797 C 304.514 146.129,303.489 146.400,302.978 146.400 C 302.466 146.400,301.936 146.580,301.800 146.800 C 301.664 147.020,301.094 147.200,300.534 147.200 C 299.766 147.200,299.575 147.357,299.759 147.836 C 300.089 148.698,299.601 149.448,299.166 148.745 C 298.909 148.328,298.533 148.500,297.516 149.500 C 296.792 150.212,295.705 151.238,295.100 151.778 C 294.495 152.319,294.000 153.040,294.000 153.381 C 294.000 153.721,293.799 154.000,293.553 154.000 C 293.303 154.000,293.199 154.353,293.316 154.801 C 293.443 155.286,293.279 155.740,292.901 155.951 C 292.506 156.173,292.376 156.561,292.548 157.008 C 292.711 157.434,292.556 158.007,292.159 158.446 C 291.330 159.361,291.130 204.490,291.950 205.310 C 292.198 205.558,292.400 206.264,292.400 206.880 C 292.400 207.496,292.535 208.002,292.700 208.005 C 292.865 208.007,293.354 208.772,293.787 209.705 C 294.620 211.497,297.209 214.222,298.457 214.618 C 298.866 214.748,299.200 215.022,299.200 215.227 C 299.200 215.432,299.541 215.600,299.957 215.600 C 300.374 215.600,300.818 215.870,300.945 216.200 C 301.071 216.530,301.631 216.800,302.187 216.800 C 302.744 216.800,303.201 217.025,303.202 217.300 C 303.203 217.659,304.331 217.832,307.202 217.913 C 310.023 217.993,311.200 217.890,311.200 217.564 C 311.200 217.226,311.342 217.220,311.730 217.542 C 312.563 218.233,354.819 218.212,355.258 217.520 C 355.716 216.798,355.682 215.298,355.200 215.000 C 354.980 214.864,354.800 214.243,354.800 213.619 C 354.800 212.981,354.538 212.385,354.200 212.255 C 353.862 212.126,353.600 211.530,353.600 210.893 C 353.600 210.270,353.409 209.569,353.175 209.335 C 352.941 209.101,352.733 208.342,352.714 207.649 L 352.678 206.388 330.183 206.407 C 307.882 206.425,307.676 206.418,306.234 205.567 C 303.867 204.171,303.936 204.857,303.852 181.606 L 303.775 160.092 304.898 158.968 L 306.022 157.845 328.811 157.957 C 348.610 158.055,351.600 157.993,351.600 157.484 C 351.600 157.162,351.883 156.663,352.228 156.377 C 352.584 156.081,352.766 155.515,352.649 155.067 C 352.536 154.633,352.703 153.774,353.021 153.159 C 353.340 152.543,353.600 151.693,353.600 151.269 C 353.600 150.845,353.868 150.276,354.196 150.004 C 354.523 149.732,354.698 149.359,354.584 149.174 C 354.470 148.990,354.742 148.158,355.189 147.326 C 355.635 146.493,356.000 145.715,356.000 145.597 C 356.000 145.004,306.588 145.200,305.254 145.797 M310.400 181.700 L 310.400 187.600 330.611 187.600 L 350.822 187.600 350.711 181.900 L 350.600 176.200 330.500 176.000 L 310.400 175.800 310.400 181.700 " stroke="none" fill="#1b1b1b" fill-rule="evenodd"></path><path id="path3" d="M111.465 145.527 C 111.570 145.928,111.373 146.490,111.028 146.777 C 110.683 147.063,110.400 147.456,110.400 147.649 C 110.400 147.842,110.760 147.640,111.200 147.200 C 112.047 146.353,112.240 145.395,111.637 145.023 C 111.438 144.900,111.360 145.127,111.465 145.527 M58.600 145.859 C 56.576 146.575,54.400 147.585,54.400 147.809 C 54.400 148.176,57.023 147.473,57.406 147.003 C 57.629 146.729,58.392 146.378,59.101 146.222 C 59.810 146.066,60.494 145.772,60.619 145.569 C 60.904 145.107,60.603 145.151,58.600 145.859 M304.200 145.600 C 304.064 145.820,303.501 146.000,302.948 146.000 C 302.395 146.000,301.673 146.270,301.343 146.600 C 301.013 146.930,300.925 147.200,301.148 147.200 C 301.371 147.200,301.664 147.020,301.800 146.800 C 301.936 146.580,302.466 146.400,302.978 146.400 C 303.489 146.400,304.514 146.137,305.254 145.816 C 306.569 145.245,306.575 145.231,305.524 145.216 C 304.932 145.207,304.336 145.380,304.200 145.600 M347.100 145.489 C 347.815 145.578,348.985 145.578,349.700 145.489 C 350.415 145.401,349.830 145.328,348.400 145.328 C 346.970 145.328,346.385 145.401,347.100 145.489 M355.377 146.900 C 354.240 149.388,354.224 149.478,355.082 148.590 C 355.720 147.928,356.674 145.200,356.267 145.200 C 356.205 145.200,355.804 145.965,355.377 146.900 M299.200 147.178 C 299.200 147.386,298.345 148.402,297.300 149.435 C 296.255 150.469,295.754 151.063,296.187 150.757 C 296.620 150.451,297.382 149.750,297.880 149.200 C 298.651 148.349,298.845 148.289,299.187 148.800 C 299.641 149.480,299.677 149.424,299.770 147.900 C 299.807 147.295,299.694 146.800,299.519 146.800 C 299.343 146.800,299.200 146.970,299.200 147.178 M110.229 149.029 C 109.883 149.374,109.600 149.854,109.600 150.095 C 109.600 150.336,109.647 150.458,109.704 150.367 C 109.762 150.275,110.150 149.795,110.566 149.300 C 111.428 148.276,111.180 148.077,110.229 149.029 M51.893 149.600 C 51.516 150.040,51.346 150.400,51.515 150.400 C 51.684 150.400,52.130 150.040,52.507 149.600 C 52.884 149.160,53.054 148.800,52.885 148.800 C 52.716 148.800,52.270 149.160,51.893 149.600 M354.095 150.065 C 353.823 150.337,353.600 150.893,353.600 151.300 C 353.600 151.707,353.340 152.543,353.021 153.159 C 352.703 153.774,352.536 154.633,352.649 155.067 C 352.766 155.515,352.584 156.081,352.228 156.377 C 351.883 156.663,351.600 157.146,351.600 157.449 C 351.600 157.828,351.857 157.743,352.425 157.175 C 352.879 156.721,353.208 155.956,353.157 155.475 C 353.045 154.428,354.009 151.105,354.529 150.746 C 354.732 150.607,354.828 150.285,354.744 150.031 C 354.631 149.692,354.459 149.701,354.095 150.065 M109.750 151.075 C 109.897 151.337,109.700 151.728,109.312 151.945 C 108.924 152.162,108.695 152.429,108.804 152.537 C 108.912 152.646,109.351 152.479,109.779 152.166 C 110.425 151.694,110.466 151.512,110.020 151.099 C 109.647 150.753,109.564 150.746,109.750 151.075 M47.563 155.737 C 47.212 156.212,47.006 156.838,47.105 157.128 C 47.219 157.460,47.497 157.250,47.854 156.561 C 48.583 155.155,48.392 154.614,47.563 155.737 M292.460 155.468 C 292.163 155.789,292.015 156.413,292.130 156.855 C 292.261 157.354,292.049 157.909,291.570 158.318 C 291.147 158.681,290.800 159.222,290.800 159.520 C 290.800 159.818,291.251 159.525,291.803 158.870 C 292.416 158.141,292.707 157.423,292.552 157.020 C 292.399 156.621,292.580 156.156,293.010 155.842 C 293.401 155.556,293.559 155.224,293.361 155.103 C 293.162 154.983,292.757 155.147,292.460 155.468 M61.300 157.865 C 61.025 157.976,60.800 158.254,60.800 158.482 C 60.800 158.767,60.957 158.769,61.300 158.487 C 61.575 158.261,62.250 157.994,62.800 157.893 L 63.800 157.709 62.800 157.686 C 62.250 157.673,61.575 157.754,61.300 157.865 M305.362 158.484 L 304.600 159.369 305.651 158.707 C 306.230 158.343,307.670 157.978,308.851 157.897 L 311.000 157.748 308.562 157.674 C 306.490 157.611,306.010 157.733,305.362 158.484 M46.854 158.467 C 46.825 158.833,46.578 159.207,46.306 159.298 C 45.961 159.413,45.850 160.296,45.936 162.228 C 46.091 165.676,46.400 166.154,46.400 162.947 C 46.400 161.634,46.595 160.365,46.834 160.126 C 47.072 159.888,47.187 159.267,47.088 158.746 C 46.990 158.226,46.884 158.100,46.854 158.467 M59.186 159.900 C 58.347 161.583,58.340 161.600,58.537 161.600 C 58.638 161.600,59.093 160.970,59.547 160.200 C 60.001 159.430,60.230 158.800,60.054 158.800 C 59.879 158.800,59.488 159.295,59.186 159.900 M303.756 160.171 C 303.635 160.485,303.616 161.160,303.714 161.671 C 303.852 162.397,303.903 162.323,303.946 161.333 C 303.975 160.637,304.225 159.976,304.500 159.865 C 304.892 159.707,304.889 159.656,304.487 159.632 C 304.206 159.614,303.876 159.857,303.756 160.171 M291.314 165.000 C 291.317 166.100,291.395 166.503,291.487 165.895 C 291.579 165.286,291.577 164.386,291.482 163.895 C 291.387 163.403,291.311 163.900,291.314 165.000 M46.000 185.000 C 45.813 203.290,45.847 204.647,46.500 205.300 C 47.167 205.967,47.200 205.952,47.200 205.000 C 47.200 204.450,47.022 204.000,46.804 204.000 C 46.549 204.000,46.371 197.105,46.304 184.700 L 46.200 165.400 46.000 185.000 M58.982 184.000 C 58.982 192.690,59.035 196.245,59.100 191.900 C 59.164 187.555,59.164 180.445,59.100 176.100 C 59.035 171.755,58.982 175.310,58.982 184.000 M291.382 183.800 C 291.382 192.380,291.435 195.833,291.500 191.474 C 291.564 187.114,291.564 180.094,291.499 175.874 C 291.435 171.653,291.382 175.220,291.382 183.800 M303.868 169.766 C 303.749 170.078,303.800 170.843,303.982 171.466 C 304.277 172.476,304.309 172.415,304.272 170.900 C 304.226 169.035,304.189 168.931,303.868 169.766 M321.306 174.670 C 308.489 174.838,309.914 173.882,310.085 182.200 L 310.200 187.800 330.600 187.800 L 351.000 187.800 351.110 181.757 C 351.196 177.062,351.100 175.615,350.679 175.266 C 350.028 174.725,337.079 174.462,321.306 174.670 M350.711 181.900 L 350.822 187.600 330.611 187.600 L 310.400 187.600 310.400 181.700 L 310.400 175.800 330.500 176.000 L 350.600 176.200 350.711 181.900 M303.701 190.200 C 303.705 191.080,303.787 191.393,303.883 190.895 C 303.979 190.398,303.975 189.678,303.875 189.295 C 303.775 188.913,303.696 189.320,303.701 190.200 M303.654 202.114 C 303.573 203.176,304.684 204.653,306.266 205.586 C 307.709 206.438,353.200 207.129,353.200 206.300 C 353.200 206.135,343.090 206.000,330.734 206.000 C 306.608 206.000,305.609 205.919,304.976 203.924 C 304.850 203.526,304.591 203.200,304.401 203.200 C 304.211 203.200,303.978 202.795,303.882 202.300 C 303.762 201.675,303.692 201.618,303.654 202.114 M59.613 203.456 C 59.631 203.944,60.757 205.376,60.961 205.171 C 61.055 205.077,60.787 204.575,60.366 204.056 C 59.945 203.536,59.606 203.266,59.613 203.456 M290.800 204.746 C 290.800 205.238,291.054 205.600,291.400 205.600 C 291.775 205.600,292.000 205.979,292.000 206.608 C 292.000 207.162,292.450 208.329,293.000 209.200 C 293.550 210.071,294.000 210.938,294.000 211.127 C 294.000 211.537,297.147 214.526,298.000 214.926 C 298.330 215.080,299.176 215.557,299.880 215.984 C 300.836 216.565,301.104 216.614,300.937 216.181 C 300.815 215.861,300.374 215.600,299.957 215.600 C 299.541 215.600,299.200 215.432,299.200 215.227 C 299.200 215.022,298.866 214.748,298.457 214.618 C 297.209 214.222,294.620 211.497,293.787 209.705 C 293.354 208.772,292.865 208.007,292.700 208.005 C 292.535 208.002,292.400 207.533,292.400 206.963 C 292.400 206.393,292.040 205.469,291.600 204.909 C 290.834 203.935,290.800 203.928,290.800 204.746 M62.018 205.790 C 62.520 206.291,65.750 206.396,83.666 206.490 C 95.248 206.550,104.516 206.468,104.262 206.306 C 104.008 206.144,94.586 206.009,83.324 206.006 C 70.111 206.002,62.760 205.858,62.600 205.600 C 62.464 205.380,62.145 205.200,61.891 205.200 C 61.599 205.200,61.646 205.417,62.018 205.790 M106.300 206.289 C 107.015 206.378,107.600 206.619,107.600 206.825 C 107.600 207.031,107.802 207.200,108.049 207.200 C 108.359 207.200,108.344 207.015,108.000 206.600 C 107.724 206.267,106.945 206.029,106.251 206.064 L 105.000 206.128 106.300 206.289 M47.013 207.179 C 46.868 207.414,47.031 207.714,47.375 207.846 C 47.719 207.978,48.005 208.381,48.011 208.743 C 48.026 209.610,49.810 211.921,51.783 213.629 C 53.194 214.851,53.281 214.882,52.583 213.910 C 52.152 213.311,51.485 212.713,51.100 212.583 C 50.715 212.453,50.400 212.206,50.400 212.035 C 50.400 211.864,49.950 211.201,49.400 210.562 C 48.851 209.923,48.395 209.130,48.388 208.800 C 48.368 207.896,47.328 206.670,47.013 207.179 M352.800 208.500 C 352.800 208.859,352.980 209.264,353.200 209.400 C 353.420 209.536,353.600 210.170,353.600 210.810 C 353.600 211.562,353.882 212.123,354.400 212.400 C 354.851 212.641,355.200 212.666,355.200 212.457 C 355.200 212.253,354.930 211.982,354.600 211.855 C 354.270 211.729,353.994 211.124,353.987 210.513 C 353.980 209.901,353.710 209.051,353.387 208.624 C 352.895 207.972,352.800 207.952,352.800 208.500 M108.400 209.505 C 108.400 209.963,109.487 211.200,109.891 211.200 C 110.019 211.200,109.783 210.795,109.366 210.300 C 108.950 209.805,108.562 209.325,108.504 209.233 C 108.447 209.142,108.400 209.264,108.400 209.505 M110.035 213.320 C 110.384 213.584,110.775 214.070,110.904 214.400 C 111.067 214.820,111.146 214.744,111.168 214.147 C 111.189 213.581,110.897 213.217,110.300 213.067 C 109.532 212.873,109.493 212.910,110.035 213.320 M354.800 214.327 C 354.800 214.561,354.980 214.864,355.200 215.000 C 355.682 215.298,355.716 216.798,355.258 217.520 C 354.819 218.212,312.563 218.233,311.730 217.542 C 311.338 217.216,311.200 217.234,311.200 217.608 C 311.200 217.997,310.342 218.060,307.500 217.880 L 303.800 217.645 306.200 218.292 C 308.257 218.847,312.044 218.959,332.700 219.076 L 356.800 219.212 356.800 218.230 C 356.800 217.689,356.620 217.136,356.400 217.000 C 356.180 216.864,356.000 216.335,356.000 215.825 C 356.000 215.315,355.730 214.674,355.400 214.400 C 355.022 214.086,354.800 214.059,354.800 214.327 M54.057 214.756 C 53.600 215.046,53.600 215.155,54.057 215.448 C 55.449 216.340,56.400 216.720,56.400 216.384 C 56.400 216.181,55.939 215.900,55.376 215.758 C 54.727 215.595,54.430 215.300,54.564 214.951 C 54.810 214.310,54.780 214.298,54.057 214.756 M110.400 215.551 C 110.400 215.812,110.670 216.129,111.000 216.255 C 111.330 216.382,111.600 216.837,111.600 217.266 C 111.600 218.034,111.157 218.045,85.100 217.923 C 70.525 217.856,59.513 217.911,60.628 218.048 C 61.744 218.184,63.037 218.499,63.502 218.748 C 64.593 219.331,111.500 219.382,112.400 218.800 C 112.800 218.542,112.833 218.410,112.500 218.406 C 112.225 218.403,112.000 217.978,112.000 217.462 C 112.000 216.946,111.640 216.198,111.200 215.800 C 110.723 215.368,110.400 215.268,110.400 215.551 M302.693 217.600 C 303.070 218.040,303.411 218.400,303.451 218.400 C 303.492 218.400,303.431 218.040,303.316 217.600 C 303.201 217.160,302.859 216.800,302.557 216.800 C 302.137 216.800,302.168 216.987,302.693 217.600 " stroke="none" fill="#2c2c2c" fill-rule="evenodd"></path><path id="path4" d="M58.813 145.162 C 58.640 145.472,57.951 145.709,57.281 145.690 C 56.569 145.670,55.973 145.892,55.845 146.228 C 55.724 146.542,55.259 146.800,54.813 146.800 C 54.366 146.800,54.000 146.980,54.000 147.200 C 54.000 147.420,53.730 147.600,53.400 147.600 C 53.070 147.600,52.799 147.735,52.799 147.900 C 52.798 148.065,51.628 149.427,50.199 150.928 C 48.769 152.428,47.594 153.868,47.587 154.128 C 47.580 154.387,47.314 154.944,46.996 155.365 C 46.678 155.785,46.517 156.526,46.638 157.010 C 46.785 157.594,46.647 157.973,46.230 158.133 C 45.883 158.266,45.600 158.753,45.600 159.216 C 45.600 160.573,46.873 159.055,46.991 157.558 C 47.043 156.896,47.291 156.149,47.543 155.897 C 47.794 155.646,48.000 155.116,48.000 154.720 C 48.000 154.324,48.168 154.000,48.373 154.000 C 48.578 154.000,48.851 153.670,48.979 153.266 C 49.379 152.007,53.313 148.225,55.200 147.286 C 59.023 145.384,58.546 145.416,85.600 145.200 L 111.400 144.994 85.264 144.797 C 63.080 144.630,59.080 144.685,58.813 145.162 M303.706 145.100 C 303.601 145.375,303.034 145.600,302.446 145.600 C 301.859 145.600,301.070 145.960,300.693 146.400 C 299.900 147.325,300.449 147.494,301.343 146.600 C 301.673 146.270,302.395 146.000,302.948 146.000 C 303.501 146.000,304.064 145.820,304.200 145.600 C 304.361 145.340,313.534 145.200,330.414 145.200 L 356.380 145.200 356.120 146.498 C 355.978 147.212,355.622 148.035,355.330 148.327 C 355.039 148.618,354.800 149.279,354.800 149.795 C 354.800 150.311,354.665 150.793,354.500 150.867 C 354.005 151.087,352.868 154.795,353.227 155.017 C 353.691 155.304,354.400 153.859,354.400 152.626 C 354.400 152.062,354.580 151.600,354.800 151.600 C 355.020 151.600,355.200 151.054,355.200 150.387 C 355.200 149.679,355.449 149.079,355.800 148.945 C 356.130 148.818,356.400 148.281,356.400 147.752 C 356.400 147.222,356.618 146.440,356.885 146.013 C 357.152 145.586,357.275 145.142,357.160 145.027 C 356.657 144.523,303.900 144.596,303.706 145.100 M111.889 145.618 C 112.023 146.130,111.838 146.630,111.396 146.953 C 111.008 147.237,110.790 147.724,110.913 148.035 C 111.086 148.471,111.144 148.450,111.168 147.943 C 111.186 147.581,111.470 147.182,111.800 147.055 C 112.438 146.810,112.650 144.800,112.037 144.800 C 111.838 144.800,111.771 145.168,111.889 145.618 M296.004 149.901 C 293.998 151.946,292.654 153.639,292.720 154.033 C 292.783 154.401,292.556 154.808,292.217 154.938 C 291.862 155.074,291.600 155.656,291.600 156.307 C 291.600 156.930,291.387 157.653,291.127 157.913 C 290.866 158.174,290.755 158.488,290.879 158.612 C 291.370 159.103,292.290 157.606,292.102 156.623 C 291.995 156.060,292.081 155.600,292.293 155.600 C 292.506 155.600,293.007 154.835,293.408 153.900 C 293.851 152.869,295.112 151.335,296.615 150.000 C 298.490 148.335,300.183 146.206,299.463 146.418 C 299.428 146.429,297.872 147.996,296.004 149.901 M110.292 149.590 C 109.930 150.107,109.749 150.717,109.890 150.945 C 110.048 151.201,110.218 151.138,110.333 150.780 C 110.436 150.461,110.695 150.086,110.909 149.946 C 111.123 149.807,111.219 149.458,111.124 149.171 C 111.007 148.820,110.736 148.956,110.292 149.590 M109.280 152.480 C 108.515 153.245,108.724 153.654,109.600 153.107 C 110.408 152.602,110.669 152.000,110.080 152.000 C 109.904 152.000,109.544 152.216,109.280 152.480 M108.244 155.813 C 107.886 156.171,107.712 156.657,107.857 156.893 C 108.003 157.129,107.780 157.580,107.361 157.897 C 106.618 158.458,106.619 158.468,107.400 158.329 C 107.921 158.236,108.204 157.867,108.210 157.272 C 108.216 156.769,108.481 156.197,108.799 156.001 C 109.117 155.804,109.268 155.535,109.136 155.403 C 109.004 155.270,108.602 155.455,108.244 155.813 M352.600 156.986 L 351.800 157.963 329.172 157.982 L 306.544 158.000 305.272 159.136 C 304.146 160.141,304.007 160.497,304.060 162.236 L 304.120 164.200 304.394 162.600 C 304.867 159.844,305.218 159.200,306.247 159.200 C 306.771 159.200,307.200 159.020,307.200 158.800 C 307.200 158.538,314.990 158.400,329.771 158.400 C 353.758 158.400,353.600 158.412,353.600 156.571 C 353.600 155.815,353.536 155.842,352.600 156.986 M60.465 159.139 C 59.228 160.295,58.552 161.942,58.929 162.883 C 59.043 163.167,59.151 162.905,59.168 162.300 C 59.186 161.695,59.351 161.200,59.536 161.200 C 59.720 161.200,60.077 160.750,60.327 160.200 C 60.578 159.650,61.057 159.200,61.391 159.200 C 61.726 159.200,62.000 159.022,62.000 158.804 C 62.000 158.548,69.498 158.369,83.100 158.300 L 104.200 158.193 82.942 158.096 L 61.685 158.000 60.465 159.139 M290.987 182.000 C 290.987 194.210,291.038 199.205,291.100 193.100 C 291.162 186.995,291.162 177.005,291.100 170.900 C 291.038 164.795,290.987 169.790,290.987 182.000 M45.600 182.000 C 45.600 193.733,45.688 203.246,45.795 203.138 C 46.061 202.872,46.078 161.145,45.812 160.879 C 45.695 160.762,45.600 170.267,45.600 182.000 M58.928 166.000 C 58.928 167.430,59.001 168.015,59.089 167.300 C 59.178 166.585,59.178 165.415,59.089 164.700 C 59.001 163.985,58.928 164.570,58.928 166.000 M304.124 167.000 C 304.126 168.320,304.201 168.812,304.290 168.093 C 304.379 167.374,304.377 166.294,304.286 165.693 C 304.195 165.092,304.122 165.680,304.124 167.000 M304.101 173.800 C 304.105 174.680,304.187 174.993,304.283 174.495 C 304.379 173.998,304.375 173.278,304.275 172.895 C 304.175 172.513,304.096 172.920,304.101 173.800 M309.600 175.200 C 308.527 176.273,308.386 186.031,309.423 187.511 L 310.045 188.400 330.590 188.400 C 341.889 188.400,351.419 188.291,351.767 188.157 C 352.310 187.949,352.400 186.950,352.400 181.157 L 352.400 174.400 347.900 174.482 C 343.602 174.561,343.555 174.570,346.864 174.697 C 351.382 174.871,351.246 174.641,351.111 181.854 L 351.000 187.800 330.600 187.800 L 310.200 187.800 310.085 182.200 C 310.022 179.120,310.069 176.198,310.191 175.706 L 310.412 174.813 321.306 174.700 L 332.200 174.587 321.300 174.493 C 310.867 174.404,310.366 174.434,309.600 175.200 M304.159 181.600 C 304.159 184.790,304.221 186.095,304.297 184.500 C 304.373 182.905,304.373 180.295,304.297 178.700 C 304.221 177.105,304.159 178.410,304.159 181.600 M304.090 195.700 C 304.037 200.136,304.152 203.200,304.373 203.200 C 304.578 203.200,304.850 203.526,304.976 203.924 C 305.609 205.920,306.606 206.000,330.761 206.000 C 353.251 206.000,353.254 206.000,352.994 206.820 C 352.841 207.300,352.996 208.039,353.367 208.606 C 353.715 209.137,354.000 210.034,354.000 210.598 C 354.000 211.163,354.278 211.732,354.617 211.862 C 355.515 212.207,355.918 211.609,355.097 211.150 C 354.644 210.897,354.400 210.276,354.400 209.380 C 354.400 208.405,354.220 208.000,353.785 208.000 C 353.353 208.000,353.204 207.673,353.285 206.900 L 353.400 205.800 331.014 205.697 C 311.622 205.607,308.583 205.513,308.293 204.994 C 308.069 204.594,307.633 204.477,306.979 204.641 C 306.440 204.776,306.000 204.721,306.000 204.519 C 306.000 204.316,305.644 203.769,305.209 203.302 C 304.494 202.534,304.407 201.778,304.299 195.327 L 304.180 188.200 304.090 195.700 M58.868 201.000 C 58.832 202.275,59.060 202.833,59.992 203.748 C 62.348 206.058,61.427 205.976,85.417 206.014 C 98.690 206.034,107.675 206.198,107.813 206.422 C 108.210 207.063,109.600 207.680,109.600 207.214 C 109.600 206.986,109.349 206.800,109.043 206.800 C 108.736 206.800,108.382 206.530,108.255 206.200 C 108.054 205.677,105.166 205.600,85.613 205.600 C 70.938 205.600,63.200 205.462,63.200 205.200 C 63.200 204.980,62.795 204.798,62.300 204.796 C 61.132 204.792,59.471 202.702,59.157 200.840 L 58.914 199.400 58.868 201.000 M45.600 205.213 C 45.600 205.439,45.870 205.729,46.200 205.855 C 46.530 205.982,46.814 206.381,46.832 206.743 C 46.850 207.122,46.945 207.198,47.058 206.922 C 47.295 206.338,46.519 204.800,45.986 204.800 C 45.774 204.800,45.600 204.986,45.600 205.213 M290.400 205.650 C 290.400 205.856,290.670 206.129,291.000 206.255 C 291.344 206.387,291.600 206.985,291.600 207.655 C 291.600 208.326,291.856 208.923,292.200 209.055 C 292.530 209.182,292.800 209.606,292.800 209.997 C 292.800 210.913,297.843 215.945,299.068 216.253 C 299.581 216.381,300.000 216.647,300.000 216.843 C 300.000 217.040,300.431 217.200,300.957 217.200 C 301.484 217.200,302.018 217.470,302.145 217.800 C 302.271 218.130,302.555 218.400,302.775 218.400 C 303.725 218.400,302.615 217.265,300.883 216.466 C 297.983 215.128,294.000 212.038,294.000 211.127 C 294.000 210.938,293.550 210.071,293.000 209.200 C 292.450 208.329,292.000 207.183,292.000 206.655 C 292.000 206.030,291.720 205.620,291.200 205.484 C 290.760 205.369,290.400 205.444,290.400 205.650 M46.800 207.989 C 46.800 208.189,46.980 208.464,47.200 208.600 C 47.420 208.736,47.600 209.197,47.600 209.624 C 47.600 210.051,47.786 210.400,48.013 210.400 C 48.239 210.400,48.542 210.715,48.685 211.100 C 48.828 211.485,49.810 212.610,50.868 213.600 C 53.669 216.223,53.904 216.400,54.583 216.400 C 54.922 216.400,55.200 216.580,55.200 216.800 C 55.200 217.020,55.650 217.200,56.200 217.200 C 56.822 217.200,57.200 217.427,57.200 217.800 C 57.200 218.245,57.668 218.400,59.013 218.400 C 60.224 218.400,60.899 218.592,61.047 218.978 C 61.279 219.583,111.000 219.959,112.541 219.367 C 113.252 219.095,113.459 218.000,112.800 218.000 C 112.580 218.000,112.400 217.460,112.400 216.800 C 112.400 216.031,112.196 215.600,111.833 215.600 C 111.522 215.600,111.176 215.375,111.065 215.100 C 110.938 214.786,110.851 214.768,110.832 215.051 C 110.814 215.299,111.070 215.726,111.400 216.000 C 111.730 216.274,112.000 216.926,112.000 217.449 C 112.000 217.972,112.225 218.403,112.500 218.406 C 112.833 218.410,112.800 218.542,112.400 218.800 C 111.308 219.506,64.777 219.317,63.062 218.600 C 62.272 218.270,60.829 218.000,59.856 218.000 C 58.651 218.000,58.012 217.808,57.855 217.400 C 57.729 217.070,57.377 216.800,57.074 216.800 C 54.838 216.800,48.045 210.761,48.011 208.743 C 48.005 208.381,47.730 207.982,47.400 207.855 C 47.070 207.729,46.800 207.789,46.800 207.989 M108.825 209.051 C 108.811 209.519,109.079 210.134,109.420 210.417 C 109.761 210.700,109.986 211.375,109.920 211.918 C 109.829 212.668,110.041 212.989,110.800 213.253 C 111.693 213.563,111.725 213.542,111.100 213.056 C 110.698 212.743,110.400 211.978,110.400 211.256 C 110.400 210.565,110.214 210.000,109.987 210.000 C 109.760 210.000,109.411 209.595,109.212 209.100 C 108.857 208.217,108.850 208.216,108.825 209.051 M354.800 213.297 C 354.800 213.630,355.070 214.126,355.400 214.400 C 355.730 214.674,356.000 215.315,356.000 215.825 C 356.000 216.335,356.180 216.864,356.400 217.000 C 357.411 217.625,356.818 219.150,355.500 219.312 C 354.205 219.471,354.205 219.471,355.600 219.436 C 356.974 219.401,358.184 216.400,356.824 216.400 C 356.591 216.400,356.400 216.023,356.400 215.563 C 356.400 215.103,356.040 214.269,355.600 213.709 C 355.068 213.032,354.800 212.894,354.800 213.297 M304.599 218.296 C 305.258 218.393,305.926 218.681,306.084 218.936 C 306.296 219.279,312.491 219.403,329.885 219.411 L 353.400 219.423 331.000 219.207 C 314.683 219.050,308.221 218.857,307.203 218.496 C 306.434 218.223,305.264 218.027,304.603 218.060 L 303.400 218.120 304.599 218.296 " stroke="none" fill="#404040" fill-rule="evenodd"></path></g></svg>