<svg id="svg" version="1.1" xmlns="http://www.w3.org/2000/svg" xmlns:xlink="http://www.w3.org/1999/xlink" width="400" height="400" viewBox="0, 0, 400,400"><g id="svgg"><path id="path0" d="M185.200 38.400 C 185.200 38.620,184.584 38.800,183.831 38.800 C 182.560 38.800,181.361 39.910,167.131 54.260 C 158.699 62.763,144.899 76.630,136.464 85.076 C 116.523 105.043,105.725 116.219,104.497 118.164 C 103.954 119.024,102.983 120.171,102.340 120.712 C 101.697 121.253,100.921 122.294,100.616 123.024 C 100.310 123.755,99.579 124.768,98.990 125.276 C 98.401 125.784,97.375 127.280,96.709 128.600 C 96.043 129.920,94.891 131.676,94.149 132.501 C 93.407 133.327,92.800 134.350,92.800 134.776 C 92.800 135.201,92.017 136.693,91.060 138.091 C 90.103 139.489,88.994 141.615,88.595 142.816 C 88.196 144.017,87.348 145.847,86.712 146.881 C 86.075 147.916,85.096 150.436,84.535 152.481 C 83.975 154.527,83.099 156.920,82.589 157.800 C 82.020 158.781,81.341 161.179,80.835 164.000 C 80.061 168.306,78.927 173.163,77.939 176.400 C 76.463 181.236,77.249 207.644,78.995 211.882 C 79.637 213.440,80.325 216.492,80.843 220.082 C 81.437 224.197,81.887 226.080,82.445 226.800 C 83.693 228.406,84.321 230.068,85.188 234.056 C 85.830 237.008,86.208 237.951,86.973 238.513 C 87.888 239.185,88.614 240.890,89.569 244.609 C 89.886 245.844,90.257 246.322,91.167 246.665 C 92.142 247.033,92.468 247.509,93.003 249.352 C 93.433 250.831,94.194 252.170,95.244 253.295 C 96.119 254.233,96.933 255.450,97.054 256.000 C 97.526 258.144,97.695 258.429,98.852 259.027 C 99.603 259.415,100.328 260.299,100.800 261.400 C 101.278 262.514,101.996 263.384,102.769 263.784 C 103.439 264.130,104.275 264.972,104.628 265.654 C 104.981 266.337,106.334 268.039,107.635 269.437 C 108.936 270.836,110.001 272.119,110.003 272.290 C 110.004 272.460,110.679 273.046,111.503 273.592 C 113.189 274.708,114.318 275.703,117.296 278.696 C 118.118 279.523,119.018 280.411,119.296 280.670 C 119.573 280.928,120.375 281.768,121.078 282.536 C 121.781 283.304,122.726 284.050,123.178 284.193 C 123.630 284.337,124.000 284.603,124.000 284.786 C 124.000 285.416,126.180 287.600,126.809 287.600 C 127.611 287.600,128.398 288.378,128.407 289.180 C 128.415 289.943,130.107 291.600,130.876 291.600 C 131.624 291.600,132.400 292.407,132.400 293.184 C 132.400 294.020,133.883 294.955,135.600 295.200 C 136.844 295.378,137.022 295.556,137.200 296.800 C 137.395 298.166,139.600 299.276,139.600 298.008 C 139.600 297.014,141.568 295.600,142.953 295.600 C 144.228 295.600,145.600 294.787,145.600 294.031 C 145.600 290.144,139.854 289.125,138.748 292.815 C 138.225 294.561,137.600 294.555,137.600 292.805 C 137.600 291.334,136.657 290.400,135.171 290.400 C 134.527 290.400,134.000 290.220,134.000 290.000 C 134.000 289.742,138.312 289.600,146.137 289.600 L 158.273 289.600 158.744 291.171 C 159.690 294.327,164.310 294.327,165.256 291.171 C 165.849 289.191,166.152 289.195,166.749 291.188 C 167.152 292.531,167.462 292.846,168.764 293.236 C 170.050 293.622,170.377 293.947,170.759 295.220 C 171.691 298.330,176.320 298.295,177.256 295.171 L 177.727 293.600 180.004 293.600 C 183.315 293.600,184.596 293.038,185.297 291.277 L 185.886 289.800 186.167 291.000 C 186.630 292.980,187.005 293.376,188.741 293.719 C 190.225 294.012,190.400 294.168,190.400 295.195 C 190.400 296.612,191.331 297.600,192.667 297.600 C 193.373 297.600,194.219 298.202,195.476 299.600 C 197.810 302.196,198.400 302.196,198.400 299.600 L 198.400 297.600 196.880 297.600 C 194.964 297.600,194.400 297.036,194.400 295.120 C 194.400 293.707,194.318 293.600,193.233 293.600 C 191.237 293.600,190.800 293.242,190.800 291.606 C 190.800 289.831,190.297 289.313,188.398 289.133 C 187.123 289.012,186.988 288.877,186.867 287.602 C 186.697 285.802,186.172 285.200,184.775 285.200 C 183.484 285.200,183.136 284.781,182.822 282.849 C 182.627 281.652,182.390 281.413,181.009 281.026 C 179.638 280.641,179.360 280.366,178.982 279.018 C 178.606 277.677,178.323 277.394,176.982 277.018 C 175.641 276.642,175.358 276.359,174.982 275.018 C 174.606 273.677,174.323 273.394,172.982 273.018 C 171.640 272.642,171.358 272.360,170.981 271.013 C 170.644 269.815,170.266 269.358,169.370 269.070 C 167.725 268.539,167.289 268.116,166.990 266.755 C 166.791 265.848,166.355 265.416,165.161 264.938 C 164.047 264.492,163.520 264.004,163.343 263.255 C 163.021 261.900,162.062 260.800,161.200 260.800 C 160.386 260.800,159.200 259.573,159.200 258.730 C 159.200 257.985,158.110 256.989,156.888 256.616 C 156.352 256.453,155.650 255.649,155.187 254.669 C 154.753 253.751,153.857 252.692,153.196 252.317 C 152.534 251.941,151.833 251.213,151.638 250.700 C 151.255 249.693,150.415 248.881,149.057 248.204 C 148.586 247.969,147.976 247.310,147.703 246.740 C 147.165 245.619,146.390 244.870,145.088 244.216 C 144.633 243.987,143.964 243.260,143.601 242.600 C 143.237 241.940,142.331 240.987,141.586 240.483 C 140.841 239.979,139.773 238.809,139.212 237.883 C 138.651 236.957,137.507 235.480,136.671 234.600 C 135.780 233.663,134.955 232.277,134.679 231.254 C 134.379 230.137,133.913 229.395,133.388 229.196 C 132.152 228.726,131.760 228.073,130.790 224.869 C 130.302 223.257,129.648 221.840,129.337 221.720 C 128.394 221.358,127.689 219.537,126.825 215.231 C 126.346 212.840,125.679 210.718,125.225 210.141 C 122.506 206.685,122.636 182.454,125.404 176.600 C 125.924 175.500,126.710 173.037,127.150 171.127 C 127.714 168.677,128.371 167.041,129.381 165.574 C 130.168 164.430,130.924 163.022,131.062 162.447 C 131.429 160.919,132.709 158.493,133.344 158.121 C 133.646 157.945,134.477 156.674,135.189 155.297 C 135.901 153.921,136.983 152.440,137.593 152.005 C 138.202 151.571,139.009 150.567,139.386 149.774 C 139.762 148.981,140.639 147.996,141.335 147.585 C 142.031 147.174,142.930 146.224,143.333 145.474 C 143.737 144.724,144.762 143.719,145.611 143.242 C 146.460 142.765,147.269 142.014,147.409 141.572 C 147.549 141.131,148.368 140.325,149.229 139.782 C 150.090 139.238,151.238 138.090,151.782 137.229 C 152.325 136.368,153.131 135.549,153.572 135.409 C 154.014 135.269,154.773 134.444,155.261 133.577 C 155.748 132.710,156.295 132.000,156.476 132.000 C 156.760 132.000,159.374 129.609,162.494 126.496 C 162.992 125.998,163.893 125.098,164.496 124.496 C 165.098 123.893,165.998 122.993,166.496 122.496 C 166.993 121.998,167.940 121.051,168.600 120.391 C 169.260 119.731,170.160 118.821,170.600 118.367 C 171.040 117.914,172.255 116.690,173.300 115.647 C 174.345 114.605,175.200 113.534,175.200 113.267 C 175.200 113.000,175.924 111.996,176.810 111.036 C 177.695 110.075,178.882 108.144,179.447 106.744 C 180.013 105.345,180.881 103.660,181.377 103.000 C 184.283 99.133,185.280 91.164,185.456 70.400 C 185.537 60.830,185.648 49.625,185.702 45.500 C 185.756 41.374,185.665 37.999,185.500 38.000 C 185.335 38.000,185.200 38.180,185.200 38.400 M249.100 81.248 C 248.105 81.805,248.168 84.209,249.200 85.093 C 250.435 86.150,250.178 86.400,247.860 86.400 C 244.538 86.400,243.294 86.992,242.742 88.837 L 242.273 90.400 239.996 90.400 C 236.537 90.400,235.300 90.974,234.742 92.837 L 234.273 94.400 231.996 94.400 C 228.537 94.400,227.300 94.974,226.742 96.837 C 226.278 98.383,226.252 98.400,224.275 98.400 C 222.426 98.400,222.120 98.549,220.163 100.400 C 219.000 101.500,217.830 102.400,217.565 102.400 C 217.207 102.400,217.147 103.204,217.336 105.500 C 217.686 109.775,217.887 110.332,219.128 110.477 C 220.204 110.603,220.984 111.696,221.369 113.615 C 221.512 114.328,221.992 114.781,222.985 115.140 C 223.985 115.502,224.472 115.964,224.652 116.725 C 224.986 118.133,225.828 119.070,227.030 119.372 C 227.626 119.521,228.271 120.182,228.700 121.080 C 229.085 121.886,229.940 122.836,230.600 123.192 C 231.260 123.548,232.136 124.518,232.547 125.348 C 233.002 126.269,233.826 127.112,234.659 127.509 C 235.415 127.869,236.125 128.558,236.248 129.051 C 236.495 130.033,237.523 131.089,238.903 131.776 C 239.396 132.022,240.034 132.712,240.320 133.308 C 240.606 133.905,241.298 134.710,241.857 135.097 C 242.416 135.483,243.172 136.148,243.537 136.573 C 244.110 137.241,248.721 142.074,253.866 147.400 C 254.716 148.280,255.949 149.873,256.606 150.940 C 257.263 152.008,258.397 153.573,259.126 154.418 C 259.855 155.263,260.630 156.600,260.848 157.388 C 261.065 158.177,261.747 159.402,262.363 160.111 C 263.860 161.835,264.315 162.764,264.825 165.142 C 265.061 166.244,265.766 167.923,266.391 168.873 C 267.839 171.074,268.145 172.282,269.411 180.779 C 269.983 184.617,270.533 187.892,270.634 188.055 C 271.091 188.794,270.806 197.605,270.248 200.000 C 269.915 201.430,269.264 205.030,268.802 208.000 C 267.911 213.715,267.485 215.234,266.353 216.721 C 265.967 217.228,265.180 219.058,264.604 220.789 C 264.027 222.519,263.141 224.355,262.634 224.867 C 262.126 225.380,261.420 226.369,261.064 227.065 C 260.707 227.760,259.861 228.764,259.183 229.295 C 257.246 230.811,258.477 233.600,261.084 233.600 C 261.740 233.600,262.150 233.984,262.574 234.999 C 262.931 235.853,263.595 236.571,264.279 236.842 C 266.263 237.627,266.597 237.872,266.741 238.643 C 266.956 239.791,267.911 240.682,269.206 240.941 C 270.037 241.107,270.592 241.609,271.146 242.694 C 271.624 243.631,272.467 244.474,273.343 244.892 C 274.124 245.265,275.033 246.091,275.363 246.729 C 275.693 247.366,276.526 248.121,277.216 248.407 C 277.905 248.692,278.906 249.617,279.440 250.463 C 279.973 251.308,280.611 252.000,280.856 252.000 C 281.101 252.000,282.325 253.035,283.576 254.300 C 291.352 262.166,293.621 263.733,294.931 262.143 C 295.409 261.563,296.463 260.465,297.273 259.703 C 298.083 258.941,299.021 257.630,299.357 256.791 C 299.693 255.951,300.515 254.641,301.185 253.878 C 301.854 253.116,302.876 251.436,303.455 250.146 C 304.034 248.856,304.911 247.350,305.404 246.800 C 305.897 246.250,306.775 244.540,307.355 243.000 C 307.935 241.460,308.705 239.660,309.065 239.000 C 310.638 236.121,310.928 235.361,311.795 231.862 C 312.298 229.828,313.085 227.464,313.544 226.609 C 314.527 224.774,315.393 221.010,316.169 215.200 C 316.477 212.890,317.137 209.200,317.635 207.000 C 319.066 200.679,318.988 184.867,317.495 178.600 C 316.918 176.180,316.163 172.490,315.816 170.400 C 314.906 164.913,314.388 162.792,313.551 161.126 C 313.143 160.315,312.253 157.705,311.573 155.326 C 310.892 152.947,309.910 150.370,309.390 149.600 C 308.871 148.830,307.958 146.850,307.363 145.200 C 306.768 143.550,305.781 141.660,305.169 141.000 C 304.557 140.340,303.672 138.819,303.202 137.620 C 302.733 136.421,301.772 134.801,301.066 134.020 C 300.361 133.239,299.463 131.760,299.071 130.732 C 298.679 129.705,297.920 128.578,297.384 128.227 C 296.849 127.876,296.057 126.896,295.625 126.049 C 295.193 125.203,294.020 123.630,293.019 122.555 C 292.017 121.480,290.940 120.060,290.626 119.400 C 290.312 118.740,289.500 117.874,288.823 117.475 C 288.145 117.075,287.242 116.066,286.816 115.232 C 286.347 114.311,285.554 113.512,284.802 113.201 C 284.083 112.903,283.258 112.096,282.840 111.282 C 282.426 110.473,281.542 109.605,280.760 109.238 C 279.923 108.845,279.118 108.023,278.667 107.100 C 278.249 106.245,277.643 105.600,277.256 105.600 C 276.131 105.600,274.833 104.440,274.494 103.130 C 274.252 102.197,273.837 101.787,272.790 101.448 C 271.804 101.129,271.171 100.547,270.589 99.425 C 270.049 98.384,269.396 97.749,268.661 97.553 C 267.130 97.143,266.494 96.539,266.204 95.218 C 266.022 94.390,265.657 94.031,264.826 93.865 C 263.382 93.576,262.422 92.611,262.130 91.152 C 261.977 90.387,261.654 90.000,261.169 90.000 C 259.965 90.000,258.432 89.131,258.168 88.300 C 257.873 87.371,256.570 86.000,255.982 86.000 C 255.752 86.000,255.137 85.573,254.615 85.052 C 254.094 84.530,253.214 83.990,252.660 83.851 C 252.106 83.712,251.547 83.262,251.416 82.852 C 251.013 81.582,249.891 80.805,249.100 81.248 M213.850 92.050 C 213.138 95.612,213.735 101.600,214.803 101.600 C 216.684 101.600,216.944 96.449,215.256 92.633 C 214.295 90.461,214.178 90.412,213.850 92.050 M176.751 149.292 C 176.136 150.442,176.541 198.584,177.207 203.400 C 177.487 205.422,178.067 207.411,178.784 208.805 C 179.407 210.017,180.135 211.817,180.401 212.805 C 181.047 215.207,181.847 216.708,183.413 218.455 C 184.130 219.255,184.843 220.487,184.998 221.192 C 185.185 222.041,185.713 222.730,186.563 223.231 C 187.269 223.648,188.149 224.623,188.519 225.399 C 188.923 226.246,189.740 227.070,190.565 227.464 C 191.320 227.824,192.259 228.716,192.652 229.445 C 193.045 230.175,193.885 230.987,194.518 231.249 C 195.151 231.511,196.114 232.431,196.658 233.292 C 197.224 234.188,198.158 235.036,198.842 235.274 C 199.612 235.543,200.280 236.207,200.720 237.143 C 201.164 238.086,201.929 238.843,202.897 239.299 C 203.879 239.761,204.584 240.465,204.956 241.357 C 205.368 242.343,205.918 242.843,206.975 243.192 C 208.031 243.540,208.615 244.070,209.115 245.135 C 209.592 246.150,210.110 246.642,210.802 246.736 C 212.133 246.918,213.100 247.836,213.400 249.201 C 213.593 250.078,213.934 250.374,214.983 250.570 C 216.502 250.855,217.125 251.461,217.556 253.072 C 217.793 253.959,218.148 254.243,219.242 254.421 C 221.048 254.714,221.600 255.082,221.600 255.991 C 221.600 257.607,222.039 258.000,223.843 258.000 L 225.600 258.000 225.600 255.800 L 225.600 253.600 227.940 253.600 C 231.433 253.600,232.699 253.030,233.244 251.211 C 233.622 249.948,233.952 249.621,235.236 249.236 C 236.527 248.850,236.850 248.527,237.236 247.236 C 237.623 245.946,237.946 245.623,239.236 245.236 C 240.527 244.850,240.850 244.527,241.236 243.236 C 241.623 241.946,241.946 241.623,243.236 241.236 C 244.527 240.850,244.850 240.527,245.236 239.236 C 245.621 237.953,245.948 237.622,247.207 237.245 C 249.008 236.706,249.237 236.253,249.556 232.600 L 249.800 229.800 251.921 229.678 L 254.042 229.557 253.921 227.678 C 253.814 226.018,253.684 225.784,252.800 225.664 C 251.473 225.482,250.400 224.479,250.400 223.418 C 250.400 222.319,249.676 221.600,248.569 221.600 C 247.490 221.600,246.776 220.776,246.443 219.148 C 246.243 218.171,245.886 217.804,244.794 217.451 C 243.668 217.087,243.288 216.676,242.817 215.314 C 242.369 214.018,241.981 213.572,241.145 213.388 C 239.855 213.105,239.252 212.458,238.847 210.926 C 238.648 210.171,238.065 209.569,237.080 209.099 C 236.104 208.634,235.412 207.924,235.019 206.985 C 234.611 206.007,233.984 205.385,232.988 204.969 C 232.015 204.563,231.410 203.974,231.126 203.158 C 230.884 202.464,230.045 201.533,229.157 200.973 C 228.295 200.428,227.363 199.407,227.054 198.667 C 226.717 197.861,226.029 197.144,225.307 196.844 C 224.629 196.563,223.780 195.716,223.339 194.878 C 222.913 194.068,222.186 193.217,221.725 192.987 C 220.395 192.324,219.544 191.505,219.174 190.531 C 218.985 190.035,218.126 189.184,217.263 188.640 C 216.363 188.072,215.518 187.140,215.278 186.451 C 215.041 185.772,214.325 184.975,213.628 184.614 C 212.950 184.264,211.952 183.275,211.410 182.416 C 210.868 181.558,209.937 180.618,209.341 180.328 C 208.745 180.038,207.960 179.260,207.598 178.600 C 207.236 177.940,206.324 176.983,205.571 176.473 C 204.818 175.963,204.040 175.243,203.842 174.873 C 203.537 174.302,202.030 172.687,198.284 168.920 C 197.891 168.524,197.171 167.777,196.684 167.261 C 196.198 166.744,192.366 162.856,188.170 158.620 C 183.973 154.385,180.136 150.353,179.643 149.660 C 178.592 148.184,177.423 148.035,176.751 149.292 M152.322 290.857 C 149.783 291.787,149.998 296.341,152.623 297.208 C 155.828 298.265,158.267 295.832,157.211 292.632 C 156.580 290.720,154.631 290.013,152.322 290.857 M141.600 301.400 C 141.600 302.200,141.800 302.400,142.600 302.400 C 143.665 302.400,143.914 301.674,143.120 300.880 C 142.326 300.086,141.600 300.335,141.600 301.400 M200.080 302.880 C 199.202 303.758,199.495 306.561,200.570 307.572 C 202.225 309.127,202.789 307.809,202.143 303.900 C 201.885 302.336,201.041 301.919,200.080 302.880 M145.600 305.400 C 145.600 306.200,145.800 306.400,146.600 306.400 C 147.665 306.400,147.914 305.674,147.120 304.880 C 146.326 304.086,145.600 304.335,145.600 305.400 M205.029 313.029 C 204.229 313.828,204.255 314.274,205.200 316.000 L 205.966 317.400 205.983 314.900 C 206.001 312.180,205.960 312.098,205.029 313.029 " stroke="none" fill="#c7c7c7" fill-rule="evenodd"></path><path id="path1" d="M0.000 200.000 L 0.000 400.000 200.000 400.000 L 400.000 400.000 400.000 200.000 L 400.000 0.000 200.000 0.000 L 0.000 0.000 0.000 200.000 M187.630 35.032 L 188.600 36.064 188.713 62.132 C 188.839 90.924,188.690 93.713,186.855 96.964 C 186.217 98.095,185.379 100.437,184.994 102.168 C 184.452 104.608,183.992 105.650,182.948 106.805 C 182.207 107.625,181.329 109.068,180.995 110.013 C 180.273 112.059,179.732 112.769,178.553 113.218 C 178.027 113.418,177.567 114.039,177.408 114.765 C 177.169 115.851,175.200 118.000,174.443 118.000 C 174.281 118.000,173.847 118.632,173.478 119.404 C 173.081 120.239,172.259 121.071,171.455 121.455 C 170.668 121.829,169.829 122.668,169.455 123.455 C 169.080 124.241,168.241 125.080,167.455 125.455 C 166.668 125.829,165.829 126.668,165.455 127.455 C 165.080 128.241,164.241 129.080,163.455 129.455 C 162.668 129.829,161.829 130.668,161.455 131.455 C 161.072 132.257,160.239 133.081,159.408 133.477 C 158.638 133.844,157.894 134.503,157.755 134.940 C 157.426 135.978,147.978 145.426,146.940 145.755 C 146.503 145.894,145.849 146.627,145.488 147.384 C 145.127 148.141,144.366 149.066,143.798 149.438 C 143.229 149.811,141.962 151.355,140.982 152.870 C 140.002 154.386,138.910 155.736,138.557 155.872 C 138.203 156.008,137.406 157.249,136.787 158.629 C 136.167 160.010,135.298 161.334,134.854 161.571 C 134.306 161.864,133.708 163.124,132.987 165.501 C 132.404 167.426,131.592 169.362,131.183 169.805 C 129.892 171.201,129.295 173.259,128.802 178.000 C 128.539 180.530,127.981 184.480,127.562 186.777 C 126.647 191.792,126.594 196.016,127.392 200.256 C 127.718 201.985,128.345 205.907,128.786 208.972 C 129.476 213.764,129.728 214.690,130.590 215.590 C 131.613 216.657,132.543 219.024,132.984 221.685 C 133.140 222.622,133.882 223.934,134.995 225.238 C 135.965 226.375,136.880 227.853,137.027 228.524 C 137.176 229.202,137.985 230.363,138.848 231.138 C 139.701 231.904,140.400 232.794,140.400 233.115 C 140.400 233.641,141.926 235.381,145.400 238.817 C 146.060 239.469,146.937 240.341,147.348 240.754 C 147.759 241.167,148.636 242.044,149.296 242.704 C 149.956 243.364,150.856 244.264,151.296 244.704 C 151.736 245.144,152.636 246.044,153.296 246.704 C 153.956 247.364,154.879 248.286,155.348 248.753 C 188.501 281.776,203.680 297.568,204.865 300.269 C 205.331 301.331,206.216 302.778,206.831 303.485 C 207.447 304.192,208.246 305.812,208.607 307.085 C 208.969 308.358,209.879 310.594,210.630 312.053 C 211.852 314.427,212.043 315.248,212.442 319.853 C 212.940 325.588,212.716 373.134,212.188 374.062 C 210.715 376.646,210.006 376.781,207.891 374.881 C 206.961 374.045,205.698 373.047,205.084 372.661 C 204.470 372.276,203.689 371.385,203.347 370.680 C 203.005 369.976,202.160 369.038,201.468 368.595 C 200.776 368.152,199.854 367.246,199.418 366.582 C 198.983 365.917,198.083 365.017,197.418 364.582 C 196.754 364.146,195.854 363.246,195.418 362.582 C 194.983 361.917,194.083 361.017,193.418 360.582 C 192.754 360.146,191.854 359.246,191.418 358.582 C 190.983 357.917,190.083 357.017,189.418 356.582 C 188.754 356.146,187.848 355.217,187.405 354.518 C 186.962 353.818,186.094 353.029,185.476 352.764 C 184.857 352.499,183.898 351.689,183.344 350.962 C 182.790 350.236,181.732 349.285,180.993 348.849 C 180.254 348.413,179.375 347.525,179.039 346.876 C 178.704 346.227,177.804 345.327,177.039 344.876 C 176.275 344.425,175.375 343.525,175.039 342.876 C 174.704 342.227,173.804 341.327,173.039 340.876 C 172.275 340.425,171.375 339.525,171.039 338.876 C 170.704 338.227,169.804 337.327,169.039 336.876 C 168.275 336.425,167.375 335.525,167.039 334.876 C 166.704 334.227,165.804 333.327,165.039 332.876 C 164.275 332.425,163.375 331.525,163.039 330.876 C 162.704 330.227,161.804 329.327,161.039 328.876 C 160.275 328.425,159.375 327.525,159.039 326.876 C 158.704 326.227,157.804 325.327,157.039 324.876 C 156.275 324.425,155.365 323.507,155.018 322.835 C 154.671 322.163,153.837 321.329,153.165 320.982 C 152.493 320.635,151.585 319.743,151.147 319.000 C 150.709 318.257,149.743 317.291,149.000 316.853 C 148.257 316.415,147.365 315.507,147.018 314.835 C 146.671 314.163,145.837 313.329,145.165 312.982 C 144.493 312.635,143.575 311.725,143.124 310.961 C 142.673 310.196,141.773 309.296,141.124 308.961 C 140.475 308.625,139.575 307.725,139.124 306.961 C 138.673 306.196,137.773 305.296,137.124 304.961 C 136.475 304.625,135.575 303.725,135.124 302.961 C 134.673 302.196,133.773 301.296,133.124 300.961 C 132.475 300.625,131.575 299.725,131.124 298.961 C 130.673 298.196,129.773 297.296,129.124 296.961 C 128.475 296.625,127.575 295.725,127.124 294.961 C 126.673 294.196,125.773 293.296,125.124 292.961 C 124.475 292.625,123.575 291.725,123.124 290.961 C 122.673 290.196,121.773 289.296,121.124 288.961 C 120.475 288.625,119.575 287.725,119.124 286.961 C 118.673 286.196,117.773 285.296,117.124 284.961 C 116.475 284.625,115.575 283.725,115.124 282.961 C 114.673 282.196,113.784 281.302,113.150 280.974 C 112.515 280.646,111.544 279.662,110.993 278.789 C 110.441 277.915,109.756 277.200,109.470 277.200 C 108.830 277.200,106.800 275.134,106.800 274.483 C 106.800 274.223,106.102 273.569,105.248 273.030 C 104.368 272.475,103.516 271.536,103.282 270.862 C 103.054 270.208,102.294 269.252,101.594 268.737 C 100.893 268.222,99.982 267.140,99.569 266.334 C 99.156 265.527,98.268 264.476,97.596 263.997 C 96.911 263.510,95.771 261.932,95.007 260.414 C 94.256 258.922,93.353 257.591,93.001 257.456 C 92.648 257.320,91.926 256.228,91.396 255.029 C 90.865 253.829,89.793 252.012,89.013 250.989 C 88.233 249.967,87.389 248.317,87.139 247.322 C 86.879 246.291,86.041 244.772,85.188 243.787 C 84.021 242.438,83.548 241.405,83.029 239.071 C 82.639 237.322,81.868 235.334,81.169 234.278 C 80.078 232.632,78.825 228.329,78.807 226.168 C 78.803 225.710,78.343 224.450,77.785 223.368 C 73.298 214.670,72.868 172.317,77.188 164.582 C 77.934 163.246,78.541 161.237,78.983 158.640 C 79.764 154.055,80.092 153.082,81.366 151.568 C 81.935 150.891,82.578 149.237,82.987 147.400 C 83.463 145.260,84.007 143.965,84.814 143.045 C 85.447 142.324,86.413 140.490,86.963 138.968 C 87.600 137.201,88.390 135.838,89.148 135.198 C 89.801 134.646,90.466 133.656,90.625 132.998 C 91.081 131.105,92.308 128.910,93.295 128.220 C 93.793 127.871,94.650 126.644,95.200 125.493 C 95.798 124.242,96.616 123.203,97.234 122.910 C 97.914 122.587,98.432 121.869,98.750 120.808 C 99.024 119.895,99.672 118.909,100.246 118.533 C 100.803 118.168,101.895 116.864,102.673 115.635 C 103.450 114.406,104.902 112.590,105.900 111.600 C 120.609 96.999,152.000 65.187,152.000 64.882 C 152.000 64.660,152.628 64.108,153.396 63.655 C 154.164 63.202,155.136 62.266,155.556 61.576 C 155.976 60.885,156.880 59.980,157.564 59.564 C 158.248 59.148,159.148 58.248,159.564 57.564 C 159.980 56.880,160.880 55.980,161.564 55.564 C 162.248 55.148,163.148 54.248,163.564 53.564 C 163.980 52.880,164.880 51.980,165.564 51.564 C 166.248 51.148,167.148 50.248,167.564 49.564 C 167.980 48.880,168.880 47.980,169.564 47.564 C 170.248 47.148,171.148 46.248,171.564 45.564 C 171.980 44.880,172.885 43.976,173.576 43.556 C 174.266 43.136,175.185 42.193,175.618 41.460 C 176.050 40.726,176.833 39.931,177.356 39.693 C 177.879 39.454,178.829 38.481,179.467 37.530 C 180.402 36.136,181.091 35.630,183.014 34.924 C 186.103 33.790,186.471 33.798,187.630 35.032 M212.351 36.971 C 213.368 37.945,216.900 41.412,220.200 44.675 C 223.500 47.939,226.691 50.924,227.292 51.309 C 227.892 51.693,228.660 52.543,228.998 53.197 C 229.337 53.851,230.163 54.671,230.835 55.018 C 231.507 55.365,232.415 56.257,232.853 57.000 C 233.291 57.743,234.257 58.709,235.000 59.147 C 235.743 59.585,236.635 60.493,236.982 61.165 C 237.329 61.837,238.163 62.671,238.835 63.018 C 239.507 63.365,240.425 64.275,240.876 65.039 C 241.327 65.804,242.227 66.704,242.876 67.039 C 243.525 67.375,244.425 68.275,244.876 69.039 C 245.327 69.804,246.216 70.698,246.850 71.026 C 247.485 71.354,248.456 72.338,249.007 73.211 C 249.559 74.085,250.244 74.800,250.530 74.800 C 251.147 74.800,252.977 76.700,253.332 77.709 C 253.470 78.099,253.901 78.531,254.291 78.669 C 255.334 79.037,256.836 80.473,257.222 81.471 C 257.407 81.951,258.184 82.640,258.948 83.002 C 259.780 83.397,260.600 84.213,260.989 85.034 C 261.405 85.909,262.145 86.617,263.035 86.989 C 263.983 87.385,264.617 88.023,265.018 88.982 C 265.421 89.947,266.053 90.579,267.018 90.982 C 267.953 91.373,268.615 92.018,268.982 92.896 C 269.333 93.736,270.063 94.472,270.972 94.906 C 271.837 95.319,272.666 96.130,273.055 96.945 C 273.429 97.732,274.268 98.571,275.055 98.945 C 275.841 99.320,276.680 100.159,277.055 100.945 C 277.429 101.732,278.268 102.571,279.055 102.945 C 279.841 103.320,280.680 104.159,281.055 104.945 C 281.429 105.732,282.268 106.571,283.055 106.945 C 283.841 107.320,284.680 108.159,285.055 108.945 C 285.426 109.724,286.268 110.570,287.035 110.936 C 287.852 111.326,288.689 112.199,289.193 113.186 C 289.646 114.074,290.251 114.800,290.538 114.800 C 291.214 114.800,292.634 116.356,292.970 117.464 C 293.114 117.940,293.856 118.805,294.619 119.388 C 295.383 119.970,296.355 121.128,296.781 121.962 C 297.206 122.796,298.012 123.778,298.572 124.145 C 299.696 124.881,300.950 127.092,301.384 129.103 C 301.540 129.829,302.050 130.611,302.533 130.869 C 303.739 131.511,304.270 132.293,305.037 134.554 C 305.402 135.629,306.284 137.159,306.998 137.954 C 307.738 138.779,308.571 140.358,308.938 141.630 C 309.292 142.856,309.972 144.206,310.449 144.630 C 311.674 145.718,312.643 148.133,313.190 151.465 C 313.508 153.400,313.924 154.569,314.471 155.064 C 315.859 156.320,316.359 157.770,317.024 162.462 C 317.461 165.547,318.035 167.804,318.818 169.512 C 322.123 176.724,321.997 211.975,318.644 218.389 C 317.978 219.662,317.482 221.535,317.194 223.862 C 316.577 228.855,316.068 230.605,314.751 232.262 C 314.118 233.058,313.600 233.965,313.600 234.276 C 313.600 236.371,312.208 240.555,311.049 241.941 C 310.342 242.788,309.424 244.598,309.011 245.964 C 308.523 247.575,307.868 248.776,307.147 249.383 C 306.500 249.928,305.698 251.296,305.227 252.659 C 304.689 254.214,303.937 255.423,302.987 256.261 C 302.201 256.954,301.382 258.157,301.168 258.932 C 300.738 260.487,296.306 265.322,294.901 265.768 C 294.435 265.916,293.559 266.883,292.953 267.918 C 291.723 270.020,262.364 299.605,261.522 299.591 C 259.819 299.563,257.102 297.606,252.916 293.392 C 250.407 290.867,248.199 288.800,248.009 288.800 C 247.820 288.800,247.273 288.166,246.794 287.390 C 246.315 286.615,245.387 285.704,244.733 285.365 C 244.079 285.027,243.175 284.125,242.724 283.361 C 242.273 282.596,241.373 281.696,240.724 281.361 C 240.075 281.025,239.176 280.126,238.726 279.364 C 238.276 278.601,237.433 277.734,236.854 277.437 C 235.864 276.929,223.658 265.028,195.380 237.000 C 184.990 226.701,183.201 224.756,182.766 223.276 C 182.483 222.313,181.893 221.358,181.430 221.111 C 180.267 220.492,179.725 219.691,178.977 217.488 C 178.620 216.436,177.921 215.086,177.423 214.488 C 174.574 211.061,174.004 204.754,174.002 176.624 C 174.001 161.628,173.854 153.941,173.540 152.421 C 172.623 147.980,173.553 145.567,176.489 144.776 L 178.142 144.331 189.771 156.092 C 196.167 162.560,201.863 168.381,202.429 169.026 C 202.995 169.672,203.860 170.560,204.351 171.000 C 206.594 173.009,257.185 224.039,257.568 224.679 C 257.981 225.368,258.021 225.365,258.462 224.625 C 258.716 224.199,259.685 223.110,260.615 222.206 C 262.000 220.860,262.395 220.132,262.798 218.181 C 263.520 214.685,264.419 211.934,265.211 210.800 C 268.087 206.682,267.977 180.096,265.061 174.400 C 264.329 172.970,263.408 170.450,263.014 168.800 C 262.598 167.055,261.920 165.382,261.395 164.800 C 260.200 163.477,259.347 161.737,258.769 159.444 C 258.422 158.066,258.006 157.417,257.205 157.002 C 256.604 156.692,255.882 155.844,255.601 155.119 C 255.319 154.393,254.392 153.080,253.539 152.200 C 252.687 151.320,244.747 143.271,235.895 134.313 C 217.551 115.749,216.295 114.383,215.145 111.731 C 214.685 110.669,213.805 109.260,213.190 108.600 C 212.495 107.854,211.694 106.157,211.072 104.113 C 210.522 102.305,209.676 100.268,209.191 99.587 C 207.424 97.106,207.206 93.225,207.203 64.269 L 207.200 37.538 208.369 36.369 C 209.900 34.838,210.167 34.879,212.351 36.971 " stroke="none" fill="#040404" fill-rule="evenodd"></path><path id="path2" d="M183.782 37.166 C 182.895 37.384,178.321 41.742,166.919 53.233 C 158.314 61.905,142.142 78.180,130.982 89.400 C 109.581 110.915,101.398 119.654,99.890 122.600 C 99.552 123.260,98.814 124.232,98.249 124.760 C 97.684 125.287,96.746 126.629,96.165 127.740 C 95.583 128.852,94.597 130.400,93.972 131.181 C 93.347 131.961,92.540 133.320,92.179 134.200 C 91.817 135.080,91.116 136.340,90.621 137.000 C 89.304 138.756,85.046 147.753,83.995 151.000 C 83.497 152.540,82.684 154.610,82.190 155.600 C 81.696 156.590,80.813 159.587,80.229 162.260 C 79.645 164.933,78.820 168.109,78.395 169.318 C 75.413 177.803,75.413 208.018,78.395 215.589 C 78.788 216.585,79.581 219.740,80.159 222.600 C 80.849 226.014,81.675 228.762,82.563 230.600 C 83.308 232.140,84.136 234.390,84.404 235.600 C 84.671 236.810,85.544 238.970,86.343 240.400 C 87.142 241.830,88.195 243.958,88.682 245.129 C 89.170 246.300,90.077 247.837,90.697 248.544 C 91.318 249.252,92.163 250.723,92.574 251.815 C 92.985 252.907,93.879 254.447,94.561 255.239 C 95.242 256.030,96.296 257.560,96.902 258.639 C 98.113 260.793,100.776 264.221,102.933 266.400 C 103.695 267.170,104.594 268.340,104.931 269.000 C 105.269 269.660,106.186 270.702,106.970 271.315 C 107.754 271.928,108.650 272.918,108.962 273.515 C 109.273 274.112,110.153 274.932,110.916 275.337 C 111.680 275.743,112.550 276.533,112.850 277.094 C 113.151 277.655,114.067 278.537,114.887 279.055 C 115.706 279.572,116.655 280.534,116.995 281.191 C 117.335 281.849,118.163 282.671,118.835 283.018 C 119.507 283.365,120.425 284.275,120.876 285.039 C 121.327 285.804,122.227 286.704,122.876 287.039 C 123.525 287.375,124.425 288.275,124.876 289.039 C 125.327 289.804,126.227 290.704,126.876 291.039 C 127.525 291.375,128.415 292.257,128.853 293.000 C 129.291 293.743,130.276 294.720,131.041 295.171 C 131.807 295.623,132.736 296.520,133.106 297.165 C 133.476 297.809,134.370 298.619,135.094 298.964 C 135.842 299.321,136.687 300.174,137.055 300.945 C 137.429 301.732,138.268 302.571,139.055 302.945 C 139.841 303.320,140.680 304.159,141.055 304.945 C 141.429 305.732,142.268 306.571,143.055 306.945 C 143.841 307.320,144.680 308.159,145.055 308.945 C 145.429 309.732,146.268 310.571,147.055 310.945 C 147.841 311.320,148.680 312.159,149.055 312.945 C 149.429 313.732,150.268 314.571,151.055 314.945 C 151.841 315.320,152.680 316.159,153.055 316.945 C 153.429 317.732,154.268 318.571,155.055 318.945 C 155.863 319.331,156.681 320.162,157.084 321.008 C 157.462 321.800,158.149 322.523,158.642 322.646 C 159.707 322.913,161.008 324.269,161.381 325.499 C 161.531 325.994,162.074 326.504,162.589 326.633 C 163.701 326.912,165.001 328.247,165.381 329.499 C 165.531 329.994,166.074 330.504,166.589 330.633 C 167.701 330.912,169.001 332.247,169.381 333.499 C 169.531 333.994,170.074 334.504,170.589 334.633 C 171.682 334.907,173.000 336.242,173.363 337.443 C 173.512 337.937,174.278 338.545,175.216 338.913 C 176.322 339.348,176.975 339.924,177.338 340.787 C 177.640 341.506,178.441 342.322,179.231 342.717 C 179.984 343.092,180.900 344.000,181.266 344.734 C 181.632 345.468,182.532 346.368,183.264 346.734 C 183.997 347.100,184.957 347.968,185.398 348.663 C 185.839 349.357,186.787 350.210,187.504 350.558 C 188.229 350.910,189.092 351.786,189.448 352.531 C 189.874 353.425,190.554 354.040,191.491 354.379 C 192.515 354.749,193.071 355.296,193.541 356.397 C 194.004 357.479,194.570 358.045,195.541 358.397 C 196.513 358.748,197.079 359.314,197.541 360.397 C 198.004 361.479,198.570 362.045,199.541 362.397 C 200.513 362.748,201.079 363.314,201.541 364.397 C 201.999 365.469,202.571 366.046,203.516 366.387 C 204.386 366.702,205.071 367.341,205.497 368.234 C 206.811 370.989,208.000 369.693,208.000 365.507 C 208.000 363.522,208.275 361.537,208.751 360.087 C 209.409 358.085,209.539 355.857,209.802 342.200 C 210.162 323.512,210.157 323.345,209.160 319.800 C 208.726 318.260,208.019 315.234,207.587 313.076 C 206.758 308.933,206.466 308.159,204.967 306.149 C 204.454 305.461,203.681 303.968,203.249 302.832 C 202.817 301.695,201.996 300.397,201.424 299.947 C 200.852 299.497,200.136 298.650,199.833 298.065 C 199.529 297.479,192.321 289.980,183.815 281.400 C 155.523 252.864,139.697 236.548,138.998 235.195 C 138.617 234.459,137.697 233.283,136.953 232.581 C 136.209 231.880,135.600 231.023,135.600 230.677 C 135.600 230.331,134.899 229.239,134.043 228.249 C 133.186 227.259,132.174 225.584,131.794 224.525 C 131.414 223.466,130.413 221.160,129.570 219.400 C 128.727 217.640,127.597 214.310,127.060 212.000 C 126.523 209.690,125.778 206.990,125.405 206.000 C 122.671 198.744,125.339 173.822,129.509 167.678 C 130.060 166.866,130.947 165.031,131.481 163.601 C 132.015 162.170,132.945 160.370,133.548 159.600 C 134.152 158.830,135.117 157.345,135.694 156.301 C 137.417 153.181,143.209 146.538,147.997 142.191 C 149.698 140.647,152.259 138.109,153.687 136.553 C 155.115 134.997,160.720 129.304,166.142 123.902 C 171.564 118.501,176.000 113.883,176.000 113.642 C 176.000 113.400,176.647 112.486,177.438 111.611 C 178.229 110.735,179.503 108.710,180.269 107.109 C 181.035 105.509,181.900 103.930,182.191 103.600 C 182.938 102.752,184.124 98.687,185.456 92.400 L 186.600 87.000 186.600 62.000 C 186.600 33.939,186.880 36.406,183.782 37.166 M185.702 45.500 C 185.648 49.625,185.537 60.830,185.456 70.400 C 185.280 91.164,184.283 99.133,181.377 103.000 C 180.881 103.660,180.013 105.345,179.447 106.744 C 178.882 108.144,177.695 110.075,176.810 111.036 C 175.924 111.996,175.200 113.000,175.200 113.267 C 175.200 113.534,174.345 114.605,173.300 115.647 C 172.255 116.690,171.040 117.914,170.600 118.367 C 170.160 118.821,169.260 119.731,168.600 120.391 C 167.940 121.051,166.993 121.998,166.496 122.496 C 165.998 122.993,165.098 123.893,164.496 124.496 C 163.893 125.098,162.992 125.998,162.494 126.496 C 159.374 129.609,156.760 132.000,156.476 132.000 C 156.295 132.000,155.748 132.710,155.261 133.577 C 154.773 134.444,154.014 135.269,153.572 135.409 C 153.131 135.549,152.325 136.368,151.782 137.229 C 151.238 138.090,150.090 139.238,149.229 139.782 C 148.368 140.325,147.549 141.131,147.409 141.572 C 147.269 142.014,146.460 142.765,145.611 143.242 C 144.762 143.719,143.737 144.724,143.333 145.474 C 142.930 146.224,142.031 147.174,141.335 147.585 C 140.639 147.996,139.762 148.981,139.386 149.774 C 139.009 150.567,138.202 151.571,137.593 152.005 C 136.983 152.440,135.901 153.921,135.189 155.297 C 134.477 156.674,133.646 157.945,133.344 158.121 C 132.709 158.493,131.429 160.919,131.062 162.447 C 130.924 163.022,130.168 164.430,129.381 165.574 C 128.371 167.041,127.714 168.677,127.150 171.127 C 126.710 173.037,125.924 175.500,125.404 176.600 C 122.636 182.454,122.506 206.685,125.225 210.141 C 125.679 210.718,126.346 212.840,126.825 215.231 C 127.689 219.537,128.394 221.358,129.337 221.720 C 129.648 221.840,130.302 223.257,130.790 224.869 C 131.760 228.073,132.152 228.726,133.388 229.196 C 133.913 229.395,134.379 230.137,134.679 231.254 C 134.955 232.277,135.780 233.663,136.671 234.600 C 137.507 235.480,138.651 236.957,139.212 237.883 C 139.773 238.809,140.841 239.979,141.586 240.483 C 142.331 240.987,143.237 241.940,143.601 242.600 C 143.964 243.260,144.633 243.987,145.088 244.216 C 146.390 244.870,147.165 245.619,147.703 246.740 C 147.976 247.310,148.586 247.969,149.057 248.204 C 150.415 248.881,151.255 249.693,151.638 250.700 C 151.833 251.213,152.534 251.941,153.196 252.317 C 153.857 252.692,154.753 253.751,155.187 254.669 C 155.650 255.649,156.352 256.453,156.888 256.616 C 158.110 256.989,159.200 257.985,159.200 258.730 C 159.200 259.573,160.386 260.800,161.200 260.800 C 162.062 260.800,163.021 261.900,163.343 263.255 C 163.520 264.004,164.047 264.492,165.161 264.938 C 166.355 265.416,166.791 265.848,166.990 266.755 C 167.289 268.116,167.725 268.539,169.370 269.070 C 170.266 269.358,170.644 269.815,170.981 271.013 C 171.358 272.360,171.640 272.642,172.982 273.018 C 174.323 273.394,174.606 273.677,174.982 275.018 C 175.358 276.359,175.641 276.642,176.982 277.018 C 178.323 277.394,178.606 277.677,178.982 279.018 C 179.360 280.366,179.638 280.641,181.009 281.026 C 182.390 281.413,182.627 281.652,182.822 282.849 C 183.136 284.781,183.484 285.200,184.775 285.200 C 186.172 285.200,186.697 285.802,186.867 287.602 C 186.988 288.877,187.123 289.012,188.398 289.133 C 190.297 289.313,190.800 289.831,190.800 291.606 C 190.800 293.242,191.237 293.600,193.233 293.600 C 194.318 293.600,194.400 293.707,194.400 295.120 C 194.400 297.036,194.964 297.600,196.880 297.600 L 198.400 297.600 198.400 299.600 C 198.400 302.196,197.810 302.196,195.476 299.600 C 194.219 298.202,193.373 297.600,192.667 297.600 C 191.331 297.600,190.400 296.612,190.400 295.195 C 190.400 294.168,190.225 294.012,188.741 293.719 C 187.005 293.376,186.630 292.980,186.167 291.000 L 185.886 289.800 185.297 291.277 C 184.596 293.038,183.315 293.600,180.004 293.600 L 177.727 293.600 177.256 295.171 C 176.320 298.295,171.691 298.330,170.759 295.220 C 170.377 293.947,170.050 293.622,168.764 293.236 C 167.462 292.846,167.152 292.531,166.749 291.188 C 166.152 289.195,165.849 289.191,165.256 291.171 C 164.310 294.327,159.690 294.327,158.744 291.171 L 158.273 289.600 146.137 289.600 C 138.312 289.600,134.000 289.742,134.000 290.000 C 134.000 290.220,134.527 290.400,135.171 290.400 C 136.657 290.400,137.600 291.334,137.600 292.805 C 137.600 294.555,138.225 294.561,138.748 292.815 C 139.854 289.125,145.600 290.144,145.600 294.031 C 145.600 294.787,144.228 295.600,142.953 295.600 C 141.568 295.600,139.600 297.014,139.600 298.008 C 139.600 299.276,137.395 298.166,137.200 296.800 C 137.022 295.556,136.844 295.378,135.600 295.200 C 133.883 294.955,132.400 294.020,132.400 293.184 C 132.400 292.407,131.624 291.600,130.876 291.600 C 130.107 291.600,128.415 289.943,128.407 289.180 C 128.398 288.378,127.611 287.600,126.809 287.600 C 126.180 287.600,124.000 285.416,124.000 284.786 C 124.000 284.603,123.630 284.337,123.178 284.193 C 122.726 284.050,121.781 283.304,121.078 282.536 C 120.375 281.768,119.573 280.928,119.296 280.670 C 119.018 280.411,118.118 279.523,117.296 278.696 C 114.318 275.703,113.189 274.708,111.503 273.592 C 110.679 273.046,110.004 272.460,110.003 272.290 C 110.001 272.119,108.936 270.836,107.635 269.437 C 106.334 268.039,104.981 266.337,104.628 265.654 C 104.275 264.972,103.439 264.130,102.769 263.784 C 101.996 263.384,101.278 262.514,100.800 261.400 C 100.328 260.299,99.603 259.415,98.852 259.027 C 97.695 258.429,97.526 258.144,97.054 256.000 C 96.933 255.450,96.119 254.233,95.244 253.295 C 94.194 252.170,93.433 250.831,93.003 249.352 C 92.468 247.509,92.142 247.033,91.167 246.665 C 90.257 246.322,89.886 245.844,89.569 244.609 C 88.614 240.890,87.888 239.185,86.973 238.513 C 86.208 237.951,85.830 237.008,85.188 234.056 C 84.321 230.068,83.693 228.406,82.445 226.800 C 81.887 226.080,81.437 224.197,80.843 220.082 C 80.325 216.492,79.637 213.440,78.995 211.882 C 77.249 207.644,76.463 181.236,77.939 176.400 C 78.927 173.163,80.061 168.306,80.835 164.000 C 81.341 161.179,82.020 158.781,82.589 157.800 C 83.099 156.920,83.975 154.527,84.535 152.481 C 85.096 150.436,86.075 147.916,86.712 146.881 C 87.348 145.847,88.196 144.017,88.595 142.816 C 88.994 141.615,90.103 139.489,91.060 138.091 C 92.017 136.693,92.800 135.201,92.800 134.776 C 92.800 134.350,93.407 133.327,94.149 132.501 C 94.891 131.676,96.043 129.920,96.709 128.600 C 97.375 127.280,98.401 125.784,98.990 125.276 C 99.579 124.768,100.310 123.755,100.616 123.024 C 100.921 122.294,101.697 121.253,102.340 120.712 C 102.983 120.171,103.954 119.024,104.497 118.164 C 105.725 116.219,116.523 105.043,136.464 85.076 C 144.899 76.630,158.699 62.763,167.131 54.260 C 181.361 39.910,182.560 38.800,183.831 38.800 C 184.584 38.800,185.200 38.620,185.200 38.400 C 185.200 38.180,185.335 38.000,185.500 38.000 C 185.665 37.999,185.756 41.374,185.702 45.500 M213.287 43.464 C 213.079 43.869,212.808 44.993,212.684 45.961 C 212.561 46.930,212.091 48.221,211.640 48.831 C 209.827 51.283,208.935 87.567,210.569 92.390 C 211.130 94.046,211.933 97.020,212.354 99.000 C 213.269 103.311,213.436 103.760,214.854 105.729 C 215.459 106.570,216.249 108.145,216.610 109.229 C 216.970 110.313,217.615 111.445,218.044 111.745 C 218.472 112.046,219.403 113.107,220.111 114.103 C 220.820 115.100,228.258 122.909,236.641 131.458 C 253.768 148.924,255.474 150.759,256.997 153.359 C 257.591 154.372,258.241 155.200,258.443 155.200 C 258.645 155.200,259.421 156.455,260.168 157.990 C 260.915 159.524,261.891 161.243,262.337 161.811 C 262.784 162.379,263.546 164.049,264.031 165.522 C 264.515 166.995,265.439 169.254,266.083 170.543 C 270.544 179.464,270.394 207.765,265.845 215.730 C 265.320 216.649,264.492 218.625,264.006 220.122 C 263.187 222.639,262.495 223.692,258.994 227.749 C 257.881 229.039,256.702 228.700,255.741 226.813 C 255.333 226.012,252.775 223.254,250.350 221.000 C 249.876 220.560,249.151 219.840,248.737 219.400 C 248.324 218.960,245.334 215.864,242.093 212.520 C 238.852 209.176,235.737 205.936,235.171 205.320 C 234.605 204.704,233.741 203.840,233.250 203.400 C 232.247 202.499,216.650 186.542,215.381 185.119 C 214.931 184.614,214.121 183.805,213.581 183.322 C 213.042 182.839,209.000 178.728,204.600 174.186 C 200.200 169.645,192.417 161.692,187.305 156.515 L 178.011 147.101 177.012 147.756 C 175.471 148.765,175.462 148.957,175.721 175.772 C 175.985 203.073,176.233 206.564,178.194 210.600 C 178.728 211.700,179.640 213.770,180.219 215.200 C 180.799 216.630,181.777 218.340,182.393 219.000 C 183.010 219.660,183.892 220.956,184.355 221.880 C 185.178 223.523,197.230 235.857,205.971 244.000 C 208.214 246.090,211.095 248.790,212.373 250.000 C 213.651 251.210,214.897 252.380,215.143 252.600 C 215.388 252.820,216.215 253.630,216.981 254.400 C 217.746 255.170,218.784 256.180,219.286 256.645 C 219.789 257.109,220.560 257.860,221.000 258.312 C 224.146 261.550,226.329 263.575,227.096 263.966 C 227.589 264.218,228.267 264.955,228.603 265.605 C 228.939 266.255,229.751 267.065,230.409 267.405 C 231.066 267.745,232.038 268.709,232.567 269.549 C 233.097 270.388,234.041 271.287,234.665 271.548 C 235.289 271.808,236.205 272.644,236.700 273.406 C 237.195 274.167,238.237 275.055,239.015 275.380 C 239.952 275.772,240.615 276.417,240.981 277.293 C 241.363 278.206,241.965 278.771,242.928 279.120 C 243.978 279.499,244.480 280.016,244.958 281.212 C 245.308 282.085,245.857 282.800,246.178 282.800 C 247.493 282.800,248.823 283.775,249.131 284.966 C 249.361 285.854,249.779 286.296,250.625 286.546 C 252.617 287.135,252.985 287.431,253.445 288.815 C 253.800 289.883,254.202 290.240,255.435 290.587 C 256.765 290.960,257.042 291.242,257.424 292.610 L 257.869 294.200 260.134 294.320 L 262.400 294.440 262.400 292.700 C 262.400 291.743,262.187 290.747,261.927 290.487 C 261.666 290.226,261.579 289.887,261.733 289.733 C 261.887 289.579,262.226 289.666,262.487 289.927 C 262.747 290.187,263.734 290.400,264.680 290.400 L 266.400 290.400 266.400 288.680 C 266.400 287.734,266.187 286.747,265.927 286.487 C 265.666 286.226,265.579 285.887,265.733 285.733 C 265.887 285.579,266.226 285.666,266.487 285.927 C 266.747 286.187,267.734 286.400,268.680 286.400 L 270.400 286.400 270.400 284.680 C 270.400 283.734,270.187 282.747,269.927 282.487 C 269.666 282.226,269.579 281.887,269.733 281.733 C 269.887 281.579,270.226 281.666,270.487 281.927 C 270.747 282.187,271.734 282.400,272.680 282.400 L 274.400 282.400 274.400 280.680 C 274.400 279.734,274.187 278.747,273.927 278.487 C 273.666 278.226,273.579 277.887,273.733 277.733 C 273.887 277.579,274.226 277.666,274.487 277.927 C 274.747 278.187,275.734 278.400,276.680 278.400 L 278.400 278.400 278.400 276.680 C 278.400 275.734,278.187 274.747,277.927 274.487 C 277.666 274.226,277.579 273.887,277.733 273.733 C 277.887 273.579,278.226 273.666,278.487 273.927 C 278.747 274.187,279.734 274.400,280.680 274.400 L 282.400 274.400 282.400 272.680 C 282.400 271.734,282.187 270.747,281.927 270.487 C 281.666 270.226,281.579 269.887,281.733 269.733 C 281.887 269.579,282.226 269.666,282.487 269.927 C 282.747 270.187,283.734 270.400,284.680 270.400 L 286.400 270.400 286.400 268.649 C 286.400 267.580,286.166 266.704,285.800 266.400 C 285.149 265.859,284.942 262.206,285.542 261.836 C 286.062 261.514,290.000 262.062,290.000 262.456 C 290.000 262.645,289.722 262.800,289.382 262.800 C 288.490 262.800,286.800 264.621,286.800 265.582 C 286.800 266.285,287.053 266.400,288.600 266.400 C 290.067 266.400,290.400 266.267,290.400 265.680 C 290.400 264.574,291.217 264.000,292.792 264.000 C 294.459 264.000,298.480 260.277,299.920 257.400 C 300.360 256.520,301.296 255.080,301.999 254.200 C 302.703 253.320,303.770 251.520,304.372 250.200 C 304.973 248.880,305.759 247.559,306.118 247.263 C 306.476 246.968,307.336 245.259,308.028 243.465 C 308.720 241.671,309.597 239.752,309.977 239.201 C 310.869 237.908,311.760 235.562,312.408 232.800 C 312.692 231.590,313.419 229.430,314.023 228.000 C 315.000 225.687,316.244 220.378,317.023 215.200 C 317.172 214.210,317.641 212.050,318.065 210.400 C 320.032 202.750,319.906 183.150,317.839 175.200 C 317.296 173.110,316.467 169.330,315.996 166.800 C 315.522 164.247,314.470 160.509,313.633 158.400 C 312.804 156.310,311.893 153.700,311.610 152.600 C 311.327 151.500,310.588 149.674,309.968 148.542 C 309.348 147.410,308.384 145.361,307.826 143.987 C 307.268 142.614,306.348 140.883,305.782 140.140 C 305.215 139.397,304.298 137.757,303.744 136.495 C 303.189 135.233,302.255 133.696,301.668 133.080 C 301.081 132.464,300.150 131.088,299.600 130.022 C 297.278 125.523,291.754 118.746,284.502 111.501 C 282.576 109.576,280.640 107.616,280.200 107.145 C 279.760 106.674,279.040 105.955,278.600 105.548 C 278.160 105.140,277.237 104.243,276.548 103.555 C 275.859 102.867,274.936 101.944,274.496 101.504 C 274.056 101.064,273.156 100.164,272.496 99.504 C 267.153 94.161,265.255 92.400,264.840 92.400 C 264.603 92.400,263.959 91.685,263.407 90.811 C 262.856 89.938,261.885 88.954,261.250 88.626 C 260.616 88.298,259.731 87.410,259.285 86.654 C 258.839 85.898,257.969 85.036,257.352 84.739 C 256.735 84.443,255.807 83.570,255.290 82.800 C 254.773 82.030,253.757 81.094,253.032 80.719 C 252.288 80.336,251.484 79.486,251.188 78.770 C 250.854 77.963,250.170 77.296,249.309 76.936 C 248.558 76.622,247.592 75.755,247.138 74.985 C 246.689 74.223,245.723 73.316,244.991 72.969 C 244.218 72.602,243.390 71.764,243.011 70.966 C 242.598 70.097,241.855 69.383,240.984 69.019 C 240.094 68.647,239.366 67.937,238.924 67.010 C 238.540 66.203,237.854 65.478,237.358 65.354 C 236.302 65.089,234.993 63.734,234.628 62.528 C 234.465 61.989,233.914 61.557,233.187 61.397 C 231.976 61.131,230.400 59.517,230.400 58.543 C 230.400 58.241,229.694 57.711,228.830 57.365 C 227.664 56.899,227.113 56.366,226.684 55.292 C 226.224 54.139,225.792 53.758,224.554 53.411 C 223.345 53.073,222.844 52.646,222.297 51.488 C 221.875 50.596,221.310 50.000,220.886 50.000 C 219.734 50.000,218.437 48.853,218.094 47.530 C 217.852 46.596,217.437 46.188,216.387 45.848 C 215.451 45.546,214.783 44.965,214.333 44.064 C 213.738 42.872,213.626 42.808,213.287 43.464 M251.416 82.852 C 251.547 83.262,252.106 83.712,252.660 83.851 C 253.214 83.990,254.094 84.530,254.615 85.052 C 255.137 85.573,255.752 86.000,255.982 86.000 C 256.570 86.000,257.873 87.371,258.168 88.300 C 258.432 89.131,259.965 90.000,261.169 90.000 C 261.654 90.000,261.977 90.387,262.130 91.152 C 262.422 92.611,263.382 93.576,264.826 93.865 C 265.657 94.031,266.022 94.390,266.204 95.218 C 266.494 96.539,267.130 97.143,268.661 97.553 C 269.396 97.749,270.049 98.384,270.589 99.425 C 271.171 100.547,271.804 101.129,272.790 101.448 C 273.837 101.787,274.252 102.197,274.494 103.130 C 274.833 104.440,276.131 105.600,277.256 105.600 C 277.643 105.600,278.249 106.245,278.667 107.100 C 279.118 108.023,279.923 108.845,280.760 109.238 C 281.542 109.605,282.426 110.473,282.840 111.282 C 283.258 112.096,284.083 112.903,284.802 113.201 C 285.554 113.512,286.347 114.311,286.816 115.232 C 287.242 116.066,288.145 117.075,288.823 117.475 C 289.500 117.874,290.312 118.740,290.626 119.400 C 290.940 120.060,292.017 121.480,293.019 122.555 C 294.020 123.630,295.193 125.203,295.625 126.049 C 296.057 126.896,296.849 127.876,297.384 128.227 C 297.920 128.578,298.679 129.705,299.071 130.732 C 299.463 131.760,300.361 133.239,301.066 134.020 C 301.772 134.801,302.733 136.421,303.202 137.620 C 303.672 138.819,304.557 140.340,305.169 141.000 C 305.781 141.660,306.768 143.550,307.363 145.200 C 307.958 146.850,308.871 148.830,309.390 149.600 C 309.910 150.370,310.892 152.947,311.573 155.326 C 312.253 157.705,313.143 160.315,313.551 161.126 C 314.388 162.792,314.906 164.913,315.816 170.400 C 316.163 172.490,316.918 176.180,317.495 178.600 C 318.988 184.867,319.066 200.679,317.635 207.000 C 317.137 209.200,316.477 212.890,316.169 215.200 C 315.393 221.010,314.527 224.774,313.544 226.609 C 313.085 227.464,312.298 229.828,311.795 231.862 C 310.928 235.361,310.638 236.121,309.065 239.000 C 308.705 239.660,307.935 241.460,307.355 243.000 C 306.775 244.540,305.897 246.250,305.404 246.800 C 304.911 247.350,304.034 248.856,303.455 250.146 C 302.876 251.436,301.854 253.116,301.185 253.878 C 300.515 254.641,299.693 255.951,299.357 256.791 C 299.021 257.630,298.083 258.941,297.273 259.703 C 296.463 260.465,295.409 261.563,294.931 262.143 C 293.621 263.733,291.352 262.166,283.576 254.300 C 282.325 253.035,281.101 252.000,280.856 252.000 C 280.611 252.000,279.973 251.308,279.440 250.463 C 278.906 249.617,277.905 248.692,277.216 248.407 C 276.526 248.121,275.693 247.366,275.363 246.729 C 275.033 246.091,274.124 245.265,273.343 244.892 C 272.467 244.474,271.624 243.631,271.146 242.694 C 270.592 241.609,270.037 241.107,269.206 240.941 C 267.911 240.682,266.956 239.791,266.741 238.643 C 266.597 237.872,266.263 237.627,264.279 236.842 C 263.595 236.571,262.931 235.853,262.574 234.999 C 262.150 233.984,261.740 233.600,261.084 233.600 C 258.477 233.600,257.246 230.811,259.183 229.295 C 259.861 228.764,260.707 227.760,261.064 227.065 C 261.420 226.369,262.126 225.380,262.634 224.867 C 263.141 224.355,264.027 222.519,264.604 220.789 C 265.180 219.058,265.967 217.228,266.353 216.721 C 267.485 215.234,267.911 213.715,268.802 208.000 C 269.264 205.030,269.915 201.430,270.248 200.000 C 270.806 197.605,271.091 188.794,270.634 188.055 C 270.533 187.892,269.983 184.617,269.411 180.779 C 268.145 172.282,267.839 171.074,266.391 168.873 C 265.766 167.923,265.061 166.244,264.825 165.142 C 264.315 162.764,263.860 161.835,262.363 160.111 C 261.747 159.402,261.065 158.177,260.848 157.388 C 260.630 156.600,259.855 155.263,259.126 154.418 C 258.397 153.573,257.263 152.008,256.606 150.940 C 255.949 149.873,254.716 148.280,253.866 147.400 C 248.721 142.074,244.110 137.241,243.537 136.573 C 243.172 136.148,242.416 135.483,241.857 135.097 C 241.298 134.710,240.606 133.905,240.320 133.308 C 240.034 132.712,239.396 132.022,238.903 131.776 C 237.523 131.089,236.495 130.033,236.248 129.051 C 236.125 128.558,235.415 127.869,234.659 127.509 C 233.826 127.112,233.002 126.269,232.547 125.348 C 232.136 124.518,231.260 123.548,230.600 123.192 C 229.940 122.836,229.085 121.886,228.700 121.080 C 228.271 120.182,227.626 119.521,227.030 119.372 C 225.828 119.070,224.986 118.133,224.652 116.725 C 224.472 115.964,223.985 115.502,222.985 115.140 C 221.992 114.781,221.512 114.328,221.369 113.615 C 220.984 111.696,220.204 110.603,219.128 110.477 C 217.887 110.332,217.686 109.775,217.336 105.500 C 217.147 103.204,217.207 102.400,217.565 102.400 C 217.830 102.400,219.000 101.500,220.163 100.400 C 222.120 98.549,222.426 98.400,224.275 98.400 C 226.252 98.400,226.278 98.383,226.742 96.837 C 227.300 94.974,228.537 94.400,231.996 94.400 L 234.273 94.400 234.742 92.837 C 235.300 90.974,236.537 90.400,239.996 90.400 L 242.273 90.400 242.742 88.837 C 243.294 86.992,244.538 86.400,247.860 86.400 C 250.178 86.400,250.435 86.150,249.200 85.093 C 248.168 84.209,248.105 81.805,249.100 81.248 C 249.891 80.805,251.013 81.582,251.416 82.852 M215.256 92.633 C 216.944 96.449,216.684 101.600,214.803 101.600 C 213.735 101.600,213.138 95.612,213.850 92.050 C 214.178 90.412,214.295 90.461,215.256 92.633 M179.643 149.660 C 180.136 150.353,183.973 154.385,188.170 158.620 C 192.366 162.856,196.198 166.744,196.684 167.261 C 197.171 167.777,197.891 168.524,198.284 168.920 C 202.030 172.687,203.537 174.302,203.842 174.873 C 204.040 175.243,204.818 175.963,205.571 176.473 C 206.324 176.983,207.236 177.940,207.598 178.600 C 207.960 179.260,208.745 180.038,209.341 180.328 C 209.937 180.618,210.868 181.558,211.410 182.416 C 211.952 183.275,212.950 184.264,213.628 184.614 C 214.325 184.975,215.041 185.772,215.278 186.451 C 215.518 187.140,216.363 188.072,217.263 188.640 C 218.126 189.184,218.985 190.035,219.174 190.531 C 219.544 191.505,220.395 192.324,221.725 192.987 C 222.186 193.217,222.913 194.068,223.339 194.878 C 223.780 195.716,224.629 196.563,225.307 196.844 C 226.029 197.144,226.717 197.861,227.054 198.667 C 227.363 199.407,228.295 200.428,229.157 200.973 C 230.045 201.533,230.884 202.464,231.126 203.158 C 231.410 203.974,232.015 204.563,232.988 204.969 C 233.984 205.385,234.611 206.007,235.019 206.985 C 235.412 207.924,236.104 208.634,237.080 209.099 C 238.065 209.569,238.648 210.171,238.847 210.926 C 239.252 212.458,239.855 213.105,241.145 213.388 C 241.981 213.572,242.369 214.018,242.817 215.314 C 243.288 216.676,243.668 217.087,244.794 217.451 C 245.886 217.804,246.243 218.171,246.443 219.148 C 246.776 220.776,247.490 221.600,248.569 221.600 C 249.676 221.600,250.400 222.319,250.400 223.418 C 250.400 224.479,251.473 225.482,252.800 225.664 C 253.684 225.784,253.814 226.018,253.921 227.678 L 254.042 229.557 251.921 229.678 L 249.800 229.800 249.556 232.600 C 249.237 236.253,249.008 236.706,247.207 237.245 C 245.948 237.622,245.621 237.953,245.236 239.236 C 244.850 240.527,244.527 240.850,243.236 241.236 C 241.946 241.623,241.623 241.946,241.236 243.236 C 240.850 244.527,240.527 244.850,239.236 245.236 C 237.946 245.623,237.623 245.946,237.236 247.236 C 236.850 248.527,236.527 248.850,235.236 249.236 C 233.952 249.621,233.622 249.948,233.244 251.211 C 232.699 253.030,231.433 253.600,227.940 253.600 L 225.600 253.600 225.600 255.800 L 225.600 258.000 223.843 258.000 C 222.039 258.000,221.600 257.607,221.600 255.991 C 221.600 255.082,221.048 254.714,219.242 254.421 C 218.148 254.243,217.793 253.959,217.556 253.072 C 217.125 251.461,216.502 250.855,214.983 250.570 C 213.934 250.374,213.593 250.078,213.400 249.201 C 213.100 247.836,212.133 246.918,210.802 246.736 C 210.110 246.642,209.592 246.150,209.115 245.135 C 208.615 244.070,208.031 243.540,206.975 243.192 C 205.918 242.843,205.368 242.343,204.956 241.357 C 204.584 240.465,203.879 239.761,202.897 239.299 C 201.929 238.843,201.164 238.086,200.720 237.143 C 200.280 236.207,199.612 235.543,198.842 235.274 C 198.158 235.036,197.224 234.188,196.658 233.292 C 196.114 232.431,195.151 231.511,194.518 231.249 C 193.885 230.987,193.045 230.175,192.652 229.445 C 192.259 228.716,191.320 227.824,190.565 227.464 C 189.740 227.070,188.923 226.246,188.519 225.399 C 188.149 224.623,187.269 223.648,186.563 223.231 C 185.713 222.730,185.185 222.041,184.998 221.192 C 184.843 220.487,184.130 219.255,183.413 218.455 C 181.847 216.708,181.047 215.207,180.401 212.805 C 180.135 211.817,179.407 210.017,178.784 208.805 C 178.067 207.411,177.487 205.422,177.207 203.400 C 176.541 198.584,176.136 150.442,176.751 149.292 C 177.423 148.035,178.592 148.184,179.643 149.660 M155.520 290.832 C 158.211 291.770,158.110 296.306,155.377 297.208 C 152.169 298.266,149.733 295.832,150.791 292.626 C 151.421 290.718,153.227 290.033,155.520 290.832 M143.120 300.880 C 143.914 301.674,143.665 302.400,142.600 302.400 C 141.800 302.400,141.600 302.200,141.600 301.400 C 141.600 300.335,142.326 300.086,143.120 300.880 M202.143 303.900 C 202.789 307.809,202.225 309.127,200.570 307.572 C 198.902 306.004,199.360 302.400,201.228 302.400 C 201.688 302.400,201.972 302.865,202.143 303.900 M147.120 304.880 C 147.914 305.674,147.665 306.400,146.600 306.400 C 145.800 306.400,145.600 306.200,145.600 305.400 C 145.600 304.335,146.326 304.086,147.120 304.880 M205.983 314.900 L 205.966 317.400 205.200 316.000 C 204.255 314.274,204.229 313.828,205.029 313.029 C 205.960 312.098,206.001 312.180,205.983 314.900 " stroke="none" fill="#848484" fill-rule="evenodd"></path><path id="path3" d="M183.595 36.531 C 182.559 36.877,177.835 41.403,165.595 53.774 C 156.468 63.000,140.202 79.380,129.450 90.174 C 118.697 100.968,108.477 111.420,106.739 113.400 C 100.835 120.128,100.118 120.999,99.500 122.201 C 99.160 122.861,98.498 123.750,98.028 124.174 C 97.559 124.599,96.613 125.949,95.928 127.173 C 95.242 128.398,94.267 129.850,93.762 130.400 C 93.257 130.950,92.401 132.400,91.861 133.623 C 91.321 134.845,90.406 136.407,89.829 137.093 C 89.252 137.779,88.260 139.599,87.626 141.137 C 86.991 142.676,86.107 144.444,85.659 145.067 C 85.212 145.690,84.547 147.280,84.182 148.600 C 83.817 149.920,82.904 152.377,82.154 154.061 C 81.404 155.744,80.358 159.077,79.830 161.466 C 79.301 163.856,78.493 166.798,78.035 168.005 C 75.029 175.913,74.888 207.042,77.816 216.400 C 78.332 218.050,79.304 221.798,79.977 224.729 C 80.655 227.685,81.634 230.802,82.175 231.729 C 82.711 232.648,83.500 234.671,83.929 236.226 C 84.724 239.110,86.086 242.159,86.768 242.580 C 86.977 242.710,87.531 243.847,87.998 245.108 C 88.466 246.368,89.372 248.058,90.012 248.862 C 90.653 249.666,91.630 251.349,92.184 252.602 C 92.738 253.855,93.654 255.447,94.219 256.140 C 94.784 256.833,95.965 258.480,96.844 259.800 C 98.704 262.596,100.610 265.076,102.838 267.600 C 103.712 268.590,105.276 270.375,106.313 271.566 C 107.351 272.757,108.781 274.287,109.490 274.966 C 112.439 277.786,159.066 324.006,159.800 324.837 C 160.240 325.335,161.114 326.205,161.743 326.771 C 162.372 327.337,163.272 328.234,163.743 328.765 C 164.214 329.296,165.114 330.196,165.743 330.765 C 166.372 331.334,167.272 332.234,167.743 332.765 C 168.214 333.296,169.114 334.196,169.743 334.765 C 170.372 335.334,171.272 336.227,171.743 336.750 C 172.214 337.272,173.011 338.082,173.514 338.550 C 174.016 339.017,175.054 340.030,175.819 340.800 C 176.585 341.570,177.371 342.353,177.566 342.540 C 177.760 342.727,178.640 343.600,179.520 344.480 C 183.499 348.459,185.788 350.569,186.953 351.332 C 187.563 351.732,188.414 352.656,188.845 353.387 C 189.276 354.117,190.172 354.940,190.835 355.215 C 191.545 355.509,192.354 356.326,192.800 357.200 C 193.255 358.092,194.054 358.891,194.800 359.200 C 195.546 359.509,196.345 360.308,196.800 361.200 C 197.255 362.092,198.054 362.891,198.800 363.200 C 199.546 363.509,200.345 364.308,200.800 365.200 C 201.255 366.092,202.054 366.891,202.800 367.200 C 203.557 367.513,204.347 368.311,204.821 369.242 C 205.430 370.435,205.947 370.862,207.182 371.195 C 208.052 371.429,209.043 371.900,209.383 372.240 C 210.507 373.364,210.572 371.910,210.586 345.200 C 210.600 319.243,210.592 318.978,209.726 316.600 C 209.245 315.280,208.303 312.379,207.631 310.153 C 206.959 307.927,206.108 305.857,205.740 305.553 C 205.372 305.249,204.647 304.044,204.130 302.876 C 202.663 299.565,200.562 297.277,177.253 273.612 C 142.603 238.433,139.200 234.930,139.200 234.453 C 139.200 234.205,138.595 233.327,137.855 232.501 C 137.114 231.676,136.190 230.370,135.799 229.600 C 135.409 228.830,134.596 227.634,133.994 226.942 C 133.391 226.250,132.586 224.810,132.205 223.742 C 131.823 222.674,130.815 220.355,129.965 218.589 C 129.115 216.822,128.129 213.942,127.775 212.189 C 127.421 210.435,126.655 207.470,126.072 205.600 C 124.580 200.815,124.484 188.681,125.893 183.000 C 126.384 181.020,127.257 177.240,127.833 174.600 C 128.580 171.178,129.259 169.168,130.199 167.600 C 130.924 166.390,131.833 164.500,132.219 163.400 C 132.605 162.300,133.397 160.770,133.979 160.000 C 134.562 159.230,135.552 157.700,136.180 156.600 C 136.808 155.500,138.015 153.839,138.861 152.909 C 139.707 151.979,140.400 151.046,140.400 150.836 C 140.400 150.627,142.680 148.222,145.466 145.493 C 151.662 139.425,150.062 141.029,164.431 126.482 C 171.014 119.817,176.400 114.192,176.400 113.983 C 176.400 113.774,177.007 112.927,177.749 112.101 C 178.491 111.276,179.680 109.442,180.391 108.027 C 181.103 106.612,182.105 104.812,182.619 104.027 C 183.524 102.643,185.288 96.516,186.542 90.394 C 187.410 86.161,187.680 37.661,186.842 36.651 C 186.219 35.900,185.556 35.876,183.595 36.531 M186.600 62.000 L 186.600 87.000 185.456 92.400 C 184.124 98.687,182.938 102.752,182.191 103.600 C 181.900 103.930,181.035 105.509,180.269 107.109 C 179.503 108.710,178.229 110.735,177.438 111.611 C 176.647 112.486,176.000 113.400,176.000 113.642 C 176.000 113.883,171.564 118.501,166.142 123.902 C 160.720 129.304,155.115 134.997,153.687 136.553 C 152.259 138.109,149.698 140.647,147.997 142.191 C 143.209 146.538,137.417 153.181,135.694 156.301 C 135.117 157.345,134.152 158.830,133.548 159.600 C 132.945 160.370,132.015 162.170,131.481 163.601 C 130.947 165.031,130.060 166.866,129.509 167.678 C 125.339 173.822,122.671 198.744,125.405 206.000 C 125.778 206.990,126.523 209.690,127.060 212.000 C 127.597 214.310,128.727 217.640,129.570 219.400 C 130.413 221.160,131.414 223.466,131.794 224.525 C 132.174 225.584,133.186 227.259,134.043 228.249 C 134.899 229.239,135.600 230.331,135.600 230.677 C 135.600 231.023,136.209 231.880,136.953 232.581 C 137.697 233.283,138.617 234.459,138.998 235.195 C 139.697 236.548,155.523 252.864,183.815 281.400 C 192.321 289.980,199.529 297.479,199.833 298.065 C 200.136 298.650,200.852 299.497,201.424 299.947 C 201.996 300.397,202.817 301.695,203.249 302.832 C 203.681 303.968,204.454 305.461,204.967 306.149 C 206.466 308.159,206.758 308.933,207.587 313.076 C 208.019 315.234,208.726 318.260,209.160 319.800 C 210.157 323.345,210.162 323.512,209.802 342.200 C 209.539 355.857,209.409 358.085,208.751 360.087 C 208.275 361.537,208.000 363.522,208.000 365.507 C 208.000 369.693,206.811 370.989,205.497 368.234 C 205.071 367.341,204.386 366.702,203.516 366.387 C 202.571 366.046,201.999 365.469,201.541 364.397 C 201.079 363.314,200.513 362.748,199.541 362.397 C 198.570 362.045,198.004 361.479,197.541 360.397 C 197.079 359.314,196.513 358.748,195.541 358.397 C 194.570 358.045,194.004 357.479,193.541 356.397 C 193.071 355.296,192.515 354.749,191.491 354.379 C 190.554 354.040,189.874 353.425,189.448 352.531 C 189.092 351.786,188.229 350.910,187.504 350.558 C 186.787 350.210,185.839 349.357,185.398 348.663 C 184.957 347.968,183.997 347.100,183.264 346.734 C 182.532 346.368,181.632 345.468,181.266 344.734 C 180.900 344.000,179.984 343.092,179.231 342.717 C 178.441 342.322,177.640 341.506,177.338 340.787 C 176.975 339.924,176.322 339.348,175.216 338.913 C 174.278 338.545,173.512 337.937,173.363 337.443 C 173.000 336.242,171.682 334.907,170.589 334.633 C 170.074 334.504,169.531 333.994,169.381 333.499 C 169.001 332.247,167.701 330.912,166.589 330.633 C 166.074 330.504,165.531 329.994,165.381 329.499 C 165.001 328.247,163.701 326.912,162.589 326.633 C 162.074 326.504,161.531 325.994,161.381 325.499 C 161.008 324.269,159.707 322.913,158.642 322.646 C 158.149 322.523,157.462 321.800,157.084 321.008 C 156.681 320.162,155.863 319.331,155.055 318.945 C 154.268 318.571,153.429 317.732,153.055 316.945 C 152.680 316.159,151.841 315.320,151.055 314.945 C 150.268 314.571,149.429 313.732,149.055 312.945 C 148.680 312.159,147.841 311.320,147.055 310.945 C 146.268 310.571,145.429 309.732,145.055 308.945 C 144.680 308.159,143.841 307.320,143.055 306.945 C 142.268 306.571,141.429 305.732,141.055 304.945 C 140.680 304.159,139.841 303.320,139.055 302.945 C 138.268 302.571,137.429 301.732,137.055 300.945 C 136.687 300.174,135.842 299.321,135.094 298.964 C 134.370 298.619,133.476 297.809,133.106 297.165 C 132.736 296.520,131.807 295.623,131.041 295.171 C 130.276 294.720,129.291 293.743,128.853 293.000 C 128.415 292.257,127.525 291.375,126.876 291.039 C 126.227 290.704,125.327 289.804,124.876 289.039 C 124.425 288.275,123.525 287.375,122.876 287.039 C 122.227 286.704,121.327 285.804,120.876 285.039 C 120.425 284.275,119.507 283.365,118.835 283.018 C 118.163 282.671,117.335 281.849,116.995 281.191 C 116.655 280.534,115.706 279.572,114.887 279.055 C 114.067 278.537,113.151 277.655,112.850 277.094 C 112.550 276.533,111.680 275.743,110.916 275.337 C 110.153 274.932,109.273 274.112,108.962 273.515 C 108.650 272.918,107.754 271.928,106.970 271.315 C 106.186 270.702,105.269 269.660,104.931 269.000 C 104.594 268.340,103.695 267.170,102.933 266.400 C 100.776 264.221,98.113 260.793,96.902 258.639 C 96.296 257.560,95.242 256.030,94.561 255.239 C 93.879 254.447,92.985 252.907,92.574 251.815 C 92.163 250.723,91.318 249.252,90.697 248.544 C 90.077 247.837,89.170 246.300,88.682 245.129 C 88.195 243.958,87.142 241.830,86.343 240.400 C 85.544 238.970,84.671 236.810,84.404 235.600 C 84.136 234.390,83.308 232.140,82.563 230.600 C 81.675 228.762,80.849 226.014,80.159 222.600 C 79.581 219.740,78.788 216.585,78.395 215.589 C 75.413 208.018,75.413 177.803,78.395 169.318 C 78.820 168.109,79.645 164.933,80.229 162.260 C 80.813 159.587,81.696 156.590,82.190 155.600 C 82.684 154.610,83.497 152.540,83.995 151.000 C 85.046 147.753,89.304 138.756,90.621 137.000 C 91.116 136.340,91.817 135.080,92.179 134.200 C 92.540 133.320,93.347 131.961,93.972 131.181 C 94.597 130.400,95.583 128.852,96.165 127.740 C 96.746 126.629,97.684 125.287,98.249 124.760 C 98.814 124.232,99.552 123.260,99.890 122.600 C 101.398 119.654,109.581 110.915,130.982 89.400 C 142.142 78.180,158.314 61.905,166.919 53.233 C 182.601 37.429,183.404 36.736,185.800 36.934 C 186.591 36.999,186.600 37.289,186.600 62.000 M209.551 39.100 C 209.524 39.705,209.460 42.810,209.409 46.000 C 209.358 49.190,209.184 59.900,209.022 69.800 C 208.702 89.356,208.790 90.717,210.782 97.000 C 211.409 98.980,212.150 101.478,212.428 102.552 C 212.706 103.625,213.505 105.335,214.204 106.352 C 214.903 107.368,215.838 109.021,216.282 110.025 C 217.538 112.866,220.928 116.573,238.389 134.200 C 250.016 145.937,255.065 151.311,256.146 153.100 C 256.978 154.475,257.812 155.600,258.000 155.600 C 258.187 155.600,258.838 156.635,259.445 157.900 C 260.053 159.165,261.073 160.977,261.713 161.927 C 262.352 162.877,263.327 165.037,263.879 166.726 C 264.431 168.416,265.329 170.560,265.874 171.490 C 267.385 174.068,269.638 191.156,269.001 195.200 C 268.914 195.750,268.635 198.450,268.380 201.200 C 267.770 207.782,266.637 213.243,265.450 215.321 C 264.923 216.244,264.082 218.260,263.582 219.800 C 262.869 221.999,262.151 223.190,260.237 225.347 L 257.801 228.093 256.800 226.793 C 256.250 226.077,252.290 221.901,248.000 217.513 C 240.623 209.967,217.884 186.881,215.487 184.503 C 213.401 182.434,213.171 182.199,211.874 180.800 C 211.159 180.030,210.221 179.097,209.788 178.726 C 209.354 178.356,206.300 175.233,203.000 171.786 C 199.700 168.340,192.812 161.289,187.694 156.118 C 174.134 142.418,175.127 141.046,175.185 173.397 C 175.234 201.231,175.716 208.163,177.822 211.378 C 178.121 211.834,178.922 213.556,179.602 215.204 C 180.281 216.852,181.349 218.740,181.975 219.400 C 182.601 220.060,183.513 221.396,184.000 222.369 C 184.857 224.079,204.634 244.244,208.814 247.669 C 209.796 248.474,214.039 252.523,218.243 256.666 C 222.447 260.810,228.657 266.856,232.043 270.103 C 235.429 273.350,240.124 277.850,242.475 280.103 C 246.997 284.437,247.279 284.710,249.184 286.600 C 249.849 287.260,251.373 288.700,252.570 289.800 C 255.951 292.905,255.971 292.926,257.006 294.247 C 257.790 295.249,258.384 295.548,260.023 295.765 L 262.065 296.036 276.133 281.918 C 283.870 274.153,290.705 267.125,291.321 266.300 C 291.971 265.429,292.780 264.800,293.251 264.800 C 294.348 264.800,299.259 259.856,300.402 257.600 C 300.904 256.610,301.877 255.141,302.566 254.335 C 303.254 253.529,304.138 251.976,304.531 250.883 C 304.924 249.791,305.684 248.485,306.219 247.982 C 306.755 247.479,307.744 245.640,308.416 243.895 C 309.089 242.150,310.065 240.065,310.585 239.261 C 311.104 238.458,311.909 236.360,312.373 234.600 C 312.836 232.840,313.739 230.230,314.378 228.800 C 315.107 227.171,315.935 224.034,316.596 220.400 C 317.175 217.210,317.997 213.333,318.422 211.784 C 320.624 203.758,320.498 181.386,318.210 174.082 C 317.679 172.387,316.966 169.380,316.627 167.400 C 315.775 162.435,314.974 159.519,313.851 157.293 C 313.326 156.252,312.505 153.960,312.028 152.200 C 311.550 150.440,310.754 148.370,310.260 147.600 C 309.766 146.830,308.762 144.808,308.030 143.107 C 307.297 141.405,306.420 139.785,306.081 139.507 C 305.742 139.228,304.934 137.830,304.284 136.400 C 303.635 134.970,302.568 133.189,301.912 132.441 C 301.257 131.694,300.401 130.344,300.009 129.441 C 299.617 128.539,298.652 126.990,297.864 126.000 C 296.167 123.868,294.214 121.373,292.027 118.542 C 291.152 117.410,286.603 112.695,281.918 108.064 C 277.233 103.434,273.040 99.250,272.600 98.767 C 272.160 98.284,271.440 97.546,271.000 97.128 C 269.472 95.673,253.396 80.022,252.702 79.313 C 252.318 78.921,251.508 78.096,250.902 77.479 C 246.427 72.928,237.095 64.000,236.812 64.000 C 236.621 64.000,236.085 63.384,235.620 62.632 C 235.155 61.879,234.171 60.908,233.434 60.473 C 232.697 60.038,231.789 59.166,231.416 58.535 C 231.043 57.904,230.137 56.994,229.403 56.512 C 228.668 56.030,227.755 55.109,227.374 54.464 C 226.993 53.819,226.072 53.001,225.327 52.646 C 224.583 52.291,223.622 51.405,223.192 50.677 C 222.763 49.949,221.808 49.066,221.070 48.714 C 220.274 48.334,219.516 47.562,219.207 46.816 C 218.891 46.054,218.100 45.259,217.200 44.800 C 216.298 44.340,215.509 43.546,215.191 42.779 C 214.823 41.891,214.151 41.294,212.931 40.771 C 211.910 40.333,211.005 39.609,210.733 39.013 C 210.129 37.687,209.612 37.725,209.551 39.100 M216.387 45.848 C 217.437 46.188,217.852 46.596,218.094 47.530 C 218.437 48.853,219.734 50.000,220.886 50.000 C 221.310 50.000,221.875 50.596,222.297 51.488 C 222.844 52.646,223.345 53.073,224.554 53.411 C 225.792 53.758,226.224 54.139,226.684 55.292 C 227.113 56.366,227.664 56.899,228.830 57.365 C 229.694 57.711,230.400 58.241,230.400 58.543 C 230.400 59.517,231.976 61.131,233.187 61.397 C 233.914 61.557,234.465 61.989,234.628 62.528 C 234.993 63.734,236.302 65.089,237.358 65.354 C 237.854 65.478,238.540 66.203,238.924 67.010 C 239.366 67.937,240.094 68.647,240.984 69.019 C 241.855 69.383,242.598 70.097,243.011 70.966 C 243.390 71.764,244.218 72.602,244.991 72.969 C 245.723 73.316,246.689 74.223,247.138 74.985 C 247.592 75.755,248.558 76.622,249.309 76.936 C 250.170 77.296,250.854 77.963,251.188 78.770 C 251.484 79.486,252.288 80.336,253.032 80.719 C 253.757 81.094,254.773 82.030,255.290 82.800 C 255.807 83.570,256.735 84.443,257.352 84.739 C 257.969 85.036,258.839 85.898,259.285 86.654 C 259.731 87.410,260.616 88.298,261.250 88.626 C 261.885 88.954,262.856 89.938,263.407 90.811 C 263.959 91.685,264.603 92.400,264.840 92.400 C 265.255 92.400,267.153 94.161,272.496 99.504 C 273.156 100.164,274.056 101.064,274.496 101.504 C 274.936 101.944,275.859 102.867,276.548 103.555 C 277.237 104.243,278.160 105.140,278.600 105.548 C 279.040 105.955,279.760 106.674,280.200 107.145 C 280.640 107.616,282.576 109.576,284.502 111.501 C 291.754 118.746,297.278 125.523,299.600 130.022 C 300.150 131.088,301.081 132.464,301.668 133.080 C 302.255 133.696,303.189 135.233,303.744 136.495 C 304.298 137.757,305.215 139.397,305.782 140.140 C 306.348 140.883,307.268 142.614,307.826 143.987 C 308.384 145.361,309.348 147.410,309.968 148.542 C 310.588 149.674,311.327 151.500,311.610 152.600 C 311.893 153.700,312.804 156.310,313.633 158.400 C 314.470 160.509,315.522 164.247,315.996 166.800 C 316.467 169.330,317.296 173.110,317.839 175.200 C 319.906 183.150,320.032 202.750,318.065 210.400 C 317.641 212.050,317.172 214.210,317.023 215.200 C 316.244 220.378,315.000 225.687,314.023 228.000 C 313.419 229.430,312.692 231.590,312.408 232.800 C 311.760 235.562,310.869 237.908,309.977 239.201 C 309.597 239.752,308.720 241.671,308.028 243.465 C 307.336 245.259,306.476 246.968,306.118 247.263 C 305.759 247.559,304.973 248.880,304.372 250.200 C 303.770 251.520,302.703 253.320,301.999 254.200 C 301.296 255.080,300.360 256.520,299.920 257.400 C 298.480 260.277,294.459 264.000,292.792 264.000 C 291.217 264.000,290.400 264.574,290.400 265.680 C 290.400 266.267,290.067 266.400,288.600 266.400 C 287.053 266.400,286.800 266.285,286.800 265.582 C 286.800 264.621,288.490 262.800,289.382 262.800 C 289.722 262.800,290.000 262.645,290.000 262.456 C 290.000 262.062,286.062 261.514,285.542 261.836 C 284.942 262.206,285.149 265.859,285.800 266.400 C 286.166 266.704,286.400 267.580,286.400 268.649 L 286.400 270.400 284.680 270.400 C 283.734 270.400,282.747 270.187,282.487 269.927 C 282.226 269.666,281.887 269.579,281.733 269.733 C 281.579 269.887,281.666 270.226,281.927 270.487 C 282.187 270.747,282.400 271.734,282.400 272.680 L 282.400 274.400 280.680 274.400 C 279.734 274.400,278.747 274.187,278.487 273.927 C 278.226 273.666,277.887 273.579,277.733 273.733 C 277.579 273.887,277.666 274.226,277.927 274.487 C 278.187 274.747,278.400 275.734,278.400 276.680 L 278.400 278.400 276.680 278.400 C 275.734 278.400,274.747 278.187,274.487 277.927 C 274.226 277.666,273.887 277.579,273.733 277.733 C 273.579 277.887,273.666 278.226,273.927 278.487 C 274.187 278.747,274.400 279.734,274.400 280.680 L 274.400 282.400 272.680 282.400 C 271.734 282.400,270.747 282.187,270.487 281.927 C 270.226 281.666,269.887 281.579,269.733 281.733 C 269.579 281.887,269.666 282.226,269.927 282.487 C 270.187 282.747,270.400 283.734,270.400 284.680 L 270.400 286.400 268.680 286.400 C 267.734 286.400,266.747 286.187,266.487 285.927 C 266.226 285.666,265.887 285.579,265.733 285.733 C 265.579 285.887,265.666 286.226,265.927 286.487 C 266.187 286.747,266.400 287.734,266.400 288.680 L 266.400 290.400 264.680 290.400 C 263.734 290.400,262.747 290.187,262.487 289.927 C 262.226 289.666,261.887 289.579,261.733 289.733 C 261.579 289.887,261.666 290.226,261.927 290.487 C 262.187 290.747,262.400 291.743,262.400 292.700 L 262.400 294.440 260.134 294.320 L 257.869 294.200 257.424 292.610 C 257.042 291.242,256.765 290.960,255.435 290.587 C 254.202 290.240,253.800 289.883,253.445 288.815 C 252.985 287.431,252.617 287.135,250.625 286.546 C 249.779 286.296,249.361 285.854,249.131 284.966 C 248.823 283.775,247.493 282.800,246.178 282.800 C 245.857 282.800,245.308 282.085,244.958 281.212 C 244.480 280.016,243.978 279.499,242.928 279.120 C 241.965 278.771,241.363 278.206,240.981 277.293 C 240.615 276.417,239.952 275.772,239.015 275.380 C 238.237 275.055,237.195 274.167,236.700 273.406 C 236.205 272.644,235.289 271.808,234.665 271.548 C 234.041 271.287,233.097 270.388,232.567 269.549 C 232.038 268.709,231.066 267.745,230.409 267.405 C 229.751 267.065,228.939 266.255,228.603 265.605 C 228.267 264.955,227.589 264.218,227.096 263.966 C 226.329 263.575,224.146 261.550,221.000 258.312 C 220.560 257.860,219.789 257.109,219.286 256.645 C 218.784 256.180,217.746 255.170,216.981 254.400 C 216.215 253.630,215.388 252.820,215.143 252.600 C 214.897 252.380,213.651 251.210,212.373 250.000 C 211.095 248.790,208.214 246.090,205.971 244.000 C 197.230 235.857,185.178 223.523,184.355 221.880 C 183.892 220.956,183.010 219.660,182.393 219.000 C 181.777 218.340,180.799 216.630,180.219 215.200 C 179.640 213.770,178.728 211.700,178.194 210.600 C 176.233 206.564,175.985 203.073,175.721 175.772 C 175.462 148.957,175.471 148.765,177.012 147.756 L 178.011 147.101 187.305 156.515 C 192.417 161.692,200.200 169.645,204.600 174.186 C 209.000 178.728,213.042 182.839,213.581 183.322 C 214.121 183.805,214.931 184.614,215.381 185.119 C 216.650 186.542,232.247 202.499,233.250 203.400 C 233.741 203.840,234.605 204.704,235.171 205.320 C 235.737 205.936,238.852 209.176,242.093 212.520 C 245.334 215.864,248.324 218.960,248.737 219.400 C 249.151 219.840,249.876 220.560,250.350 221.000 C 252.775 223.254,255.333 226.012,255.741 226.813 C 256.702 228.700,257.881 229.039,258.994 227.749 C 262.495 223.692,263.187 222.639,264.006 220.122 C 264.492 218.625,265.320 216.649,265.845 215.730 C 270.394 207.765,270.544 179.464,266.083 170.543 C 265.439 169.254,264.515 166.995,264.031 165.522 C 263.546 164.049,262.784 162.379,262.337 161.811 C 261.891 161.243,260.915 159.524,260.168 157.990 C 259.421 156.455,258.645 155.200,258.443 155.200 C 258.241 155.200,257.591 154.372,256.997 153.359 C 255.474 150.759,253.768 148.924,236.641 131.458 C 228.258 122.909,220.820 115.100,220.111 114.103 C 219.403 113.107,218.472 112.046,218.044 111.745 C 217.615 111.445,216.970 110.313,216.610 109.229 C 216.249 108.145,215.459 106.570,214.854 105.729 C 213.436 103.760,213.269 103.311,212.354 99.000 C 211.933 97.020,211.130 94.046,210.569 92.390 C 208.935 87.567,209.827 51.283,211.640 48.831 C 212.091 48.221,212.561 46.930,212.684 45.961 C 213.059 43.017,213.536 42.469,214.333 44.064 C 214.783 44.965,215.451 45.546,216.387 45.848 " stroke="none" fill="#7c7c7c" fill-rule="evenodd"></path><path id="path4" d="M183.014 34.924 C 181.091 35.630,180.402 36.136,179.467 37.530 C 178.829 38.481,177.879 39.454,177.356 39.693 C 176.833 39.931,176.050 40.726,175.618 41.460 C 175.185 42.193,174.266 43.136,173.576 43.556 C 172.885 43.976,171.980 44.880,171.564 45.564 C 171.148 46.248,170.248 47.148,169.564 47.564 C 168.880 47.980,167.980 48.880,167.564 49.564 C 167.148 50.248,166.248 51.148,165.564 51.564 C 164.880 51.980,163.980 52.880,163.564 53.564 C 163.148 54.248,162.248 55.148,161.564 55.564 C 160.880 55.980,159.980 56.880,159.564 57.564 C 159.148 58.248,158.248 59.148,157.564 59.564 C 156.880 59.980,155.976 60.885,155.556 61.576 C 155.136 62.266,154.164 63.202,153.396 63.655 C 152.628 64.108,152.000 64.660,152.000 64.882 C 152.000 65.187,120.609 96.999,105.900 111.600 C 104.902 112.590,103.450 114.406,102.673 115.635 C 101.895 116.864,100.803 118.168,100.246 118.533 C 99.672 118.909,99.024 119.895,98.750 120.808 C 98.432 121.869,97.914 122.587,97.234 122.910 C 96.616 123.203,95.798 124.242,95.200 125.493 C 94.650 126.644,93.793 127.871,93.295 128.220 C 92.308 128.910,91.081 131.105,90.625 132.998 C 90.466 133.656,89.801 134.646,89.148 135.198 C 88.390 135.838,87.600 137.201,86.963 138.968 C 86.413 140.490,85.447 142.324,84.814 143.045 C 84.007 143.965,83.463 145.260,82.987 147.400 C 82.578 149.237,81.935 150.891,81.366 151.568 C 80.092 153.082,79.764 154.055,78.983 158.640 C 78.541 161.237,77.934 163.246,77.188 164.582 C 72.868 172.317,73.298 214.670,77.785 223.368 C 78.343 224.450,78.803 225.710,78.807 226.168 C 78.825 228.329,80.078 232.632,81.169 234.278 C 81.868 235.334,82.639 237.322,83.029 239.071 C 83.548 241.405,84.021 242.438,85.188 243.787 C 86.041 244.772,86.879 246.291,87.139 247.322 C 87.389 248.317,88.233 249.967,89.013 250.989 C 89.793 252.012,90.865 253.829,91.396 255.029 C 91.926 256.228,92.648 257.320,93.001 257.456 C 93.353 257.591,94.256 258.922,95.007 260.414 C 95.771 261.932,96.911 263.510,97.596 263.997 C 98.268 264.476,99.156 265.527,99.569 266.334 C 99.982 267.140,100.893 268.222,101.594 268.737 C 102.294 269.252,103.054 270.208,103.282 270.862 C 103.516 271.536,104.368 272.475,105.248 273.030 C 106.102 273.569,106.800 274.223,106.800 274.483 C 106.800 275.134,108.830 277.200,109.470 277.200 C 109.756 277.200,110.441 277.915,110.993 278.789 C 111.544 279.662,112.515 280.646,113.150 280.974 C 113.784 281.302,114.673 282.196,115.124 282.961 C 115.575 283.725,116.475 284.625,117.124 284.961 C 117.773 285.296,118.673 286.196,119.124 286.961 C 119.575 287.725,120.475 288.625,121.124 288.961 C 121.773 289.296,122.673 290.196,123.124 290.961 C 123.575 291.725,124.475 292.625,125.124 292.961 C 125.773 293.296,126.673 294.196,127.124 294.961 C 127.575 295.725,128.475 296.625,129.124 296.961 C 129.773 297.296,130.673 298.196,131.124 298.961 C 131.575 299.725,132.475 300.625,133.124 300.961 C 133.773 301.296,134.673 302.196,135.124 302.961 C 135.575 303.725,136.475 304.625,137.124 304.961 C 137.773 305.296,138.673 306.196,139.124 306.961 C 139.575 307.725,140.475 308.625,141.124 308.961 C 141.773 309.296,142.673 310.196,143.124 310.961 C 143.575 311.725,144.493 312.635,145.165 312.982 C 145.837 313.329,146.671 314.163,147.018 314.835 C 147.365 315.507,148.257 316.415,149.000 316.853 C 149.743 317.291,150.709 318.257,151.147 319.000 C 151.585 319.743,152.493 320.635,153.165 320.982 C 153.837 321.329,154.671 322.163,155.018 322.835 C 155.365 323.507,156.275 324.425,157.039 324.876 C 157.804 325.327,158.704 326.227,159.039 326.876 C 159.375 327.525,160.275 328.425,161.039 328.876 C 161.804 329.327,162.704 330.227,163.039 330.876 C 163.375 331.525,164.275 332.425,165.039 332.876 C 165.804 333.327,166.704 334.227,167.039 334.876 C 167.375 335.525,168.275 336.425,169.039 336.876 C 169.804 337.327,170.704 338.227,171.039 338.876 C 171.375 339.525,172.275 340.425,173.039 340.876 C 173.804 341.327,174.704 342.227,175.039 342.876 C 175.375 343.525,176.275 344.425,177.039 344.876 C 177.804 345.327,178.704 346.227,179.039 346.876 C 179.375 347.525,180.254 348.413,180.993 348.849 C 181.732 349.285,182.790 350.236,183.344 350.962 C 183.898 351.689,184.857 352.499,185.476 352.764 C 186.094 353.029,186.962 353.818,187.405 354.518 C 187.848 355.217,188.754 356.146,189.418 356.582 C 190.083 357.017,190.983 357.917,191.418 358.582 C 191.854 359.246,192.754 360.146,193.418 360.582 C 194.083 361.017,194.983 361.917,195.418 362.582 C 195.854 363.246,196.754 364.146,197.418 364.582 C 198.083 365.017,198.983 365.917,199.418 366.582 C 199.854 367.246,200.776 368.152,201.468 368.595 C 202.160 369.038,203.005 369.976,203.347 370.680 C 203.689 371.385,204.470 372.276,205.084 372.661 C 205.698 373.047,206.961 374.045,207.891 374.881 C 210.006 376.781,210.715 376.646,212.188 374.062 C 212.716 373.134,212.940 325.588,212.442 319.853 C 212.043 315.248,211.852 314.427,210.630 312.053 C 209.879 310.594,208.969 308.358,208.607 307.085 C 208.246 305.812,207.447 304.192,206.831 303.485 C 206.216 302.778,205.331 301.331,204.865 300.269 C 203.680 297.568,188.501 281.776,155.348 248.753 C 154.879 248.286,153.956 247.364,153.296 246.704 C 152.636 246.044,151.736 245.144,151.296 244.704 C 150.856 244.264,149.956 243.364,149.296 242.704 C 148.636 242.044,147.759 241.167,147.348 240.754 C 146.937 240.341,146.060 239.469,145.400 238.817 C 141.926 235.381,140.400 233.641,140.400 233.115 C 140.400 232.794,139.701 231.904,138.848 231.138 C 137.985 230.363,137.176 229.202,137.027 228.524 C 136.880 227.853,135.965 226.375,134.995 225.238 C 133.882 223.934,133.140 222.622,132.984 221.685 C 132.543 219.024,131.613 216.657,130.590 215.590 C 129.728 214.690,129.476 213.764,128.786 208.972 C 128.345 205.907,127.718 201.985,127.392 200.256 C 126.594 196.016,126.647 191.792,127.562 186.777 C 127.981 184.480,128.539 180.530,128.802 178.000 C 129.295 173.259,129.892 171.201,131.183 169.805 C 131.592 169.362,132.404 167.426,132.987 165.501 C 133.708 163.124,134.306 161.864,134.854 161.571 C 135.298 161.334,136.167 160.010,136.787 158.629 C 137.406 157.249,138.203 156.008,138.557 155.872 C 138.910 155.736,140.002 154.386,140.982 152.870 C 141.962 151.355,143.229 149.811,143.798 149.438 C 144.366 149.066,145.127 148.141,145.488 147.384 C 145.849 146.627,146.503 145.894,146.940 145.755 C 147.978 145.426,157.426 135.978,157.755 134.940 C 157.894 134.503,158.638 133.844,159.408 133.477 C 160.239 133.081,161.072 132.257,161.455 131.455 C 161.829 130.668,162.668 129.829,163.455 129.455 C 164.241 129.080,165.080 128.241,165.455 127.455 C 165.829 126.668,166.668 125.829,167.455 125.455 C 168.241 125.080,169.080 124.241,169.455 123.455 C 169.829 122.668,170.668 121.829,171.455 121.455 C 172.259 121.071,173.081 120.239,173.478 119.404 C 173.847 118.632,174.281 118.000,174.443 118.000 C 175.200 118.000,177.169 115.851,177.408 114.765 C 177.567 114.039,178.027 113.418,178.553 113.218 C 179.732 112.769,180.273 112.059,180.995 110.013 C 181.329 109.068,182.207 107.625,182.948 106.805 C 183.992 105.650,184.452 104.608,184.994 102.168 C 185.379 100.437,186.217 98.095,186.855 96.964 C 188.690 93.713,188.839 90.924,188.713 62.132 L 188.600 36.064 187.630 35.032 C 186.471 33.798,186.103 33.790,183.014 34.924 M208.369 36.369 L 207.200 37.538 207.203 64.269 C 207.206 93.225,207.424 97.106,209.191 99.587 C 209.676 100.268,210.522 102.305,211.072 104.113 C 211.694 106.157,212.495 107.854,213.190 108.600 C 213.805 109.260,214.685 110.669,215.145 111.731 C 216.295 114.383,217.551 115.749,235.895 134.313 C 244.747 143.271,252.687 151.320,253.539 152.200 C 254.392 153.080,255.319 154.393,255.601 155.119 C 255.882 155.844,256.604 156.692,257.205 157.002 C 258.006 157.417,258.422 158.066,258.769 159.444 C 259.347 161.737,260.200 163.477,261.395 164.800 C 261.920 165.382,262.598 167.055,263.014 168.800 C 263.408 170.450,264.329 172.970,265.061 174.400 C 267.977 180.096,268.087 206.682,265.211 210.800 C 264.419 211.934,263.520 214.685,262.798 218.181 C 262.395 220.132,262.000 220.860,260.615 222.206 C 259.685 223.110,258.716 224.199,258.462 224.625 C 258.021 225.365,257.981 225.368,257.568 224.679 C 257.185 224.039,206.594 173.009,204.351 171.000 C 203.860 170.560,202.995 169.672,202.429 169.026 C 201.863 168.381,196.167 162.560,189.771 156.092 L 178.142 144.331 176.489 144.776 C 173.553 145.567,172.623 147.980,173.540 152.421 C 173.854 153.941,174.001 161.628,174.002 176.624 C 174.004 204.754,174.574 211.061,177.423 214.488 C 177.921 215.086,178.620 216.436,178.977 217.488 C 179.725 219.691,180.267 220.492,181.430 221.111 C 181.893 221.358,182.483 222.313,182.766 223.276 C 183.201 224.756,184.990 226.701,195.380 237.000 C 223.658 265.028,235.864 276.929,236.854 277.437 C 237.433 277.734,238.276 278.601,238.726 279.364 C 239.176 280.126,240.075 281.025,240.724 281.361 C 241.373 281.696,242.273 282.596,242.724 283.361 C 243.175 284.125,244.079 285.027,244.733 285.365 C 245.387 285.704,246.315 286.615,246.794 287.390 C 247.273 288.166,247.820 288.800,248.009 288.800 C 248.199 288.800,250.407 290.867,252.916 293.392 C 257.102 297.606,259.819 299.563,261.522 299.591 C 262.364 299.605,291.723 270.020,292.953 267.918 C 293.559 266.883,294.435 265.916,294.901 265.768 C 296.306 265.322,300.738 260.487,301.168 258.932 C 301.382 258.157,302.201 256.954,302.987 256.261 C 303.937 255.423,304.689 254.214,305.227 252.659 C 305.698 251.296,306.500 249.928,307.147 249.383 C 307.868 248.776,308.523 247.575,309.011 245.964 C 309.424 244.598,310.342 242.788,311.049 241.941 C 312.208 240.555,313.600 236.371,313.600 234.276 C 313.600 233.965,314.118 233.058,314.751 232.262 C 316.068 230.605,316.577 228.855,317.194 223.862 C 317.482 221.535,317.978 219.662,318.644 218.389 C 320.619 214.611,320.921 211.335,320.945 193.400 C 320.968 175.582,320.816 173.872,318.818 169.512 C 318.035 167.804,317.461 165.547,317.024 162.462 C 316.359 157.770,315.859 156.320,314.471 155.064 C 313.924 154.569,313.508 153.400,313.190 151.465 C 312.643 148.133,311.674 145.718,310.449 144.630 C 309.972 144.206,309.292 142.856,308.938 141.630 C 308.571 140.358,307.738 138.779,306.998 137.954 C 306.284 137.159,305.402 135.629,305.037 134.554 C 304.270 132.293,303.739 131.511,302.533 130.869 C 302.050 130.611,301.540 129.829,301.384 129.103 C 300.950 127.092,299.696 124.881,298.572 124.145 C 298.012 123.778,297.206 122.796,296.781 121.962 C 296.355 121.128,295.383 119.970,294.619 119.388 C 293.856 118.805,293.114 117.940,292.970 117.464 C 292.634 116.356,291.214 114.800,290.538 114.800 C 290.251 114.800,289.646 114.074,289.193 113.186 C 288.689 112.199,287.852 111.326,287.035 110.936 C 286.268 110.570,285.426 109.724,285.055 108.945 C 284.680 108.159,283.841 107.320,283.055 106.945 C 282.268 106.571,281.429 105.732,281.055 104.945 C 280.680 104.159,279.841 103.320,279.055 102.945 C 278.268 102.571,277.429 101.732,277.055 100.945 C 276.680 100.159,275.841 99.320,275.055 98.945 C 274.268 98.571,273.429 97.732,273.055 96.945 C 272.666 96.130,271.837 95.319,270.972 94.906 C 270.063 94.472,269.333 93.736,268.982 92.896 C 268.615 92.018,267.953 91.373,267.018 90.982 C 266.053 90.579,265.421 89.947,265.018 88.982 C 264.617 88.023,263.983 87.385,263.035 86.989 C 262.145 86.617,261.405 85.909,260.989 85.034 C 260.600 84.213,259.780 83.397,258.948 83.002 C 258.184 82.640,257.407 81.951,257.222 81.471 C 256.836 80.473,255.334 79.037,254.291 78.669 C 253.901 78.531,253.470 78.099,253.332 77.709 C 252.977 76.700,251.147 74.800,250.530 74.800 C 250.244 74.800,249.559 74.085,249.007 73.211 C 248.456 72.338,247.485 71.354,246.850 71.026 C 246.216 70.698,245.327 69.804,244.876 69.039 C 244.425 68.275,243.525 67.375,242.876 67.039 C 242.227 66.704,241.327 65.804,240.876 65.039 C 240.425 64.275,239.507 63.365,238.835 63.018 C 238.163 62.671,237.329 61.837,236.982 61.165 C 236.635 60.493,235.743 59.585,235.000 59.147 C 234.257 58.709,233.291 57.743,232.853 57.000 C 232.415 56.257,231.507 55.365,230.835 55.018 C 230.163 54.671,229.337 53.851,228.998 53.197 C 228.660 52.543,227.892 51.693,227.292 51.309 C 226.691 50.924,223.500 47.939,220.200 44.675 C 209.213 33.809,210.221 34.517,208.369 36.369 M186.842 36.651 C 187.680 37.661,187.410 86.161,186.542 90.394 C 185.288 96.516,183.524 102.643,182.619 104.027 C 182.105 104.812,181.103 106.612,180.391 108.027 C 179.680 109.442,178.491 111.276,177.749 112.101 C 177.007 112.927,176.400 113.774,176.400 113.983 C 176.400 114.192,171.014 119.817,164.431 126.482 C 150.062 141.029,151.662 139.425,145.466 145.493 C 142.680 148.222,140.400 150.627,140.400 150.836 C 140.400 151.046,139.707 151.979,138.861 152.909 C 138.015 153.839,136.808 155.500,136.180 156.600 C 135.552 157.700,134.562 159.230,133.979 160.000 C 133.397 160.770,132.605 162.300,132.219 163.400 C 131.833 164.500,130.924 166.390,130.199 167.600 C 129.259 169.168,128.580 171.178,127.833 174.600 C 127.257 177.240,126.384 181.020,125.893 183.000 C 124.484 188.681,124.580 200.815,126.072 205.600 C 126.655 207.470,127.421 210.435,127.775 212.189 C 128.129 213.942,129.115 216.822,129.965 218.589 C 130.815 220.355,131.823 222.674,132.205 223.742 C 132.586 224.810,133.391 226.250,133.994 226.942 C 134.596 227.634,135.409 228.830,135.799 229.600 C 136.190 230.370,137.114 231.676,137.855 232.501 C 138.595 233.327,139.200 234.205,139.200 234.453 C 139.200 234.930,142.603 238.433,177.253 273.612 C 200.562 297.277,202.663 299.565,204.130 302.876 C 204.647 304.044,205.372 305.249,205.740 305.553 C 206.108 305.857,206.959 307.927,207.631 310.153 C 208.303 312.379,209.245 315.280,209.726 316.600 C 210.592 318.978,210.600 319.243,210.586 345.200 C 210.572 371.910,210.507 373.364,209.383 372.240 C 209.043 371.900,208.052 371.429,207.182 371.195 C 205.947 370.862,205.430 370.435,204.821 369.242 C 204.347 368.311,203.557 367.513,202.800 367.200 C 202.054 366.891,201.255 366.092,200.800 365.200 C 200.345 364.308,199.546 363.509,198.800 363.200 C 198.054 362.891,197.255 362.092,196.800 361.200 C 196.345 360.308,195.546 359.509,194.800 359.200 C 194.054 358.891,193.255 358.092,192.800 357.200 C 192.354 356.326,191.545 355.509,190.835 355.215 C 190.172 354.940,189.276 354.117,188.845 353.387 C 188.414 352.656,187.563 351.732,186.953 351.332 C 185.788 350.569,183.499 348.459,179.520 344.480 C 178.640 343.600,177.760 342.727,177.566 342.540 C 177.371 342.353,176.585 341.570,175.819 340.800 C 175.054 340.030,174.016 339.017,173.514 338.550 C 173.011 338.082,172.214 337.272,171.743 336.750 C 171.272 336.227,170.372 335.334,169.743 334.765 C 169.114 334.196,168.214 333.296,167.743 332.765 C 167.272 332.234,166.372 331.334,165.743 330.765 C 165.114 330.196,164.214 329.296,163.743 328.765 C 163.272 328.234,162.372 327.337,161.743 326.771 C 161.114 326.205,160.240 325.335,159.800 324.837 C 159.066 324.006,112.439 277.786,109.490 274.966 C 108.781 274.287,107.351 272.757,106.313 271.566 C 105.276 270.375,103.712 268.590,102.838 267.600 C 100.610 265.076,98.704 262.596,96.844 259.800 C 95.965 258.480,94.784 256.833,94.219 256.140 C 93.654 255.447,92.738 253.855,92.184 252.602 C 91.630 251.349,90.653 249.666,90.012 248.862 C 89.372 248.058,88.466 246.368,87.998 245.108 C 87.531 243.847,86.977 242.710,86.768 242.580 C 86.086 242.159,84.724 239.110,83.929 236.226 C 83.500 234.671,82.711 232.648,82.175 231.729 C 81.634 230.802,80.655 227.685,79.977 224.729 C 79.304 221.798,78.332 218.050,77.816 216.400 C 74.888 207.042,75.029 175.913,78.035 168.005 C 78.493 166.798,79.301 163.856,79.830 161.466 C 80.358 159.077,81.404 155.744,82.154 154.061 C 82.904 152.377,83.817 149.920,84.182 148.600 C 84.547 147.280,85.212 145.690,85.659 145.067 C 86.107 144.444,86.991 142.676,87.626 141.137 C 88.260 139.599,89.252 137.779,89.829 137.093 C 90.406 136.407,91.321 134.845,91.861 133.623 C 92.401 132.400,93.257 130.950,93.762 130.400 C 94.267 129.850,95.242 128.398,95.928 127.173 C 96.613 125.949,97.559 124.599,98.028 124.174 C 98.498 123.750,99.160 122.861,99.500 122.201 C 100.118 120.999,100.835 120.128,106.739 113.400 C 108.477 111.420,118.697 100.968,129.450 90.174 C 140.202 79.380,156.468 63.000,165.595 53.774 C 183.500 35.677,185.018 34.453,186.842 36.651 M210.733 39.013 C 211.005 39.609,211.910 40.333,212.931 40.771 C 214.151 41.294,214.823 41.891,215.191 42.779 C 215.509 43.546,216.298 44.340,217.200 44.800 C 218.100 45.259,218.891 46.054,219.207 46.816 C 219.516 47.562,220.274 48.334,221.070 48.714 C 221.808 49.066,222.763 49.949,223.192 50.677 C 223.622 51.405,224.583 52.291,225.327 52.646 C 226.072 53.001,226.993 53.819,227.374 54.464 C 227.755 55.109,228.668 56.030,229.403 56.512 C 230.137 56.994,231.043 57.904,231.416 58.535 C 231.789 59.166,232.697 60.038,233.434 60.473 C 234.171 60.908,235.155 61.879,235.620 62.632 C 236.085 63.384,236.621 64.000,236.812 64.000 C 237.095 64.000,246.427 72.928,250.902 77.479 C 251.508 78.096,252.318 78.921,252.702 79.313 C 253.396 80.022,269.472 95.673,271.000 97.128 C 271.440 97.546,272.160 98.284,272.600 98.767 C 273.040 99.250,277.233 103.434,281.918 108.064 C 286.603 112.695,291.152 117.410,292.027 118.542 C 294.214 121.373,296.167 123.868,297.864 126.000 C 298.652 126.990,299.617 128.539,300.009 129.441 C 300.401 130.344,301.257 131.694,301.912 132.441 C 302.568 133.189,303.635 134.970,304.284 136.400 C 304.934 137.830,305.742 139.228,306.081 139.507 C 306.420 139.785,307.297 141.405,308.030 143.107 C 308.762 144.808,309.766 146.830,310.260 147.600 C 310.754 148.370,311.550 150.440,312.028 152.200 C 312.505 153.960,313.326 156.252,313.851 157.293 C 314.974 159.519,315.775 162.435,316.627 167.400 C 316.966 169.380,317.679 172.387,318.210 174.082 C 320.498 181.386,320.624 203.758,318.422 211.784 C 317.997 213.333,317.175 217.210,316.596 220.400 C 315.935 224.034,315.107 227.171,314.378 228.800 C 313.739 230.230,312.836 232.840,312.373 234.600 C 311.909 236.360,311.104 238.458,310.585 239.261 C 310.065 240.065,309.089 242.150,308.416 243.895 C 307.744 245.640,306.755 247.479,306.219 247.982 C 305.684 248.485,304.924 249.791,304.531 250.883 C 304.138 251.976,303.254 253.529,302.566 254.335 C 301.877 255.141,300.904 256.610,300.402 257.600 C 299.259 259.856,294.348 264.800,293.251 264.800 C 292.780 264.800,291.971 265.429,291.321 266.300 C 290.705 267.125,283.870 274.153,276.133 281.918 L 262.065 296.036 260.023 295.765 C 258.384 295.548,257.790 295.249,257.006 294.247 C 255.971 292.926,255.951 292.905,252.570 289.800 C 251.373 288.700,249.849 287.260,249.184 286.600 C 247.279 284.710,246.997 284.437,242.475 280.103 C 240.124 277.850,235.429 273.350,232.043 270.103 C 228.657 266.856,222.447 260.810,218.243 256.666 C 214.039 252.523,209.796 248.474,208.814 247.669 C 204.634 244.244,184.857 224.079,184.000 222.369 C 183.513 221.396,182.601 220.060,181.975 219.400 C 181.349 218.740,180.281 216.852,179.602 215.204 C 178.922 213.556,178.121 211.834,177.822 211.378 C 175.716 208.163,175.234 201.231,175.185 173.397 C 175.127 141.046,174.134 142.418,187.694 156.118 C 192.812 161.289,199.700 168.340,203.000 171.786 C 206.300 175.233,209.354 178.356,209.788 178.726 C 210.221 179.097,211.159 180.030,211.874 180.800 C 213.171 182.199,213.401 182.434,215.487 184.503 C 217.884 186.881,240.623 209.967,248.000 217.513 C 252.290 221.901,256.250 226.077,256.800 226.793 L 257.801 228.093 260.237 225.347 C 262.151 223.190,262.869 221.999,263.582 219.800 C 264.082 218.260,264.923 216.244,265.450 215.321 C 266.637 213.243,267.770 207.782,268.380 201.200 C 268.635 198.450,268.914 195.750,269.001 195.200 C 269.638 191.156,267.385 174.068,265.874 171.490 C 265.329 170.560,264.431 168.416,263.879 166.726 C 263.327 165.037,262.352 162.877,261.713 161.927 C 261.073 160.977,260.053 159.165,259.445 157.900 C 258.838 156.635,258.187 155.600,258.000 155.600 C 257.812 155.600,256.978 154.475,256.146 153.100 C 255.065 151.311,250.016 145.937,238.389 134.200 C 220.928 116.573,217.538 112.866,216.282 110.025 C 215.838 109.021,214.903 107.368,214.204 106.352 C 213.505 105.335,212.706 103.625,212.428 102.552 C 212.150 101.478,211.409 98.980,210.782 97.000 C 208.790 90.717,208.702 89.356,209.022 69.800 C 209.184 59.900,209.358 49.190,209.409 46.000 C 209.533 38.239,209.549 38.000,209.936 38.000 C 210.120 38.000,210.479 38.456,210.733 39.013 " stroke="none" fill="#545454" fill-rule="evenodd"></path></g></svg>