<svg id="svg" version="1.1" xmlns="http://www.w3.org/2000/svg" xmlns:xlink="http://www.w3.org/1999/xlink" width="400" height="354.04896421845575" viewBox="0, 0, 400,354.04896421845575"><g id="svgg"><path id="path0" d="M122.232 87.523 C 122.232 87.711,121.365 87.865,120.304 87.865 C 119.244 87.865,118.278 88.025,118.158 88.220 C 118.037 88.415,117.629 88.574,117.251 88.574 C 116.873 88.574,116.563 88.733,116.563 88.928 C 116.563 89.123,116.319 89.283,116.019 89.283 C 115.297 89.283,113.821 90.256,112.380 91.682 C 111.736 92.320,111.033 92.734,110.820 92.602 C 110.589 92.460,110.531 92.525,110.678 92.761 C 110.814 92.981,110.580 93.444,110.158 93.790 C 108.814 94.893,108.060 95.780,108.060 96.258 C 108.060 96.514,107.901 96.723,107.706 96.723 C 107.511 96.723,107.352 97.121,107.352 97.609 C 107.352 98.096,107.192 98.494,106.997 98.494 C 106.802 98.494,106.643 98.813,106.643 99.203 C 106.643 99.593,106.484 99.911,106.289 99.911 C 106.092 99.911,105.934 100.856,105.934 102.037 C 105.934 103.218,105.777 104.163,105.580 104.163 C 105.385 104.163,105.226 105.040,105.226 106.112 C 105.226 107.183,105.385 108.060,105.580 108.060 C 105.775 108.060,105.934 108.773,105.934 109.644 C 105.934 110.571,106.228 111.751,106.643 112.489 C 107.033 113.183,107.352 114.131,107.352 114.596 C 107.352 115.061,107.506 115.495,107.695 115.559 C 107.883 115.624,108.077 116.196,108.124 116.829 C 108.172 117.462,108.336 117.981,108.490 117.981 C 108.643 117.981,108.769 118.459,108.769 119.043 C 108.769 119.628,108.928 120.106,109.123 120.106 C 109.318 120.106,109.477 120.412,109.477 120.786 C 109.477 121.160,109.744 121.997,110.069 122.646 C 111.179 124.861,111.249 125.058,111.249 125.947 C 111.249 126.437,111.408 126.838,111.603 126.838 C 111.798 126.838,111.957 127.091,111.957 127.400 C 111.957 127.912,113.776 133.816,114.457 135.518 C 114.614 135.908,115.004 137.062,115.325 138.083 C 115.646 139.103,116.056 140.030,116.236 140.141 C 116.416 140.252,116.563 140.723,116.563 141.187 C 116.563 141.651,116.723 142.129,116.918 142.250 C 117.112 142.370,117.272 142.858,117.272 143.334 C 117.272 143.809,117.431 144.198,117.626 144.198 C 117.821 144.198,117.981 144.677,117.981 145.261 C 117.981 145.846,118.140 146.324,118.335 146.324 C 118.530 146.324,118.689 146.802,118.689 147.387 C 118.689 147.972,118.849 148.450,119.043 148.450 C 119.238 148.450,119.398 149.008,119.398 149.690 C 119.398 150.372,119.557 150.930,119.752 150.930 C 119.947 150.930,120.106 151.329,120.106 151.816 C 120.106 152.303,120.266 152.702,120.461 152.702 C 120.655 152.702,120.815 153.007,120.815 153.381 C 120.815 154.149,121.915 156.239,122.321 156.242 C 122.467 156.243,122.586 156.425,122.586 156.646 C 122.586 156.866,122.930 157.345,123.349 157.709 C 123.769 158.073,123.983 158.370,123.826 158.370 C 123.669 158.370,124.107 158.888,124.800 159.522 C 126.607 161.174,127.118 161.559,127.502 161.559 C 127.689 161.559,127.895 161.678,127.960 161.825 C 128.149 162.250,130.258 163.330,130.899 163.330 C 131.222 163.330,131.407 163.458,131.310 163.614 C 131.214 163.770,131.706 163.936,132.403 163.983 C 133.100 164.030,133.956 164.221,134.305 164.408 C 135.145 164.857,139.490 164.846,139.770 164.393 C 139.890 164.198,140.506 164.039,141.138 164.039 C 142.253 164.039,146.027 162.425,146.265 161.846 C 146.330 161.688,146.609 161.559,146.885 161.559 C 147.161 161.559,147.387 161.399,147.387 161.205 C 147.387 161.010,147.565 160.850,147.783 160.850 C 148.237 160.850,150.930 158.085,150.930 157.618 C 150.930 157.447,151.089 157.307,151.284 157.307 C 151.479 157.307,151.639 157.068,151.639 156.776 C 151.639 156.484,151.762 156.244,151.912 156.244 C 152.063 156.244,152.500 155.647,152.883 154.916 C 153.267 154.185,153.682 153.508,153.806 153.410 C 154.456 152.901,155.093 142.221,154.451 142.618 C 154.268 142.731,154.119 142.454,154.119 142.003 C 154.119 141.553,153.703 140.068,153.195 138.705 C 152.688 137.342,152.262 136.027,152.251 135.784 C 152.239 135.540,152.096 135.341,151.934 135.341 C 151.771 135.341,151.639 134.863,151.639 134.278 C 151.639 133.694,151.479 133.215,151.284 133.215 C 151.089 133.215,150.930 132.746,150.930 132.173 C 150.930 131.600,150.771 131.033,150.576 130.912 C 150.381 130.792,150.221 130.314,150.221 129.849 C 150.221 129.385,150.062 128.907,149.867 128.787 C 149.672 128.666,149.513 128.099,149.513 127.526 C 149.513 126.953,149.353 126.484,149.159 126.484 C 148.964 126.484,148.804 125.916,148.804 125.223 C 148.804 124.472,148.661 124.050,148.450 124.181 C 148.240 124.311,148.096 123.899,148.096 123.168 C 148.096 122.491,147.941 121.884,147.753 121.819 C 147.564 121.754,147.371 121.182,147.323 120.549 C 147.275 119.916,147.111 119.398,146.957 119.398 C 146.804 119.398,146.677 119.198,146.676 118.955 C 146.675 118.711,146.437 118.058,146.148 117.503 C 145.858 116.948,145.587 116.042,145.545 115.490 C 145.503 114.938,145.342 114.565,145.188 114.660 C 145.033 114.756,144.907 114.355,144.907 113.771 C 144.907 113.186,144.748 112.609,144.553 112.489 C 144.358 112.368,144.198 111.801,144.198 111.228 C 144.198 110.655,144.039 110.186,143.844 110.186 C 143.649 110.186,143.490 109.839,143.490 109.414 C 143.490 108.661,142.942 106.645,142.448 105.580 C 142.312 105.288,141.744 103.574,141.186 101.771 C 140.627 99.969,140.041 98.494,139.882 98.494 C 139.723 98.494,139.593 98.270,139.593 97.996 C 139.593 97.326,138.118 94.597,137.755 94.597 C 137.597 94.597,137.467 94.289,137.467 93.912 C 137.467 93.536,137.176 93.135,136.822 93.023 C 136.467 92.910,135.709 92.362,135.139 91.806 C 133.631 90.335,130.723 88.574,129.801 88.574 C 129.363 88.574,128.907 88.415,128.787 88.220 C 128.666 88.025,127.860 87.865,126.994 87.865 C 126.129 87.865,125.421 87.743,125.421 87.594 C 125.421 87.444,124.703 87.290,123.826 87.251 C 122.950 87.212,122.232 87.334,122.232 87.523 M158.021 119.486 C 158.030 121.377,158.629 121.821,158.666 119.965 C 158.684 119.068,158.545 118.335,158.357 118.335 C 158.170 118.335,158.018 118.853,158.021 119.486 M63.419 148.450 C 63.419 148.645,63.140 148.807,62.799 148.810 C 61.391 148.822,58.306 150.256,57.354 151.340 C 57.039 151.699,56.549 151.993,56.265 151.993 C 55.981 151.993,55.489 152.272,55.171 152.613 C 53.756 154.134,53.289 154.734,52.819 155.635 C 52.542 156.165,52.184 156.599,52.022 156.599 C 51.860 156.599,51.727 156.918,51.727 157.307 C 51.727 157.697,51.568 158.016,51.373 158.016 C 51.178 158.016,51.019 158.335,51.019 158.725 C 51.019 159.114,50.892 159.433,50.737 159.433 C 50.055 159.433,49.247 163.478,49.247 166.893 C 49.247 170.433,50.104 174.837,50.719 174.457 C 50.884 174.355,51.019 174.515,51.019 174.813 C 51.019 176.584,55.723 182.227,58.016 183.206 C 58.649 183.477,59.167 183.819,59.167 183.966 C 59.167 184.113,59.486 184.234,59.876 184.234 C 60.266 184.234,60.585 184.393,60.585 184.588 C 60.585 184.783,60.983 184.942,61.470 184.942 C 61.957 184.942,62.356 185.102,62.356 185.297 C 62.356 185.492,62.598 185.651,62.895 185.651 C 63.191 185.651,64.064 186.050,64.836 186.537 C 65.608 187.024,66.404 187.422,66.605 187.422 C 66.807 187.422,67.248 187.569,67.587 187.748 C 68.854 188.418,71.573 189.548,71.918 189.548 C 72.115 189.548,72.276 189.708,72.276 189.903 C 72.276 190.097,72.586 190.257,72.964 190.257 C 73.342 190.257,73.750 190.416,73.871 190.611 C 73.991 190.806,74.479 190.965,74.954 190.965 C 75.430 190.965,75.819 191.125,75.819 191.320 C 75.819 191.515,76.125 191.674,76.498 191.674 C 76.872 191.674,77.231 191.813,77.296 191.983 C 77.444 192.372,81.330 194.154,82.030 194.154 C 82.317 194.154,82.551 194.314,82.551 194.508 C 82.551 194.703,82.870 194.863,83.260 194.863 C 83.649 194.863,83.968 195.022,83.968 195.217 C 83.968 195.412,84.367 195.571,84.854 195.571 C 85.341 195.571,85.740 195.731,85.740 195.926 C 85.740 196.120,86.148 196.280,86.646 196.280 C 87.160 196.280,87.458 196.433,87.334 196.634 C 87.210 196.835,87.507 196.988,88.022 196.988 C 88.520 196.988,88.928 197.148,88.928 197.343 C 88.928 197.538,89.090 197.697,89.287 197.697 C 89.682 197.697,95.022 200.193,95.306 200.510 C 95.403 200.619,95.802 200.763,96.191 200.830 C 96.581 200.896,96.953 201.095,97.018 201.272 C 97.083 201.450,97.601 201.594,98.169 201.594 C 98.738 201.594,99.203 201.754,99.203 201.949 C 99.203 202.143,99.413 202.303,99.669 202.303 C 100.252 202.303,104.181 204.292,103.986 204.488 C 103.907 204.567,104.273 204.667,104.800 204.710 C 105.326 204.754,105.810 204.947,105.875 205.140 C 105.940 205.334,106.204 205.492,106.462 205.492 C 106.904 205.492,107.446 205.730,111.194 207.570 C 112.040 207.986,113.037 208.326,113.408 208.326 C 113.779 208.326,114.083 208.485,114.083 208.680 C 114.083 208.875,114.300 209.035,114.564 209.035 C 114.829 209.035,116.116 209.593,117.424 210.275 C 118.733 210.957,120.111 211.515,120.486 211.515 C 120.862 211.515,121.169 211.674,121.169 211.869 C 121.169 212.064,121.488 212.223,121.878 212.223 C 122.267 212.223,122.586 212.383,122.586 212.578 C 122.586 212.772,122.905 212.932,123.295 212.932 C 123.685 212.932,124.004 213.091,124.004 213.286 C 124.004 213.481,124.245 213.640,124.540 213.640 C 124.835 213.640,125.433 213.825,125.868 214.050 C 127.574 214.932,127.916 215.058,128.605 215.058 C 128.997 215.058,129.318 215.210,129.318 215.395 C 129.318 215.581,129.916 215.992,130.647 216.309 C 131.377 216.625,132.657 217.191,133.490 217.565 C 134.324 217.940,135.288 218.246,135.634 218.246 C 135.979 218.246,136.431 218.415,136.637 218.622 C 137.361 219.345,148.450 218.624,148.450 217.853 C 148.450 217.680,148.849 217.538,149.336 217.538 C 149.823 217.538,150.221 217.397,150.221 217.225 C 150.221 217.053,150.500 216.818,150.841 216.704 C 152.576 216.121,157.662 211.667,157.662 210.731 C 157.662 210.469,157.985 209.978,158.380 209.640 C 158.775 209.301,159.194 208.549,159.310 207.967 C 159.426 207.385,159.661 206.909,159.832 206.909 C 160.002 206.909,160.142 206.520,160.142 206.044 C 160.142 205.568,160.301 205.081,160.496 204.960 C 160.705 204.831,160.850 202.706,160.850 199.781 C 160.850 196.564,160.726 194.898,160.496 195.040 C 160.286 195.170,160.142 194.758,160.142 194.027 C 160.142 193.350,159.975 192.740,159.772 192.673 C 159.568 192.605,159.374 192.178,159.340 191.725 C 159.305 191.272,158.914 190.509,158.470 190.029 C 158.025 189.550,157.662 188.994,157.662 188.793 C 157.662 188.265,153.381 184.234,152.820 184.234 C 152.560 184.234,152.347 184.099,152.347 183.935 C 152.347 183.657,150.123 182.470,148.096 181.668 C 147.609 181.475,146.933 181.176,146.595 181.004 C 146.256 180.832,145.738 180.691,145.443 180.691 C 145.148 180.691,144.907 180.544,144.907 180.365 C 144.907 180.185,144.429 179.934,143.844 179.805 C 143.260 179.677,142.780 179.465,142.778 179.334 C 142.775 178.997,140.991 178.211,140.231 178.211 C 139.880 178.211,139.593 178.051,139.593 177.857 C 139.593 177.662,139.274 177.502,138.884 177.502 C 138.494 177.502,138.175 177.343,138.175 177.148 C 138.175 176.953,137.777 176.794,137.290 176.794 C 136.802 176.794,136.404 176.634,136.404 176.439 C 136.404 176.244,136.094 176.085,135.716 176.085 C 135.338 176.085,134.930 175.926,134.810 175.731 C 134.689 175.536,134.201 175.376,133.726 175.376 C 133.250 175.376,132.861 175.217,132.861 175.022 C 132.861 174.827,132.654 174.668,132.400 174.668 C 131.778 174.668,130.033 173.841,130.029 173.545 C 130.028 173.414,129.548 173.202,128.964 173.074 C 128.379 172.945,127.901 172.693,127.901 172.514 C 127.901 172.335,127.587 172.188,127.203 172.188 C 126.819 172.188,125.937 171.869,125.244 171.479 C 124.550 171.089,123.677 170.771,123.305 170.771 C 122.933 170.771,122.530 170.611,122.409 170.416 C 122.289 170.221,121.881 170.062,121.503 170.062 C 121.124 170.062,120.815 169.903,120.815 169.708 C 120.815 169.513,120.496 169.353,120.106 169.353 C 119.717 169.353,119.398 169.194,119.398 168.999 C 119.398 168.804,119.079 168.645,118.689 168.645 C 118.299 168.645,117.981 168.503,117.981 168.329 C 117.981 168.021,116.295 167.408,115.766 167.524 C 115.620 167.556,115.500 167.422,115.500 167.228 C 115.500 167.033,115.293 166.873,115.040 166.873 C 114.388 166.873,112.672 166.040,112.669 165.722 C 112.667 165.576,112.425 165.456,112.130 165.456 C 111.835 165.456,111.317 165.310,110.978 165.131 C 109.930 164.578,107.897 163.866,107.617 163.955 C 107.471 164.001,107.352 163.880,107.352 163.685 C 107.352 163.490,107.042 163.330,106.664 163.330 C 106.286 163.330,105.878 163.171,105.757 162.976 C 105.637 162.781,105.246 162.622,104.889 162.622 C 104.531 162.622,104.143 162.373,104.026 162.068 C 103.909 161.763,103.664 161.606,103.481 161.719 C 103.299 161.832,103.047 161.760,102.923 161.559 C 102.799 161.358,102.548 161.285,102.367 161.397 C 102.186 161.509,102.037 161.432,102.037 161.226 C 102.037 161.019,101.803 160.850,101.517 160.850 C 101.230 160.850,100.428 160.531,99.734 160.142 C 99.040 159.752,98.238 159.433,97.952 159.433 C 97.666 159.433,97.431 159.274,97.431 159.079 C 97.431 158.884,97.046 158.725,96.575 158.725 C 96.104 158.725,95.663 158.558,95.596 158.354 C 95.528 158.151,95.116 157.958,94.680 157.925 C 94.245 157.892,93.888 157.740,93.888 157.586 C 93.888 157.433,93.490 157.307,93.003 157.307 C 92.516 157.307,92.117 157.148,92.117 156.953 C 92.117 156.758,91.798 156.599,91.408 156.599 C 91.019 156.599,90.700 156.469,90.700 156.310 C 90.700 155.914,88.355 154.827,87.499 154.827 C 87.116 154.827,86.802 154.668,86.802 154.473 C 86.802 154.278,86.484 154.119,86.094 154.119 C 85.704 154.119,85.385 153.959,85.385 153.764 C 85.385 153.570,85.144 153.410,84.849 153.410 C 84.554 153.410,83.996 153.251,83.609 153.056 C 83.222 152.861,82.589 152.542,82.201 152.347 C 81.814 152.152,81.177 151.993,80.784 151.993 C 80.392 151.993,80.071 151.833,80.071 151.639 C 80.071 151.444,79.752 151.284,79.362 151.284 C 78.973 151.284,78.654 151.125,78.654 150.930 C 78.654 150.735,78.335 150.576,77.945 150.576 C 77.555 150.576,77.236 150.442,77.236 150.279 C 77.236 150.116,76.320 149.684,75.199 149.320 C 74.079 148.957,73.011 148.532,72.826 148.377 C 72.322 147.956,63.419 148.025,63.419 148.450 " stroke="none" fill="#f4b434" fill-rule="evenodd"></path><path id="path1" d="M215.589 216.475 C 215.469 216.670,214.821 216.829,214.151 216.829 C 213.480 216.829,212.932 216.988,212.932 217.183 C 212.932 217.378,212.613 217.538,212.223 217.538 C 211.833 217.538,211.515 217.697,211.515 217.892 C 211.515 218.087,211.308 218.246,211.055 218.246 C 210.535 218.246,209.239 219.163,208.374 220.143 C 208.055 220.504,207.077 221.554,206.199 222.477 C 205.322 223.399,204.207 225.017,203.723 226.072 C 203.238 227.126,202.760 228.069,202.661 228.167 C 202.561 228.264,202.426 228.663,202.359 229.052 C 202.292 229.442,202.093 229.814,201.916 229.879 C 201.739 229.944,201.594 230.382,201.594 230.853 C 201.594 231.324,201.435 231.709,201.240 231.709 C 201.045 231.709,200.886 232.108,200.886 232.595 C 200.886 233.082,200.726 233.481,200.531 233.481 C 200.337 233.481,200.177 233.800,200.177 234.190 C 200.177 234.579,200.030 234.898,199.851 234.898 C 199.672 234.898,199.420 235.375,199.292 235.957 C 199.164 236.539,198.913 237.107,198.733 237.218 C 198.553 237.329,198.406 237.739,198.406 238.129 C 198.406 238.518,198.246 238.739,198.051 238.618 C 197.850 238.494,197.697 238.792,197.697 239.306 C 197.697 239.805,197.538 240.213,197.343 240.213 C 197.148 240.213,196.988 240.531,196.988 240.921 C 196.988 241.311,196.829 241.630,196.634 241.630 C 196.439 241.630,196.280 241.939,196.280 242.317 C 196.280 242.696,196.120 243.104,195.926 243.224 C 195.731 243.345,195.571 243.912,195.571 244.485 C 195.571 245.058,195.412 245.527,195.217 245.527 C 195.022 245.527,194.863 245.952,194.863 246.472 C 194.863 246.991,194.763 247.317,194.640 247.194 C 194.421 246.975,193.189 249.101,192.938 250.133 C 192.599 251.529,192.272 252.259,191.987 252.259 C 191.815 252.259,191.674 252.568,191.674 252.946 C 191.674 253.325,191.515 253.733,191.320 253.853 C 191.125 253.973,190.965 254.461,190.965 254.937 C 190.965 255.412,190.806 255.802,190.611 255.802 C 190.416 255.802,190.257 256.200,190.257 256.687 C 190.257 257.174,190.097 257.573,189.903 257.573 C 189.708 257.573,189.548 257.883,189.548 258.261 C 189.548 258.639,189.389 259.047,189.194 259.167 C 188.999 259.288,188.840 259.683,188.840 260.045 C 188.840 260.407,188.660 260.762,188.441 260.836 C 188.222 260.909,188.043 261.397,188.043 261.921 C 188.043 262.446,187.902 262.788,187.730 262.681 C 187.558 262.575,187.327 262.777,187.217 263.131 C 187.107 263.484,186.869 264.050,186.688 264.388 C 186.507 264.727,186.356 265.205,186.352 265.451 C 186.347 265.698,186.032 266.298,185.651 266.785 C 185.270 267.272,184.955 268.109,184.950 268.645 C 184.946 269.181,184.783 269.619,184.588 269.619 C 184.393 269.619,184.234 269.938,184.234 270.328 C 184.234 270.717,184.074 271.036,183.880 271.036 C 183.685 271.036,183.525 271.346,183.525 271.724 C 183.525 272.102,183.366 272.510,183.171 272.631 C 182.976 272.751,182.817 273.159,182.817 273.537 C 182.817 273.916,182.657 274.225,182.462 274.225 C 182.267 274.225,182.108 274.544,182.108 274.934 C 182.108 275.323,181.939 275.642,181.733 275.642 C 181.526 275.642,181.456 275.802,181.577 275.996 C 181.697 276.191,181.627 276.351,181.420 276.351 C 181.214 276.351,181.045 276.585,181.045 276.871 C 181.045 277.158,180.726 277.960,180.337 278.654 C 179.947 279.348,179.628 280.136,179.628 280.406 C 179.628 280.677,179.470 280.951,179.277 281.016 C 179.084 281.081,178.889 281.572,178.845 282.108 C 178.801 282.644,178.640 283.082,178.488 283.082 C 178.335 283.082,178.211 283.401,178.211 283.791 C 178.211 284.181,178.051 284.500,177.857 284.500 C 177.662 284.500,177.502 284.898,177.502 285.385 C 177.502 285.872,177.343 286.271,177.148 286.271 C 176.953 286.271,176.794 286.590,176.794 286.980 C 176.794 287.369,176.634 287.688,176.439 287.688 C 176.244 287.688,176.085 287.914,176.085 288.191 C 176.085 288.467,175.853 289.145,175.569 289.697 C 175.285 290.248,174.848 291.218,174.597 291.851 C 174.346 292.484,174.020 293.003,173.873 293.003 C 173.725 293.003,173.605 293.401,173.605 293.888 C 173.605 294.376,173.446 294.774,173.251 294.774 C 173.056 294.774,172.896 295.173,172.896 295.660 C 172.896 296.147,172.737 296.546,172.542 296.546 C 172.347 296.546,172.188 296.944,172.188 297.431 C 172.188 297.919,172.028 298.317,171.833 298.317 C 171.639 298.317,171.479 298.551,171.479 298.838 C 171.479 299.124,171.160 299.926,170.771 300.620 C 170.381 301.314,170.062 302.169,170.062 302.520 C 170.062 302.872,169.951 303.270,169.816 303.406 C 168.480 304.741,169.081 315.678,170.490 315.678 C 170.644 315.678,170.771 316.067,170.771 316.542 C 170.771 317.018,170.930 317.506,171.125 317.626 C 171.320 317.747,171.479 318.164,171.479 318.554 C 171.479 318.944,171.639 319.164,171.833 319.043 C 172.028 318.923,172.188 319.073,172.188 319.377 C 172.188 319.681,172.347 319.929,172.542 319.929 C 172.737 319.929,172.896 320.178,172.896 320.481 C 172.896 320.785,173.056 320.935,173.251 320.815 C 173.446 320.694,173.618 320.964,173.633 321.414 C 173.648 321.864,173.746 322.020,173.849 321.760 C 173.974 321.448,174.266 321.664,174.713 322.398 C 175.084 323.008,175.515 323.428,175.672 323.331 C 175.828 323.235,176.180 323.466,176.453 323.845 C 176.726 324.225,177.163 324.535,177.424 324.535 C 177.685 324.535,177.800 324.694,177.679 324.889 C 177.555 325.091,177.860 325.244,178.388 325.244 C 178.916 325.244,179.221 325.396,179.097 325.598 C 178.972 325.799,179.270 325.952,179.784 325.952 C 180.283 325.952,180.691 326.112,180.691 326.306 C 180.691 326.501,181.179 326.661,181.775 326.661 C 182.407 326.661,182.767 326.808,182.640 327.015 C 182.497 327.245,184.341 327.369,187.912 327.369 C 191.191 327.369,193.492 327.227,193.623 327.015 C 193.743 326.820,194.231 326.661,194.706 326.661 C 195.182 326.661,195.573 326.541,195.574 326.395 C 195.577 326.072,197.298 325.244,197.966 325.244 C 198.231 325.244,198.349 325.084,198.229 324.889 C 198.108 324.694,198.190 324.535,198.410 324.535 C 198.630 324.535,199.012 324.336,199.258 324.092 C 199.504 323.849,200.131 323.332,200.650 322.945 C 201.169 322.558,201.594 322.040,201.594 321.794 C 201.594 321.548,201.714 321.365,201.860 321.388 C 202.531 321.494,203.036 321.318,202.863 321.038 C 202.758 320.869,203.067 320.271,203.550 319.710 C 204.033 319.148,204.428 318.490,204.428 318.246 C 204.429 318.003,204.588 317.803,204.783 317.803 C 204.978 317.803,205.137 317.430,205.137 316.973 C 205.137 316.516,205.527 315.689,206.003 315.135 C 206.479 314.581,206.803 314.021,206.723 313.892 C 206.643 313.762,206.806 313.354,207.086 312.984 C 207.366 312.614,207.600 311.944,207.606 311.494 C 207.612 311.041,207.775 310.773,207.972 310.895 C 208.172 311.018,208.326 310.728,208.326 310.228 C 208.326 309.741,208.485 309.244,208.680 309.123 C 208.875 309.003,209.035 308.515,209.035 308.039 C 209.035 307.564,209.194 307.174,209.389 307.174 C 209.584 307.174,209.746 306.816,209.749 306.377 C 209.753 305.733,209.820 305.682,210.097 306.112 C 210.353 306.507,210.442 306.303,210.446 305.314 C 210.449 304.584,210.611 303.986,210.806 303.986 C 211.001 303.986,211.160 303.667,211.160 303.277 C 211.160 302.888,211.371 302.569,211.628 302.569 C 211.888 302.569,212.307 301.789,212.573 300.813 C 212.838 299.842,213.207 299.154,213.401 299.274 C 213.593 299.392,213.654 299.334,213.536 299.144 C 213.419 298.953,213.553 298.352,213.836 297.808 C 214.118 297.264,214.349 296.598,214.349 296.328 C 214.349 296.058,214.508 295.837,214.703 295.837 C 214.898 295.837,215.058 295.528,215.058 295.149 C 215.058 294.771,215.217 294.363,215.412 294.243 C 215.607 294.122,215.766 293.714,215.766 293.336 C 215.766 292.958,215.926 292.648,216.120 292.648 C 216.315 292.648,216.475 292.329,216.475 291.940 C 216.475 291.550,216.634 291.231,216.829 291.231 C 217.024 291.231,217.183 290.753,217.183 290.168 C 217.183 289.584,217.316 289.105,217.479 289.105 C 217.781 289.105,220.372 283.694,220.372 283.065 C 220.372 282.874,220.521 282.442,220.703 282.103 C 220.885 281.765,221.243 280.970,221.498 280.337 C 221.753 279.703,222.083 279.185,222.230 279.185 C 222.377 279.185,222.498 278.777,222.498 278.278 C 222.498 277.780,222.623 277.449,222.777 277.544 C 222.930 277.639,223.091 277.296,223.134 276.781 C 223.176 276.266,223.449 275.712,223.740 275.549 C 224.031 275.386,224.269 275.053,224.269 274.809 C 224.269 274.171,225.107 272.460,225.421 272.456 C 225.567 272.455,225.686 272.207,225.686 271.905 C 225.686 271.603,226.005 270.696,226.395 269.890 C 226.785 269.083,227.106 268.094,227.109 267.693 C 227.114 267.091,227.175 267.056,227.458 267.493 C 227.719 267.897,227.803 267.747,227.807 266.873 C 227.810 266.240,227.972 265.722,228.167 265.722 C 228.361 265.722,228.521 265.323,228.521 264.836 C 228.521 264.349,228.680 263.950,228.875 263.950 C 229.070 263.950,229.229 263.632,229.229 263.242 C 229.229 262.852,229.398 262.533,229.605 262.533 C 229.811 262.533,229.881 262.374,229.761 262.179 C 229.640 261.984,229.693 261.825,229.878 261.825 C 230.314 261.825,231.709 258.857,231.709 257.931 C 231.709 257.539,231.869 257.219,232.064 257.219 C 232.259 257.219,232.418 256.909,232.418 256.531 C 232.418 256.153,232.578 255.745,232.772 255.624 C 232.967 255.504,233.127 255.096,233.127 254.718 C 233.127 254.340,233.246 254.029,233.392 254.027 C 233.789 254.023,234.544 252.236,234.544 251.302 C 234.544 250.854,234.703 250.487,234.898 250.487 C 235.093 250.487,235.252 250.226,235.252 249.906 C 235.252 249.587,235.499 249.145,235.800 248.925 C 236.101 248.705,236.374 248.169,236.407 247.735 C 236.439 247.300,236.592 246.944,236.745 246.944 C 236.898 246.944,237.024 246.705,237.024 246.413 C 237.024 246.120,237.183 245.881,237.378 245.881 C 237.573 245.881,237.733 245.560,237.733 245.168 C 237.733 244.776,237.917 244.098,238.142 243.662 C 239.038 241.929,239.150 241.606,239.150 240.749 C 239.150 240.259,239.309 239.858,239.504 239.858 C 239.721 239.858,239.858 238.139,239.858 235.409 C 239.858 232.532,239.733 231.036,239.504 231.178 C 239.290 231.310,239.150 230.834,239.150 229.980 C 239.150 229.200,238.990 228.464,238.795 228.344 C 238.601 228.223,238.441 227.815,238.441 227.437 C 238.441 227.059,238.321 226.749,238.173 226.749 C 238.026 226.749,237.680 226.231,237.405 225.598 C 237.129 224.965,236.731 224.333,236.521 224.194 C 236.310 224.055,236.138 223.797,236.138 223.621 C 236.138 223.446,235.620 222.818,234.987 222.226 C 234.353 221.635,233.835 221.014,233.835 220.847 C 233.835 220.483,232.354 219.481,231.975 219.588 C 231.829 219.630,231.749 219.464,231.798 219.221 C 231.847 218.977,231.687 218.818,231.444 218.866 C 231.200 218.915,231.001 218.795,231.001 218.601 C 231.001 218.406,230.762 218.246,230.469 218.246 C 230.177 218.246,229.938 218.087,229.938 217.892 C 229.938 217.697,229.818 217.557,229.672 217.580 C 228.795 217.718,227.803 217.485,227.989 217.183 C 228.112 216.986,227.808 216.809,227.302 216.785 C 225.961 216.719,225.771 216.678,225.480 216.386 C 225.074 215.980,215.843 216.063,215.589 216.475 M165.710 221.586 C 165.368 221.928,164.536 222.143,163.554 222.143 C 162.674 222.143,161.867 222.285,161.760 222.459 C 161.653 222.632,161.046 222.864,160.411 222.973 C 157.726 223.437,156.756 223.664,156.422 223.908 C 156.227 224.050,155.310 224.384,154.384 224.649 C 153.459 224.915,152.702 225.222,152.702 225.332 C 152.702 225.442,152.263 225.568,151.727 225.612 C 151.191 225.656,150.700 225.851,150.635 226.044 C 150.570 226.237,149.967 226.395,149.295 226.395 C 148.597 226.395,147.995 226.600,147.890 226.873 C 147.789 227.136,147.214 227.365,146.613 227.382 C 146.011 227.399,145.349 227.583,145.142 227.790 C 144.935 227.997,144.412 228.167,143.980 228.167 C 143.548 228.167,143.141 228.321,143.076 228.510 C 143.012 228.698,142.440 228.892,141.807 228.939 C 141.174 228.987,140.655 229.151,140.655 229.305 C 140.655 229.458,140.177 229.584,139.593 229.584 C 139.008 229.584,138.530 229.743,138.530 229.938 C 138.530 230.133,137.962 230.292,137.269 230.292 C 136.518 230.292,136.096 230.436,136.227 230.647 C 136.351 230.848,136.052 231.001,135.534 231.001 C 135.033 231.001,134.346 231.150,134.008 231.332 C 133.669 231.514,132.404 231.941,131.195 232.280 C 129.987 232.619,129.059 232.994,129.133 233.113 C 129.206 233.233,128.840 233.366,128.318 233.409 C 127.796 233.452,127.316 233.645,127.251 233.838 C 127.186 234.031,126.588 234.190,125.923 234.190 C 125.257 234.190,124.712 234.349,124.712 234.544 C 124.712 234.739,124.154 234.898,123.472 234.898 C 122.790 234.898,122.232 235.058,122.232 235.252 C 122.232 235.447,121.754 235.607,121.169 235.607 C 120.585 235.607,120.106 235.766,120.106 235.961 C 120.106 236.156,119.806 236.315,119.438 236.315 C 118.567 236.315,116.861 237.204,117.159 237.502 C 117.286 237.629,117.069 237.733,116.677 237.733 C 115.817 237.733,114.345 238.928,114.710 239.331 C 114.852 239.489,114.784 239.511,114.557 239.382 C 114.328 239.251,113.488 239.777,112.668 240.565 C 111.856 241.345,111.388 241.984,111.628 241.984 C 111.869 241.984,111.723 242.282,111.303 242.646 C 110.884 243.009,110.540 243.573,110.540 243.897 C 110.540 244.221,110.301 244.578,110.009 244.690 C 109.717 244.802,109.477 245.187,109.477 245.544 C 109.477 245.901,109.336 246.281,109.162 246.389 C 108.403 246.858,107.719 255.602,108.389 256.272 C 108.598 256.481,108.780 257.218,108.795 257.910 C 108.809 258.601,109.126 259.646,109.499 260.230 C 109.873 260.815,110.291 261.532,110.430 261.825 C 110.568 262.117,110.969 262.665,111.320 263.043 C 111.670 263.421,111.957 263.965,111.957 264.253 C 111.957 264.541,112.056 264.679,112.175 264.559 C 112.295 264.439,113.162 265.130,114.101 266.094 C 115.040 267.059,115.979 267.848,116.186 267.848 C 116.394 267.848,116.564 267.967,116.566 268.113 C 116.569 268.476,118.622 269.619,119.270 269.619 C 119.558 269.619,119.710 269.754,119.608 269.920 C 119.506 270.085,119.919 270.235,120.527 270.252 C 121.134 270.269,121.727 270.434,121.843 270.618 C 122.143 271.092,129.903 271.169,130.192 270.701 C 130.319 270.496,130.971 270.328,131.642 270.328 C 132.312 270.328,132.861 270.168,132.861 269.973 C 132.861 269.779,133.170 269.619,133.549 269.619 C 133.927 269.619,134.335 269.460,134.455 269.265 C 134.576 269.070,135.126 268.911,135.678 268.911 C 136.244 268.911,136.771 268.679,136.886 268.379 C 137.004 268.072,137.534 267.848,138.143 267.848 C 138.723 267.848,139.295 267.688,139.415 267.493 C 139.536 267.298,139.992 267.139,140.428 267.139 C 140.865 267.139,141.376 266.985,141.565 266.797 C 141.753 266.608,142.412 266.416,143.028 266.369 C 143.645 266.322,144.071 266.157,143.976 266.003 C 143.880 265.848,144.210 265.722,144.709 265.722 C 145.208 265.722,145.618 265.523,145.621 265.279 C 145.625 264.984,145.741 265.013,145.970 265.368 C 146.199 265.722,146.315 265.751,146.319 265.456 C 146.322 265.213,146.643 265.013,147.033 265.013 C 147.422 265.013,147.741 264.854,147.741 264.659 C 147.741 264.464,148.142 264.305,148.632 264.305 C 149.122 264.305,149.799 264.153,150.138 263.968 C 151.693 263.115,153.371 262.508,154.373 262.436 C 154.974 262.392,155.393 262.236,155.303 262.090 C 155.213 261.944,155.459 261.825,155.848 261.825 C 156.238 261.825,156.655 261.665,156.776 261.470 C 156.896 261.275,157.454 261.116,158.016 261.116 C 158.578 261.116,159.136 260.957,159.256 260.762 C 159.376 260.567,159.864 260.407,160.340 260.407 C 160.815 260.407,161.205 260.248,161.205 260.053 C 161.205 259.858,161.605 259.699,162.095 259.699 C 162.585 259.699,163.263 259.550,163.601 259.368 C 163.939 259.186,164.973 258.832,165.899 258.582 C 166.825 258.332,167.582 258.023,167.582 257.895 C 167.582 257.768,168.220 257.562,168.999 257.437 C 169.779 257.312,170.416 257.053,170.416 256.860 C 170.416 256.668,170.824 256.510,171.323 256.510 C 171.837 256.510,172.135 256.357,172.011 256.156 C 171.883 255.950,172.236 255.802,172.855 255.802 C 173.439 255.802,174.016 255.642,174.136 255.447 C 174.257 255.252,174.665 255.093,175.043 255.093 C 175.421 255.093,175.731 254.934,175.731 254.739 C 175.731 254.544,176.050 254.384,176.439 254.384 C 176.829 254.384,177.148 254.225,177.148 254.030 C 177.148 253.835,177.313 253.676,177.514 253.676 C 177.945 253.676,180.337 251.351,180.337 250.931 C 180.337 250.773,180.647 250.420,181.026 250.147 C 181.405 249.873,181.639 249.525,181.545 249.374 C 181.451 249.222,181.823 248.698,182.372 248.209 C 182.929 247.712,183.404 246.893,183.449 246.351 C 183.493 245.818,183.688 245.223,183.882 245.029 C 184.075 244.835,184.234 244.319,184.234 243.883 C 184.234 243.446,184.401 242.985,184.605 242.859 C 184.862 242.700,184.857 242.485,184.588 242.161 C 184.309 241.825,184.308 241.626,184.584 241.455 C 184.813 241.313,184.943 240.164,184.907 238.598 C 184.874 237.157,184.709 236.064,184.540 236.168 C 184.372 236.272,184.234 235.710,184.234 234.919 C 184.234 234.128,184.074 233.481,183.880 233.481 C 183.685 233.481,183.525 233.082,183.525 232.595 C 183.525 232.108,183.366 231.709,183.171 231.709 C 182.976 231.709,182.817 231.391,182.817 231.001 C 182.817 230.595,182.580 230.292,182.264 230.292 C 181.961 230.292,181.805 230.142,181.918 229.958 C 182.032 229.774,181.558 229.057,180.865 228.364 C 180.171 227.671,179.799 227.104,180.037 227.104 C 180.275 227.104,180.128 226.785,179.710 226.395 C 179.291 226.005,178.783 225.686,178.580 225.686 C 178.377 225.686,178.211 225.527,178.211 225.332 C 178.211 225.137,177.989 224.978,177.717 224.978 C 177.446 224.978,177.128 224.729,177.011 224.424 C 176.894 224.119,176.652 223.961,176.472 224.072 C 176.292 224.183,176.090 224.106,176.021 223.901 C 175.953 223.697,175.541 223.502,175.105 223.470 C 174.670 223.437,174.314 223.284,174.314 223.131 C 174.314 222.978,174.004 222.852,173.626 222.852 C 173.248 222.852,172.840 222.693,172.719 222.498 C 172.599 222.303,171.726 222.143,170.779 222.143 C 168.832 222.143,167.847 221.866,168.136 221.398 C 168.430 220.923,167.789 221.015,167.284 221.521 C 166.933 221.871,166.785 221.866,166.556 221.494 C 166.323 221.118,166.160 221.136,165.710 221.586 " stroke="none" fill="#43c4ac" fill-rule="evenodd"></path><path id="path2" d="M205.846 29.212 C 200.922 30.604,196.540 34.145,194.595 38.305 C 193.090 41.523,191.682 44.617,191.067 46.058 C 190.352 47.732,189.601 49.372,187.270 54.340 C 186.185 56.654,185.297 58.664,185.297 58.807 C 185.297 58.951,184.834 60.007,184.268 61.155 C 183.265 63.190,182.288 65.329,181.048 68.202 C 179.609 71.536,177.898 75.293,175.595 80.173 C 174.696 82.080,173.959 83.724,173.959 83.827 C 173.959 83.929,173.501 84.999,172.941 86.205 C 172.380 87.410,171.646 89.035,171.308 89.814 C 170.641 91.355,169.673 93.492,168.018 97.077 C 167.433 98.344,166.636 100.097,166.246 100.974 C 165.856 101.851,165.200 103.326,164.788 104.252 C 164.376 105.177,163.706 106.692,163.300 107.617 C 162.893 108.543,162.241 110.018,161.851 110.895 C 161.460 111.771,161.016 112.808,160.863 113.198 C 160.709 113.587,160.405 114.352,160.186 114.897 C 157.671 121.152,162.554 133.066,168.838 136.008 C 169.874 136.494,170.164 136.611,172.503 137.494 C 174.047 138.078,180.969 138.070,182.535 137.483 C 188.225 135.351,191.144 132.694,193.622 127.390 C 194.499 125.513,195.217 123.910,195.217 123.829 C 195.217 123.748,195.713 122.598,196.319 121.274 C 197.720 118.214,198.549 116.356,199.212 114.792 C 199.986 112.966,202.261 107.793,203.185 105.757 C 203.628 104.783,204.229 103.428,204.521 102.746 C 205.439 100.600,207.659 95.562,208.579 93.534 C 209.065 92.462,209.598 91.267,209.763 90.877 C 209.928 90.487,210.709 88.757,211.498 87.033 C 212.286 85.309,212.932 83.810,212.932 83.703 C 212.932 83.595,213.347 82.615,213.855 81.523 C 214.933 79.208,216.086 76.649,216.505 75.642 C 216.667 75.252,217.364 73.686,218.054 72.162 C 218.745 70.637,219.309 69.329,219.309 69.255 C 219.309 69.180,219.805 68.036,220.410 66.712 C 221.016 65.388,221.647 63.986,221.813 63.596 C 221.979 63.206,222.679 61.640,223.369 60.116 C 224.059 58.591,224.624 57.283,224.624 57.209 C 224.624 57.134,225.084 56.070,225.647 54.843 C 227.487 50.832,227.614 50.283,227.598 46.417 C 227.548 34.720,216.704 26.143,205.846 29.212 M266.608 86.533 C 266.023 86.733,265.226 87.025,264.836 87.181 C 264.446 87.337,263.490 87.656,262.710 87.891 C 261.931 88.126,260.974 88.446,260.585 88.603 C 259.733 88.945,252.943 91.304,251.196 91.864 C 250.514 92.083,249.804 92.388,249.619 92.544 C 249.434 92.699,248.993 92.826,248.640 92.826 C 248.287 92.826,247.721 92.965,247.382 93.136 C 247.044 93.307,246.129 93.637,245.350 93.868 C 244.570 94.100,243.614 94.434,243.224 94.610 C 242.370 94.997,234.304 97.770,233.304 98.021 C 232.914 98.119,232.276 98.337,231.887 98.505 C 231.497 98.673,229.663 99.317,227.812 99.935 C 217.355 103.430,212.364 111.113,214.588 120.295 C 215.777 125.204,221.930 131.798,225.322 131.798 C 225.694 131.798,226.097 131.957,226.218 132.152 C 226.763 133.035,234.629 132.474,236.753 131.400 C 237.092 131.229,237.760 131.089,238.238 131.089 C 238.717 131.089,239.206 130.930,239.327 130.735 C 239.447 130.540,239.926 130.381,240.390 130.381 C 240.854 130.381,241.332 130.221,241.453 130.027 C 241.573 129.832,241.983 129.672,242.364 129.672 C 242.745 129.672,243.333 129.520,243.672 129.334 C 244.010 129.148,246.120 128.427,248.361 127.732 C 250.602 127.037,252.713 126.313,253.051 126.122 C 253.389 125.931,253.910 125.775,254.207 125.775 C 254.505 125.775,255.025 125.632,255.364 125.457 C 255.702 125.282,257.174 124.785,258.636 124.352 C 260.097 123.919,261.612 123.434,262.002 123.273 C 262.616 123.021,265.508 122.075,275.111 118.985 C 276.280 118.609,277.513 118.149,277.852 117.964 C 278.190 117.778,278.640 117.626,278.851 117.626 C 279.062 117.626,279.942 117.139,280.807 116.544 C 289.418 110.620,290.495 98.542,283.082 91.033 C 280.889 88.812,277.669 86.802,276.302 86.802 C 275.962 86.802,275.585 86.643,275.465 86.448 C 275.179 85.986,268.005 86.055,266.608 86.533 " stroke="none" fill="#e32354" fill-rule="evenodd"></path><path id="path3" d="M199.026 30.499 C 198.685 30.872,198.525 31.173,198.671 31.167 C 199.042 31.151,200.177 30.262,200.177 29.988 C 200.177 29.577,199.656 29.809,199.026 30.499 M196.277 32.597 C 195.827 32.988,195.562 33.413,195.689 33.540 C 195.817 33.667,196.241 33.403,196.632 32.952 C 197.745 31.668,197.561 31.484,196.277 32.597 M228.521 42.338 C 228.521 42.631,228.680 42.870,228.875 42.870 C 229.070 42.870,229.229 42.631,229.229 42.338 C 229.229 42.046,229.070 41.807,228.875 41.807 C 228.680 41.807,228.521 42.046,228.521 42.338 M181.399 63.242 C 181.149 63.544,181.024 63.870,181.121 63.968 C 181.219 64.065,181.503 63.898,181.754 63.596 C 182.004 63.294,182.129 62.968,182.032 62.870 C 181.934 62.773,181.650 62.940,181.399 63.242 M219.367 72.823 C 218.773 74.126,218.886 74.404,219.528 73.219 C 219.828 72.666,220.007 72.147,219.926 72.066 C 219.845 71.985,219.593 72.326,219.367 72.823 M175.258 76.410 C 174.867 76.801,174.992 77.236,175.495 77.236 C 175.754 77.236,175.967 76.997,175.967 76.705 C 175.967 76.145,175.654 76.014,175.258 76.410 M268.911 84.322 C 268.524 84.572,268.815 84.666,269.973 84.666 C 271.132 84.666,271.423 84.572,271.036 84.322 C 270.744 84.134,270.266 83.979,269.973 83.979 C 269.681 83.979,269.203 84.134,268.911 84.322 M271.745 84.322 C 271.745 84.517,272.263 84.674,272.896 84.671 C 273.770 84.667,273.920 84.583,273.516 84.322 C 272.820 83.872,271.745 83.872,271.745 84.322 M120.638 87.511 C 120.514 87.712,120.811 87.865,121.325 87.865 C 121.824 87.865,122.232 87.706,122.232 87.511 C 122.232 87.316,121.923 87.157,121.544 87.157 C 121.166 87.157,120.758 87.316,120.638 87.511 M281.311 87.473 C 281.311 87.647,281.563 87.886,281.871 88.005 C 282.738 88.337,282.824 88.265,282.247 87.688 C 281.645 87.086,281.311 87.009,281.311 87.473 M256.510 88.220 C 256.510 88.415,256.749 88.574,257.042 88.574 C 257.334 88.574,257.573 88.415,257.573 88.220 C 257.573 88.025,257.334 87.865,257.042 87.865 C 256.749 87.865,256.510 88.025,256.510 88.220 M113.927 89.825 C 113.549 90.111,113.399 90.345,113.594 90.345 C 113.788 90.345,114.257 90.111,114.636 89.825 C 115.014 89.539,115.164 89.305,114.969 89.305 C 114.774 89.305,114.305 89.539,113.927 89.825 M134.661 91.403 C 135.522 92.180,136.360 92.818,136.523 92.821 C 136.686 92.823,136.128 92.192,135.283 91.418 C 134.438 90.644,133.600 90.006,133.421 90.001 C 133.242 89.995,133.800 90.627,134.661 91.403 M248.372 91.040 C 248.085 91.221,247.958 91.477,248.089 91.608 C 248.220 91.740,248.586 91.589,248.901 91.273 C 249.525 90.650,249.209 90.511,248.372 91.040 M110.383 92.867 C 108.577 94.651,108.378 95.262,110.100 93.736 C 110.635 93.263,111.430 92.567,111.869 92.189 C 112.666 91.503,112.901 91.018,112.400 91.095 C 112.254 91.118,111.347 91.915,110.383 92.867 M239.150 94.243 C 239.150 94.438,239.389 94.597,239.681 94.597 C 239.973 94.597,240.213 94.438,240.213 94.243 C 240.213 94.048,239.973 93.888,239.681 93.888 C 239.389 93.888,239.150 94.048,239.150 94.243 M230.657 97.063 C 230.370 97.245,230.259 97.516,230.410 97.668 C 230.561 97.819,230.796 97.772,230.932 97.563 C 231.067 97.354,231.417 97.092,231.709 96.981 C 232.182 96.801,232.182 96.776,231.709 96.756 C 231.417 96.744,230.944 96.882,230.657 97.063 M139.593 98.140 C 139.593 98.335,139.752 98.494,139.947 98.494 C 140.142 98.494,140.301 98.760,140.301 99.085 C 140.301 99.410,140.395 99.581,140.511 99.466 C 140.806 99.170,140.322 97.786,139.923 97.786 C 139.741 97.786,139.593 97.945,139.593 98.140 M105.462 102.628 C 105.095 102.995,105.184 104.163,105.580 104.163 C 105.775 104.163,105.934 103.764,105.934 103.277 C 105.934 102.350,105.853 102.237,105.462 102.628 M163.381 103.151 C 163.131 103.551,163.005 103.956,163.100 104.051 C 163.195 104.146,163.458 103.877,163.685 103.454 C 163.911 103.031,164.038 102.626,163.966 102.554 C 163.894 102.483,163.631 102.751,163.381 103.151 M289.118 106.265 C 288.669 107.104,288.657 107.352,289.064 107.352 C 289.236 107.352,289.453 106.953,289.546 106.466 C 289.750 105.403,289.613 105.340,289.118 106.265 M143.490 109.655 C 143.490 109.947,143.649 110.186,143.844 110.186 C 144.039 110.186,144.198 109.947,144.198 109.655 C 144.198 109.362,144.039 109.123,143.844 109.123 C 143.649 109.123,143.490 109.362,143.490 109.655 M213.090 111.280 C 212.959 111.492,213.029 111.842,213.246 112.059 C 213.536 112.349,213.640 112.246,213.640 111.674 C 213.640 110.819,213.456 110.687,213.090 111.280 M158.730 114.172 C 158.734 114.816,158.801 114.867,159.079 114.438 C 159.523 113.751,159.523 113.375,159.079 113.375 C 158.884 113.375,158.727 113.733,158.730 114.172 M284.782 114.880 C 283.476 116.354,283.144 117.237,284.381 115.944 C 286.123 114.125,286.720 113.376,286.421 113.387 C 286.241 113.394,285.504 114.066,284.782 114.880 M212.223 116.365 C 212.223 117.036,212.383 117.683,212.578 117.803 C 212.791 117.936,212.932 117.453,212.932 116.584 C 212.932 115.793,212.772 115.146,212.578 115.146 C 212.383 115.146,212.223 115.695,212.223 116.365 M145.616 116.098 C 145.616 116.309,145.869 116.939,146.178 117.497 L 146.740 118.512 146.507 117.449 C 146.269 116.365,145.616 115.374,145.616 116.098 M158.204 117.376 C 158.052 117.725,158.028 118.110,158.149 118.232 C 158.509 118.592,158.799 118.086,158.634 117.388 C 158.487 116.769,158.468 116.769,158.204 117.376 M158.021 121.414 C 158.018 121.841,158.175 122.289,158.370 122.409 C 158.821 122.688,158.821 121.867,158.370 121.169 C 158.091 120.737,158.026 120.783,158.021 121.414 M212.932 121.325 C 212.932 121.606,213.091 121.934,213.286 122.055 C 213.481 122.175,213.640 121.946,213.640 121.544 C 213.640 121.143,213.481 120.815,213.286 120.815 C 213.091 120.815,212.932 121.045,212.932 121.325 M272.335 121.051 C 271.905 121.481,272.091 121.859,272.631 121.652 C 272.923 121.539,273.162 121.305,273.162 121.131 C 273.162 120.760,272.674 120.712,272.335 121.051 M213.640 123.472 C 213.640 123.764,213.800 124.004,213.995 124.004 C 214.190 124.004,214.349 123.764,214.349 123.472 C 214.349 123.180,214.190 122.941,213.995 122.941 C 213.800 122.941,213.640 123.180,213.640 123.472 M196.538 124.218 C 196.396 124.360,196.280 124.720,196.280 125.019 C 196.280 125.418,196.385 125.458,196.674 125.168 C 196.891 124.952,197.007 124.591,196.932 124.367 C 196.858 124.143,196.680 124.076,196.538 124.218 M194.883 128.071 C 194.652 128.651,194.275 129.247,194.043 129.394 C 193.746 129.583,193.741 129.663,194.025 129.667 C 194.561 129.674,195.657 127.969,195.459 127.436 C 195.372 127.205,195.113 127.490,194.883 128.071 M216.468 127.812 C 216.876 128.655,217.538 128.893,217.538 128.196 C 217.538 127.969,217.434 127.887,217.307 128.013 C 217.180 128.140,216.852 127.968,216.579 127.630 C 216.132 127.078,216.121 127.097,216.468 127.812 M248.893 128.964 C 248.772 129.159,248.913 129.318,249.205 129.318 C 249.498 129.318,249.835 129.159,249.956 128.964 C 250.076 128.769,249.936 128.609,249.643 128.609 C 249.351 128.609,249.013 128.769,248.893 128.964 M218.246 129.520 C 218.246 129.897,219.341 130.821,219.545 130.617 C 219.657 130.506,219.501 130.168,219.199 129.866 C 218.637 129.304,218.246 129.162,218.246 129.520 M222.498 132.317 C 222.498 132.408,222.813 132.650,223.198 132.857 C 223.770 133.163,223.861 133.132,223.692 132.692 C 223.508 132.214,222.498 131.896,222.498 132.317 M229.052 134.278 C 229.173 134.473,229.731 134.632,230.292 134.632 C 230.854 134.632,231.412 134.473,231.532 134.278 C 231.665 134.064,231.175 133.924,230.292 133.924 C 229.410 133.924,228.920 134.064,229.052 134.278 M252.777 136.425 C 252.664 136.608,252.032 136.758,251.373 136.758 C 250.714 136.758,250.076 136.918,249.956 137.112 C 249.835 137.307,249.427 137.467,249.049 137.467 C 248.671 137.467,248.361 137.626,248.361 137.821 C 248.361 138.016,248.043 138.175,247.653 138.175 C 247.263 138.175,246.944 138.344,246.944 138.551 C 246.944 138.757,246.784 138.827,246.587 138.705 C 246.391 138.584,246.135 138.733,246.019 139.037 C 245.902 139.340,245.664 139.500,245.490 139.392 C 245.315 139.285,245.173 139.365,245.173 139.572 C 245.173 139.778,244.973 139.947,244.730 139.947 C 244.276 139.948,242.338 141.466,242.338 141.821 C 242.338 141.929,241.900 142.478,241.364 143.040 C 239.733 144.752,239.315 145.400,239.247 146.324 C 239.211 146.811,238.856 147.475,238.457 147.798 C 237.941 148.217,237.733 148.804,237.733 149.835 C 237.733 150.632,237.573 151.284,237.378 151.284 C 237.162 151.284,237.024 152.931,237.024 155.515 C 237.024 157.953,237.174 159.838,237.378 159.965 C 237.573 160.085,237.733 160.639,237.733 161.196 C 237.733 161.753,237.912 162.268,238.131 162.341 C 238.350 162.414,238.530 162.911,238.530 163.445 C 238.530 164.030,238.792 164.556,239.190 164.769 C 239.554 164.964,239.834 165.238,239.813 165.378 C 239.664 166.369,239.944 166.876,240.655 166.901 C 241.094 166.917,241.261 167.007,241.027 167.102 C 240.499 167.317,244.616 171.479,245.356 171.479 C 245.645 171.479,245.881 171.648,245.881 171.854 C 245.881 172.061,246.042 172.130,246.238 172.009 C 246.434 171.888,246.691 172.038,246.807 172.342 C 246.924 172.647,247.322 172.896,247.691 172.896 C 248.060 172.896,248.361 173.056,248.361 173.251 C 248.361 173.446,248.771 173.605,249.272 173.605 C 249.774 173.605,250.424 173.846,250.718 174.140 C 251.012 174.434,251.383 174.594,251.541 174.496 C 251.700 174.398,251.922 174.556,252.033 174.847 C 252.145 175.138,252.560 175.376,252.956 175.376 C 253.352 175.376,253.676 175.536,253.676 175.731 C 253.676 175.926,253.917 176.085,254.212 176.085 C 254.507 176.085,255.025 176.226,255.364 176.398 C 255.702 176.570,256.457 176.908,257.042 177.148 C 257.626 177.388,258.381 177.726,258.720 177.898 C 259.058 178.070,259.576 178.211,259.871 178.211 C 260.166 178.211,260.407 178.370,260.407 178.565 C 260.407 178.760,260.717 178.919,261.095 178.919 C 261.473 178.919,261.881 179.079,262.002 179.274 C 262.122 179.469,262.593 179.628,263.048 179.628 C 263.502 179.628,263.973 179.884,264.093 180.196 C 264.220 180.528,264.536 180.678,264.853 180.556 C 265.159 180.439,265.482 180.577,265.596 180.874 C 265.707 181.163,266.099 181.399,266.468 181.399 C 266.837 181.399,267.139 181.559,267.139 181.754 C 267.139 181.949,267.519 182.108,267.984 182.108 C 268.449 182.108,269.275 182.339,269.819 182.621 C 270.363 182.904,270.939 183.054,271.099 182.955 C 271.260 182.856,271.391 182.944,271.391 183.150 C 271.391 183.356,271.630 183.525,271.922 183.525 C 272.214 183.525,272.456 183.725,272.459 183.968 C 272.463 184.316,272.524 184.317,272.741 183.976 C 272.944 183.656,273.151 183.727,273.522 184.242 C 273.800 184.627,274.381 184.942,274.814 184.942 C 275.246 184.942,275.699 185.102,275.819 185.297 C 275.940 185.492,276.507 185.651,277.080 185.651 C 277.770 185.651,278.122 185.831,278.122 186.182 C 278.122 186.478,278.437 186.714,278.831 186.714 C 279.221 186.714,279.539 186.883,279.539 187.089 C 279.539 187.295,279.681 187.377,279.854 187.270 C 280.026 187.163,280.365 187.313,280.606 187.604 C 280.846 187.894,281.333 188.131,281.688 188.131 C 282.042 188.131,282.437 188.301,282.566 188.510 C 282.694 188.718,283.018 188.804,283.285 188.702 C 283.552 188.599,284.003 188.748,284.287 189.032 C 284.571 189.316,285.054 189.548,285.360 189.548 C 285.666 189.548,285.917 189.708,285.917 189.903 C 285.917 190.097,286.236 190.257,286.625 190.257 C 287.015 190.257,287.334 190.416,287.334 190.611 C 287.334 190.806,287.780 190.965,288.326 190.965 C 289.372 190.965,291.224 191.684,291.228 192.091 C 291.230 192.223,291.709 192.569,292.294 192.861 C 292.879 193.153,293.357 193.238,293.357 193.050 C 293.357 192.863,293.706 193.034,294.132 193.432 C 294.559 193.829,295.189 194.154,295.533 194.154 C 296.354 194.154,297.963 194.895,297.963 195.274 C 297.963 195.437,298.371 195.571,298.869 195.571 C 299.500 195.571,299.695 195.706,299.510 196.014 C 299.300 196.364,299.356 196.367,299.775 196.028 C 300.204 195.680,300.402 195.731,300.807 196.293 C 301.088 196.684,301.720 196.988,302.249 196.988 C 302.767 196.988,303.367 197.201,303.583 197.462 C 304.215 198.223,307.818 199.891,309.108 200.019 C 309.490 200.057,309.862 200.267,309.935 200.487 C 310.008 200.706,310.373 200.886,310.747 200.886 C 311.120 200.886,311.426 201.045,311.426 201.240 C 311.426 201.435,311.874 201.594,312.422 201.594 C 312.970 201.594,313.760 201.913,314.179 202.303 C 314.597 202.693,315.254 203.012,315.637 203.012 C 316.021 203.012,316.552 203.211,316.817 203.454 C 317.571 204.147,318.804 204.783,319.393 204.783 C 319.688 204.783,319.929 204.942,319.929 205.137 C 319.929 205.332,320.239 205.492,320.617 205.492 C 320.995 205.492,321.403 205.651,321.523 205.846 C 321.644 206.041,322.132 206.200,322.607 206.200 C 323.083 206.200,323.472 206.360,323.472 206.554 C 323.472 206.749,324.100 206.909,324.868 206.909 C 325.636 206.909,326.359 207.062,326.475 207.249 C 326.747 207.689,332.955 207.684,333.227 207.244 C 333.341 207.059,334.063 206.909,334.830 206.909 C 335.598 206.909,336.227 206.749,336.227 206.554 C 336.227 206.360,336.468 206.200,336.763 206.200 C 337.345 206.200,338.519 205.607,339.504 204.817 C 339.845 204.543,340.126 204.463,340.128 204.640 C 340.130 204.816,340.830 204.203,341.684 203.277 C 342.537 202.352,343.492 201.594,343.806 201.594 C 344.119 201.594,344.376 201.460,344.376 201.295 C 344.376 201.131,344.765 200.543,345.241 199.989 C 345.717 199.435,346.033 198.863,345.944 198.718 C 345.854 198.573,345.933 198.361,346.119 198.246 C 346.559 197.974,347.564 195.953,347.564 195.340 C 347.564 195.077,347.705 194.863,347.877 194.863 C 348.049 194.863,348.199 194.188,348.210 193.364 C 348.221 192.540,348.400 191.809,348.606 191.740 C 349.123 191.568,349.081 190.611,348.556 190.611 C 348.226 190.611,348.226 190.517,348.556 190.186 C 349.099 189.644,349.122 186.714,348.584 186.714 C 348.325 186.714,348.356 186.508,348.672 186.125 C 349.051 185.666,349.061 185.503,348.716 185.387 C 348.462 185.301,348.273 184.644,348.273 183.850 C 348.273 183.087,348.147 182.462,347.994 182.462 C 347.840 182.462,347.676 181.944,347.628 181.311 C 347.581 180.678,347.387 180.106,347.199 180.041 C 347.010 179.976,346.856 179.648,346.856 179.311 C 346.856 178.974,346.569 178.390,346.218 178.012 C 345.867 177.634,345.467 177.031,345.330 176.671 C 345.193 176.312,344.764 175.935,344.378 175.834 C 343.991 175.733,343.744 175.539,343.827 175.403 C 343.911 175.268,343.471 174.727,342.849 174.202 C 342.227 173.677,341.320 172.912,340.833 172.503 C 339.949 171.760,338.644 171.108,337.650 170.913 C 337.362 170.856,337.069 170.641,337.001 170.436 C 336.932 170.230,336.571 170.062,336.197 170.062 C 335.824 170.062,335.518 169.903,335.518 169.708 C 335.518 169.513,334.960 169.353,334.278 169.353 C 333.596 169.353,333.038 169.194,333.038 168.999 C 333.038 168.804,332.818 168.645,332.550 168.645 C 332.282 168.645,331.863 168.406,331.621 168.113 C 331.378 167.821,330.791 167.582,330.317 167.582 C 329.842 167.582,329.541 167.440,329.649 167.265 C 329.824 166.982,328.248 166.333,327.669 166.450 C 327.542 166.475,327.243 166.262,327.006 165.976 C 326.768 165.690,326.195 165.456,325.732 165.456 C 325.268 165.456,324.889 165.287,324.889 165.081 C 324.889 164.875,324.743 164.796,324.564 164.907 C 324.384 165.018,323.997 164.868,323.703 164.574 C 323.409 164.280,322.918 164.039,322.612 164.039 C 322.305 164.039,322.055 163.880,322.055 163.685 C 322.055 163.490,321.656 163.330,321.169 163.330 C 320.682 163.330,320.283 163.171,320.283 162.976 C 320.283 162.781,319.880 162.622,319.387 162.622 C 318.893 162.622,318.398 162.384,318.287 162.092 C 318.175 161.801,317.931 161.657,317.744 161.773 C 317.557 161.888,317.135 161.768,316.807 161.505 C 315.838 160.731,314.663 160.142,314.088 160.142 C 313.793 160.142,313.552 159.982,313.552 159.787 C 313.552 159.593,313.242 159.433,312.864 159.433 C 312.486 159.433,312.076 159.271,311.954 159.073 C 311.832 158.875,311.601 158.794,311.442 158.892 C 311.282 158.990,310.955 158.834,310.714 158.543 C 310.473 158.253,309.986 158.016,309.632 158.016 C 309.278 158.016,308.889 157.857,308.769 157.662 C 308.648 157.467,308.161 157.307,307.685 157.307 C 307.209 157.307,306.820 157.148,306.820 156.953 C 306.820 156.758,306.501 156.599,306.112 156.599 C 305.722 156.599,305.403 156.435,305.403 156.236 C 305.403 155.804,303.664 155.032,302.961 155.152 C 302.689 155.198,302.344 155.036,302.193 154.792 C 302.042 154.548,301.546 154.292,301.092 154.223 C 300.638 154.154,300.213 153.943,300.148 153.754 C 300.083 153.565,299.724 153.410,299.350 153.410 C 298.977 153.410,298.671 153.251,298.671 153.056 C 298.671 152.861,298.362 152.702,297.984 152.702 C 297.605 152.702,297.197 152.542,297.077 152.347 C 296.957 152.152,296.549 151.993,296.170 151.993 C 295.792 151.993,295.483 151.833,295.483 151.639 C 295.483 151.444,295.274 151.284,295.018 151.284 C 294.762 151.284,293.845 150.935,292.981 150.508 C 292.116 150.082,291.185 149.694,290.912 149.646 C 290.640 149.599,290.299 149.369,290.155 149.137 C 290.011 148.904,289.734 148.812,289.539 148.932 C 289.345 149.052,288.990 148.915,288.751 148.627 C 288.512 148.339,288.193 148.180,288.043 148.273 C 287.892 148.366,287.571 148.205,287.331 147.915 C 287.090 147.624,286.514 147.387,286.051 147.387 C 285.587 147.387,285.208 147.228,285.208 147.033 C 285.208 146.838,284.810 146.678,284.322 146.678 C 283.835 146.678,283.437 146.519,283.437 146.324 C 283.437 146.129,283.068 145.970,282.618 145.970 C 282.167 145.970,281.448 145.643,281.019 145.243 C 280.590 144.844,280.081 144.614,279.889 144.733 C 279.697 144.852,279.539 144.785,279.539 144.585 C 279.539 144.384,279.274 144.322,278.950 144.447 C 278.580 144.589,278.447 144.532,278.594 144.296 C 278.852 143.878,278.089 143.490,277.009 143.490 C 276.565 143.490,276.403 143.338,276.565 143.075 C 276.739 142.795,276.626 142.736,276.218 142.892 C 275.845 143.036,275.539 142.924,275.414 142.598 C 275.303 142.309,274.942 142.073,274.612 142.073 C 274.282 142.073,273.798 141.873,273.535 141.630 C 273.154 141.275,273.108 141.275,273.308 141.630 C 273.717 142.353,273.008 142.133,272.453 141.364 C 272.173 140.974,271.659 140.655,271.312 140.655 C 270.966 140.655,270.682 140.496,270.682 140.301 C 270.682 140.106,270.204 139.947,269.619 139.947 C 269.035 139.947,268.556 139.787,268.556 139.593 C 268.556 139.398,268.306 139.238,267.999 139.238 C 267.693 139.238,267.194 138.990,266.891 138.686 C 266.587 138.383,266.131 138.215,265.876 138.312 C 265.622 138.410,265.363 138.338,265.301 138.152 C 265.239 137.966,264.791 137.738,264.305 137.644 C 263.819 137.550,263.368 137.313,263.302 137.116 C 263.236 136.919,262.651 136.758,262.002 136.758 C 261.352 136.758,260.748 136.559,260.658 136.315 C 260.528 135.961,260.402 135.961,260.027 136.315 C 259.768 136.559,259.390 136.756,259.185 136.753 C 258.981 136.750,259.052 136.596,259.345 136.410 C 259.701 136.184,258.742 136.076,256.430 136.082 C 254.534 136.087,252.891 136.241,252.777 136.425 M182.973 138.696 C 182.595 138.982,182.454 139.221,182.660 139.227 C 182.867 139.233,183.345 139.004,183.723 138.718 C 184.102 138.432,184.242 138.193,184.036 138.187 C 183.829 138.180,183.351 138.409,182.973 138.696 M174.491 139.593 C 175.550 140.048,176.435 140.048,175.731 139.593 C 175.438 139.404,174.880 139.258,174.491 139.269 L 173.782 139.288 174.491 139.593 M177.148 139.593 L 176.262 139.876 177.236 139.912 C 177.772 139.931,178.211 139.787,178.211 139.593 C 178.211 139.398,178.171 139.254,178.122 139.274 C 178.074 139.293,177.635 139.437,177.148 139.593 M179.274 139.593 C 178.569 140.048,179.455 140.048,180.514 139.593 L 181.222 139.288 180.514 139.269 C 180.124 139.258,179.566 139.404,179.274 139.593 M117.981 146.856 C 117.981 147.148,118.140 147.387,118.335 147.387 C 118.530 147.387,118.689 147.148,118.689 146.856 C 118.689 146.563,118.530 146.324,118.335 146.324 C 118.140 146.324,117.981 146.563,117.981 146.856 M65.899 147.741 C 65.531 147.979,66.186 148.079,68.025 148.065 C 69.834 148.052,70.456 147.949,69.973 147.741 C 69.001 147.323,66.546 147.323,65.899 147.741 M62.356 148.450 C 62.356 148.645,62.595 148.804,62.888 148.804 C 63.180 148.804,63.419 148.645,63.419 148.450 C 63.419 148.255,63.180 148.096,62.888 148.096 C 62.595 148.096,62.356 148.255,62.356 148.450 M60.230 149.159 C 59.758 149.464,59.758 149.502,60.230 149.502 C 60.523 149.502,61.001 149.347,61.293 149.159 C 61.766 148.853,61.766 148.815,61.293 148.815 C 61.001 148.815,60.523 148.970,60.230 149.159 M77.009 150.044 C 77.301 150.337,77.751 150.571,78.008 150.564 C 78.302 150.557,78.220 150.359,77.789 150.033 C 76.890 149.353,76.326 149.361,77.009 150.044 M154.339 150.514 C 154.182 150.967,154.148 151.432,154.263 151.547 C 154.631 151.914,154.889 151.373,154.754 150.518 L 154.624 149.690 154.339 150.514 M56.740 151.144 C 56.094 151.874,56.510 152.221,57.202 151.529 C 57.503 151.227,57.750 150.890,57.750 150.778 C 57.750 150.406,57.224 150.597,56.740 151.144 M52.298 155.702 C 51.975 156.195,51.836 156.599,51.988 156.599 C 52.333 156.599,53.250 155.169,53.040 154.959 C 52.955 154.874,52.622 155.209,52.298 155.702 M123.009 157.993 C 123.244 158.370,123.566 158.599,123.723 158.502 C 123.880 158.405,123.780 158.096,123.500 157.816 C 122.774 157.091,122.505 157.187,123.009 157.993 M49.505 161.064 C 49.363 161.206,49.252 161.655,49.258 162.061 C 49.268 162.742,49.297 162.750,49.637 162.166 C 50.034 161.485,49.932 160.638,49.505 161.064 M139.770 164.393 C 139.649 164.588,139.790 164.748,140.082 164.748 C 140.374 164.748,140.712 164.588,140.833 164.393 C 140.953 164.198,140.812 164.039,140.520 164.039 C 140.228 164.039,139.890 164.198,139.770 164.393 M48.775 165.692 C 48.406 166.061,48.498 168.224,48.893 168.468 C 49.109 168.601,49.247 168.058,49.247 167.071 C 49.247 165.429,49.194 165.273,48.775 165.692 M52.436 178.413 C 52.436 178.678,53.388 179.628,53.654 179.628 C 53.767 179.628,53.660 179.309,53.416 178.919 C 53.001 178.254,52.436 177.963,52.436 178.413 M54.816 181.053 C 55.443 181.711,56.016 182.177,56.089 182.090 C 56.163 182.002,55.650 181.464,54.949 180.894 L 53.676 179.857 54.816 181.053 M258.813 191.218 C 258.423 191.312,257.953 191.532,257.768 191.708 C 257.583 191.884,256.746 192.028,255.908 192.028 C 255.070 192.028,254.384 192.188,254.384 192.383 C 254.384 192.578,253.986 192.737,253.499 192.737 C 253.012 192.737,252.613 192.896,252.613 193.091 C 252.613 193.286,252.329 193.446,251.983 193.446 C 251.636 193.446,251.122 193.764,250.841 194.154 C 250.561 194.544,250.047 194.863,249.700 194.863 C 249.348 194.863,249.070 195.123,249.070 195.453 C 249.070 195.778,248.967 195.940,248.840 195.814 C 248.503 195.477,247.273 197.016,247.538 197.443 C 247.671 197.659,247.587 197.698,247.330 197.539 C 246.790 197.205,245.908 198.309,245.893 199.339 C 245.886 199.806,245.594 200.170,245.127 200.292 C 244.614 200.426,244.442 200.671,244.589 201.055 C 244.717 201.388,244.590 201.704,244.281 201.823 C 243.984 201.937,243.756 202.470,243.756 203.049 C 243.756 203.613,243.596 204.074,243.401 204.074 C 243.183 204.074,243.047 205.907,243.047 208.862 C 243.047 213.477,243.287 214.760,244.287 215.495 C 244.497 215.649,244.432 215.758,244.128 215.761 C 243.728 215.765,243.708 215.861,244.039 216.191 C 244.273 216.425,244.464 217.053,244.464 217.588 C 244.464 218.122,244.624 218.657,244.818 218.778 C 245.013 218.898,245.173 219.376,245.173 219.841 C 245.173 220.305,245.332 220.783,245.527 220.903 C 245.722 221.024,245.881 221.517,245.881 222.000 C 245.881 222.482,246.127 223.251,246.426 223.709 C 246.726 224.167,246.940 224.679,246.902 224.848 C 246.816 225.225,247.188 226.263,247.858 227.513 C 248.135 228.030,248.361 228.707,248.361 229.018 C 248.361 229.329,248.488 229.584,248.643 229.584 C 248.798 229.584,248.965 230.182,249.013 230.912 C 249.061 231.643,249.253 232.294,249.440 232.359 C 249.626 232.424,249.779 232.751,249.779 233.085 C 249.779 233.420,249.978 233.908,250.221 234.171 C 250.581 234.558,250.565 234.595,250.133 234.367 C 249.701 234.138,249.684 234.175,250.044 234.563 C 250.288 234.825,250.487 235.646,250.487 236.386 C 250.487 237.127,250.647 237.733,250.841 237.733 C 251.036 237.733,251.196 238.211,251.196 238.795 C 251.196 239.380,251.355 239.858,251.550 239.858 C 251.745 239.858,251.904 240.239,251.904 240.704 C 251.904 241.168,252.131 241.985,252.408 242.519 C 252.685 243.053,252.827 243.709,252.724 243.977 C 252.621 244.245,252.753 244.464,253.018 244.465 C 253.314 244.465,253.515 244.902,253.540 245.601 C 253.563 246.225,253.762 246.796,253.983 246.869 C 254.204 246.943,254.384 247.468,254.384 248.037 C 254.384 248.605,254.544 249.070,254.739 249.070 C 254.934 249.070,255.093 249.628,255.093 250.310 C 255.093 250.992,255.252 251.550,255.447 251.550 C 255.642 251.550,255.802 252.015,255.802 252.583 C 255.802 253.152,255.947 253.670,256.124 253.735 C 256.301 253.800,256.532 254.331,256.638 254.916 C 256.919 256.479,258.038 259.451,258.547 259.990 C 258.791 260.247,258.990 260.606,258.990 260.787 C 258.990 260.968,259.164 261.116,259.376 261.116 C 259.852 261.116,261.088 262.556,261.104 263.129 C 261.111 263.360,261.435 263.650,261.825 263.773 C 262.214 263.897,262.533 264.213,262.533 264.476 C 262.533 264.739,263.012 265.166,263.596 265.424 C 264.181 265.683,264.659 266.015,264.659 266.163 C 264.659 266.310,265.137 266.430,265.722 266.430 C 266.306 266.430,266.785 266.590,266.785 266.785 C 266.785 266.980,267.024 267.139,267.316 267.139 C 267.609 267.139,267.848 267.298,267.848 267.493 C 267.848 267.688,268.552 267.848,269.412 267.848 C 270.330 267.848,271.037 268.027,271.122 268.281 C 271.219 268.572,272.156 268.714,273.978 268.714 C 275.642 268.714,276.857 268.546,277.122 268.281 C 277.360 268.043,278.161 267.848,278.902 267.848 C 279.642 267.848,280.248 267.688,280.248 267.493 C 280.248 267.298,280.647 267.139,281.134 267.139 C 281.621 267.139,282.019 266.980,282.019 266.785 C 282.019 266.590,282.338 266.430,282.728 266.430 C 283.118 266.430,283.437 266.298,283.437 266.136 C 283.437 265.974,283.830 265.631,284.310 265.374 C 284.791 265.117,285.084 264.731,284.962 264.517 C 284.840 264.303,284.866 264.242,285.021 264.381 C 285.405 264.728,286.696 263.997,286.437 263.578 C 286.323 263.393,286.409 263.242,286.630 263.242 C 287.117 263.242,288.043 262.358,288.043 261.892 C 288.043 261.706,288.538 261.070,289.144 260.478 C 289.851 259.787,290.148 259.232,289.973 258.930 C 289.823 258.671,289.831 258.577,289.991 258.722 C 290.368 259.064,291.341 257.683,291.052 257.215 C 290.931 257.019,291.081 256.610,291.386 256.305 C 291.690 256.000,291.940 255.373,291.940 254.911 C 291.940 254.450,292.099 253.973,292.294 253.853 C 292.826 253.524,292.747 248.814,292.205 248.596 C 291.851 248.453,291.851 248.412,292.205 248.389 C 292.823 248.350,292.758 247.087,292.086 246.062 C 291.777 245.590,291.628 245.036,291.755 244.831 C 291.881 244.626,291.734 244.208,291.428 243.901 C 291.121 243.595,290.970 243.182,291.093 242.985 C 291.215 242.787,291.149 242.282,290.946 241.862 C 290.743 241.442,290.300 240.301,289.960 239.327 C 289.620 238.353,289.209 237.404,289.047 237.219 C 288.884 237.034,288.751 236.525,288.751 236.088 C 288.751 235.652,288.592 235.196,288.397 235.075 C 288.202 234.955,288.043 234.387,288.043 233.814 C 288.043 233.241,287.883 232.772,287.688 232.772 C 287.493 232.772,287.334 232.383,287.334 231.908 C 287.334 231.432,287.174 230.944,286.980 230.824 C 286.785 230.703,286.625 230.216,286.625 229.740 C 286.625 229.264,286.466 228.875,286.271 228.875 C 286.076 228.875,285.917 228.397,285.917 227.812 C 285.917 227.228,285.757 226.749,285.562 226.749 C 285.368 226.749,285.208 226.430,285.208 226.041 C 285.208 225.651,285.009 225.330,284.765 225.327 C 284.439 225.323,284.449 225.241,284.803 225.017 C 285.138 224.804,285.165 224.639,284.892 224.470 C 284.676 224.337,284.500 223.929,284.500 223.565 C 284.500 223.201,284.300 222.692,284.057 222.435 C 283.813 222.177,283.584 221.526,283.547 220.988 C 283.510 220.450,283.237 219.768,282.942 219.472 C 282.646 219.176,282.500 218.684,282.618 218.377 C 282.735 218.071,282.641 217.703,282.408 217.559 C 282.175 217.415,281.958 216.913,281.926 216.443 C 281.894 215.973,281.672 215.388,281.433 215.142 C 281.194 214.896,281.059 214.381,281.133 213.998 C 281.207 213.615,281.118 213.209,280.935 213.095 C 280.752 212.982,280.602 212.578,280.602 212.197 C 280.602 211.505,280.502 211.247,279.412 209.155 C 279.091 208.539,278.926 207.782,279.045 207.472 C 279.164 207.162,279.084 206.909,278.869 206.909 C 278.653 206.909,278.477 206.505,278.477 206.012 C 278.477 205.519,278.237 205.023,277.945 204.911 C 277.617 204.785,277.414 204.247,277.414 203.505 C 277.414 202.844,277.254 202.303,277.059 202.303 C 276.864 202.303,276.705 201.984,276.705 201.594 C 276.705 201.205,276.546 200.886,276.351 200.886 C 276.156 200.886,275.996 200.602,275.996 200.255 C 275.996 199.909,275.678 199.395,275.288 199.114 C 274.898 198.833,274.579 198.418,274.579 198.192 C 274.579 197.966,273.923 197.124,273.120 196.322 C 272.318 195.519,271.476 194.863,271.250 194.863 C 271.024 194.863,270.609 194.544,270.328 194.154 C 270.047 193.764,269.543 193.446,269.208 193.446 C 268.872 193.446,268.500 193.286,268.379 193.091 C 268.259 192.896,267.780 192.737,267.316 192.737 C 266.852 192.737,266.374 192.578,266.253 192.383 C 266.133 192.188,265.446 192.023,264.727 192.016 C 264.007 192.009,263.020 191.775,262.533 191.497 C 261.658 190.997,260.191 190.887,258.813 191.218 M76.528 191.990 C 76.528 192.164,76.780 192.404,77.088 192.522 C 77.955 192.855,78.041 192.782,77.464 192.205 C 76.862 191.603,76.528 191.526,76.528 191.990 M115.302 209.577 C 115.681 209.863,116.150 210.097,116.344 210.097 C 116.539 210.097,116.389 209.863,116.011 209.577 C 115.633 209.291,115.164 209.057,114.969 209.057 C 114.774 209.057,114.924 209.291,115.302 209.577 M155.944 212.804 C 155.292 213.486,154.844 214.129,154.948 214.234 C 155.132 214.418,156.263 213.389,157.262 212.128 C 158.130 211.033,157.164 211.528,155.944 212.804 M217.538 215.766 C 217.538 215.976,218.844 216.120,220.747 216.120 C 222.797 216.120,223.878 215.992,223.738 215.766 C 223.617 215.571,222.173 215.412,220.528 215.412 C 218.771 215.412,217.538 215.558,217.538 215.766 M214.526 216.475 C 214.406 216.670,214.546 216.829,214.839 216.829 C 215.131 216.829,215.469 216.670,215.589 216.475 C 215.709 216.280,215.569 216.120,215.277 216.120 C 214.984 216.120,214.647 216.280,214.526 216.475 M225.461 216.367 C 225.843 216.750,226.749 216.804,226.749 216.443 C 226.749 216.266,226.404 216.120,225.982 216.120 C 225.559 216.120,225.325 216.231,225.461 216.367 M135.518 218.601 C 135.639 218.795,135.976 218.955,136.269 218.955 C 136.561 218.955,136.701 218.795,136.581 218.601 C 136.461 218.406,136.123 218.246,135.831 218.246 C 135.538 218.246,135.398 218.406,135.518 218.601 M140.390 219.209 C 140.926 219.290,141.802 219.290,142.338 219.209 C 142.874 219.127,142.436 219.061,141.364 219.061 C 140.292 219.061,139.854 219.127,140.390 219.209 M207.263 220.669 C 205.322 222.844,205.037 223.206,205.260 223.206 C 205.604 223.206,208.326 220.338,208.326 219.975 C 208.326 219.519,208.238 219.577,207.263 220.669 M233.835 220.929 C 233.835 221.305,234.930 222.229,235.134 222.025 C 235.246 221.914,235.090 221.576,234.788 221.275 C 234.226 220.712,233.835 220.570,233.835 220.929 M163.330 221.789 C 163.330 221.984,163.809 222.143,164.393 222.143 C 164.978 222.143,165.456 221.984,165.456 221.789 C 165.456 221.594,164.978 221.435,164.393 221.435 C 163.809 221.435,163.330 221.594,163.330 221.789 M168.343 221.829 C 168.998 222.244,171.125 222.224,171.125 221.802 C 171.125 221.614,170.391 221.475,169.495 221.493 C 168.445 221.515,168.035 221.634,168.343 221.829 M203.719 225.157 C 203.267 226.035,202.965 226.821,203.048 226.904 C 203.130 226.986,203.617 226.268,204.129 225.307 C 204.641 224.347,204.943 223.561,204.800 223.561 C 204.657 223.561,204.171 224.279,203.719 225.157 M149.336 226.041 C 149.215 226.236,149.445 226.395,149.846 226.395 C 150.247 226.395,150.576 226.236,150.576 226.041 C 150.576 225.846,150.346 225.686,150.065 225.686 C 149.784 225.686,149.456 225.846,149.336 226.041 M147.119 226.630 C 146.874 226.729,146.764 226.956,146.874 227.134 C 147.175 227.621,147.640 227.524,147.869 226.926 C 148.078 226.383,147.904 226.314,147.119 226.630 M180.151 227.677 C 180.466 227.993,180.832 228.144,180.963 228.012 C 181.094 227.881,180.967 227.625,180.681 227.444 C 179.844 226.915,179.528 227.054,180.151 227.677 M202.019 228.946 C 201.520 229.446,201.464 229.938,201.907 229.938 C 202.079 229.938,202.304 229.619,202.406 229.229 C 202.622 228.402,202.588 228.378,202.019 228.946 M239.150 230.647 C 239.150 231.308,239.244 231.402,239.575 231.072 C 239.906 230.741,239.906 230.552,239.575 230.221 C 239.244 229.891,239.150 229.985,239.150 230.647 M126.129 233.835 C 125.700 234.113,125.750 234.180,126.395 234.184 C 126.833 234.187,127.192 234.030,127.192 233.835 C 127.192 233.391,126.816 233.391,126.129 233.835 M199.486 234.701 C 199.244 234.991,199.129 235.433,199.230 235.683 C 199.350 235.981,199.422 235.934,199.441 235.548 C 199.456 235.223,199.668 234.886,199.911 234.799 C 200.155 234.712,200.257 234.535,200.139 234.407 C 200.021 234.278,199.727 234.410,199.486 234.701 M184.234 235.628 C 184.234 236.029,184.393 236.259,184.588 236.138 C 184.783 236.018,184.942 235.689,184.942 235.409 C 184.942 235.128,184.783 234.898,184.588 234.898 C 184.393 234.898,184.234 235.226,184.234 235.628 M114.647 238.406 C 114.161 238.942,114.132 239.134,114.503 239.348 C 114.759 239.496,114.852 239.489,114.710 239.331 C 114.567 239.173,114.791 238.749,115.207 238.388 C 115.623 238.028,115.804 237.733,115.610 237.733 C 115.415 237.733,114.982 238.036,114.647 238.406 M110.905 242.325 C 110.618 242.506,110.491 242.761,110.622 242.893 C 110.753 243.024,111.119 242.873,111.434 242.558 C 112.058 241.934,111.742 241.795,110.905 242.325 M108.319 247.867 C 108.176 248.009,108.065 248.457,108.071 248.863 C 108.081 249.545,108.110 249.553,108.450 248.968 C 108.847 248.287,108.745 247.440,108.319 247.867 M181.956 248.564 C 181.265 249.255,181.249 249.460,181.904 249.209 C 182.181 249.102,182.495 248.788,182.601 248.511 C 182.852 247.856,182.647 247.873,181.956 248.564 M179.327 252.118 C 179.063 252.416,178.918 252.730,179.004 252.816 C 179.090 252.901,179.449 252.652,179.803 252.261 C 180.157 251.870,180.302 251.556,180.126 251.564 C 179.949 251.571,179.590 251.821,179.327 252.118 M172.117 256.227 C 172.448 256.557,172.637 256.557,172.967 256.227 C 173.298 255.896,173.203 255.802,172.542 255.802 C 171.881 255.802,171.786 255.896,172.117 256.227 M108.060 257.021 C 108.060 257.519,108.220 257.927,108.415 257.927 C 108.609 257.927,108.769 257.618,108.769 257.240 C 108.769 256.861,108.609 256.453,108.415 256.333 C 108.214 256.209,108.060 256.507,108.060 257.021 M170.416 256.864 C 170.416 257.059,170.151 257.219,169.826 257.219 C 169.501 257.219,169.330 257.313,169.445 257.428 C 169.740 257.724,171.125 257.240,171.125 256.841 C 171.125 256.659,170.965 256.510,170.771 256.510 C 170.576 256.510,170.416 256.670,170.416 256.864 M167.582 257.927 C 167.582 258.371,167.958 258.371,168.645 257.927 C 169.075 257.650,169.024 257.583,168.379 257.578 C 167.941 257.576,167.582 257.733,167.582 257.927 M151.993 263.094 C 151.163 263.555,151.154 263.586,151.861 263.591 C 152.276 263.594,152.813 263.357,153.056 263.065 C 153.590 262.421,153.186 262.432,151.993 263.094 M112.181 264.553 C 112.072 264.663,112.720 265.449,113.622 266.301 C 115.755 268.317,116.049 268.023,113.974 265.949 C 113.098 265.072,112.291 264.444,112.181 264.553 M147.741 264.659 C 147.741 264.854,147.971 265.013,148.252 265.013 C 148.533 265.013,148.861 264.854,148.981 264.659 C 149.102 264.464,148.872 264.305,148.471 264.305 C 148.070 264.305,147.741 264.464,147.741 264.659 M185.536 266.058 C 185.208 266.716,184.998 267.313,185.070 267.385 C 185.309 267.623,186.407 265.686,186.268 265.271 C 186.193 265.046,185.864 265.401,185.536 266.058 M136.921 268.226 C 136.535 268.850,136.942 268.938,137.670 268.387 C 138.269 267.933,138.279 267.869,137.753 267.859 C 137.424 267.853,137.049 268.018,136.921 268.226 M130.204 270.682 C 130.083 270.877,130.224 271.036,130.516 271.036 C 130.808 271.036,131.146 270.877,131.267 270.682 C 131.387 270.487,131.246 270.328,130.954 270.328 C 130.662 270.328,130.324 270.487,130.204 270.682 M221.339 280.462 C 221.197 280.604,221.081 280.965,221.081 281.264 C 221.081 281.662,221.185 281.702,221.475 281.413 C 221.692 281.196,221.808 280.835,221.733 280.611 C 221.658 280.387,221.481 280.320,221.339 280.462 M217.626 288.949 C 217.104 289.515,217.061 289.814,217.500 289.814 C 217.802 289.814,218.368 288.748,218.166 288.559 C 218.113 288.509,217.870 288.685,217.626 288.949 M174.572 290.737 C 174.430 290.879,174.314 291.239,174.314 291.538 C 174.314 291.937,174.418 291.977,174.708 291.687 C 174.924 291.471,175.041 291.110,174.966 290.886 C 174.891 290.662,174.714 290.595,174.572 290.737 M169.369 303.231 C 169.102 304.038,168.990 304.803,169.119 304.932 C 169.248 305.061,169.373 304.981,169.398 304.753 C 169.456 304.206,169.539 303.927,169.860 303.200 C 170.008 302.866,170.067 302.406,169.991 302.178 C 169.915 301.950,169.635 302.424,169.369 303.231 M169.816 315.441 C 169.951 315.798,170.062 316.236,170.062 316.415 C 170.062 316.594,170.221 316.740,170.416 316.740 C 170.963 316.740,170.836 316.047,170.170 315.387 C 169.608 314.830,169.586 314.833,169.816 315.441 M205.352 315.884 C 205.067 316.627,205.080 316.740,205.450 316.740 C 205.622 316.740,205.847 316.422,205.949 316.032 C 206.167 315.195,205.665 315.070,205.352 315.884 M173.961 321.630 C 173.959 322.217,176.372 324.721,176.661 324.431 C 176.780 324.312,176.639 323.975,176.347 323.683 C 176.054 323.391,175.725 323.242,175.615 323.352 C 175.505 323.462,175.088 323.016,174.688 322.361 C 174.289 321.705,173.961 321.376,173.961 321.630 M199.671 323.675 C 199.296 323.949,199.089 324.274,199.212 324.396 C 199.334 324.519,199.701 324.354,200.025 324.029 C 200.789 323.265,200.553 323.030,199.671 323.675 M186.005 327.724 C 186.005 327.919,186.793 328.078,187.756 328.078 C 188.719 328.078,189.605 327.919,189.725 327.724 C 189.861 327.504,189.198 327.369,187.975 327.369 C 186.892 327.369,186.005 327.529,186.005 327.724 " stroke="none" fill="#4c8cf4" fill-rule="evenodd"></path><path id="path4" d="M205.846 27.969 C 205.846 28.175,205.314 28.344,204.665 28.344 C 204.015 28.344,203.373 28.455,203.237 28.590 C 203.102 28.726,202.720 28.876,202.388 28.925 C 202.056 28.974,201.728 29.182,201.660 29.387 C 201.591 29.593,201.230 29.761,200.856 29.761 C 200.483 29.761,200.177 29.893,200.177 30.055 C 200.177 30.217,199.739 30.567,199.203 30.833 C 198.103 31.380,195.571 33.834,195.571 34.355 C 195.571 34.543,195.271 34.857,194.903 35.053 C 194.536 35.250,194.135 35.814,194.011 36.306 C 193.887 36.798,193.630 37.201,193.439 37.201 C 193.248 37.201,193.091 37.350,193.091 37.532 C 193.091 37.714,192.906 38.312,192.680 38.861 C 192.453 39.409,192.294 39.978,192.325 40.124 C 192.357 40.270,192.223 40.390,192.028 40.390 C 191.833 40.390,191.674 40.788,191.674 41.275 C 191.674 41.763,191.515 42.161,191.320 42.161 C 191.125 42.161,190.965 42.471,190.965 42.849 C 190.965 43.227,190.806 43.635,190.611 43.756 C 190.416 43.876,190.257 44.284,190.257 44.662 C 190.257 45.040,190.097 45.350,189.903 45.350 C 189.708 45.350,189.548 45.724,189.548 46.181 C 189.548 46.638,189.229 47.300,188.840 47.653 C 188.447 48.008,188.131 48.744,188.131 49.302 C 188.131 49.962,187.948 50.310,187.600 50.310 C 187.307 50.310,187.068 50.619,187.068 50.998 C 187.068 51.376,186.909 51.784,186.714 51.904 C 186.519 52.025,186.360 52.522,186.360 53.009 C 186.360 53.509,186.205 53.799,186.005 53.676 C 185.673 53.470,185.494 54.178,185.625 55.182 C 185.656 55.425,185.516 55.624,185.312 55.624 C 185.109 55.624,184.942 55.943,184.942 56.333 C 184.942 56.723,184.783 57.042,184.588 57.042 C 184.393 57.042,184.234 57.440,184.234 57.927 C 184.234 58.415,184.074 58.813,183.880 58.813 C 183.685 58.813,183.525 59.119,183.525 59.492 C 183.525 59.866,183.367 60.224,183.174 60.289 C 182.981 60.354,182.788 60.835,182.745 61.357 C 182.701 61.879,182.501 62.277,182.299 62.242 C 182.096 62.207,181.973 62.437,182.024 62.752 C 182.075 63.067,181.876 63.525,181.581 63.769 C 181.286 64.014,181.045 64.523,181.045 64.900 C 181.045 65.278,180.886 65.488,180.691 65.368 C 180.479 65.236,180.334 65.690,180.331 66.498 C 180.327 67.500,180.237 67.711,179.982 67.316 C 179.715 66.902,179.638 67.000,179.633 67.759 C 179.630 68.295,179.469 68.733,179.274 68.733 C 179.079 68.733,178.919 69.050,178.919 69.438 C 178.919 69.825,178.649 70.458,178.319 70.844 C 177.988 71.230,177.660 71.989,177.588 72.531 C 177.517 73.073,177.309 73.570,177.126 73.634 C 176.943 73.699,176.794 74.218,176.794 74.786 C 176.794 75.438,176.610 75.819,176.295 75.819 C 175.972 75.819,175.862 76.067,175.982 76.528 C 176.111 77.021,175.993 77.236,175.595 77.236 C 175.264 77.236,175.022 77.527,175.022 77.924 C 175.022 78.302,174.863 78.710,174.668 78.831 C 174.473 78.951,174.314 79.359,174.314 79.737 C 174.314 80.116,174.154 80.425,173.959 80.425 C 173.764 80.425,173.605 80.646,173.605 80.916 C 173.605 81.186,173.374 81.852,173.092 82.396 C 172.809 82.941,172.659 83.517,172.758 83.677 C 172.857 83.837,172.769 83.968,172.563 83.968 C 172.357 83.968,172.188 84.207,172.188 84.500 C 172.188 84.792,172.028 85.031,171.833 85.031 C 171.639 85.031,171.498 85.151,171.521 85.297 C 171.660 86.174,171.426 87.166,171.125 86.980 C 170.919 86.853,170.771 87.200,170.771 87.807 C 170.771 88.450,170.547 88.938,170.188 89.076 C 169.868 89.199,169.701 89.394,169.817 89.510 C 169.933 89.626,169.817 89.933,169.559 90.191 C 169.300 90.449,168.874 91.387,168.612 92.274 C 168.350 93.162,168.011 93.888,167.859 93.888 C 167.707 93.888,167.582 94.198,167.582 94.576 C 167.582 94.954,167.422 95.362,167.228 95.483 C 167.033 95.603,166.873 96.100,166.873 96.587 C 166.873 97.088,166.719 97.378,166.519 97.254 C 166.324 97.134,166.165 97.350,166.165 97.735 C 166.165 98.120,166.015 98.488,165.832 98.553 C 165.649 98.618,165.443 99.104,165.373 99.632 C 165.304 100.161,165.134 100.706,164.997 100.843 C 164.860 100.980,164.748 101.385,164.748 101.742 C 164.748 102.099,164.588 102.391,164.393 102.391 C 164.198 102.391,164.039 102.693,164.039 103.062 C 164.039 103.431,163.800 103.825,163.508 103.937 C 163.215 104.049,162.976 104.385,162.976 104.683 C 162.976 104.982,162.817 105.226,162.622 105.226 C 162.427 105.226,162.267 105.513,162.267 105.864 C 162.267 106.214,162.068 106.716,161.825 106.978 C 161.465 107.366,161.481 107.403,161.913 107.174 C 162.345 106.946,162.362 106.983,162.002 107.371 C 161.758 107.633,161.559 108.135,161.559 108.485 C 161.559 108.836,161.399 109.123,161.205 109.123 C 161.010 109.123,160.850 109.451,160.850 109.853 C 160.850 110.254,160.691 110.484,160.496 110.363 C 160.285 110.233,160.142 110.655,160.142 111.405 C 160.142 112.099,159.982 112.666,159.787 112.666 C 159.593 112.666,159.433 113.144,159.433 113.729 C 159.433 114.314,159.274 114.792,159.079 114.792 C 158.860 114.792,158.725 116.681,158.725 119.752 C 158.725 122.823,158.860 124.712,159.079 124.712 C 159.274 124.712,159.433 125.159,159.433 125.704 C 159.433 126.250,159.592 126.855,159.785 127.048 C 159.979 127.242,160.172 127.821,160.215 128.334 C 160.257 128.847,160.418 129.189,160.571 129.094 C 160.725 128.999,160.850 129.260,160.850 129.672 C 160.850 130.085,161.010 130.324,161.205 130.204 C 161.399 130.083,161.559 130.313,161.559 130.714 C 161.559 131.115,161.718 131.444,161.913 131.444 C 162.108 131.444,162.267 131.772,162.267 132.173 C 162.267 132.600,162.424 132.806,162.646 132.669 C 162.854 132.540,163.111 132.768,163.217 133.176 C 163.324 133.583,163.552 133.829,163.725 133.722 C 163.898 133.615,164.039 133.776,164.039 134.080 C 164.039 134.384,164.288 134.632,164.591 134.632 C 164.895 134.632,165.045 134.792,164.925 134.987 C 164.804 135.182,164.999 135.341,165.357 135.341 C 165.715 135.341,166.238 135.660,166.519 136.050 C 166.800 136.439,167.313 136.758,167.660 136.758 C 168.007 136.758,168.291 136.918,168.291 137.112 C 168.291 137.307,168.689 137.467,169.176 137.467 C 169.663 137.467,170.062 137.626,170.062 137.821 C 170.062 138.016,170.540 138.175,171.125 138.175 C 171.833 138.175,172.188 138.353,172.188 138.707 C 172.188 139.115,172.640 139.238,174.136 139.238 C 175.208 139.238,176.085 139.387,176.085 139.568 C 176.085 139.764,176.507 139.776,177.128 139.598 C 177.842 139.393,178.220 139.429,178.324 139.711 C 178.437 140.018,178.597 140.010,178.946 139.681 C 179.204 139.438,180.033 139.238,180.787 139.238 C 181.541 139.238,182.398 138.999,182.690 138.707 C 182.982 138.415,183.609 138.175,184.082 138.175 C 184.555 138.175,184.942 138.016,184.942 137.821 C 184.942 137.626,185.362 137.467,185.875 137.467 C 186.388 137.467,187.097 137.133,187.451 136.726 C 187.804 136.318,188.261 136.088,188.467 136.215 C 188.672 136.342,188.840 136.197,188.840 135.893 C 188.840 135.577,189.143 135.341,189.548 135.341 C 189.938 135.341,190.258 135.221,190.259 135.075 C 190.259 134.929,190.738 134.300,191.321 133.677 C 191.905 133.055,192.383 132.361,192.383 132.137 C 192.383 131.912,192.878 131.266,193.483 130.700 C 194.088 130.135,194.396 129.672,194.166 129.672 C 193.879 129.672,193.900 129.521,194.234 129.188 C 194.500 128.921,194.943 128.004,195.219 127.151 C 195.494 126.297,195.805 125.518,195.911 125.421 C 196.329 125.035,196.988 123.629,196.988 123.123 C 196.988 122.828,197.148 122.586,197.343 122.586 C 197.538 122.586,197.697 122.197,197.697 121.722 C 197.697 121.246,197.857 120.758,198.051 120.638 C 198.246 120.517,198.406 120.020,198.406 119.533 C 198.406 119.033,198.560 118.743,198.760 118.866 C 198.964 118.992,199.117 118.662,199.120 118.090 C 199.124 117.317,199.202 117.214,199.469 117.626 C 199.774 118.099,199.819 118.099,199.871 117.626 C 199.904 117.334,199.952 116.935,199.978 116.740 C 200.072 116.040,201.064 114.083,201.327 114.083 C 201.474 114.083,201.594 113.596,201.594 112.999 C 201.594 112.367,201.742 112.007,201.949 112.135 C 202.150 112.259,202.303 111.961,202.303 111.447 C 202.303 110.948,202.462 110.540,202.657 110.540 C 202.852 110.540,203.012 110.142,203.012 109.655 C 203.012 109.167,203.171 108.769,203.366 108.769 C 203.561 108.769,203.720 108.459,203.720 108.081 C 203.720 107.703,203.880 107.295,204.074 107.174 C 204.269 107.054,204.429 106.635,204.429 106.243 C 204.429 105.850,204.669 105.289,204.963 104.995 C 205.257 104.701,205.396 104.296,205.272 104.095 C 205.148 103.894,205.255 103.601,205.510 103.443 C 205.765 103.286,206.016 102.868,206.067 102.515 C 206.119 102.162,206.330 101.817,206.535 101.748 C 206.741 101.680,206.911 101.199,206.914 100.679 C 206.918 99.939,206.994 99.849,207.263 100.266 C 207.523 100.668,207.608 100.512,207.612 99.625 C 207.615 98.980,207.743 98.530,207.896 98.625 C 208.050 98.720,208.211 98.371,208.254 97.849 C 208.297 97.327,208.490 96.847,208.683 96.782 C 208.876 96.717,209.035 96.358,209.035 95.985 C 209.035 95.611,209.194 95.306,209.389 95.306 C 209.584 95.306,209.724 95.186,209.701 95.040 C 209.564 94.170,209.790 93.521,210.152 93.745 C 210.384 93.889,210.466 93.843,210.341 93.641 C 210.219 93.445,210.349 92.982,210.629 92.612 C 210.909 92.242,211.143 91.661,211.149 91.320 C 211.155 90.979,211.360 90.697,211.603 90.694 C 211.935 90.690,211.927 90.614,211.573 90.389 C 211.193 90.148,211.210 90.048,211.662 89.874 C 211.971 89.756,212.223 89.286,212.223 88.829 C 212.223 88.373,212.542 87.657,212.932 87.238 C 213.322 86.820,213.640 86.232,213.640 85.932 C 213.640 85.631,213.800 85.385,213.995 85.385 C 214.190 85.385,214.349 84.818,214.349 84.124 C 214.349 83.374,214.492 82.952,214.703 83.082 C 214.898 83.203,215.058 82.971,215.058 82.567 C 215.058 81.858,215.181 81.519,216.065 79.810 C 216.290 79.374,216.475 78.835,216.475 78.611 C 216.475 78.388,216.818 77.908,217.238 77.544 C 217.657 77.180,217.805 76.882,217.567 76.882 C 217.256 76.882,217.275 76.740,217.634 76.381 C 217.910 76.105,218.333 75.348,218.575 74.698 C 218.816 74.048,219.160 73.240,219.339 72.901 C 219.517 72.563,219.663 72.045,219.663 71.750 C 219.663 71.455,219.791 71.213,219.947 71.213 C 220.311 71.213,221.081 69.092,221.081 68.088 C 221.081 67.664,221.240 67.316,221.435 67.316 C 221.630 67.316,221.789 66.997,221.789 66.608 C 221.789 66.218,221.949 65.899,222.143 65.899 C 222.338 65.899,222.498 65.590,222.498 65.211 C 222.498 64.833,222.657 64.425,222.852 64.305 C 223.047 64.184,223.206 63.776,223.206 63.398 C 223.206 63.020,223.446 62.710,223.738 62.710 C 224.030 62.710,224.250 62.591,224.227 62.445 C 224.090 61.574,224.316 60.926,224.678 61.150 C 224.921 61.300,224.992 61.248,224.852 61.022 C 224.723 60.813,224.858 60.401,225.152 60.107 C 225.446 59.813,225.686 59.153,225.686 58.640 C 225.686 58.019,225.825 57.794,226.101 57.965 C 226.371 58.131,226.444 58.035,226.311 57.689 C 226.129 57.213,226.568 55.885,227.490 54.123 C 227.667 53.785,227.812 53.178,227.812 52.774 C 227.812 52.370,227.972 52.138,228.167 52.259 C 228.385 52.394,228.521 51.790,228.521 50.685 C 228.521 49.490,228.668 48.891,228.964 48.887 C 229.264 48.884,229.235 48.761,228.875 48.506 C 228.475 48.223,228.453 48.086,228.787 47.951 C 229.319 47.735,229.402 44.287,228.875 44.287 C 228.680 44.287,228.521 44.118,228.521 43.912 C 228.521 43.705,228.680 43.635,228.875 43.756 C 229.070 43.876,229.229 43.806,229.229 43.599 C 229.229 43.393,229.070 43.224,228.875 43.224 C 228.680 43.224,228.521 42.497,228.521 41.609 C 228.521 40.622,228.383 40.079,228.167 40.213 C 227.966 40.336,227.812 40.046,227.812 39.546 C 227.812 39.059,227.653 38.562,227.458 38.441 C 227.263 38.321,227.104 37.824,227.104 37.336 C 227.104 36.836,226.949 36.546,226.749 36.670 C 226.554 36.790,226.395 36.568,226.395 36.177 C 226.395 35.785,226.116 35.302,225.775 35.104 C 225.434 34.905,225.282 34.738,225.437 34.732 C 225.801 34.718,224.039 32.950,223.661 32.950 C 223.503 32.950,223.075 32.551,222.709 32.064 C 222.344 31.577,221.863 31.178,221.641 31.178 C 221.419 31.178,221.007 30.859,220.726 30.469 C 220.445 30.080,219.852 29.761,219.408 29.761 C 218.964 29.761,218.601 29.601,218.601 29.407 C 218.601 29.212,218.282 29.052,217.892 29.052 C 217.502 29.052,217.183 28.910,217.183 28.737 C 217.183 28.247,214.922 27.929,210.186 27.755 C 207.271 27.647,205.846 27.718,205.846 27.969 M214.450 29.195 C 222.454 31.280,227.562 37.969,227.598 46.417 C 227.614 50.283,227.487 50.832,225.647 54.843 C 225.084 56.070,224.624 57.134,224.624 57.209 C 224.624 57.283,224.059 58.591,223.369 60.116 C 222.679 61.640,221.979 63.206,221.813 63.596 C 221.647 63.986,221.016 65.388,220.410 66.712 C 219.805 68.036,219.309 69.180,219.309 69.255 C 219.309 69.329,218.745 70.637,218.054 72.162 C 217.364 73.686,216.667 75.252,216.505 75.642 C 216.086 76.649,214.933 79.208,213.855 81.523 C 213.347 82.615,212.932 83.595,212.932 83.703 C 212.932 83.810,212.286 85.309,211.498 87.033 C 210.709 88.757,209.928 90.487,209.763 90.877 C 209.598 91.267,209.065 92.462,208.579 93.534 C 207.659 95.562,205.439 100.600,204.521 102.746 C 204.229 103.428,203.628 104.783,203.185 105.757 C 202.261 107.793,199.986 112.966,199.212 114.792 C 198.549 116.356,197.720 118.214,196.319 121.274 C 195.713 122.598,195.217 123.748,195.217 123.829 C 195.217 123.910,194.499 125.513,193.622 127.390 C 191.144 132.694,188.225 135.351,182.535 137.483 C 180.969 138.070,174.047 138.078,172.503 137.494 C 170.164 136.611,169.874 136.494,168.838 136.008 C 162.554 133.066,157.671 121.152,160.186 114.897 C 160.405 114.352,160.709 113.587,160.863 113.198 C 161.016 112.808,161.460 111.771,161.851 110.895 C 162.241 110.018,162.893 108.543,163.300 107.617 C 163.706 106.692,164.376 105.177,164.788 104.252 C 165.200 103.326,165.856 101.851,166.246 100.974 C 166.636 100.097,167.433 98.344,168.018 97.077 C 169.673 93.492,170.641 91.355,171.308 89.814 C 171.646 89.035,172.380 87.410,172.941 86.205 C 173.501 84.999,173.959 83.929,173.959 83.827 C 173.959 83.724,174.696 82.080,175.595 80.173 C 177.898 75.293,179.609 71.536,181.048 68.202 C 182.288 65.329,183.265 63.190,184.268 61.155 C 184.834 60.007,185.297 58.951,185.297 58.807 C 185.297 58.664,186.185 56.654,187.270 54.340 C 189.601 49.372,190.352 47.732,191.067 46.058 C 191.682 44.617,193.090 41.523,194.595 38.305 C 197.873 31.296,206.797 27.201,214.450 29.195 M271.036 84.322 C 271.408 84.563,270.847 84.667,269.165 84.671 C 267.303 84.675,266.714 84.803,266.547 85.238 C 266.374 85.690,266.273 85.707,266.032 85.326 C 265.808 84.973,265.731 84.965,265.727 85.297 C 265.724 85.540,265.314 85.740,264.815 85.740 C 264.301 85.740,264.003 85.893,264.128 86.094 C 264.259 86.306,263.805 86.450,262.997 86.454 C 261.995 86.458,261.784 86.548,262.179 86.802 C 262.574 87.058,262.370 87.147,261.382 87.151 C 260.651 87.154,260.053 87.316,260.053 87.511 C 260.053 87.706,259.588 87.865,259.020 87.865 C 258.451 87.865,257.933 88.018,257.868 88.204 C 257.803 88.390,257.163 88.582,256.445 88.629 C 255.726 88.677,255.218 88.843,255.314 88.999 C 255.410 89.155,254.912 89.283,254.207 89.283 C 253.443 89.283,253.014 89.426,253.144 89.637 C 253.272 89.844,252.912 89.991,252.280 89.991 C 251.683 89.991,251.196 90.117,251.196 90.270 C 251.196 90.423,250.848 90.575,250.422 90.607 C 249.997 90.639,249.511 90.912,249.342 91.214 C 249.173 91.516,248.565 91.763,247.989 91.763 C 247.415 91.763,246.944 91.922,246.944 92.117 C 246.944 92.312,246.396 92.471,245.725 92.471 C 245.055 92.471,244.407 92.631,244.287 92.826 C 244.167 93.020,243.692 93.180,243.233 93.180 C 242.773 93.180,242.344 93.338,242.279 93.531 C 242.214 93.724,241.723 93.918,241.187 93.963 C 240.651 94.007,240.213 94.168,240.213 94.320 C 240.213 94.472,239.744 94.597,239.171 94.597 C 238.598 94.597,238.030 94.756,237.910 94.951 C 237.789 95.146,237.381 95.306,237.003 95.306 C 236.625 95.306,236.313 95.505,236.310 95.748 C 236.306 96.044,236.190 96.014,235.961 95.660 C 235.732 95.306,235.616 95.276,235.612 95.571 C 235.609 95.815,235.286 96.014,234.893 96.014 C 234.180 96.014,233.927 96.113,231.832 97.204 C 231.217 97.524,230.380 97.786,229.972 97.786 C 229.564 97.786,229.229 97.945,229.229 98.140 C 229.229 98.335,228.749 98.494,228.162 98.494 C 227.574 98.494,226.777 98.654,226.390 98.849 C 226.003 99.043,225.370 99.362,224.983 99.557 C 224.596 99.752,223.891 99.911,223.418 99.911 C 222.944 99.911,222.504 100.053,222.439 100.226 C 222.374 100.399,221.683 100.838,220.903 101.200 C 220.124 101.563,219.329 102.219,219.137 102.657 C 218.944 103.096,218.665 103.454,218.517 103.454 C 218.368 103.454,218.246 103.711,218.246 104.024 C 218.246 104.384,218.051 104.518,217.715 104.389 C 217.422 104.277,217.183 104.349,217.183 104.549 C 217.183 104.750,217.024 104.815,216.829 104.694 C 216.634 104.574,216.475 104.724,216.475 105.028 C 216.475 105.332,216.315 105.580,216.120 105.580 C 215.926 105.580,215.766 105.826,215.766 106.126 C 215.766 106.427,215.447 107.015,215.058 107.433 C 214.422 108.115,214.185 108.790,214.307 109.566 C 214.330 109.712,214.190 109.832,213.995 109.832 C 213.800 109.832,213.640 110.399,213.640 111.093 C 213.640 111.843,213.497 112.265,213.286 112.135 C 213.057 111.993,212.932 113.423,212.932 116.167 C 212.932 118.619,213.082 120.511,213.286 120.638 C 213.481 120.758,213.640 121.326,213.640 121.899 C 213.640 122.472,213.800 122.941,213.995 122.941 C 214.190 122.941,214.349 123.339,214.349 123.826 C 214.349 124.314,214.469 124.712,214.617 124.712 C 214.764 124.712,215.107 125.214,215.379 125.828 C 215.941 127.099,217.023 128.297,217.331 127.989 C 217.445 127.876,217.538 128.053,217.538 128.384 C 217.538 128.715,217.817 129.089,218.158 129.216 C 218.499 129.342,219.036 129.736,219.351 130.091 C 219.666 130.445,220.184 130.735,220.502 130.735 C 220.820 130.735,221.081 130.895,221.081 131.089 C 221.081 131.284,221.320 131.444,221.612 131.444 C 221.904 131.444,222.143 131.603,222.143 131.798 C 222.143 131.993,222.467 132.152,222.863 132.152 C 223.259 132.152,223.675 132.391,223.787 132.684 C 223.902 132.983,224.429 133.215,224.995 133.215 C 225.547 133.215,226.097 133.375,226.218 133.570 C 226.345 133.775,228.295 133.924,230.866 133.924 C 233.728 133.924,235.217 133.799,235.075 133.570 C 234.945 133.359,235.367 133.215,236.117 133.215 C 237.002 133.215,237.378 133.057,237.378 132.684 C 237.378 132.313,237.752 132.152,238.618 132.152 C 239.300 132.152,239.858 131.993,239.858 131.798 C 239.858 131.603,240.337 131.444,240.921 131.444 C 241.506 131.444,241.984 131.284,241.984 131.089 C 241.984 130.895,242.533 130.735,243.203 130.735 C 243.874 130.735,244.521 130.576,244.641 130.381 C 244.762 130.186,245.249 130.027,245.725 130.027 C 246.201 130.027,246.590 129.902,246.590 129.750 C 246.590 129.597,247.028 129.436,247.564 129.392 C 248.100 129.348,248.592 129.154,248.657 128.961 C 248.722 128.767,249.399 128.609,250.162 128.609 C 250.926 128.609,251.550 128.450,251.550 128.255 C 251.550 128.060,251.949 127.901,252.436 127.901 C 252.923 127.901,253.322 127.741,253.322 127.547 C 253.322 127.352,253.441 127.211,253.587 127.234 C 254.690 127.408,255.802 127.120,255.802 126.661 C 255.802 126.194,257.204 125.889,258.397 126.096 C 258.557 126.124,258.588 125.983,258.464 125.784 C 258.327 125.562,258.730 125.421,259.501 125.421 C 260.194 125.421,260.762 125.261,260.762 125.066 C 260.762 124.872,261.151 124.712,261.627 124.712 C 262.102 124.712,262.590 124.553,262.710 124.358 C 262.831 124.163,263.398 124.004,263.971 124.004 C 264.544 124.004,265.013 123.844,265.013 123.649 C 265.013 123.454,265.482 123.295,266.055 123.295 C 266.628 123.295,267.196 123.136,267.316 122.941 C 267.437 122.746,268.084 122.586,268.754 122.586 C 269.425 122.586,269.973 122.427,269.973 122.232 C 269.973 122.037,270.273 121.878,270.639 121.878 C 271.005 121.878,271.502 121.639,271.745 121.346 C 271.987 121.054,272.724 120.815,273.383 120.815 C 274.041 120.815,274.579 120.655,274.579 120.461 C 274.579 120.266,274.987 120.106,275.486 120.106 C 276.000 120.106,276.298 119.953,276.174 119.752 C 276.046 119.545,276.408 119.398,277.043 119.398 C 277.642 119.398,278.409 119.249,278.747 119.067 C 279.085 118.885,279.880 118.527,280.514 118.272 C 281.147 118.016,281.665 117.687,281.665 117.540 C 281.665 117.392,281.845 117.272,282.065 117.272 C 282.612 117.272,287.334 112.280,287.334 111.703 C 287.334 111.448,287.474 110.962,287.645 110.624 C 288.206 109.513,288.751 107.496,288.751 106.529 C 288.751 105.972,288.947 105.580,289.226 105.580 C 289.898 105.580,289.898 100.068,289.226 99.510 C 288.965 99.293,288.751 98.689,288.751 98.167 C 288.751 97.646,288.619 97.067,288.458 96.882 C 288.297 96.697,287.954 95.872,287.696 95.049 C 287.438 94.226,286.932 93.236,286.572 92.850 C 286.211 92.463,285.917 91.971,285.917 91.757 C 285.917 91.542,285.757 91.465,285.562 91.585 C 285.368 91.706,285.208 91.556,285.208 91.252 C 285.208 90.948,285.022 90.700,284.795 90.700 C 284.567 90.700,284.480 90.601,284.601 90.480 C 284.915 90.166,283.945 89.283,283.285 89.283 C 282.979 89.283,282.768 89.118,282.817 88.916 C 282.916 88.504,279.433 86.448,278.636 86.448 C 278.353 86.448,278.122 86.289,278.122 86.094 C 278.122 85.899,277.657 85.740,277.089 85.740 C 276.521 85.740,275.994 85.556,275.920 85.332 C 275.845 85.107,274.875 84.849,273.764 84.756 C 272.654 84.664,271.745 84.449,271.745 84.279 C 271.745 84.108,271.466 83.971,271.125 83.974 C 270.595 83.978,270.582 84.029,271.036 84.322 M275.465 86.448 C 275.585 86.643,275.962 86.802,276.302 86.802 C 281.650 86.802,287.841 95.467,287.834 102.943 C 287.831 107.075,287.272 108.980,285.111 112.226 C 283.557 114.561,280.003 117.626,278.851 117.626 C 278.640 117.626,278.190 117.778,277.852 117.964 C 277.513 118.149,276.280 118.609,275.111 118.985 C 265.508 122.075,262.616 123.021,262.002 123.273 C 261.612 123.434,260.097 123.919,258.636 124.352 C 257.174 124.785,255.702 125.282,255.364 125.457 C 255.025 125.632,254.505 125.775,254.207 125.775 C 253.910 125.775,253.389 125.931,253.051 126.122 C 252.713 126.313,250.602 127.037,248.361 127.732 C 246.120 128.427,244.010 129.148,243.672 129.334 C 243.333 129.520,242.745 129.672,242.364 129.672 C 241.983 129.672,241.573 129.832,241.453 130.027 C 241.332 130.221,240.854 130.381,240.390 130.381 C 239.926 130.381,239.447 130.540,239.327 130.735 C 239.206 130.930,238.717 131.089,238.238 131.089 C 237.760 131.089,237.092 131.229,236.753 131.400 C 234.629 132.474,226.763 133.035,226.218 132.152 C 226.097 131.957,225.694 131.798,225.322 131.798 C 221.930 131.798,215.777 125.204,214.588 120.295 C 212.364 111.113,217.355 103.430,227.812 99.935 C 229.663 99.317,231.497 98.673,231.887 98.505 C 232.276 98.337,232.914 98.119,233.304 98.021 C 234.304 97.770,242.370 94.997,243.224 94.610 C 243.614 94.434,244.570 94.100,245.350 93.868 C 246.129 93.637,247.044 93.307,247.382 93.136 C 247.721 92.965,248.287 92.826,248.640 92.826 C 248.993 92.826,249.434 92.699,249.619 92.544 C 249.804 92.388,250.514 92.083,251.196 91.864 C 252.943 91.304,259.733 88.945,260.585 88.603 C 260.974 88.446,261.931 88.126,262.710 87.891 C 263.490 87.656,264.446 87.337,264.836 87.181 C 265.226 87.025,266.023 86.733,266.608 86.533 C 268.005 86.055,275.179 85.986,275.465 86.448 " stroke="none" fill="#e84d7a" fill-rule="evenodd"></path></g></svg>