<?xml version="1.0" standalone="no"?>
<!DOCTYPE svg PUBLIC "-//W3C//DTD SVG 20010904//EN"
 "http://www.w3.org/TR/2001/REC-SVG-20010904/DTD/svg10.dtd">
<svg version="1.0" xmlns="http://www.w3.org/2000/svg"
 width="1250.000000pt" height="1250.000000pt" viewBox="0 0 1250.000000 1250.000000"
 preserveAspectRatio="xMidYMid meet">

<g transform="translate(0.000000,1250.000000) scale(0.100000,-0.100000)"
fill="#000000" stroke="none">
<path d="M0 6250 l0 -6250 6250 0 6250 0 0 6250 0 6250 -6250 0 -6250 0 0
-6250z m5105 2150 c300 -33 716 -133 1086 -261 l86 -29 149 49 c263 87 527
157 763 201 451 84 782 63 991 -65 73 -45 230 -204 275 -280 70 -118 105 -282
105 -497 0 -332 -82 -728 -265 -1287 l-35 -104 65 -201 c83 -260 138 -464 174
-651 52 -265 56 -301 56 -530 0 -194 -3 -230 -23 -308 -35 -141 -83 -225 -187
-332 -105 -107 -140 -135 -224 -175 -310 -150 -839 -103 -1626 145 -127 41
-219 65 -235 62 -14 -3 -104 -31 -200 -62 -544 -174 -1028 -257 -1316 -225
-130 15 -256 49 -339 93 -71 38 -219 176 -279 262 -206 291 -173 846 100 1705
75 239 75 198 6 415 -229 716 -291 1204 -196 1533 38 131 82 202 199 317 136
134 217 178 400 215 104 21 326 26 470 10z"/>
<path d="M5170 8136 c189 -83 343 -171 593 -338 150 -99 342 -241 450 -330 32
-26 60 -48 62 -48 3 0 47 32 97 71 424 327 733 522 1058 667 107 47 -357 -42
-655 -127 -77 -22 -216 -65 -310 -95 -93 -31 -179 -56 -190 -56 -11 0 -108 29
-215 64 -308 102 -591 175 -816 210 -148 23 -160 20 -74 -18z"/>
<path d="M4515 8054 c-101 -26 -117 -36 -137 -82 -14 -30 -22 -77 -26 -132 -9
-162 47 -360 174 -615 117 -236 247 -444 432 -690 140 -186 167 -220 178 -220
5 0 59 54 119 120 227 251 554 575 773 766 l73 64 -38 34 c-89 78 -352 271
-503 368 -384 246 -701 378 -935 388 -49 2 -99 2 -110 -1z"/>
<path d="M7845 8050 c-250 -45 -589 -205 -930 -438 -191 -131 -326 -232 -455
-339 -3 -3 11 -18 30 -35 262 -230 683 -652 890 -890 17 -21 35 -38 39 -38 16
0 316 407 406 551 197 317 294 521 350 734 36 137 39 297 7 368 -18 40 -29 51
-69 69 -54 24 -186 33 -268 18z"/>
<path d="M4231 7315 c-1 -16 28 -204 45 -285 43 -212 117 -481 201 -733 l55
-168 -60 -187 c-127 -393 -210 -730 -236 -957 l-6 -50 17 35 c10 19 40 82 67
140 27 58 69 138 93 178 24 41 43 75 43 77 0 6 102 166 169 265 67 98 257 357
330 446 l41 52 -63 78 c-172 217 -336 452 -468 672 -69 114 -179 327 -211 407
-9 22 -16 36 -17 30z"/>
<path d="M8238 7142 c-42 -86 -95 -188 -119 -227 -160 -268 -275 -433 -509
-733 l-42 -54 59 -76 c320 -415 507 -706 647 -1009 51 -109 55 -102 31 47 -38
236 -132 595 -239 909 -20 58 -36 114 -36 126 0 12 14 61 30 111 57 165 151
488 186 635 39 168 77 381 72 409 -2 11 -34 -45 -80 -138z"/>
<path d="M6245 7094 c-142 -120 -339 -306 -510 -478 -218 -221 -445 -470 -445
-490 0 -45 871 -920 974 -978 19 -11 33 -1 156 110 192 173 378 354 551 537
131 137 299 326 299 334 0 3 -15 22 -33 41 -17 20 -66 74 -107 120 -76 87
-350 369 -475 489 -133 129 -359 334 -373 338 -4 2 -20 -9 -37 -23z m124 -454
c6 -28 11 -102 11 -165 l0 -115 85 56 c144 94 236 126 218 77 -13 -36 -63
-100 -132 -168 -39 -38 -71 -72 -71 -76 0 -4 19 -9 43 -13 128 -20 267 -68
267 -92 0 -25 -51 -36 -193 -43 l-137 -6 35 -52 c19 -29 35 -57 35 -63 0 -5 4
-10 8 -10 12 0 72 -125 72 -149 0 -49 -53 -18 -182 107 l-87 84 -6 -38 c-22
-131 -72 -284 -94 -284 -25 0 -35 50 -39 192 l-4 147 -62 -43 c-71 -51 -193
-116 -218 -116 -48 0 -18 57 94 175 82 86 87 95 66 99 -211 47 -288 73 -288
100 0 25 67 38 201 40 71 0 129 2 129 3 0 1 -25 40 -55 87 -86 131 -117 216
-81 216 22 0 128 -84 193 -153 l59 -63 21 100 c43 206 89 274 112 166z"/>
<path d="M6300 6463 c-16 -59 -22 -137 -11 -152 8 -12 12 -12 25 -2 12 10 16
34 16 102 0 94 -12 115 -30 52z"/>
<path d="M6094 6415 c17 -45 88 -135 107 -135 43 0 33 32 -28 91 -59 57 -91
75 -79 44z"/>
<path d="M6438 6344 c-45 -30 -68 -52 -68 -65 0 -38 43 -22 103 39 31 32 57
61 57 65 0 16 -29 4 -92 -39z"/>
<path d="M6000 6230 l-25 -7 27 -11 c14 -6 54 -16 88 -22 55 -10 65 -9 79 5
15 15 14 17 -3 31 -21 15 -122 18 -166 4z"/>
<path d="M6267 6214 c-10 -11 -9 -42 3 -49 20 -12 51 6 48 28 -3 22 -36 35
-51 21z"/>
<path d="M6406 6195 c-14 -36 3 -45 88 -45 95 0 126 12 75 28 -26 8 -141 32
-155 32 -1 0 -4 -7 -8 -15z"/>
<path d="M6117 6083 c-78 -75 -84 -105 -14 -65 92 52 138 112 85 112 -14 0
-43 -19 -71 -47z"/>
<path d="M6353 6094 c-6 -15 81 -114 120 -135 28 -16 21 4 -30 80 -47 71 -77
89 -90 55z"/>
<path d="M6262 6078 c-15 -15 -17 -188 -2 -188 11 0 28 58 36 125 5 38 3 54
-8 63 -11 9 -17 9 -26 0z"/>
<path d="M5119 5932 c-7 -10 -62 -82 -120 -158 -319 -420 -523 -782 -610
-1084 -30 -102 -33 -128 -33 -235 0 -152 13 -190 75 -225 41 -23 53 -25 174
-24 91 0 150 5 195 18 283 76 658 278 1040 560 84 62 124 93 233 181 l28 22
-93 83 c-252 224 -546 519 -835 839 -38 42 -40 43 -54 23z"/>
<path d="M7306 5827 c-157 -176 -474 -496 -671 -675 -93 -85 -171 -158 -173
-163 -6 -14 304 -247 498 -376 314 -208 624 -354 849 -399 101 -20 246 -15
307 10 50 21 70 54 85 144 41 245 -125 660 -456 1148 -84 124 -286 393 -311
416 -18 16 -24 11 -128 -105z"/>
<path d="M6220 4793 c-350 -281 -723 -522 -1020 -660 -109 -50 -113 -53 -65
-47 262 32 650 129 1004 252 l134 46 171 -57 c395 -130 668 -197 991 -242 l30
-4 -35 17 c-381 180 -683 369 -1045 657 -49 39 -94 74 -100 77 -5 3 -35 -15
-65 -39z"/>
</g>
</svg>
