<?xml version="1.0" standalone="no"?>
<!DOCTYPE svg PUBLIC "-//W3C//DTD SVG 20010904//EN"
 "http://www.w3.org/TR/2001/REC-SVG-20010904/DTD/svg10.dtd">
<svg version="1.0" xmlns="http://www.w3.org/2000/svg"
 width="1079.000000pt" height="1062.000000pt" viewBox="0 0 1079.000000 1062.000000"
 preserveAspectRatio="xMidYMid meet">

<g transform="translate(0.000000,1062.000000) scale(0.100000,-0.100000)"
fill="#000000" stroke="none">
<path d="M0 5310 l0 -5310 5395 0 5395 0 0 5310 0 5310 -5395 0 -5395 0 0
-5310z m3326 4655 c10 -8 38 -15 60 -15 24 0 47 -6 54 -15 7 -8 18 -15 25 -15
16 0 79 -32 83 -42 2 -5 11 -8 21 -8 9 0 32 -14 51 -31 19 -18 56 -45 82 -61
26 -16 48 -34 48 -39 0 -5 8 -9 18 -9 10 0 79 -61 154 -135 75 -74 140 -135
144 -135 4 0 15 7 25 16 14 13 29 15 63 10 25 -4 48 -11 51 -17 8 -12 135 -12
135 0 0 5 15 12 34 15 44 8 146 107 146 142 0 27 109 149 143 160 11 4 32 17
46 30 14 13 32 24 39 24 7 0 23 11 35 24 13 14 35 28 50 31 15 4 27 11 27 16
0 5 15 9 34 9 18 0 39 7 46 15 7 8 26 15 42 15 16 0 36 7 44 15 12 12 44 15
148 15 124 0 135 -2 159 -23 20 -16 27 -32 27 -58 0 -29 -10 -44 -65 -99 -39
-38 -65 -73 -65 -85 0 -12 -7 -30 -15 -41 -10 -13 -14 -45 -15 -101 0 -59 -4
-86 -15 -97 -11 -10 -15 -36 -15 -85 0 -58 -4 -75 -20 -91 -31 -31 -61 -25
-105 20 -21 22 -43 40 -48 40 -7 0 -21 -14 -75 -75 -24 -28 -52 -72 -52 -84 0
-15 111 -121 127 -121 25 0 73 59 73 89 0 19 8 34 25 45 34 22 58 20 85 -9 13
-14 30 -25 39 -25 8 0 25 -10 38 -22 27 -25 31 -79 8 -98 -8 -7 -15 -25 -15
-41 0 -15 -4 -31 -10 -34 -5 -3 -10 -26 -10 -50 0 -25 -6 -50 -15 -59 -17 -17
-21 -101 -5 -111 6 -3 10 -30 10 -59 0 -30 6 -60 15 -72 8 -10 15 -38 15 -60
0 -24 6 -47 15 -54 9 -7 15 -29 15 -55 0 -26 6 -48 15 -55 8 -7 15 -24 15 -39
0 -14 7 -35 15 -45 8 -11 15 -39 15 -63 0 -24 5 -43 10 -43 6 0 10 -30 10 -71
0 -39 5 -79 10 -90 8 -14 6 -25 -6 -44 -19 -28 -40 -31 -79 -11 -28 15 -50 12
-72 -10 -16 -15 -19 -294 -4 -294 5 0 13 -10 17 -22 14 -45 94 -103 94 -68 0
18 55 10 73 -11 10 -11 21 -44 24 -72 2 -29 12 -67 20 -85 16 -37 176 -202
196 -202 7 0 24 -11 39 -25 15 -14 31 -25 36 -25 5 0 22 -11 38 -25 16 -14 63
-42 104 -62 41 -20 77 -40 78 -45 2 -4 42 -8 88 -8 l84 0 60 60 c33 33 60 66
60 74 0 7 7 19 15 26 8 7 15 21 15 31 0 10 4 20 9 23 5 4 12 24 16 46 4 22 11
40 16 40 14 0 11 44 -7 79 -28 57 5 140 57 141 22 0 169 -148 169 -170 0 -10
7 -23 15 -30 8 -7 15 -19 15 -27 0 -8 11 -24 25 -37 14 -13 25 -30 25 -38 0
-9 7 -21 15 -28 8 -7 15 -20 15 -30 0 -10 7 -23 15 -30 8 -7 15 -20 15 -29 0
-9 7 -25 15 -35 8 -11 15 -30 15 -42 0 -13 5 -26 10 -29 6 -3 10 -28 10 -55 0
-33 5 -50 15 -54 9 -3 15 -18 15 -36 0 -44 30 -68 87 -72 l48 -3 -2 -160 c-1
-88 -3 -180 -4 -205 -1 -25 1 -154 4 -287 5 -231 4 -244 -15 -268 -11 -14 -28
-25 -40 -25 -21 0 -91 66 -148 140 -19 25 -44 54 -55 65 -12 11 -31 34 -44 50
-12 17 -45 54 -72 83 -27 29 -49 57 -49 62 0 6 -4 10 -9 10 -5 0 -12 8 -15 18
-4 10 -24 37 -46 60 -22 23 -40 45 -40 51 0 5 -11 12 -24 15 -13 3 -29 18 -36
36 -12 28 -23 42 -96 122 -19 21 -34 40 -34 42 0 4 -35 47 -95 115 -23 25 -54
64 -70 86 -16 22 -46 57 -67 78 l-36 38 -214 -5 c-117 -3 -236 -5 -265 -5
l-52 0 -5 -43 c-2 -24 -4 -69 -4 -100 1 -71 -13 -92 -50 -76 -15 7 -35 18 -44
26 -9 7 -27 13 -40 12 -43 -4 -45 -1 -51 82 -4 45 -11 86 -17 92 -7 7 -121 13
-313 16 l-302 5 3 59 c3 54 -3 83 -29 126 -5 8 -13 24 -18 35 -5 11 -32 41
-60 67 -28 26 -51 49 -51 52 0 8 -61 66 -70 66 -4 0 -10 7 -14 15 -3 8 -13 15
-22 15 -9 0 -27 11 -40 25 -20 21 -32 25 -84 25 -33 0 -60 -4 -60 -10 0 -16
-48 -11 -70 7 -13 11 -20 30 -20 51 0 19 -8 47 -17 63 -23 39 -58 38 -100 -3
-27 -26 -33 -40 -33 -74 0 -25 -6 -47 -15 -54 -11 -9 -15 -33 -15 -84 0 -40
-4 -76 -9 -82 -5 -5 -11 -53 -13 -107 -2 -60 -7 -101 -15 -105 -6 -4 -14 -23
-18 -44 -5 -25 -13 -38 -28 -42 -36 -9 -115 -7 -122 4 -6 10 32 82 47 88 13 6
9 29 -7 42 -11 10 -15 36 -15 112 0 75 -4 103 -15 114 -8 9 -15 28 -15 44 0
16 -4 32 -10 35 -5 3 -10 16 -10 29 0 12 -7 31 -15 42 -8 10 -15 26 -15 35 0
9 -7 22 -15 29 -8 7 -15 28 -15 46 0 19 -4 34 -8 34 -12 0 -42 73 -42 104 0
14 -7 29 -15 32 -9 4 -15 19 -15 38 0 20 -11 42 -30 64 -29 31 -32 32 -114 32
-62 0 -87 -4 -96 -15 -7 -8 -18 -15 -24 -15 -7 0 -38 -25 -69 -55 -57 -54 -57
-54 -57 -114 0 -33 3 -61 8 -63 12 -5 42 -68 42 -88 0 -10 7 -20 15 -24 8 -3
15 -12 15 -21 0 -9 25 -41 55 -72 63 -65 70 -97 30 -138 -14 -14 -32 -25 -38
-25 -7 0 -32 -19 -55 -43 -31 -32 -42 -51 -42 -74 0 -18 4 -34 9 -37 5 -3 11
-23 14 -43 3 -21 9 -52 12 -69 6 -26 3 -32 -12 -36 -17 -5 -21 -18 -26 -104
-3 -55 -4 -289 -1 -521 3 -233 3 -432 -1 -443 -5 -14 -15 -20 -37 -20 -45 0
-98 -57 -98 -105 0 -27 8 -44 34 -70 18 -19 42 -35 52 -35 50 -1 49 17 54
-527 l5 -508 29 -42 c16 -24 35 -43 41 -43 7 0 24 -17 38 -37 l26 -36 -27 -14
c-58 -31 -62 -39 -62 -140 0 -71 4 -98 15 -109 12 -12 15 -42 15 -132 0 -118
-2 -127 -31 -150 -26 -20 -69 4 -69 38 0 14 -7 35 -15 46 -9 12 -14 44 -15 90
0 54 -4 73 -15 78 -11 4 -15 22 -15 71 0 36 -4 65 -8 65 -9 0 -42 69 -42 87 0
6 -7 16 -15 23 -8 7 -15 21 -15 31 0 11 -4 19 -8 19 -5 0 -18 23 -30 51 -13
27 -40 69 -62 92 -22 22 -40 47 -40 54 0 8 -18 33 -40 55 -22 23 -40 48 -40
55 0 12 -115 133 -128 133 -14 0 -72 -65 -72 -82 0 -10 -7 -21 -15 -24 -12 -5
-15 -25 -15 -94 0 -81 -2 -89 -23 -103 -24 -15 -52 -8 -69 17 -4 6 -8 119 -8
252 0 236 0 241 23 267 18 21 32 27 65 27 36 0 48 6 73 32 40 45 40 98 0 139
-29 29 -91 42 -91 19 0 -22 -52 -9 -85 22 -31 27 -35 37 -35 79 0 32 -5 49
-15 53 -10 4 -15 20 -15 50 0 36 -6 51 -28 73 -32 31 -86 63 -108 63 -8 0 -17
7 -20 15 -9 22 -29 18 -60 -10 -15 -14 -37 -25 -50 -25 -25 0 -114 81 -114
104 0 9 -28 44 -63 78 -90 90 -134 188 -92 204 8 4 15 12 15 19 0 7 7 15 15
19 13 5 15 89 15 671 l0 666 -31 28 -31 29 3 126 c3 77 8 130 15 134 6 4 14
19 18 35 3 15 11 27 16 27 6 0 10 116 10 314 l0 315 -30 33 c-16 18 -30 38
-30 45 0 19 123 143 142 143 9 0 21 7 28 15 7 8 18 15 26 15 7 0 25 11 40 25
15 14 38 28 51 31 13 4 23 10 23 15 0 5 8 9 19 9 10 0 24 7 31 15 7 8 20 15
30 15 10 0 23 7 30 15 7 8 28 15 46 15 19 0 34 4 34 9 0 5 18 12 40 16 22 4
42 11 46 16 3 5 13 9 23 9 10 0 24 7 31 15 7 8 19 15 27 15 8 0 24 10 36 23
25 25 82 57 102 57 7 0 18 7 25 15 7 8 18 15 26 15 17 0 294 277 294 294 0 8
7 19 15 26 8 7 15 20 15 30 0 10 7 23 15 30 10 8 15 30 15 61 0 44 -4 53 -39
87 -21 20 -41 47 -45 58 -4 12 -36 50 -71 85 -36 35 -65 73 -65 83 0 23 37 66
57 66 8 0 24 11 36 24 13 14 35 28 50 31 15 4 27 11 27 16 0 5 15 9 34 9 18 0
39 7 46 15 8 9 30 15 57 15 26 0 51 6 59 15 22 21 212 21 240 0z m5379 -561
l25 -25 -2 -563 -3 -562 -37 -38 c-21 -22 -38 -45 -38 -53 0 -8 18 -33 40 -55
l40 -42 0 -288 0 -288 -70 -69 c-69 -68 -70 -70 -70 -121 0 -32 6 -57 15 -66
9 -9 15 -34 15 -59 0 -35 -5 -46 -26 -60 -23 -15 -27 -15 -50 0 -15 10 -24 25
-24 41 0 17 -16 43 -47 75 -26 27 -50 49 -54 49 -5 0 -35 -27 -69 -60 -73 -74
-76 -95 -20 -147 22 -21 40 -46 40 -56 0 -10 6 -20 14 -23 7 -3 22 -22 32 -42
42 -82 108 -117 140 -74 16 20 18 68 4 77 -18 11 -11 56 13 76 27 22 50 24 67
4 7 -8 20 -15 29 -15 10 0 27 -10 38 -22 21 -23 21 -28 20 -535 l-2 -511 -24
-21 c-13 -12 -31 -21 -40 -21 -26 0 -61 45 -61 78 0 16 -7 35 -15 42 -8 7 -15
24 -15 39 0 15 -4 31 -10 37 -5 5 -10 31 -11 56 -2 29 -7 49 -16 52 -8 4 -13
23 -13 54 0 32 -5 54 -15 62 -9 7 -15 29 -15 52 0 22 -7 46 -15 54 -9 9 -15
34 -15 59 0 24 -4 47 -10 50 -5 3 -10 16 -10 29 0 12 -7 31 -15 42 -8 10 -15
33 -15 50 0 17 -7 37 -15 44 -8 7 -15 21 -15 31 0 11 -4 19 -9 19 -5 0 -13 12
-19 28 -5 15 -26 44 -46 65 -20 21 -36 43 -36 48 0 12 -60 79 -71 79 -13 0
-99 -91 -99 -105 0 -7 -7 -18 -15 -25 -8 -7 -15 -18 -15 -25 0 -7 -7 -26 -15
-41 -8 -16 -15 -37 -15 -46 0 -9 -4 -20 -10 -23 -5 -3 -10 -14 -10 -24 0 -10
-7 -24 -15 -31 -8 -7 -15 -27 -15 -45 0 -18 -7 -38 -15 -45 -8 -7 -15 -25 -15
-41 0 -15 -4 -30 -9 -33 -5 -4 -12 -24 -16 -46 -4 -22 -11 -40 -16 -40 -5 0
-9 -15 -9 -34 0 -18 -7 -39 -15 -46 -8 -7 -15 -28 -15 -47 0 -21 -6 -36 -15
-39 -9 -4 -15 -19 -15 -39 0 -19 -4 -36 -9 -39 -5 -4 -12 -24 -16 -46 -4 -22
-11 -40 -16 -40 -5 0 -9 -15 -9 -34 0 -18 -7 -39 -15 -46 -11 -10 -15 -35 -15
-110 0 -75 -4 -100 -15 -110 -12 -10 -15 -44 -15 -190 0 -146 3 -180 15 -190
11 -9 15 -34 15 -93 0 -78 1 -82 32 -114 18 -18 35 -33 39 -33 15 0 94 86 112
122 25 47 61 64 93 43 24 -16 31 -43 15 -60 -5 -6 -11 -50 -13 -99 -3 -56 -9
-91 -16 -94 -7 -2 -12 -24 -12 -53 0 -35 -4 -51 -15 -55 -11 -5 -15 -22 -15
-69 0 -43 -5 -66 -15 -75 -12 -10 -15 -40 -15 -151 0 -81 -4 -140 -10 -144 -6
-4 -10 -65 -10 -150 0 -85 4 -146 10 -150 6 -3 10 -32 10 -64 0 -40 5 -63 15
-71 8 -7 15 -26 15 -42 0 -16 7 -36 15 -44 8 -9 15 -24 15 -35 0 -10 5 -19 10
-19 6 0 10 -6 10 -14 0 -8 18 -34 40 -58 22 -23 42 -52 46 -62 7 -21 200 -216
214 -216 12 0 74 -34 78 -42 2 -5 12 -8 22 -8 9 0 23 -7 30 -15 7 -8 20 -15
30 -15 10 0 23 -7 30 -15 7 -8 28 -15 46 -15 19 0 34 -4 34 -10 0 -5 13 -10
29 -10 17 0 42 -11 60 -26 l31 -26 0 -522 0 -522 -55 -57 c-30 -31 -55 -60
-55 -65 0 -5 25 -35 55 -66 l55 -56 0 -315 0 -314 -27 -26 c-31 -28 -74 -33
-93 -10 -10 12 -36 15 -116 15 -58 0 -106 4 -109 10 -3 6 -14 10 -23 10 -9 0
-30 7 -46 15 -15 8 -39 15 -52 15 -13 0 -37 14 -54 30 -17 17 -36 30 -43 30
-7 0 -24 11 -39 25 -15 14 -33 25 -41 25 -7 0 -27 13 -43 30 -16 16 -36 30
-45 30 -8 0 -46 32 -85 70 -38 39 -102 103 -141 142 -60 60 -73 78 -73 104 0
19 -6 34 -15 38 -9 3 -15 18 -15 38 0 18 -7 42 -15 52 -8 11 -15 32 -15 47 0
15 -4 31 -10 34 -5 3 -10 14 -10 23 0 9 -7 30 -15 46 -8 15 -15 34 -15 41 0 7
-7 18 -15 25 -8 7 -15 21 -15 31 0 11 -4 19 -9 19 -5 0 -14 13 -19 30 -6 16
-20 37 -31 47 -12 9 -21 25 -21 34 0 9 -7 22 -15 29 -8 7 -15 26 -15 42 0 18
-9 38 -25 52 -14 13 -25 30 -25 37 0 8 -20 35 -45 61 -25 26 -45 52 -45 58 0
13 -275 290 -288 290 -5 0 -25 13 -43 30 -19 16 -42 30 -51 30 -10 0 -18 4
-18 9 0 5 -41 11 -92 13 -61 2 -93 7 -96 16 -2 6 -8 12 -14 12 -14 0 -47 42
-48 62 0 24 30 77 66 115 22 23 40 33 61 33 17 0 36 7 43 15 7 9 29 15 52 15
58 0 108 56 108 122 0 46 15 56 44 29 12 -12 27 -21 33 -21 7 0 29 -16 50 -36
21 -20 65 -58 98 -85 33 -27 65 -54 71 -61 7 -7 33 -29 59 -48 26 -19 59 -48
74 -65 36 -40 105 -105 112 -105 26 0 31 529 20 2025 0 72 1 468 4 880 3 413
2 777 -2 810 l-8 60 -270 3 c-153 1 -273 6 -279 12 -10 10 21 90 36 90 4 0 8
16 8 35 0 22 6 38 15 41 10 4 15 21 15 54 0 27 4 51 9 54 4 3 11 28 15 55 4
28 11 53 16 56 6 3 10 19 10 35 0 16 7 35 15 44 8 8 15 28 15 44 0 16 7 35 15
42 8 7 15 25 15 40 0 28 28 92 43 98 4 2 7 19 7 38 0 22 6 37 15 40 8 4 15 17
15 30 0 14 7 27 15 30 8 4 15 18 15 32 0 29 30 102 42 102 4 0 8 8 8 18 0 11
10 31 23 46 27 31 87 145 87 164 0 7 6 15 14 18 7 3 22 22 32 42 20 39 258
284 287 295 9 3 28 2 42 -3 23 -9 25 -14 25 -74 0 -36 -4 -67 -9 -70 -5 -3
-12 -31 -16 -61 -3 -30 -11 -55 -16 -55 -5 0 -9 -20 -9 -45 0 -38 5 -51 30
-75 17 -17 35 -30 40 -30 15 0 130 119 130 135 0 8 4 17 10 20 5 3 21 30 35
58 14 29 43 72 66 96 23 24 46 57 51 73 6 15 14 28 19 28 5 0 9 26 9 59 0 40
5 63 15 71 8 7 15 27 15 46 0 18 4 35 9 38 5 4 12 24 16 46 4 22 11 40 16 40
5 0 9 13 9 29 0 16 7 36 15 45 8 8 15 24 15 36 0 11 7 23 15 26 8 4 15 12 15
20 0 7 11 34 25 60 14 26 25 53 25 61 0 7 7 16 15 19 8 4 15 14 15 23 0 9 11
28 25 43 14 15 25 33 25 40 0 7 20 35 45 61 25 27 45 54 45 60 0 18 93 106
112 107 9 0 29 -12 43 -26z m-3380 -3444 c0 -624 -1 -665 -17 -668 -10 -2 -31
6 -48 18 -17 12 -43 21 -58 20 -15 -1 -33 -2 -39 -1 -10 1 -13 132 -13 620 0
485 3 622 13 628 6 4 24 8 39 9 15 1 40 11 55 23 15 11 37 20 48 18 20 -2 20
-9 20 -667z m-1577 467 c4 -100 7 -116 28 -144 21 -28 24 -42 24 -119 0 -85 1
-89 32 -121 18 -18 37 -33 43 -33 13 0 75 65 75 79 0 5 11 22 25 37 20 22 25
37 25 80 0 33 5 58 15 68 8 8 15 28 15 44 0 21 8 35 26 47 23 15 27 15 50 0
21 -13 24 -23 24 -74 0 -40 5 -63 15 -71 9 -7 15 -30 15 -54 0 -22 7 -50 15
-60 8 -11 15 -32 15 -48 0 -15 5 -28 10 -28 6 0 10 -8 10 -19 0 -10 7 -24 15
-31 8 -7 15 -25 15 -41 0 -34 54 -95 93 -104 17 -5 27 -14 27 -26 0 -15 -79
-107 -179 -210 -82 -83 -211 -221 -211 -225 0 -2 -15 -19 -32 -38 -18 -18 -42
-44 -53 -57 -41 -48 -105 -99 -123 -99 -10 0 -29 11 -41 24 l-23 25 6 628 c3
345 8 645 12 666 12 70 29 22 32 -96z m2340 -741 c25 -13 152 -147 152 -161 0
-7 57 -71 121 -134 25 -25 57 -64 71 -87 14 -22 44 -59 67 -82 23 -23 41 -45
41 -49 0 -5 9 -14 20 -21 11 -6 31 -29 44 -50 13 -20 47 -62 75 -92 28 -30 51
-58 51 -62 0 -5 6 -8 13 -8 6 -1 36 -37 65 -82 l53 -80 1 -397 c1 -218 -1
-402 -6 -409 -4 -6 -11 -12 -16 -12 -11 0 -70 59 -70 70 0 5 -13 23 -30 40
-20 20 -30 41 -30 60 0 17 -4 30 -9 30 -5 0 -12 11 -15 24 -7 30 -94 116 -115
116 -9 -1 -25 -9 -37 -18 -26 -22 -74 -97 -74 -115 0 -7 -18 -31 -39 -54 -22
-22 -49 -62 -62 -89 -12 -27 -32 -59 -45 -71 -13 -12 -24 -26 -24 -32 0 -13
-33 -75 -42 -79 -5 -2 -8 -9 -8 -15 -1 -7 -14 -23 -30 -37 -17 -13 -30 -32
-30 -41 0 -10 -4 -21 -10 -24 -5 -3 -10 -16 -10 -29 0 -12 -7 -31 -15 -42 -8
-10 -15 -26 -15 -34 0 -8 -14 -30 -30 -49 -17 -18 -30 -42 -30 -52 0 -10 -11
-39 -25 -65 -14 -26 -25 -53 -25 -59 0 -7 -7 -18 -15 -25 -8 -7 -15 -21 -15
-31 0 -11 -4 -19 -9 -19 -5 0 -12 -18 -16 -40 -4 -22 -11 -42 -16 -46 -5 -3
-9 -18 -9 -34 0 -16 -7 -35 -15 -44 -8 -8 -15 -28 -15 -44 0 -16 -7 -35 -15
-42 -8 -7 -15 -28 -15 -46 0 -19 -4 -34 -9 -34 -5 0 -12 -18 -16 -40 -4 -22
-11 -42 -16 -46 -5 -3 -9 -18 -9 -33 0 -16 -7 -34 -15 -41 -8 -7 -15 -27 -15
-45 0 -18 -7 -38 -15 -45 -8 -7 -15 -25 -15 -41 0 -15 -4 -31 -10 -34 -5 -3
-10 -16 -10 -28 0 -12 -7 -35 -15 -51 -8 -15 -15 -50 -15 -76 0 -30 -6 -54
-15 -64 -9 -8 -15 -33 -15 -58 0 -38 -6 -50 -40 -86 -22 -22 -40 -47 -40 -54
0 -7 -14 -26 -30 -42 -17 -16 -30 -35 -30 -43 0 -18 -254 -273 -272 -273 -9 0
-21 -7 -28 -15 -7 -8 -20 -15 -29 -15 -10 0 -28 -11 -41 -25 -13 -14 -29 -25
-35 -25 -6 0 -24 -13 -41 -28 -16 -16 -49 -41 -73 -57 -24 -15 -56 -40 -70
-55 -39 -41 -107 -80 -140 -80 -16 0 -34 -7 -41 -15 -7 -8 -21 -15 -31 -15
-11 0 -19 -4 -19 -8 0 -13 -97 -52 -129 -52 -18 0 -38 -10 -52 -25 -18 -19
-34 -25 -67 -25 -25 0 -50 -6 -58 -15 -23 -23 -1075 -23 -1094 0 -8 10 -31 15
-69 15 -55 0 -59 2 -115 55 -31 30 -63 55 -69 55 -7 0 -26 12 -42 28 -16 15
-39 32 -50 38 -11 6 -49 26 -84 45 -36 19 -82 51 -104 71 -26 26 -48 38 -67
38 -15 0 -33 7 -40 15 -7 8 -21 15 -31 15 -11 0 -19 5 -19 10 0 6 -8 10 -19
10 -10 0 -24 7 -31 15 -7 8 -20 15 -30 15 -10 0 -23 7 -30 15 -7 8 -21 15 -31
15 -11 0 -19 4 -19 10 0 5 -12 13 -28 16 -15 4 -37 18 -49 31 -12 12 -28 23
-36 23 -20 0 -87 70 -87 92 0 10 -4 18 -9 18 -5 0 -14 13 -19 30 -6 16 -20 37
-31 47 -12 9 -21 25 -21 34 0 9 -7 22 -15 29 -8 7 -15 19 -15 27 0 7 -18 33
-40 55 -22 23 -40 48 -40 55 0 7 -25 37 -55 66 -44 43 -55 59 -55 85 0 22 -18
62 -55 121 -30 49 -55 94 -55 100 0 6 -3 11 -8 11 -4 0 -18 22 -31 50 -21 44
-23 60 -19 151 2 68 8 104 16 107 15 5 16 34 1 49 -7 7 -14 46 -17 88 -2 41
-9 78 -13 81 -5 3 -9 32 -9 65 0 32 -4 59 -10 59 -5 0 -13 12 -16 27 -4 15
-13 34 -21 41 -20 20 -16 34 17 70 29 32 30 36 30 136 0 80 -3 106 -15 116
-41 34 16 100 88 100 19 0 39 5 42 10 4 6 80 10 196 10 119 0 189 -4 189 -10
0 -5 13 -10 28 -10 16 0 37 -7 48 -15 10 -8 31 -15 46 -15 15 0 33 -7 42 -15
8 -8 21 -15 29 -15 8 0 20 -7 27 -15 7 -8 20 -15 29 -15 9 0 28 -11 43 -25 15
-14 33 -25 39 -25 17 0 249 -231 249 -248 0 -14 65 -82 78 -82 4 0 18 12 31
25 30 33 72 33 87 1 7 -16 8 -30 1 -41 -5 -10 -7 -39 -5 -66 5 -47 8 -52 161
-204 86 -85 163 -155 170 -155 7 0 24 -11 37 -25 14 -15 35 -25 51 -25 14 0
32 -7 39 -15 22 -26 59 -17 102 25 23 22 47 40 55 40 8 0 44 30 81 68 71 71
112 98 135 89 14 -5 27 -69 27 -133 0 -39 9 -42 35 -14 10 11 24 20 32 20 14
0 59 26 81 47 7 7 17 13 21 13 4 0 32 23 62 52 30 28 75 65 100 82 62 42 109
83 109 94 0 5 8 12 18 16 19 6 54 28 62 37 5 7 27 24 179 140 33 26 68 54 77
63 9 9 28 23 42 30 15 8 36 23 46 35 11 12 25 21 32 21 7 0 14 4 16 8 2 5 32
31 68 58 36 26 67 51 70 54 18 20 127 108 148 121 l27 16 3 220 c3 250 4 255
65 223 20 -11 54 -20 76 -20 l38 0 7 -52 c3 -29 6 -126 6 -215 l0 -163 93 0
c50 0 98 -4 106 -9 18 -11 9 -49 -19 -78 -11 -12 -20 -29 -20 -36 0 -8 -7 -20
-15 -27 -8 -7 -15 -21 -15 -31 0 -10 -4 -21 -10 -24 -33 -20 22 -95 70 -95 33
0 127 87 142 132 6 15 14 28 19 28 12 0 11 67 -1 75 -16 10 -12 52 6 59 9 3
80 6 158 6 97 0 146 4 154 12 9 9 12 158 13 602 1 325 4 616 8 646 3 30 3 72
-1 93 -5 21 -9 124 -10 230 -2 234 5 257 70 223z m-1599 -673 c12 -45 13 -743
1 -783 -9 -31 -39 -70 -55 -70 -5 0 -26 -14 -45 -31 -49 -44 -100 -77 -131
-84 -25 -6 -26 -4 -33 41 -3 26 -6 84 -6 130 0 45 -3 84 -7 86 -5 2 -17 20
-27 41 -15 28 -25 37 -45 37 -28 0 -55 -24 -66 -59 -3 -12 -11 -21 -16 -21 -5
0 -9 -15 -9 -34 0 -18 -7 -39 -15 -46 -9 -7 -15 -29 -15 -53 0 -46 -30 -87
-64 -87 -26 0 -66 46 -66 76 0 12 7 29 15 38 10 10 15 35 15 82 l0 66 -50 49
c-27 27 -50 51 -50 55 0 8 116 122 168 163 23 19 42 40 42 48 0 7 25 36 56 65
30 29 79 78 107 108 92 97 191 194 212 206 11 7 32 12 47 13 23 1 29 -4 37
-36z m-1249 -589 c0 -8 -4 -12 -10 -9 -5 3 -10 10 -10 16 0 5 5 9 10 9 6 0 10
-7 10 -16z m805 -449 c22 -19 44 -35 48 -35 5 0 7 -10 5 -22 -4 -30 -85 -87
-125 -87 -39 -1 -43 5 -50 74 -5 48 -3 57 18 79 32 34 57 32 104 -9z m155 15
c0 -5 -4 -10 -10 -10 -5 0 -10 5 -10 10 0 6 5 10 10 10 6 0 10 -4 10 -10z
m-460 -265 c17 -20 81 -19 119 2 53 31 56 20 53 -230 -2 -131 -7 -226 -13
-232 -11 -11 -49 28 -49 50 0 6 -9 20 -20 30 -11 10 -20 23 -20 30 0 6 -11 22
-25 35 -14 13 -25 29 -25 36 0 8 -43 56 -95 109 -115 116 -121 126 -99 160 15
23 22 25 89 25 52 0 76 -4 85 -15z"/>
<path d="M3833 8914 c-41 -44 -41 -65 -3 -104 17 -17 30 -36 30 -43 0 -15 137
-157 152 -157 16 0 68 57 68 74 0 8 -4 18 -10 21 -5 3 -10 14 -10 24 0 10 -7
24 -15 31 -8 7 -15 19 -15 27 0 15 -143 163 -157 163 -4 0 -23 -17 -40 -36z"/>
<path d="M2408 7899 c-31 -33 -36 -72 -13 -95 8 -9 15 -27 15 -40 0 -24 50
-84 70 -84 5 0 23 13 40 30 25 24 30 37 30 75 0 25 -4 45 -10 45 -5 0 -10 8
-10 18 0 23 -57 82 -79 81 -9 0 -28 -14 -43 -30z"/>
<path d="M3698 7900 c-27 -28 -28 -31 -28 -150 0 -134 6 -150 58 -150 24 0 33
7 46 34 9 19 16 41 16 49 0 9 5 19 10 22 6 3 10 26 10 49 0 27 6 48 15 56 24
20 18 57 -15 90 -38 39 -75 39 -112 0z"/>
<path d="M2313 7203 c-24 -24 -43 -48 -43 -54 0 -6 20 -31 45 -55 l46 -44 108
0 c84 0 111 -3 121 -15 7 -8 20 -15 30 -15 21 0 106 -81 115 -110 4 -11 24
-39 46 -62 21 -23 39 -50 39 -60 0 -10 4 -18 10 -18 5 0 12 -17 16 -37 9 -47
53 -93 90 -93 62 0 96 89 54 143 -11 14 -20 29 -20 34 0 4 -14 21 -30 37 -17
16 -30 38 -30 48 0 10 -4 18 -9 18 -5 0 -23 22 -40 49 -40 66 -197 220 -230
227 -14 3 -34 9 -43 15 -10 5 -26 9 -36 9 -10 0 -27 7 -38 15 -13 10 -42 14
-89 13 -69 -1 -71 -1 -112 -45z"/>
<path d="M2357 6180 c-15 -16 -27 -36 -27 -43 0 -16 54 -67 71 -67 13 0 69 55
69 67 -1 14 -59 73 -73 73 -8 0 -26 -13 -40 -30z"/>
<path d="M7788 6819 c-10 -10 -18 -23 -18 -27 0 -16 36 -42 58 -42 19 0 62 31
62 45 0 3 -9 14 -20 25 -25 25 -59 24 -82 -1z"/>
<path d="M2578 2840 c-16 -16 -28 -35 -28 -42 0 -18 49 -64 78 -73 12 -3 22
-11 22 -16 0 -5 15 -9 33 -9 28 0 45 -11 94 -59 34 -33 64 -69 68 -81 7 -21
89 -110 102 -110 14 0 73 73 73 91 0 21 -223 249 -244 249 -7 0 -19 7 -26 15
-7 8 -20 15 -29 15 -9 0 -27 12 -40 25 -31 33 -69 32 -103 -5z"/>
<path d="M5463 2555 c-19 -21 -16 -69 6 -89 17 -16 20 -15 57 18 36 32 38 35
24 60 -10 20 -21 26 -44 26 -17 -1 -37 -7 -43 -15z"/>
</g>
</svg>
