<svg id="svg" version="1.1" xmlns="http://www.w3.org/2000/svg" xmlns:xlink="http://www.w3.org/1999/xlink" width="400" height="400" viewBox="0, 0, 400,400"><g id="svgg"><path id="path0" d="M120.197 168.600 C 120.197 218.100,120.243 238.291,120.300 213.468 C 120.357 188.645,120.357 148.145,120.300 123.468 C 120.243 98.791,120.197 119.100,120.197 168.600 M147.094 329.700 C 146.941 330.099,161.976 330.200,221.451 330.200 C 280.824 330.200,296.000 330.098,296.000 329.700 C 296.000 328.965,147.376 328.965,147.094 329.700 M294.953 332.170 C 294.592 332.949,294.612 333.094,295.053 332.924 C 295.354 332.809,295.600 332.374,295.600 331.957 C 295.600 330.970,295.493 331.005,294.953 332.170 M177.731 372.300 C 194.854 372.358,222.754 372.358,239.731 372.300 C 256.709 372.242,242.700 372.195,208.600 372.195 C 174.500 372.195,160.609 372.242,177.731 372.300 " stroke="none" fill="#5c646c" fill-rule="evenodd"></path><path id="path1" d="M186.080 30.833 C 185.354 31.258,184.375 31.965,183.905 32.403 C 183.434 32.841,182.853 33.200,182.613 33.200 C 182.373 33.200,181.917 33.560,181.600 34.000 C 181.283 34.440,180.743 34.800,180.400 34.800 C 180.057 34.800,179.517 35.160,179.200 35.600 C 178.883 36.040,178.438 36.400,178.212 36.401 C 177.985 36.401,177.170 36.941,176.400 37.600 C 175.630 38.259,174.847 38.799,174.660 38.799 C 174.474 38.800,173.817 39.340,173.200 40.000 C 172.583 40.660,171.879 41.200,171.634 41.200 C 171.005 41.200,169.526 42.074,168.757 42.900 C 168.399 43.285,167.852 43.600,167.541 43.600 C 167.231 43.600,166.717 43.960,166.400 44.400 C 166.083 44.840,165.543 45.200,165.200 45.200 C 164.857 45.200,164.317 45.560,164.000 46.000 C 163.683 46.440,163.143 46.800,162.800 46.800 C 162.457 46.800,161.917 47.160,161.600 47.600 C 161.283 48.040,160.815 48.400,160.560 48.400 C 160.305 48.400,159.355 49.120,158.448 50.000 C 157.541 50.880,156.569 51.600,156.288 51.600 C 156.007 51.600,155.517 51.960,155.200 52.400 C 154.883 52.840,154.343 53.200,154.000 53.200 C 153.657 53.200,153.117 53.560,152.800 54.000 C 152.483 54.440,152.038 54.800,151.812 54.801 C 151.585 54.801,150.770 55.341,150.000 56.000 C 149.230 56.659,148.290 57.199,147.910 57.199 C 145.910 57.202,146.000 53.083,146.000 145.100 C 146.000 211.098,146.110 230.750,146.480 231.120 C 146.841 231.481,152.098 231.600,167.681 231.600 L 188.402 231.600 188.301 130.933 C 188.234 64.242,188.065 30.232,187.800 30.163 C 187.580 30.107,186.806 30.408,186.080 30.833 M187.200 131.200 L 187.200 230.400 167.000 230.400 L 146.800 230.400 146.800 144.400 C 146.800 60.536,146.819 58.400,147.551 58.400 C 147.964 58.400,148.521 58.136,148.789 57.813 C 149.057 57.490,149.394 57.258,149.538 57.299 C 149.894 57.398,153.065 55.342,153.405 54.792 C 153.555 54.549,154.065 54.181,154.539 53.974 C 155.012 53.766,156.210 52.968,157.200 52.200 C 159.311 50.562,161.809 48.780,162.854 48.164 C 163.261 47.925,163.911 47.444,164.297 47.095 C 165.270 46.217,170.275 42.884,171.770 42.119 C 172.446 41.772,173.570 41.019,174.267 40.445 C 175.731 39.238,177.310 38.057,178.606 37.200 C 179.105 36.870,181.018 35.569,182.857 34.310 C 184.696 33.050,186.425 32.015,186.700 32.010 C 187.099 32.002,187.200 52.101,187.200 131.200 M118.206 77.724 C 117.769 77.986,117.118 78.515,116.759 78.900 C 116.400 79.285,115.852 79.600,115.541 79.600 C 115.231 79.600,114.717 79.960,114.400 80.400 C 114.083 80.840,113.543 81.200,113.200 81.200 C 112.857 81.200,112.317 81.560,112.000 82.000 C 111.683 82.440,111.215 82.800,110.961 82.800 C 110.707 82.800,109.734 83.520,108.800 84.400 C 107.866 85.280,106.893 86.000,106.639 86.000 C 106.385 86.000,105.917 86.360,105.600 86.800 C 105.283 87.240,104.769 87.600,104.459 87.600 C 104.148 87.600,103.603 87.916,103.247 88.303 C 102.891 88.689,102.105 89.260,101.500 89.570 C 100.895 89.881,100.400 90.285,100.400 90.468 C 100.400 90.650,100.040 90.800,99.600 90.800 C 99.160 90.800,98.800 90.980,98.800 91.200 C 98.800 91.420,98.480 91.600,98.088 91.600 C 97.697 91.600,97.117 91.960,96.800 92.400 C 96.483 92.840,96.038 93.200,95.812 93.201 C 95.585 93.201,94.770 93.741,94.000 94.400 C 93.230 95.059,92.447 95.599,92.260 95.599 C 92.074 95.600,91.417 96.140,90.800 96.800 C 90.183 97.460,89.431 98.000,89.128 98.000 C 88.825 98.000,88.317 98.360,88.000 98.800 C 87.683 99.240,87.238 99.600,87.012 99.601 C 86.785 99.601,85.970 100.141,85.200 100.800 C 84.430 101.459,83.615 101.999,83.388 101.999 C 83.162 102.000,82.717 102.360,82.400 102.800 C 82.083 103.240,81.585 103.600,81.294 103.600 C 81.002 103.600,80.321 104.042,79.781 104.583 L 78.798 105.565 78.899 204.083 L 79.000 302.600 196.728 302.701 C 290.581 302.781,314.552 302.700,314.928 302.301 C 315.188 302.025,315.655 301.305,315.968 300.700 C 316.280 300.095,316.685 299.600,316.868 299.600 C 317.050 299.600,317.200 299.322,317.200 298.983 C 317.200 298.644,317.560 297.980,318.000 297.508 C 318.440 297.036,318.800 296.413,318.800 296.125 C 318.800 295.836,318.980 295.600,319.200 295.600 C 319.420 295.600,319.600 295.375,319.601 295.100 C 319.601 294.825,320.141 293.970,320.800 293.200 C 321.459 292.430,321.999 291.575,321.999 291.300 C 322.000 291.025,322.180 290.800,322.400 290.800 C 322.620 290.800,322.800 290.564,322.800 290.275 C 322.800 289.987,323.160 289.364,323.600 288.892 C 324.040 288.420,324.400 287.838,324.400 287.600 C 324.400 287.362,324.760 286.780,325.200 286.308 C 325.640 285.836,326.000 285.116,326.000 284.708 C 326.000 284.300,326.360 283.580,326.800 283.108 C 327.240 282.636,327.600 282.013,327.600 281.725 C 327.600 281.436,327.780 281.200,328.000 281.200 C 328.220 281.200,328.400 280.922,328.400 280.583 C 328.400 280.244,328.760 279.580,329.200 279.108 C 329.640 278.636,330.000 278.013,330.000 277.725 C 330.000 277.436,330.180 277.200,330.400 277.200 C 330.620 277.200,330.800 276.957,330.800 276.659 C 330.800 276.362,331.340 275.554,332.000 274.863 C 332.660 274.172,333.200 273.336,333.200 273.004 C 333.200 272.672,333.380 272.400,333.600 272.400 C 333.820 272.400,334.000 272.164,334.000 271.875 C 334.000 271.587,334.360 270.964,334.800 270.492 C 335.240 270.020,335.600 269.438,335.600 269.200 C 335.600 268.962,335.960 268.380,336.400 267.908 C 336.840 267.436,337.200 266.813,337.200 266.525 C 337.200 266.236,337.380 266.000,337.600 266.000 C 337.820 266.000,338.000 265.680,338.000 265.288 C 338.000 264.897,338.360 264.317,338.800 264.000 C 339.240 263.683,339.600 263.186,339.600 262.895 C 339.600 262.604,339.960 261.980,340.400 261.508 C 340.866 261.008,341.200 260.096,341.200 259.325 L 341.200 258.000 231.200 258.000 L 121.200 258.000 121.200 167.600 L 121.200 77.200 120.100 77.224 C 119.495 77.236,118.643 77.461,118.206 77.724 M120.297 168.805 L 120.395 259.000 230.197 259.101 C 337.273 259.199,340.000 259.220,340.000 259.952 C 340.000 260.364,339.730 260.926,339.400 261.200 C 339.070 261.474,338.800 261.858,338.800 262.053 C 338.800 262.248,338.182 263.288,337.426 264.363 C 336.670 265.439,336.145 266.412,336.259 266.526 C 336.373 266.640,336.092 267.108,335.633 267.567 C 335.175 268.025,334.800 268.651,334.800 268.957 C 334.800 269.264,334.573 269.602,334.295 269.708 C 334.018 269.814,333.377 270.730,332.872 271.742 C 332.366 272.754,331.776 273.691,331.560 273.825 C 330.892 274.238,329.025 277.372,329.133 277.900 C 329.189 278.175,329.065 278.400,328.857 278.400 C 328.444 278.400,326.606 281.224,326.720 281.685 C 326.758 281.842,326.336 282.460,325.781 283.059 C 325.225 283.658,324.872 284.410,324.995 284.730 C 325.119 285.056,324.861 285.562,324.409 285.879 C 323.964 286.190,323.600 286.604,323.600 286.798 C 323.600 286.992,322.283 289.105,320.672 291.493 C 319.062 293.881,317.817 296.052,317.906 296.317 C 317.994 296.583,317.902 296.800,317.701 296.800 C 317.330 296.800,315.033 300.128,314.568 301.339 C 314.333 301.951,305.711 302.000,197.156 302.000 L 79.998 302.000 80.099 203.708 L 80.200 105.416 82.800 103.681 C 84.230 102.727,85.760 101.625,86.200 101.232 C 86.640 100.840,87.270 100.402,87.600 100.260 C 87.930 100.117,89.010 99.373,90.000 98.606 C 90.990 97.839,92.978 96.417,94.418 95.445 C 95.858 94.474,97.275 93.391,97.567 93.039 C 97.859 92.688,98.319 92.400,98.589 92.400 C 98.859 92.400,99.791 91.905,100.661 91.300 C 101.531 90.695,102.524 90.020,102.869 89.800 C 103.679 89.283,108.591 85.864,110.400 84.558 C 111.170 84.003,112.160 83.226,112.600 82.834 C 113.040 82.441,113.670 82.001,114.000 81.856 C 114.330 81.712,115.590 80.873,116.800 79.992 C 118.010 79.110,119.270 78.439,119.600 78.500 C 120.131 78.598,120.211 89.000,120.297 168.805 M146.183 329.700 C 146.078 329.975,146.039 339.830,146.096 351.600 L 146.200 373.000 208.727 373.101 C 274.923 373.208,272.400 373.271,272.400 371.517 C 272.400 371.220,272.760 370.717,273.200 370.400 C 273.640 370.083,274.000 369.503,274.000 369.112 C 274.000 368.720,274.135 368.399,274.300 368.397 C 274.659 368.393,275.600 366.456,275.600 365.720 C 275.600 365.434,275.780 365.200,276.000 365.200 C 276.220 365.200,276.400 364.880,276.400 364.488 C 276.400 364.097,276.760 363.517,277.200 363.200 C 277.640 362.883,278.000 362.303,278.000 361.912 C 278.000 361.520,278.150 361.200,278.332 361.200 C 278.515 361.200,278.919 360.705,279.230 360.100 C 279.540 359.495,280.111 358.709,280.497 358.353 C 280.884 357.997,281.200 357.495,281.200 357.236 C 281.200 356.978,281.560 356.380,282.000 355.908 C 282.440 355.436,282.800 354.813,282.800 354.525 C 282.800 354.236,282.980 354.000,283.200 354.000 C 283.420 354.000,283.600 353.680,283.600 353.288 C 283.600 352.897,283.960 352.317,284.400 352.000 C 284.840 351.683,285.200 351.103,285.200 350.712 C 285.200 350.320,285.380 350.000,285.600 350.000 C 285.820 350.000,286.000 349.764,286.000 349.475 C 286.000 349.187,286.360 348.564,286.800 348.092 C 287.240 347.620,287.600 346.996,287.600 346.705 C 287.600 346.414,287.960 345.917,288.400 345.600 C 288.840 345.283,289.200 344.743,289.200 344.400 C 289.200 344.057,289.560 343.517,290.000 343.200 C 290.440 342.883,290.800 342.386,290.800 342.095 C 290.800 341.804,291.160 341.180,291.600 340.708 C 292.040 340.236,292.400 339.516,292.400 339.108 C 292.400 338.700,292.760 337.980,293.200 337.508 C 293.640 337.036,294.000 336.413,294.000 336.125 C 294.000 335.836,294.180 335.600,294.400 335.600 C 294.620 335.600,294.800 335.364,294.800 335.075 C 294.800 334.787,295.160 334.164,295.600 333.692 C 296.040 333.220,296.400 332.571,296.400 332.250 C 296.400 331.929,296.575 331.607,296.788 331.533 C 297.487 331.293,297.454 329.444,296.748 329.296 C 296.250 329.192,296.033 329.588,295.824 330.980 C 295.674 331.981,295.400 332.800,295.215 332.800 C 294.744 332.800,293.031 335.693,293.143 336.300 C 293.194 336.575,293.052 336.800,292.828 336.800 C 292.287 336.800,291.262 338.866,291.488 339.500 C 291.586 339.775,291.506 340.000,291.310 340.000 C 290.990 340.000,288.264 343.513,288.207 344.000 C 288.193 344.110,287.332 345.495,286.291 347.079 C 285.251 348.662,284.400 350.059,284.400 350.183 C 284.400 350.307,283.769 351.306,282.997 352.404 C 282.226 353.502,281.699 354.400,281.826 354.400 C 281.954 354.400,281.685 354.874,281.229 355.454 C 280.773 356.034,280.400 356.683,280.400 356.896 C 280.400 357.110,279.939 357.647,279.376 358.091 C 278.812 358.534,278.434 359.113,278.536 359.377 C 278.637 359.641,278.378 360.071,277.960 360.332 C 277.542 360.593,277.200 361.165,277.200 361.603 C 277.200 362.042,277.023 362.400,276.806 362.400 C 276.589 362.400,275.849 363.525,275.161 364.900 C 274.473 366.275,273.632 367.715,273.293 368.100 C 272.954 368.485,272.788 368.800,272.926 368.800 C 273.264 368.800,271.275 371.704,270.676 372.085 C 270.414 372.252,242.430 372.391,208.490 372.394 L 146.780 372.400 146.890 350.800 C 146.988 331.537,146.867 327.915,146.183 329.700 " stroke="none" fill="#73777f" fill-rule="evenodd"></path><path id="path2" d="M182.689 35.031 C 180.545 36.479,178.871 37.791,178.968 37.948 C 179.065 38.105,178.783 38.261,178.340 38.295 C 177.292 38.374,176.339 39.177,176.666 39.707 C 176.808 39.936,176.736 40.008,176.507 39.866 C 176.278 39.725,175.868 39.877,175.596 40.204 C 175.324 40.532,174.937 40.800,174.734 40.800 C 174.532 40.800,173.980 41.160,173.508 41.600 C 173.036 42.040,172.402 42.400,172.101 42.400 C 171.799 42.400,171.641 42.543,171.749 42.717 C 171.856 42.891,171.568 43.062,171.108 43.097 C 170.648 43.132,170.166 43.319,170.036 43.514 C 169.906 43.708,168.404 44.814,166.699 45.970 C 164.993 47.126,163.675 48.199,163.771 48.353 C 163.866 48.508,163.574 48.662,163.120 48.696 C 162.667 48.730,161.903 49.128,161.422 49.579 C 160.942 50.031,160.417 50.400,160.257 50.400 C 160.096 50.400,159.478 50.866,158.883 51.435 C 158.287 52.004,157.118 52.910,156.285 53.449 C 155.452 53.988,154.855 54.565,154.958 54.731 C 155.060 54.898,154.783 55.061,154.340 55.095 C 153.425 55.163,152.325 55.955,152.577 56.362 C 152.669 56.512,152.377 56.662,151.928 56.695 C 151.478 56.729,150.785 57.052,150.387 57.412 C 149.989 57.772,149.064 58.388,148.332 58.781 L 147.000 59.495 146.899 144.729 L 146.798 229.963 148.099 230.196 C 148.815 230.325,157.860 230.378,168.200 230.315 L 187.000 230.200 187.101 131.300 C 187.156 76.905,187.063 32.400,186.894 32.400 C 186.724 32.400,184.832 33.584,182.689 35.031 M186.800 131.600 L 186.800 230.000 167.533 230.000 C 156.937 230.000,148.391 229.876,148.542 229.724 C 148.694 229.573,157.229 229.438,167.509 229.424 L 186.200 229.400 186.301 131.300 C 186.356 77.345,186.491 33.200,186.601 33.200 C 186.710 33.200,186.800 77.480,186.800 131.600 M158.998 52.402 C 158.598 52.844,158.192 53.126,158.095 53.029 C 157.861 52.795,158.901 51.635,159.362 51.615 C 159.561 51.607,159.397 51.961,158.998 52.402 M117.883 79.821 C 117.027 80.403,116.497 81.033,116.651 81.283 C 116.819 81.554,116.739 81.610,116.444 81.427 C 115.909 81.097,113.869 82.264,114.160 82.735 C 114.261 82.899,113.983 83.061,113.540 83.095 C 112.625 83.163,111.525 83.955,111.777 84.362 C 111.869 84.512,111.574 84.662,111.120 84.696 C 110.225 84.763,108.319 86.345,108.595 86.791 C 108.688 86.943,108.545 87.067,108.276 87.067 C 107.580 87.067,102.762 90.415,102.971 90.753 C 103.066 90.908,102.828 91.058,102.441 91.087 C 101.471 91.160,98.984 92.625,99.072 93.071 C 99.112 93.270,98.783 93.461,98.340 93.495 C 97.425 93.563,96.325 94.355,96.577 94.762 C 96.669 94.912,96.401 95.060,95.981 95.091 C 95.271 95.145,93.408 96.445,90.727 98.759 C 90.116 99.287,89.207 99.932,88.708 100.192 C 88.208 100.452,87.833 100.838,87.872 101.050 C 87.912 101.261,87.574 101.462,87.120 101.496 C 86.667 101.530,85.903 101.928,85.422 102.379 C 84.942 102.831,84.335 103.200,84.074 103.200 C 83.813 103.200,83.600 103.335,83.599 103.500 C 83.599 103.665,82.789 104.312,81.799 104.937 L 80.000 106.073 80.099 203.937 L 80.198 301.800 80.300 204.100 C 80.367 139.433,80.537 106.400,80.801 106.400 C 81.065 106.400,81.200 139.131,81.200 203.400 L 81.200 300.400 197.200 300.400 C 274.135 300.400,313.200 300.534,313.200 300.799 C 313.200 301.064,273.967 301.233,196.900 301.300 L 80.600 301.401 197.281 301.501 L 313.962 301.600 314.627 300.200 C 314.992 299.430,315.417 298.800,315.571 298.800 C 315.903 298.800,317.044 295.983,316.900 295.520 C 316.845 295.344,317.001 295.245,317.246 295.300 C 317.492 295.355,318.047 294.770,318.479 294.000 C 318.911 293.230,319.790 291.936,320.433 291.123 C 321.075 290.311,321.600 289.534,321.600 289.396 C 321.600 289.257,322.151 288.343,322.826 287.363 C 323.500 286.383,324.077 285.233,324.109 284.808 C 324.141 284.382,324.253 284.120,324.357 284.224 C 324.666 284.532,325.954 281.452,325.702 281.008 C 325.576 280.783,325.620 280.734,325.800 280.898 C 326.202 281.262,328.030 278.659,328.109 277.610 C 328.140 277.195,328.288 276.931,328.438 277.023 C 328.845 277.275,329.637 276.175,329.705 275.260 C 329.739 274.817,329.901 274.539,330.065 274.640 C 330.508 274.914,331.713 272.906,331.405 272.408 C 331.259 272.173,331.351 272.030,331.607 272.090 C 331.864 272.151,332.283 271.843,332.537 271.407 C 332.792 270.970,333.506 269.841,334.126 268.897 C 334.745 267.954,335.277 266.838,335.309 266.418 C 335.340 265.999,335.529 265.688,335.728 265.728 C 336.241 265.830,338.004 262.707,337.788 262.079 C 337.690 261.793,337.767 261.656,337.959 261.775 C 338.388 262.040,339.008 261.307,339.378 260.100 L 339.654 259.200 229.827 259.200 L 120.000 259.200 120.000 169.000 C 120.000 119.390,119.862 78.800,119.693 78.800 C 119.524 78.800,118.709 79.260,117.883 79.821 M119.600 169.600 L 119.600 259.600 229.267 259.600 C 289.583 259.600,338.798 259.735,338.633 259.900 C 338.140 260.393,119.906 260.020,119.310 259.525 C 118.656 258.983,118.547 79.600,119.200 79.600 C 119.465 79.600,119.600 109.867,119.600 169.600 M147.067 330.667 C 146.415 331.319,146.773 371.504,147.433 371.757 C 148.346 372.108,270.122 372.045,270.600 371.694 C 271.357 371.137,272.446 368.798,272.161 368.337 C 271.996 368.070,272.051 367.984,272.293 368.134 C 272.823 368.461,273.626 367.508,273.705 366.460 C 273.739 366.017,273.871 365.720,273.998 365.799 C 274.126 365.878,274.478 365.370,274.780 364.671 C 275.083 363.972,275.852 362.631,276.491 361.691 C 277.129 360.751,277.677 359.638,277.709 359.219 C 277.740 358.799,277.898 358.537,278.058 358.636 C 278.461 358.885,280.838 355.361,280.909 354.408 C 280.941 353.982,281.041 353.708,281.131 353.798 C 281.596 354.263,283.771 350.600,283.393 349.989 C 283.254 349.764,283.351 349.630,283.607 349.690 C 283.864 349.751,284.283 349.443,284.537 349.007 C 284.792 348.570,285.506 347.441,286.126 346.497 C 286.745 345.554,287.277 344.438,287.309 344.018 C 287.340 343.599,287.539 343.288,287.750 343.328 C 287.962 343.367,288.345 342.996,288.603 342.503 C 288.860 342.009,289.380 341.264,289.757 340.848 C 290.134 340.431,290.471 339.717,290.505 339.262 C 290.540 338.807,290.653 338.520,290.757 338.624 C 291.033 338.900,292.369 335.873,292.137 335.498 C 292.029 335.323,292.151 335.230,292.407 335.290 C 292.664 335.351,293.083 335.047,293.337 334.615 C 293.592 334.183,294.205 333.152,294.700 332.323 C 295.195 331.494,295.600 330.722,295.600 330.608 C 295.600 330.298,147.377 330.356,147.067 330.667 " stroke="none" fill="#2c3c44" fill-rule="evenodd"></path><path id="path3" d="M186.301 131.300 L 186.200 229.400 167.509 229.424 C 157.229 229.438,148.694 229.573,148.542 229.724 C 148.391 229.876,156.937 230.000,167.533 230.000 L 186.800 230.000 186.800 131.600 C 186.800 77.480,186.710 33.200,186.601 33.200 C 186.491 33.200,186.356 77.345,186.301 131.300 M158.460 52.242 C 158.162 52.578,157.999 52.932,158.095 53.029 C 158.192 53.126,158.598 52.844,158.998 52.402 C 159.397 51.961,159.561 51.607,159.362 51.615 C 159.163 51.624,158.757 51.905,158.460 52.242 M118.800 169.351 C 118.800 241.591,118.899 259.185,119.310 259.525 C 119.906 260.020,338.140 260.393,338.633 259.900 C 338.798 259.735,289.583 259.600,229.267 259.600 L 119.600 259.600 119.600 169.600 C 119.600 109.867,119.465 79.600,119.200 79.600 C 118.935 79.600,118.800 109.784,118.800 169.351 M80.400 203.900 L 80.400 301.400 196.800 301.299 C 273.802 301.232,313.200 301.062,313.200 300.799 C 313.200 300.535,274.004 300.400,197.200 300.400 L 81.200 300.400 81.200 203.400 C 81.200 139.000,81.066 106.400,80.800 106.400 C 80.534 106.400,80.400 139.167,80.400 203.900 " stroke="none" fill="#2c343f" fill-rule="evenodd"></path><path id="path4" d="M175.200 40.000 C 174.650 40.430,174.397 40.786,174.638 40.791 C 174.879 40.796,175.402 40.440,175.800 40.000 C 176.712 38.992,176.488 38.992,175.200 40.000 M154.400 54.400 C 153.850 54.830,153.597 55.186,153.838 55.191 C 154.079 55.196,154.602 54.840,155.000 54.400 C 155.912 53.392,155.688 53.392,154.400 54.400 M113.600 82.400 C 113.050 82.830,112.797 83.186,113.038 83.191 C 113.279 83.196,113.802 82.840,114.200 82.400 C 115.112 81.392,114.888 81.392,113.600 82.400 M98.400 92.800 C 97.850 93.230,97.597 93.586,97.838 93.591 C 98.079 93.596,98.602 93.240,99.000 92.800 C 99.912 91.792,99.688 91.792,98.400 92.800 M89.600 99.200 C 89.050 99.630,88.797 99.986,89.038 99.991 C 89.279 99.996,89.802 99.640,90.200 99.200 C 91.112 98.192,90.888 98.192,89.600 99.200 M197.200 301.600 L 80.200 301.802 197.076 301.901 C 274.669 301.967,314.036 301.866,314.200 301.600 C 314.336 301.380,314.392 301.245,314.324 301.299 C 314.256 301.353,261.550 301.489,197.200 301.600 M147.062 330.299 C 146.960 330.465,180.283 330.554,221.113 330.498 C 280.307 330.416,295.422 330.498,295.706 330.898 C 295.970 331.271,296.019 331.246,295.897 330.800 C 295.719 330.146,147.465 329.647,147.062 330.299 M289.398 341.202 C 288.998 341.644,288.766 342.099,288.882 342.215 C 288.997 342.330,289.390 341.969,289.755 341.412 C 290.552 340.196,290.393 340.102,289.398 341.202 " stroke="none" fill="#4c545c" fill-rule="evenodd"></path></g></svg>