<svg id="svg" version="1.1" xmlns="http://www.w3.org/2000/svg" xmlns:xlink="http://www.w3.org/1999/xlink" width="400" height="400" viewBox="0, 0, 400,400"><g id="svgg"><path id="path0" d="M92.979 81.816 C 90.601 83.038,89.380 84.498,88.771 86.848 C 88.119 89.365,121.406 290.128,123.031 293.480 C 125.758 299.106,133.563 298.948,136.822 293.200 C 138.136 290.882,173.383 219.320,174.058 217.600 C 174.690 215.988,174.069 216.856,166.877 227.638 C 158.931 239.548,157.318 241.196,153.600 241.196 C 150.977 241.196,147.185 238.613,146.139 236.113 C 145.148 233.745,145.367 180.824,146.376 178.846 C 149.546 172.634,154.339 172.654,162.569 178.915 C 165.522 181.162,170.761 185.153,174.210 187.784 L 180.482 192.567 182.986 192.727 C 184.501 192.823,185.853 192.693,186.406 192.397 C 187.231 191.955,187.290 191.981,187.007 192.653 C 184.872 197.720,185.329 200.954,188.673 204.447 L 190.058 205.893 188.047 209.516 C 183.613 217.501,175.340 234.674,175.737 235.070 C 176.127 235.460,183.689 221.198,188.527 210.950 L 190.816 206.099 192.508 206.688 C 194.461 207.368,197.336 207.164,199.171 206.215 L 200.384 205.588 199.359 207.494 C 198.162 209.722,198.189 212.199,199.437 214.538 C 199.857 215.325,218.920 235.630,241.800 259.661 C 292.674 313.095,294.477 314.956,296.166 315.757 C 301.034 318.067,307.200 314.111,307.200 308.678 C 307.200 306.305,254.718 123.226,253.382 120.938 C 250.818 116.549,243.452 116.391,240.652 120.665 C 239.178 122.916,208.693 186.695,209.520 185.800 C 209.723 185.580,214.613 177.570,220.386 168.000 C 226.160 158.430,231.360 150.083,231.942 149.451 C 235.704 145.364,243.747 147.144,245.203 152.386 C 245.879 154.821,245.726 216.136,245.040 217.713 C 243.308 221.691,238.444 223.675,234.466 222.028 C 233.744 221.728,227.899 217.466,221.477 212.556 C 208.532 202.658,207.534 202.124,204.167 203.293 L 202.535 203.860 203.566 202.030 C 205.640 198.351,204.713 193.363,201.418 190.469 L 199.988 189.214 203.344 182.507 C 208.142 172.919,215.220 156.800,214.633 156.800 C 214.048 156.800,207.461 170.415,202.538 181.800 C 199.890 187.923,199.508 188.588,198.699 188.475 C 195.787 188.071,192.512 188.274,191.279 188.935 L 189.957 189.643 190.654 188.321 C 191.639 186.452,191.578 183.307,190.521 181.515 C 189.786 180.269,103.273 84.289,101.614 82.878 C 99.070 80.716,95.884 80.324,92.979 81.816 M194.769 180.369 C 194.126 181.012,193.600 181.926,193.600 182.400 C 193.600 182.874,194.126 183.788,194.769 184.431 C 196.622 186.284,200.000 184.972,200.000 182.400 C 200.000 181.926,199.474 181.012,198.831 180.369 C 198.188 179.726,197.274 179.200,196.800 179.200 C 196.326 179.200,195.412 179.726,194.769 180.369 M206.229 193.429 C 205.333 194.324,205.966 196.000,207.200 196.000 C 207.644 196.000,208.800 194.844,208.800 194.400 C 208.800 193.956,207.644 192.800,207.200 192.800 C 207.011 192.800,206.574 193.083,206.229 193.429 M180.629 200.629 C 180.283 200.974,180.000 201.411,180.000 201.600 C 180.000 201.789,180.283 202.226,180.629 202.571 C 180.974 202.917,181.411 203.200,181.600 203.200 C 181.789 203.200,182.226 202.917,182.571 202.571 C 182.917 202.226,183.200 201.789,183.200 201.600 C 183.200 201.411,182.917 200.974,182.571 200.629 C 182.226 200.283,181.789 200.000,181.600 200.000 C 181.411 200.000,180.974 200.283,180.629 200.629 " stroke="none" fill="#fafafa" fill-rule="evenodd"></path><path id="path1" d="M0.000 200.000 L 0.000 400.000 200.000 400.000 L 400.000 400.000 400.000 200.000 L 400.000 0.000 200.000 0.000 L 0.000 0.000 0.000 200.000 M100.144 81.555 C 101.221 82.162,188.284 177.818,190.376 180.693 C 191.611 182.390,191.986 186.144,191.097 187.925 L 190.503 189.116 191.937 188.517 C 193.243 187.971,197.066 187.927,198.725 188.438 C 199.076 188.547,200.303 186.153,202.435 181.200 C 208.381 167.386,215.200 154.152,215.200 156.424 C 215.200 157.616,207.494 175.031,202.984 184.032 L 200.378 189.233 201.646 190.300 C 204.515 192.715,205.632 197.930,204.033 201.451 L 203.283 203.101 205.742 202.921 C 208.988 202.683,208.974 202.675,221.207 212.046 C 234.311 222.085,234.219 222.026,237.073 222.270 C 240.183 222.536,242.502 221.342,244.200 218.600 L 245.400 216.663 245.400 184.831 L 245.400 153.000 244.339 151.196 C 242.206 147.567,237.783 146.310,234.041 148.270 L 231.882 149.400 219.944 169.177 C 213.378 180.054,207.813 189.144,207.576 189.377 C 207.094 189.852,207.099 189.841,225.808 150.600 C 233.255 134.980,239.879 121.444,240.528 120.520 C 244.030 115.531,252.248 116.541,254.410 122.226 C 255.103 124.048,306.858 304.978,307.270 307.015 C 308.537 313.296,302.073 318.516,296.094 316.039 C 294.383 315.330,200.574 217.065,199.254 214.598 C 198.116 212.472,198.001 209.531,198.983 207.633 L 199.658 206.328 198.729 206.664 C 197.613 207.068,192.923 207.110,191.800 206.727 C 191.084 206.483,190.380 207.707,185.126 218.327 C 178.980 230.751,175.866 236.400,175.163 236.400 C 174.293 236.400,179.997 223.925,186.028 212.640 L 189.641 205.880 188.443 204.640 C 185.841 201.946,184.859 197.348,186.200 194.138 C 186.530 193.349,186.800 192.644,186.800 192.572 C 186.800 192.500,186.246 192.635,185.569 192.871 C 182.163 194.058,181.613 193.764,168.600 183.825 C 155.752 174.011,156.735 174.615,153.600 174.607 C 150.363 174.598,148.476 175.648,146.896 178.335 L 145.800 180.200 145.800 207.600 L 145.800 235.000 146.896 236.865 C 148.470 239.541,150.360 240.594,153.600 240.597 C 157.839 240.602,158.004 240.433,167.249 226.617 C 175.404 214.430,177.117 212.211,174.749 216.900 C 174.055 218.275,165.219 236.230,155.114 256.800 C 145.009 277.370,136.259 294.711,135.670 295.336 C 131.364 299.906,123.677 297.959,122.041 291.883 C 121.253 288.954,88.400 90.367,88.400 88.530 C 88.400 82.727,95.133 78.728,100.144 81.555 M199.074 180.070 C 201.137 182.008,199.696 185.600,196.856 185.600 C 194.944 185.600,193.600 184.302,193.600 182.456 C 193.600 179.548,196.960 178.083,199.074 180.070 M208.600 194.400 C 208.600 196.194,205.917 196.625,205.668 194.871 C 205.442 193.272,205.878 192.738,207.297 192.874 C 208.496 192.990,208.600 193.112,208.600 194.400 M183.000 201.600 C 183.000 203.394,180.317 203.825,180.068 202.071 C 179.842 200.472,180.278 199.938,181.697 200.074 C 182.896 200.190,183.000 200.312,183.000 201.600 " stroke="none" fill="#1c1c1c" fill-rule="evenodd"></path><path id="path2" d="M203.800 220.000 C 204.659 220.880,205.452 221.600,205.562 221.600 C 205.672 221.600,205.059 220.880,204.200 220.000 C 203.341 219.120,202.548 218.400,202.438 218.400 C 202.328 218.400,202.941 219.120,203.800 220.000 M211.400 228.000 C 212.259 228.880,213.052 229.600,213.162 229.600 C 213.272 229.600,212.659 228.880,211.800 228.000 C 210.941 227.120,210.148 226.400,210.038 226.400 C 209.928 226.400,210.541 227.120,211.400 228.000 M219.400 236.400 C 220.259 237.280,221.052 238.000,221.162 238.000 C 221.272 238.000,220.659 237.280,219.800 236.400 C 218.941 235.520,218.148 234.800,218.038 234.800 C 217.928 234.800,218.541 235.520,219.400 236.400 M152.900 241.076 C 153.285 241.176,153.915 241.176,154.300 241.076 C 154.685 240.975,154.370 240.893,153.600 240.893 C 152.830 240.893,152.515 240.975,152.900 241.076 M227.400 244.800 C 228.259 245.680,229.052 246.400,229.162 246.400 C 229.272 246.400,228.659 245.680,227.800 244.800 C 226.941 243.920,226.148 243.200,226.038 243.200 C 225.928 243.200,226.541 243.920,227.400 244.800 M235.400 253.200 C 236.259 254.080,237.052 254.800,237.162 254.800 C 237.272 254.800,236.659 254.080,235.800 253.200 C 234.941 252.320,234.148 251.600,234.038 251.600 C 233.928 251.600,234.541 252.320,235.400 253.200 M243.000 261.200 C 243.859 262.080,244.652 262.800,244.762 262.800 C 244.872 262.800,244.259 262.080,243.400 261.200 C 242.541 260.320,241.748 259.600,241.638 259.600 C 241.528 259.600,242.141 260.320,243.000 261.200 M251.200 269.800 C 251.946 270.570,252.647 271.200,252.757 271.200 C 252.867 271.200,252.346 270.570,251.600 269.800 C 250.854 269.030,250.153 268.400,250.043 268.400 C 249.933 268.400,250.454 269.030,251.200 269.800 M258.400 277.325 C 258.400 277.394,258.985 277.979,259.700 278.625 L 261.000 279.800 259.825 278.500 C 258.730 277.288,258.400 277.016,258.400 277.325 M266.400 285.725 C 266.400 285.794,266.985 286.379,267.700 287.025 L 269.000 288.200 267.825 286.900 C 266.730 285.688,266.400 285.416,266.400 285.725 M292.783 313.300 C 293.764 314.345,294.619 315.200,294.683 315.200 C 294.984 315.200,294.666 314.841,292.900 313.183 L 291.000 311.400 292.783 313.300 " stroke="none" fill="#8c8c8c" fill-rule="evenodd"></path><path id="path3" d="" stroke="none" fill="#848484" fill-rule="evenodd"></path><path id="path4" d="M207.600 224.200 C 208.346 224.970,209.047 225.600,209.157 225.600 C 209.267 225.600,208.746 224.970,208.000 224.200 C 207.254 223.430,206.553 222.800,206.443 222.800 C 206.333 222.800,206.854 223.430,207.600 224.200 M215.600 232.600 C 216.346 233.370,217.047 234.000,217.157 234.000 C 217.267 234.000,216.746 233.370,216.000 232.600 C 215.254 231.830,214.553 231.200,214.443 231.200 C 214.333 231.200,214.854 231.830,215.600 232.600 M222.800 240.125 C 222.800 240.194,223.385 240.779,224.100 241.425 L 225.400 242.600 224.225 241.300 C 223.130 240.088,222.800 239.816,222.800 240.125 M230.800 248.525 C 230.800 248.594,231.385 249.179,232.100 249.825 L 233.400 251.000 232.225 249.700 C 231.130 248.488,230.800 248.216,230.800 248.525 M129.105 297.883 C 129.602 297.979,130.322 297.975,130.705 297.875 C 131.087 297.775,130.680 297.696,129.800 297.701 C 128.920 297.705,128.607 297.787,129.105 297.883 " stroke="none" fill="#6e6e6e" fill-rule="evenodd"></path></g></svg>