<svg id="svg" version="1.1" xmlns="http://www.w3.org/2000/svg" xmlns:xlink="http://www.w3.org/1999/xlink" width="400" height="371.72932330827064" viewBox="0, 0, 400,371.72932330827064"><g id="svgg"><path id="path0" d="M218.947 69.319 C 205.807 71.940,198.663 86.377,204.509 98.496 C 211.476 112.941,231.951 113.990,240.435 100.336 C 249.887 85.123,236.511 65.815,218.947 69.319 M94.135 123.496 C 41.280 130.641,20.053 195.856,58.633 232.570 C 93.595 265.840,152.114 249.190,164.062 202.572 C 175.274 158.825,138.705 117.472,94.135 123.496 M203.481 124.586 C 203.236 125.455,196.730 150.797,189.022 180.902 C 181.314 211.008,174.730 236.654,174.390 237.895 C 171.799 247.348,165.533 253.394,155.188 256.423 C 153.617 256.883,152.287 257.288,152.234 257.323 C 152.122 257.397,159.657 271.595,160.022 271.996 C 160.405 272.420,165.501 271.368,169.474 270.045 C 181.984 265.880,189.172 258.939,193.795 246.559 C 194.419 244.889,201.186 218.815,209.639 185.506 C 217.755 153.531,224.644 126.387,224.949 125.188 L 225.502 123.008 214.715 123.008 L 203.927 123.008 203.481 124.586 M285.113 123.494 C 236.356 130.050,213.015 187.627,243.576 225.958 C 272.569 262.321,329.581 256.491,350.370 215.038 C 373.183 169.547,335.522 116.716,285.113 123.494 M109.820 144.050 C 144.478 150.049,157.759 192.883,132.545 217.345 C 109.805 239.407,72.152 230.461,61.682 200.508 C 50.966 169.851,77.705 138.490,109.820 144.050 M300.806 144.044 C 335.127 149.911,348.663 192.341,324.062 216.942 C 303.375 237.629,268.758 232.258,255.188 206.256 C 238.839 174.929,265.866 138.070,300.806 144.044 " stroke="none" fill="#fcfbfb" fill-rule="evenodd"></path><path id="path1" d="M0.000 185.865 L 0.000 371.729 200.000 371.729 L 400.000 371.729 400.000 185.865 L 400.000 0.000 200.000 0.000 L 0.000 0.000 0.000 185.865 M227.970 69.362 C 237.704 71.510,244.894 81.779,243.622 91.721 C 241.390 109.172,220.727 116.426,208.391 104.090 C 193.540 89.239,207.315 64.805,227.970 69.362 M111.906 123.447 C 163.397 131.452,184.519 194.356,148.068 231.144 C 112.793 266.745,52.156 250.011,40.452 201.445 C 31.243 163.228,57.505 127.125,97.594 122.891 C 99.902 122.647,109.044 123.003,111.906 123.447 M225.564 123.118 C 225.564 123.982,195.396 242.405,194.448 245.263 C 189.401 260.476,177.998 269.774,161.301 272.292 L 160.046 272.481 157.807 268.346 C 156.576 266.071,154.737 262.640,153.720 260.720 L 151.872 257.229 154.357 256.535 C 163.736 253.916,169.866 248.936,172.968 241.418 C 173.461 240.225,174.940 235.053,176.256 229.925 C 177.572 224.797,179.742 216.338,181.079 211.128 C 182.415 205.917,185.179 195.158,187.219 187.218 C 189.260 179.278,192.108 168.180,193.547 162.556 C 194.987 156.932,197.504 147.120,199.140 140.752 C 200.777 134.383,202.481 127.718,202.927 125.940 L 203.737 122.707 214.651 122.707 C 223.683 122.707,225.564 122.778,225.564 123.118 M299.421 123.026 C 353.203 128.260,376.715 193.650,338.508 231.732 C 301.536 268.583,238.064 247.401,230.359 195.639 C 224.329 155.126,258.634 119.057,299.421 123.026 M98.422 143.780 C 68.910 146.634,50.903 178.159,63.607 204.731 C 78.983 236.892,124.221 237.789,140.593 206.256 C 154.665 179.155,136.796 146.577,106.316 143.764 C 102.675 143.428,102.049 143.430,98.422 143.780 M290.526 143.662 C 259.811 145.892,241.155 179.111,255.361 206.277 C 270.647 235.508,311.574 237.436,329.610 209.774 C 347.122 182.918,329.501 146.788,297.426 143.783 C 294.079 143.469,293.353 143.457,290.526 143.662 " stroke="none" fill="#fc6354" fill-rule="evenodd"></path><path id="path2" d="M202.187 89.323 C 202.187 90.068,202.246 90.372,202.318 90.000 C 202.389 89.628,202.389 89.019,202.318 88.647 C 202.246 88.274,202.187 88.579,202.187 89.323 M100.079 122.919 C 100.453 122.991,100.994 122.989,101.282 122.913 C 101.569 122.838,101.263 122.779,100.602 122.783 C 99.940 122.786,99.705 122.848,100.079 122.919 M204.737 122.924 C 205.274 122.991,206.154 122.991,206.692 122.924 C 207.229 122.858,206.789 122.803,205.714 122.803 C 204.639 122.803,204.199 122.858,204.737 122.924 M210.755 122.919 C 211.129 122.991,211.671 122.989,211.958 122.913 C 212.246 122.838,211.940 122.779,211.278 122.783 C 210.617 122.786,210.381 122.848,210.755 122.919 M213.767 122.927 C 214.475 122.991,215.557 122.990,216.173 122.925 C 216.789 122.861,216.211 122.809,214.887 122.810 C 213.564 122.811,213.060 122.864,213.767 122.927 M220.379 122.919 C 220.754 122.991,221.295 122.989,221.582 122.913 C 221.870 122.838,221.564 122.779,220.902 122.783 C 220.241 122.786,220.005 122.848,220.379 122.919 M223.088 122.925 C 223.629 122.992,224.441 122.990,224.893 122.922 C 225.345 122.853,224.902 122.798,223.910 122.800 C 222.917 122.802,222.548 122.858,223.088 122.925 M291.056 122.919 C 291.430 122.991,291.972 122.989,292.259 122.913 C 292.547 122.838,292.241 122.779,291.579 122.783 C 290.917 122.786,290.682 122.848,291.056 122.919 " stroke="none" fill="#fc948c" fill-rule="evenodd"></path><path id="path3" d="M208.257 74.962 L 207.068 76.241 208.346 75.052 C 209.535 73.946,209.762 73.684,209.535 73.684 C 209.486 73.684,208.910 74.259,208.257 74.962 M236.692 74.079 C 236.692 74.131,237.132 74.571,237.669 75.057 L 238.647 75.940 237.763 74.962 C 236.940 74.051,236.692 73.847,236.692 74.079 M237.578 103.985 L 236.541 105.113 237.669 104.076 C 238.719 103.112,238.935 102.857,238.706 102.857 C 238.655 102.857,238.148 103.365,237.578 103.985 M102.030 122.914 C 102.320 122.990,102.793 122.990,103.083 122.914 C 103.372 122.838,103.135 122.777,102.556 122.777 C 101.977 122.777,101.741 122.838,102.030 122.914 M293.161 122.919 C 293.536 122.991,294.077 122.989,294.364 122.913 C 294.652 122.838,294.346 122.779,293.684 122.783 C 293.023 122.786,292.787 122.848,293.161 122.919 M336.241 139.331 C 336.241 139.376,337.289 140.425,338.571 141.662 L 340.902 143.910 338.654 141.579 C 336.566 139.414,336.241 139.111,336.241 139.331 M147.368 141.504 C 148.434 142.579,149.374 143.459,149.456 143.459 C 149.539 143.459,148.735 142.579,147.669 141.504 C 146.604 140.429,145.664 139.549,145.581 139.549 C 145.499 139.549,146.303 140.429,147.368 141.504 M357.062 183.459 C 357.062 184.038,357.124 184.274,357.200 183.985 C 357.275 183.695,357.275 183.222,357.200 182.932 C 357.124 182.643,357.062 182.880,357.062 183.459 M166.101 184.511 C 166.103 185.338,166.162 185.641,166.231 185.184 C 166.300 184.727,166.298 184.050,166.227 183.680 C 166.155 183.310,166.099 183.684,166.101 184.511 M59.318 184.662 C 59.318 185.241,59.380 185.477,59.455 185.188 C 59.531 184.898,59.531 184.425,59.455 184.135 C 59.380 183.846,59.318 184.083,59.318 184.662 M250.329 186.617 C 250.330 187.940,250.383 188.444,250.446 187.736 C 250.510 187.029,250.509 185.946,250.444 185.330 C 250.380 184.714,250.328 185.293,250.329 186.617 M336.623 186.466 C 336.623 187.211,336.682 187.515,336.754 187.143 C 336.825 186.771,336.825 186.162,336.754 185.789 C 336.682 185.417,336.623 185.722,336.623 186.466 M59.324 188.421 C 59.327 189.083,59.389 189.318,59.461 188.944 C 59.533 188.570,59.530 188.028,59.455 187.741 C 59.379 187.453,59.321 187.759,59.324 188.421 M166.101 188.722 C 166.103 189.549,166.162 189.852,166.231 189.394 C 166.300 188.937,166.298 188.261,166.227 187.891 C 166.155 187.521,166.099 187.895,166.101 188.722 M71.880 216.992 C 72.778 217.902,73.581 218.647,73.664 218.647 C 73.746 218.647,73.079 217.902,72.180 216.992 C 71.282 216.083,70.479 215.338,70.396 215.338 C 70.314 215.338,70.981 216.083,71.880 216.992 M262.845 216.917 C 264.091 218.245,264.361 218.484,264.361 218.258 C 264.361 218.210,263.718 217.567,262.932 216.830 L 261.504 215.489 262.845 216.917 M101.579 229.691 C 102.117 229.758,102.996 229.758,103.534 229.691 C 104.071 229.625,103.632 229.570,102.556 229.570 C 101.481 229.570,101.041 229.625,101.579 229.691 M292.556 229.691 C 293.094 229.758,293.974 229.758,294.511 229.691 C 295.049 229.625,294.609 229.570,293.534 229.570 C 292.459 229.570,292.019 229.625,292.556 229.691 M105.038 250.132 C 105.327 250.208,105.801 250.208,106.090 250.132 C 106.380 250.056,106.143 249.995,105.564 249.995 C 104.985 249.995,104.748 250.056,105.038 250.132 M296.015 250.132 C 296.305 250.208,296.778 250.208,297.068 250.132 C 297.357 250.056,297.120 249.995,296.541 249.995 C 295.962 249.995,295.726 250.056,296.015 250.132 " stroke="none" fill="#fca49e" fill-rule="evenodd"></path><path id="path4" d="M243.685 89.474 C 243.688 90.135,243.750 90.371,243.822 89.996 C 243.894 89.622,243.891 89.081,243.816 88.793 C 243.740 88.506,243.682 88.812,243.685 89.474 M57.143 141.504 C 56.412 142.248,55.882 142.857,55.965 142.857 C 56.048 142.857,56.713 142.248,57.444 141.504 C 58.174 140.759,58.704 140.150,58.621 140.150 C 58.539 140.150,57.873 140.759,57.143 141.504 M262.847 156.316 L 261.203 158.045 262.932 156.401 C 264.539 154.874,264.799 154.586,264.576 154.586 C 264.529 154.586,263.751 155.365,262.847 156.316 M323.759 156.090 C 324.405 156.752,325.002 157.293,325.084 157.293 C 325.167 157.293,324.706 156.752,324.060 156.090 C 323.414 155.429,322.818 154.887,322.735 154.887 C 322.652 154.887,323.113 155.429,323.759 156.090 M54.436 228.666 C 54.436 228.717,54.876 229.157,55.414 229.643 L 56.391 230.526 55.508 229.549 C 54.684 228.638,54.436 228.433,54.436 228.666 M246.316 229.556 C 246.316 229.602,247.365 230.651,248.647 231.887 L 250.977 234.135 248.729 231.805 C 246.641 229.640,246.316 229.336,246.316 229.556 M338.487 231.654 L 336.692 233.534 338.571 231.739 C 340.318 230.071,340.589 229.774,340.367 229.774 C 340.320 229.774,339.474 230.620,338.487 231.654 M147.505 231.654 L 146.316 232.932 147.594 231.743 C 148.783 230.638,149.010 230.376,148.783 230.376 C 148.734 230.376,148.159 230.951,147.505 231.654 " stroke="none" fill="#fc756d" fill-rule="evenodd"></path></g></svg>