<?xml version="1.0" standalone="no"?>
<!DOCTYPE svg PUBLIC "-//W3C//DTD SVG 20010904//EN"
 "http://www.w3.org/TR/2001/REC-SVG-20010904/DTD/svg10.dtd">
<svg version="1.0" xmlns="http://www.w3.org/2000/svg"
 width="400.000000pt" height="400.000000pt" viewBox="0 0 400.000000 400.000000"
 preserveAspectRatio="xMidYMid meet">

<g transform="translate(0.000000,400.000000) scale(0.100000,-0.100000)"
fill="#000000" stroke="none">
<path d="M3 3742 l2 -257 37 -3 c26 -2 35 -7 32 -17 -3 -7 9 -24 28 -38 37
-28 135 -80 156 -84 8 -1 16 -3 18 -5 3 -4 -144 -231 -168 -258 -7 -8 -13 -19
-13 -25 0 -5 -4 -20 -8 -32 l-8 -22 -20 20 c-11 11 -27 18 -35 15 -8 -3 -14
-1 -14 5 0 5 14 15 32 21 l31 11 -27 24 c-15 12 -31 23 -36 23 -6 0 -9 -130
-9 -317 1 -175 3 -309 6 -298 2 11 25 83 50 160 144 441 447 834 838 1090 129
84 302 171 430 216 l80 27 -162 1 c-89 1 -163 -3 -165 -7 -4 -10 -170 -92
-187 -92 -6 0 -11 3 -11 8 0 12 -40 33 -51 26 -6 -4 -2 -14 11 -26 25 -23 23
-46 -5 -62 -11 -6 -39 -23 -62 -38 -23 -16 -45 -28 -49 -28 -4 0 -16 -8 -26
-17 -19 -17 -61 -26 -52 -11 3 4 -4 8 -15 8 -14 0 -21 -6 -21 -18 0 -18 -29
-52 -43 -52 -4 0 -7 7 -7 17 0 14 -3 13 -17 -4 -10 -11 -29 -22 -41 -26 -20
-5 -23 -2 -19 14 7 26 -29 26 -45 -1 -14 -22 -25 -24 -47 -11 -12 8 -12 12 2
25 8 9 24 16 34 16 10 0 34 14 52 31 27 24 31 33 20 39 -7 5 -14 23 -15 40 -3
53 -21 60 -54 20 -17 -19 -35 -41 -40 -47 -8 -10 -7 -13 5 -13 8 0 15 6 15 13
0 18 57 50 65 37 3 -5 1 -10 -5 -10 -7 0 -10 -6 -7 -14 6 -15 -54 -86 -72 -86
-10 0 -15 13 -13 31 1 3 -10 12 -24 19 -13 8 -23 21 -22 29 2 11 -4 15 -19 14
-13 -2 -23 2 -23 7 0 6 -6 10 -14 10 -7 0 -19 7 -26 15 -12 14 -15 14 -31 -1
-13 -12 -19 -13 -19 -4 0 8 -9 11 -25 8 -22 -5 -25 -1 -31 30 -11 59 20 88 54
51 11 -11 25 -18 31 -14 6 3 11 1 11 -4 0 -6 -7 -11 -15 -11 -8 0 -15 -4 -15
-10 0 -19 29 -10 36 12 5 16 1 27 -15 39 -32 26 -26 37 22 41 23 2 -24 5 -105
6 l-148 2 3 -258z m237 88 c0 -5 -4 -10 -10 -10 -5 0 -10 5 -10 10 0 6 5 10
10 10 6 0 10 -4 10 -10z m208 -188 c2 -7 -3 -12 -12 -12 -9 0 -16 7 -16 16 0
17 22 14 28 -4z m2 -35 c0 -2 -9 -12 -20 -22 -17 -16 -20 -16 -20 -2 0 8 8 18
18 20 9 3 18 5 20 6 1 0 2 -1 2 -2z m-35 -77 c3 -5 1 -10 -4 -10 -6 0 -11 5
-11 10 0 6 2 10 4 10 3 0 8 -4 11 -10z"/>
<path d="M2770 3961 c389 -140 758 -433 998 -792 72 -108 167 -288 208 -394
l23 -60 -1 233 c0 183 -3 232 -13 232 -8 0 -19 2 -27 5 -7 2 -22 -2 -32 -10
-16 -12 -17 -18 -8 -27 7 -7 12 -16 12 -21 0 -5 -9 2 -20 16 -18 23 -29 60
-14 44 7 -7 64 52 64 66 0 4 -6 7 -14 7 -7 0 -16 9 -19 20 -4 16 -13 19 -56
17 -58 -2 -55 -5 -173 138 -50 61 -62 81 -48 81 10 0 18 -3 18 -6 -2 -20 4
-29 16 -24 8 3 17 0 21 -6 8 -13 65 -5 117 17 36 15 55 43 44 62 -3 5 3 11 14
14 28 7 26 43 -2 51 -21 6 -22 7 -6 20 20 15 14 26 -14 26 -10 0 -18 5 -18 11
0 5 6 7 13 3 9 -5 9 -4 0 6 -10 10 -15 11 -27 1 -12 -10 -16 -8 -21 9 -3 11
-11 18 -16 15 -5 -4 -9 -1 -9 5 0 6 -4 9 -9 6 -4 -3 -17 4 -27 15 l-18 20 -10
-23 c-11 -27 -13 -34 -15 -49 0 -5 -5 -8 -10 -4 -5 3 -13 0 -17 -6 -4 -8 -3
-9 4 -5 8 5 12 -2 12 -18 0 -29 -3 -30 -31 -15 -32 17 -59 2 -59 -32 0 -17 5
-40 11 -51 18 -34 7 -26 -145 111 -38 34 -89 76 -112 93 -36 26 -43 35 -38 55
7 25 -13 32 -33 12 -7 -7 -15 -6 -26 5 -9 9 -21 16 -27 16 -7 0 -10 7 -6 15 4
10 -1 14 -17 12 -17 -1 -21 3 -19 17 3 14 -1 17 -12 13 -9 -4 -16 -2 -16 3 0
5 -6 7 -14 4 -8 -3 -55 15 -105 40 l-91 46 -142 -1 -143 0 105 -38z m1015
-281 c-3 -5 -11 -10 -16 -10 -6 0 -7 5 -4 10 3 6 11 10 16 10 6 0 7 -4 4 -10z
m60 -141 c11 -16 1 -19 -13 -3 -7 8 -8 14 -3 14 5 0 13 -5 16 -11z m5 -270 c0
11 4 10 19 -3 11 -10 23 -16 28 -13 4 3 9 -8 10 -25 2 -25 -1 -29 -20 -26 -15
2 -22 10 -22 25 0 13 -5 23 -10 24 -15 1 -35 20 -35 32 0 6 7 2 15 -9 10 -13
14 -15 15 -5z m130 -203 c0 -3 -4 -8 -10 -11 -5 -3 -10 -1 -10 4 0 6 5 11 10
11 6 0 10 -2 10 -4z m8 -51 c-3 -3 -9 2 -12 12 -6 14 -5 15 5 6 7 -7 10 -15 7
-18z"/>
<path d="M3170 3996 c0 -2 6 -9 14 -15 10 -9 16 -8 26 4 11 13 8 15 -14 15
-14 0 -26 -2 -26 -4z"/>
<path d="M3276 3978 c-18 -21 -18 -22 3 -39 13 -10 20 -23 17 -28 -3 -5 1 -14
9 -21 8 -7 15 -19 15 -26 0 -16 26 -19 35 -3 4 6 14 8 22 4 24 -8 55 5 49 21
-3 7 2 17 10 22 18 10 15 43 -4 50 -7 2 -16 -5 -19 -16 -5 -19 -53 -50 -53
-33 0 4 -11 14 -25 21 -30 16 -33 40 -5 47 11 3 17 9 14 14 -10 17 -49 9 -68
-13z"/>
<path d="M3366 3986 c3 -8 0 -17 -6 -21 -8 -5 -5 -11 7 -21 22 -16 33 -18 33
-3 0 6 6 17 14 25 8 8 19 14 25 14 6 0 11 5 11 10 0 6 -20 10 -45 10 -34 0
-43 -3 -39 -14z"/>
<path d="M3590 3990 c-9 -6 -10 -10 -3 -10 6 0 15 5 18 10 8 12 4 12 -15 0z"/>
<path d="M3745 3990 c3 -5 8 -10 11 -10 2 0 4 5 4 10 0 6 -5 10 -11 10 -5 0
-7 -4 -4 -10z"/>
<path d="M3775 3990 c-3 -5 0 -10 8 -10 8 0 17 -7 21 -15 3 -8 12 -12 21 -9
12 5 11 10 -9 25 -28 22 -32 23 -41 9z"/>
<path d="M3850 3986 c0 -7 9 -16 19 -19 17 -4 18 -2 8 14 -14 22 -27 25 -27 5z"/>
<path d="M3890 3992 c0 -4 7 -17 15 -29 18 -26 11 -31 -32 -28 -35 3 -35 -11
-1 -24 18 -6 18 -8 3 -21 -14 -12 -17 -10 -22 8 -3 12 -12 22 -20 22 -8 0 -11
5 -8 10 8 13 -31 13 -57 -1 -16 -9 -19 -8 -13 1 6 10 1 11 -19 6 -26 -6 -37 7
-13 18 6 3 1 3 -13 0 -30 -8 -43 -25 -30 -38 16 -16 12 -21 -19 -21 -19 0 -27
4 -24 13 3 6 9 12 14 12 6 0 6 8 0 19 -11 20 -51 36 -51 20 0 -5 -8 -9 -17 -9
-15 0 -15 -2 -4 -9 11 -7 10 -10 -5 -14 -12 -3 -7 -5 12 -6 27 -1 32 -5 32
-26 0 -14 2 -28 4 -31 10 -10 68 -23 63 -13 -3 5 2 18 13 29 18 20 18 20 50
-8 18 -16 32 -36 32 -45 0 -10 7 -17 16 -17 15 0 44 -22 44 -34 0 -10 48 -56
59 -56 19 0 12 22 -10 27 -11 3 -18 11 -15 19 3 7 1 16 -5 20 -6 3 -8 12 -5
20 4 11 0 13 -18 8 -16 -4 -25 0 -30 11 -3 10 -11 13 -18 9 -9 -5 -8 -2 1 9
12 15 16 16 30 3 11 -10 21 -12 34 -5 9 6 22 7 27 4 6 -3 10 -1 10 4 0 8 6 7
19 -1 15 -9 23 -9 34 1 10 8 17 9 22 1 3 -5 -1 -10 -9 -10 -18 0 -22 -25 -6
-35 6 -4 7 -12 4 -18 -5 -9 -4 -9 5 -1 6 5 12 29 14 51 1 23 6 45 10 49 9 10
9 24 0 23 -14 -2 -53 13 -53 20 0 4 5 12 12 19 8 8 5 14 -15 21 -15 6 -27 15
-27 21 0 5 -4 10 -10 10 -5 0 -10 -3 -10 -8z m-70 -91 c0 -5 -7 -14 -15 -21
-18 -15 -42 1 -31 19 8 13 46 15 46 2z m124 -10 c3 -5 -1 -12 -10 -15 -20 -8
-29 -1 -19 13 8 13 22 14 29 2z"/>
<path d="M966 3981 c-3 -5 5 -8 19 -8 14 0 22 3 19 8 -3 5 -11 9 -19 9 -8 0
-16 -4 -19 -9z"/>
<path d="M3660 3975 c0 -8 5 -15 10 -15 6 0 10 7 10 15 0 8 -4 15 -10 15 -5 0
-10 -7 -10 -15z"/>
<path d="M835 3971 c3 -6 19 -16 35 -25 32 -16 49 -6 25 14 -8 7 -15 10 -15 6
0 -3 -12 -1 -26 4 -15 6 -23 6 -19 1z"/>
<path d="M300 3959 c0 -5 5 -7 10 -4 6 3 10 8 10 11 0 2 -4 4 -10 4 -5 0 -10
-5 -10 -11z"/>
<path d="M3535 3960 c-3 -5 -1 -10 4 -10 6 0 11 5 11 10 0 6 -2 10 -4 10 -3 0
-8 -4 -11 -10z"/>
<path d="M550 3930 c0 -5 7 -10 15 -10 8 0 15 5 15 10 0 6 -7 10 -15 10 -8 0
-15 -4 -15 -10z"/>
<path d="M3158 3928 c9 -9 15 -9 24 0 9 9 7 12 -12 12 -19 0 -21 -3 -12 -12z"/>
<path d="M272 3918 c5 -15 28 -23 28 -10 0 5 -7 13 -16 16 -10 4 -14 1 -12 -6z"/>
<path d="M326 3905 c4 -8 10 -15 14 -15 5 0 11 -8 13 -17 4 -14 5 -13 6 4 1
13 -7 27 -19 33 -16 9 -18 8 -14 -5z"/>
<path d="M777 3899 c-23 -13 -13 -29 19 -29 26 0 27 1 18 24 -7 18 -12 19 -37
5z"/>
<path d="M1823 3878 c-10 -17 -10 -15 -13 -120 -3 -83 -4 -87 -9 -38 l-6 55
-27 -42 c-35 -53 -39 -70 -42 -184 -2 -52 -6 -102 -11 -111 -6 -15 -2 -18 29
-18 35 0 42 8 37 46 -1 6 6 17 14 24 8 7 15 9 16 4 0 -5 0 -63 0 -129 0 -66 3
-150 7 -187 4 -37 5 -65 2 -63 -4 2 -7 -33 -8 -77 -1 -45 -3 -82 -5 -84 -1 -1
-14 -5 -28 -7 -35 -7 -214 -91 -264 -125 -218 -146 -385 -351 -461 -564 -21
-60 -45 -163 -47 -202 -1 -25 -6 -35 -17 -33 -10 1 -14 -5 -13 -21 2 -13 -1
-21 -7 -17 -6 3 -10 -1 -10 -9 0 -14 12 -20 33 -17 4 0 7 -8 7 -19 0 -11 -5
-19 -11 -18 -17 4 -41 -73 -36 -117 10 -85 36 -251 42 -267 5 -13 2 -18 -9
-18 -19 0 -20 -3 -2 -62 15 -47 34 -89 45 -98 3 -3 17 -25 30 -50 57 -106 165
-242 240 -303 11 -9 34 -17 49 -17 22 0 33 10 60 52 38 63 43 46 5 -19 -26
-45 -26 -45 -8 -80 17 -32 70 -66 101 -66 8 0 12 -3 9 -6 -8 -7 100 -51 153
-61 55 -10 70 -4 132 55 25 24 54 45 65 47 17 3 21 15 29 84 12 114 3 129 -99
165 -108 38 -137 54 -225 120 -88 67 -133 113 -185 189 -20 30 -41 54 -47 52
-5 -1 -8 3 -6 10 1 7 -12 50 -30 96 -91 234 -84 449 24 665 36 75 60 105 141
186 106 105 201 169 320 216 40 15 80 36 89 46 18 20 17 1 17 389 -1 146 0
369 1 496 1 183 -2 234 -13 247 -16 20 -47 22 -58 5z m-16 -240 c-3 -8 -6 -5
-6 6 -1 11 2 17 5 13 3 -3 4 -12 1 -19z m70 -30 c-3 -8 -6 -5 -6 6 -1 11 2 17
5 13 3 -3 4 -12 1 -19z m-56 -13 c5 4 9 -3 9 -13 0 -11 -6 -22 -13 -25 -9 -3
-13 6 -13 32 -1 20 1 28 3 18 3 -9 9 -15 14 -12z m-616 -2054 c3 -5 1 -12 -5
-16 -5 -3 -10 1 -10 9 0 18 6 21 15 7z m152 -298 c-3 -10 -5 -4 -5 12 0 17 2
24 5 18 2 -7 2 -21 0 -30z"/>
<path d="M670 3873 c0 -5 4 -15 10 -23 11 -18 25 -7 17 15 -6 15 -27 21 -27 8z"/>
<path d="M3348 3815 c-5 -22 -2 -25 23 -25 30 0 38 17 17 38 -19 19 -35 14
-40 -13z"/>
<path d="M550 3786 c0 -9 7 -12 20 -9 31 8 34 23 6 23 -16 0 -26 -6 -26 -14z"/>
<path d="M3570 3790 c0 -5 7 -10 15 -10 8 0 15 5 15 10 0 6 -7 10 -15 10 -8 0
-15 -4 -15 -10z"/>
<path d="M3940 3747 c0 -6 42 -27 56 -27 2 0 4 9 4 20 0 15 -6 19 -30 17 -16
-1 -30 -5 -30 -10z"/>
<path d="M3974 3685 c-16 -12 -17 -14 -2 -15 9 0 19 -6 21 -12 3 -7 6 -1 6 15
1 31 1 32 -25 12z"/>
<path d="M3972 3608 c-17 -17 -15 -35 4 -42 23 -9 24 -8 24 18 0 30 -12 40
-28 24z"/>
<path d="M3890 3526 c0 -2 7 -7 16 -10 8 -3 12 -2 9 4 -6 10 -25 14 -25 6z"/>
<path d="M3930 3490 c0 -5 4 -10 10 -10 5 0 7 -14 4 -32 l-5 -33 19 35 c10 19
17 38 15 43 -6 11 -43 9 -43 -3z"/>
<path d="M3850 3465 c0 -8 7 -15 15 -15 8 0 15 7 15 15 0 8 -7 15 -15 15 -8 0
-15 -7 -15 -15z"/>
<path d="M3991 3444 c0 -11 3 -14 6 -6 3 7 2 16 -1 19 -3 4 -6 -2 -5 -13z"/>
<path d="M3730 3420 c0 -6 7 -10 15 -10 8 0 15 2 15 4 0 2 -7 6 -15 10 -8 3
-15 1 -15 -4z"/>
<path d="M3880 3400 c-8 -5 -11 -12 -7 -16 4 -4 15 0 24 9 18 18 8 23 -17 7z"/>
<path d="M3959 3384 c-8 -10 -9 -18 -2 -25 12 -12 43 -1 43 16 0 20 -27 26
-41 9z"/>
<path d="M1744 3365 c-4 -17 1 -35 15 -57 l22 -33 -3 48 c-2 26 1 47 5 47 5 0
5 5 2 10 -11 19 -35 10 -41 -15z"/>
<path d="M3790 3342 c0 -12 19 -26 26 -19 2 2 -2 10 -11 17 -9 8 -15 8 -15 2z"/>
<path d="M3966 3324 c-9 -22 -8 -23 14 -17 23 6 26 19 6 26 -8 3 -17 -1 -20
-9z"/>
<path d="M3985 3249 c-4 -18 -3 -35 4 -42 8 -8 11 0 11 31 0 50 -6 54 -15 11z"/>
<path d="M0 3151 c0 -12 5 -21 10 -21 6 0 10 6 10 14 0 8 -4 18 -10 21 -5 3
-10 -3 -10 -14z"/>
<path d="M1727 3023 c4 -10 12 -28 19 -41 11 -21 13 -22 28 -7 19 19 19 21 6
46 -14 25 -62 27 -53 2z"/>
<path d="M2241 2908 c-21 -103 1 -249 24 -161 6 25 8 26 14 9 11 -29 19 0 18
56 -1 26 2 44 6 41 5 -3 7 3 6 13 -2 11 0 32 5 48 8 32 -4 46 -41 46 -18 0
-23 -8 -32 -52z"/>
<path d="M2331 2909 c-7 -12 -10 -23 -8 -26 3 -3 11 5 17 17 15 28 8 35 -9 9z"/>
<path d="M2410 2886 c0 -14 5 -26 10 -26 6 0 10 9 10 19 0 11 -4 23 -10 26 -6
4 -10 -5 -10 -19z"/>
<path d="M2440 2899 c0 -5 5 -7 10 -4 6 3 10 8 10 11 0 2 -4 4 -10 4 -5 0 -10
-5 -10 -11z"/>
<path d="M2467 2886 c-3 -7 -1 -19 4 -27 5 -8 9 -28 9 -46 0 -17 5 -35 10 -38
6 -3 10 5 10 18 0 14 7 27 15 31 8 3 14 16 14 28 -1 17 -2 18 -6 6 -5 -19 -23
-25 -23 -7 0 5 -4 7 -10 4 -13 -8 -13 8 1 22 7 7 6 12 -5 16 -8 3 -17 0 -19
-7z"/>
<path d="M2316 2852 c-2 -4 -1 -14 5 -22 7 -12 9 -10 9 8 0 23 -5 28 -14 14z"/>
<path d="M2450 2791 c0 -6 4 -13 10 -16 6 -3 7 1 4 9 -7 18 -14 21 -14 7z"/>
<path d="M2151 2764 c-16 -37 -16 -171 1 -191 36 -44 139 -49 168 -9 33 45 46
107 19 90 -5 -3 -16 2 -25 10 -8 9 -22 16 -29 16 -19 0 -52 37 -72 78 -18 39
-45 42 -62 6z"/>
<path d="M2621 2711 c-9 -6 -10 -14 -5 -22 9 -14 10 -21 13 -84 1 -22 4 -26
10 -16 5 8 7 20 5 26 -3 7 2 15 10 18 9 4 16 14 15 24 0 11 -3 13 -6 6 -2 -7
-10 -13 -16 -13 -16 0 -18 53 -4 62 7 4 8 8 2 8 -5 0 -16 -4 -24 -9z"/>
<path d="M1810 2683 c-49 -17 -144 -70 -170 -96 -33 -32 -34 -35 -21 -55 12
-20 98 26 152 83 38 40 66 77 57 74 -2 0 -10 -3 -18 -6z"/>
<path d="M2373 2617 c-28 -32 -53 -74 -53 -89 1 -16 55 -70 96 -94 57 -35 145
-118 200 -191 30 -39 54 -74 54 -77 0 -3 11 -29 24 -58 13 -29 31 -74 41 -100
16 -47 17 -48 61 -48 43 0 44 1 44 33 0 86 -73 318 -109 347 -3 3 -15 22 -26
43 -34 64 -183 205 -225 212 -3 1 -24 11 -46 22 l-41 22 -20 -22z"/>
<path d="M2840 2591 c0 -25 6 -27 13 -6 4 8 2 17 -3 20 -6 4 -10 -3 -10 -14z"/>
<path d="M2530 2593 c0 -5 13 -16 29 -26 16 -9 53 -43 83 -75 151 -164 221
-343 221 -572 1 -117 -2 -131 -32 -215 -18 -49 -32 -101 -32 -115 1 -20 -1
-22 -10 -10 -8 12 -9 10 -4 -9 4 -13 3 -26 -2 -30 -4 -3 -21 -26 -37 -51 -39
-60 -118 -143 -189 -197 -66 -51 -203 -126 -263 -143 -28 -8 -46 -21 -53 -37
-8 -17 -11 -168 -11 -489 0 -416 -2 -463 -16 -450 -9 9 -18 47 -23 91 -5 42
-11 78 -14 81 -3 3 -10 -32 -17 -78 -13 -93 -11 -190 6 -195 6 -2 23 8 39 21
21 18 36 23 57 19 58 -12 58 -14 58 367 0 369 3 415 28 405 8 -3 21 0 28 6 8
6 14 8 14 5 0 -4 7 0 16 8 8 9 23 16 31 16 9 0 13 3 9 7 -7 8 67 56 104 68 40
12 169 113 248 193 223 228 349 570 313 852 -20 163 -61 279 -148 418 -34 56
-48 71 -55 60 -8 -10 -9 -9 -5 4 3 9 -1 24 -8 35 -12 14 -15 15 -16 3 -1 -8
-3 -19 -3 -25 -4 -24 -28 -55 -44 -55 -15 -1 -15 -2 2 -15 20 -15 12 -40 -11
-31 -8 3 -11 1 -8 -5 9 -13 -14 -41 -27 -33 -6 4 -5 -2 1 -14 18 -33 13 -35
-15 -5 -14 15 -29 28 -34 28 -11 0 -90 102 -84 109 2 3 1 4 -3 1 -3 -3 -27 12
-52 32 -69 55 -71 56 -71 46z m340 -209 c0 -8 -4 -12 -10 -9 -5 3 -10 10 -10
16 0 5 5 9 10 9 6 0 10 -7 10 -16z m34 -29 c-4 -8 -8 -15 -10 -15 -2 0 -4 7
-4 15 0 8 4 15 10 15 5 0 7 -7 4 -15z m47 -267 c24 -58 24 -61 -2 -53 -14 5
-19 3 -15 -3 4 -6 0 -26 -9 -44 -8 -18 -13 -25 -10 -15 2 9 0 17 -5 17 -6 0
-10 -21 -10 -46 0 -25 -4 -43 -9 -40 -10 6 -7 82 4 117 4 11 1 26 -5 34 -6 8
-8 20 -4 26 4 8 3 9 -4 5 -8 -5 -12 0 -12 13 0 12 7 21 15 21 8 0 15 6 15 14
0 17 24 27 28 12 2 -6 12 -32 23 -58z m35 45 c-10 -10 -19 5 -10 18 6 11 8 11
12 0 2 -7 1 -15 -2 -18z"/>
<path d="M2806 2587 c3 -10 9 -15 12 -12 3 3 0 11 -7 18 -10 9 -11 8 -5 -6z"/>
<path d="M2650 2578 c0 -9 5 -20 10 -23 13 -8 13 5 0 25 -8 13 -10 13 -10 -2z"/>
<path d="M2787 1784 c-9 -9 -9 -49 -1 -57 10 -10 36 22 32 40 -3 18 -20 27
-31 17z"/>
<path d="M1 768 l-1 -768 738 1 737 1 -110 38 c-524 182 -950 550 -1190 1031
-67 132 -123 277 -156 399 -17 63 -17 46 -18 -702z"/>
<path d="M3975 1258 c-32 -93 -135 -288 -208 -397 -90 -135 -235 -300 -356
-408 -182 -161 -435 -312 -639 -384 -48 -17 -100 -37 -117 -44 -16 -7 -37 -15
-45 -18 -8 -3 66 -6 165 -5 99 0 185 3 192 5 7 3 13 13 13 22 0 12 26 31 76
56 41 21 96 53 122 72 52 37 62 40 62 18 0 -8 -4 -15 -10 -15 -13 0 -13 -101
0 -134 l10 -26 294 0 c256 0 295 2 300 15 5 13 10 14 27 4 18 -9 24 -8 31 5 5
9 15 16 22 16 16 0 42 57 32 68 -4 3 -21 -1 -38 -11 -30 -17 -31 -17 -17 0 8
10 22 26 33 35 13 12 16 22 9 30 -13 18 -14 60 -1 75 8 10 5 13 -11 13 -13 0
-29 13 -43 35 -23 35 -58 47 -58 20 0 -8 5 -15 12 -15 9 0 9 -3 1 -11 -6 -6
-16 -8 -22 -5 -14 9 -14 46 0 46 6 0 9 12 7 28 -2 20 -9 28 -28 30 -13 2 -32
13 -41 23 -20 23 -33 25 -25 4 6 -18 -25 -21 -54 -5 -11 6 -28 6 -42 1 -18 -7
-28 -3 -45 16 -17 18 -23 20 -23 9 0 -9 -7 -16 -16 -16 -18 0 -12 12 27 55 15
17 46 51 69 77 23 26 46 45 52 42 5 -3 16 0 24 7 12 10 13 9 8 -5 -3 -9 -1
-17 5 -17 35 -4 75 -20 96 -39 11 -10 34 -21 50 -24 30 -6 85 -54 85 -74 0 -5
9 -17 20 -27 l21 -19 -3 125 c-3 119 -4 124 -25 127 -12 2 -25 12 -28 23 -8
24 -43 33 -78 20 -23 -9 -29 -8 -34 5 -5 14 -9 13 -24 -7 l-18 -24 6 24 c4 17
3 22 -5 17 -8 -5 -10 -2 -6 8 7 19 27 20 55 4 17 -11 22 -10 34 6 10 14 21 17
42 12 19 -5 24 -4 14 3 -12 7 -12 13 -3 24 10 11 7 16 -12 25 -13 6 -35 8 -47
5 -24 -6 -24 -6 -6 15 11 11 17 25 13 30 -6 10 30 73 41 71 19 -3 53 15 50 25
-3 6 -10 10 -16 9 -6 -2 -11 4 -11 12 0 19 9 19 31 -1 17 -15 17 -18 2 -40 -8
-13 -19 -21 -24 -18 -12 7 -49 -14 -49 -29 0 -9 2 -9 8 0 5 8 13 9 22 3 22
-14 40 -12 40 5 0 8 7 15 15 15 8 0 15 7 15 15 0 24 -24 95 -32 95 -4 0 -5 7
-2 15 5 12 10 13 19 5 11 -9 14 18 14 144 1 86 0 156 -2 156 -2 0 -11 -24 -22
-52z m-495 -1102 c0 -3 -4 -8 -10 -11 -5 -3 -10 -1 -10 4 0 6 5 11 10 11 6 0
10 -2 10 -4z m60 -6 c0 -5 -4 -10 -10 -10 -5 0 -10 5 -10 10 0 6 5 10 10 10 6
0 10 -4 10 -10z m248 -18 c2 -7 -3 -12 -12 -12 -9 0 -16 7 -16 16 0 17 22 14
28 -4z m-122 -13 c11 -19 -13 -34 -31 -19 -13 11 -13 15 -3 21 18 12 26 11 34
-2z m164 -9 c0 -5 -5 -10 -11 -10 -5 0 -7 5 -4 10 3 6 8 10 11 10 2 0 4 -4 4
-10z m-41 -76 c3 -3 0 -9 -6 -15 -15 -15 -43 -4 -43 16 0 12 6 15 23 9 12 -3
24 -8 26 -10z"/>
<path d="M2170 971 c-14 -36 -6 -81 15 -81 11 0 13 11 10 51 -5 63 -9 68 -25
30z"/>
<path d="M2128 803 c-4 -146 6 -273 23 -284 22 -13 47 3 53 33 3 17 6 86 6
155 0 137 -12 173 -56 173 -23 0 -24 -3 -26 -77z"/>
<path d="M3968 824 c-3 -3 -4 -22 -1 -43 3 -23 1 -41 -6 -45 -6 -4 -11 -12
-11 -18 0 -7 5 -6 15 2 12 10 16 8 24 -11 8 -19 10 -12 10 37 1 40 -4 65 -12
73 -8 6 -16 8 -19 5z"/>
<path d="M2157 433 c-2 -5 0 -21 4 -38 7 -29 7 -28 6 8 -1 38 -3 43 -10 30z"/>
</g>
</svg>
